<svg width="81" height="81" viewBox="0 0 81 81" fill="none" xmlns="http://www.w3.org/2000/svg">
<path d="M21.0215 26.0947H59.9712V29.341H21.0215V26.0947Z" fill="white"/>
<path d="M16.1553 56.9301C12.5703 56.9301 9.66406 54.0237 9.66406 50.4383V32.5865C9.66406 29.0009 12.5703 26.0947 16.1553 26.0947C19.7409 26.0947 22.6471 29.0009 22.6471 32.5865V50.4383C22.6471 54.0237 19.7409 56.9301 16.1553 56.9301ZM16.1553 29.341C14.3628 29.341 12.9097 30.7941 12.9097 32.5865V50.4383C12.9097 52.2307 14.3628 53.6843 16.1553 53.6843C17.9484 53.6843 19.4015 52.2307 19.4015 50.4383V32.5865C19.4015 30.7941 17.9484 29.341 16.1553 29.341Z" fill="white"/>
<path d="M64.8409 56.9301C61.2558 56.9301 58.3496 54.0237 58.3496 50.4383V32.5865C58.3496 29.0009 61.2558 26.0947 64.8409 26.0947C68.4264 26.0947 71.3327 29.0009 71.3327 32.5865V50.4383C71.3327 54.0237 68.4264 56.9301 64.8409 56.9301ZM64.8409 29.341C63.0485 29.341 61.5952 30.7941 61.5952 32.5865V50.4383C61.5952 52.2307 63.0485 53.6843 64.8409 53.6843C66.6339 53.6843 68.087 52.2307 68.087 50.4383V32.5865C68.087 30.7941 66.6339 29.341 64.8409 29.341Z" fill="white"/>
<path d="M48.6186 78.0271C45.033 78.0271 42.1268 75.1202 42.1268 71.5353V63.421H38.881V71.5353C38.881 75.1202 35.9748 78.0271 32.3892 78.0271C28.8043 78.0271 25.8974 75.1202 25.8974 71.5353V63.421H24.275C21.5857 63.421 19.4062 61.2409 19.4062 58.5522V27.7169C19.4062 16.0652 28.8519 6.61899 40.5035 6.61899C52.1559 6.61899 61.6015 16.0652 61.6015 27.7169V58.5522C61.6015 61.2409 59.4216 63.421 56.7327 63.421H55.1097V71.5353C55.1097 75.1202 52.2035 78.0271 48.6186 78.0271ZM35.6349 60.1747H45.3723V71.5353C45.3723 73.3278 46.8259 74.7809 48.6186 74.7809C50.411 74.7809 51.8641 73.3278 51.8641 71.5353V60.1747H56.7327C57.629 60.1747 58.3559 59.4484 58.3559 58.5522V27.7169C58.3559 17.8576 50.3634 9.8652 40.5035 9.8652C30.6443 9.8652 22.6518 17.8576 22.6518 27.7169V58.5522C22.6518 59.4484 23.3788 60.1747 24.275 60.1747H29.1436V71.5353C29.1436 73.3278 30.5967 74.7809 32.3892 74.7809C34.1818 74.7809 35.6349 73.3278 35.6349 71.5353V60.1747Z" fill="white"/>
<path d="M34.0097 17.98H30.7637V21.2255H34.0097V17.98Z" fill="white"/>
<path d="M50.2378 17.98H46.9922V21.2255H50.2378V17.98Z" fill="white"/>
<path d="M25.3711 4.83082L28.0645 3.02051L32.56 9.71021L29.8659 11.5205L25.3711 4.83082Z" fill="white"/>
<path d="M48.4043 9.65799L52.8963 2.97363L55.5915 4.78513L51.0996 11.4695L48.4043 9.65799Z" fill="white"/>
</svg>
