<svg width="45" height="27" viewBox="0 0 45 27" fill="none" xmlns="http://www.w3.org/2000/svg">
<path d="M44.2382 15.4525L34.7472 25.9526C34.1215 26.644 33.2349 27 32.3435 27C31.6152 27 30.8829 26.7627 30.2859 26.2778C28.9597 25.1997 28.806 23.3056 29.9429 22.0473L34.9574 16.4999L3.16369 16.4999C1.41655 16.4999 0 15.1566 0 13.4999C0 11.8431 1.41655 10.4999 3.16369 10.4999L34.9574 10.4999L29.9429 4.95244C28.806 3.69413 28.9597 1.80007 30.2859 0.721937C31.6128 -0.356197 33.6102 -0.209712 34.7472 1.04714L44.2382 11.5472C45.2539 12.6708 45.2539 14.329 44.2382 15.4525Z" fill="#00A558"/>
</svg>
