<svg width="20" height="20" viewBox="0 0 20 20" fill="none" xmlns="http://www.w3.org/2000/svg">
<path fill-rule="evenodd" clip-rule="evenodd" d="M13.75 5C13.75 7.07106 12.0711 8.75 10 8.75C7.92894 8.75 6.25 7.07106 6.25 5C6.25 2.92894 7.92894 1.25 10 1.25C12.0711 1.25 13.75 2.92894 13.75 5ZM10 6.875C11.0355 6.875 11.875 6.03554 11.875 5C11.875 3.96446 11.0355 3.125 10 3.125C8.96446 3.125 8.125 3.96446 8.125 5C8.125 6.03554 8.96446 6.875 10 6.875Z" fill="black"/>
<path fill-rule="evenodd" clip-rule="evenodd" d="M13.75 11.25C15.8211 11.25 17.5 12.9289 17.5 15V18.75H2.5V15C2.5 12.9289 4.17894 11.25 6.25 11.25H13.75ZM15.625 15C15.625 13.9645 14.7855 13.125 13.75 13.125H6.25C5.21446 13.125 4.375 13.9645 4.375 15V16.875H15.625V15Z" fill="black"/>
</svg>
