<svg width="30" height="30" viewBox="0 0 30 30" fill="none" xmlns="http://www.w3.org/2000/svg">
<path d="M25 13.7487H27.5C27.5 7.33625 22.6587 2.5 16.2375 2.5V5C21.315 5 25 8.67875 25 13.7487Z" fill="white"/>
<path d="M16.25 9.99981C18.8787 9.99981 20 11.1211 20 13.7498H22.5C22.5 9.71856 20.2812 7.49981 16.25 7.49981V9.99981ZM20.5275 16.8036C20.2873 16.5853 19.9717 16.4688 19.6472 16.4788C19.3228 16.4889 19.015 16.6246 18.7887 16.8573L15.7975 19.9336C15.0775 19.7961 13.63 19.3448 12.14 17.8586C10.65 16.3673 10.1987 14.9161 10.065 14.2011L13.1387 11.2086C13.3718 10.9825 13.5077 10.6746 13.5177 10.3501C13.5277 10.0256 13.4111 9.70986 13.1925 9.46981L8.57374 4.39106C8.35504 4.15026 8.05108 4.00419 7.72643 3.98389C7.40177 3.96358 7.08198 4.07063 6.83499 4.28231L4.12249 6.60856C3.90638 6.82545 3.77739 7.11412 3.75999 7.41981C3.74124 7.73231 3.38374 15.1348 9.12374 20.8773C14.1312 25.8836 20.4037 26.2498 22.1312 26.2498C22.3837 26.2498 22.5387 26.2423 22.58 26.2398C22.8856 26.2227 23.1741 26.0931 23.39 25.8761L25.715 23.1623C25.9268 22.9155 26.0341 22.5958 26.014 22.2711C25.9939 21.9465 25.8481 21.6424 25.6075 21.4236L20.5275 16.8036Z" fill="white"/>
</svg>
