<svg width="612" height="450" viewBox="0 0 612 450" fill="none" xmlns="http://www.w3.org/2000/svg">
<g clip-path="url(#clip0_61_990)">
<path d="M543.735 266.54L534.026 263.348C532.111 262.719 530.047 263.759 529.418 265.672L476.76 425.568C476.268 427.065 474.87 428.074 473.294 428.074H307.21C305.194 428.074 303.56 429.708 303.56 431.722V440.456C303.56 442.47 305.194 444.103 307.21 444.103H489.472V442.989L546.065 271.144C546.693 269.229 545.65 267.169 543.735 266.54Z" fill="#C1C7D6"/>
<path d="M490.534 445.166H307.209C304.609 445.166 302.494 443.053 302.494 440.456V431.722C302.494 429.125 304.609 427.012 307.209 427.012H473.294C474.413 427.012 475.401 426.298 475.752 425.235L528.409 265.339C528.803 264.144 529.638 263.175 530.762 262.608C531.886 262.041 533.164 261.945 534.359 262.339L544.069 265.531C546.537 266.342 547.886 269.009 547.074 271.475L490.534 443.159V445.166ZM307.209 429.137C305.783 429.137 304.622 430.296 304.622 431.722V440.456C304.622 441.88 305.781 443.04 307.209 443.04H488.406V442.819L488.459 442.658L545.053 270.813C545.498 269.459 544.759 267.996 543.404 267.552L533.695 264.36C533.038 264.144 532.338 264.197 531.721 264.507C531.104 264.818 530.647 265.35 530.43 266.005L477.773 425.901C477.135 427.837 475.335 429.139 473.296 429.139H307.209V429.137Z" fill="black"/>
<path d="M490.241 445.166H307.209C304.609 445.166 302.494 443.053 302.494 440.456V431.722C302.494 429.125 304.609 427.012 307.209 427.012H473.294C474.413 427.012 475.401 426.298 475.752 425.235L528.409 265.339C528.803 264.144 529.638 263.175 530.762 262.608C531.886 262.041 533.164 261.945 534.359 262.339L544.069 265.531C546.537 266.342 547.886 269.009 547.074 271.475L490.241 445.166ZM307.209 429.137C305.783 429.137 304.622 430.296 304.622 431.722V440.456C304.622 441.88 305.781 443.04 307.209 443.04H488.699L545.053 270.813C545.5 269.458 544.76 267.994 543.406 267.55L533.696 264.358C533.04 264.142 532.34 264.195 531.723 264.505C531.106 264.817 530.648 265.348 530.432 266.003L477.775 425.899C477.136 427.835 475.337 429.137 473.298 429.137H307.209Z" fill="black"/>
<path d="M484.096 191.404H337.072C333.586 191.404 330.75 188.572 330.75 185.089V143.203L313.085 127.645C312.622 127.238 312.465 126.602 312.683 126.025C312.901 125.447 313.442 125.075 314.059 125.075H484.096C487.582 125.075 490.417 127.907 490.417 131.39V185.089C490.417 188.572 487.582 191.404 484.096 191.404ZM314.858 126.846L332.522 142.404V185.089C332.522 187.594 334.563 189.633 337.07 189.633H484.094C486.602 189.633 488.642 187.594 488.642 185.089V131.39C488.642 128.885 486.602 126.846 484.094 126.846H314.858Z" fill="black"/>
<path d="M483.916 126.141H313.878C313.339 126.141 313.089 126.807 313.492 127.162L331.456 142.983V185.27C331.456 188.269 333.889 190.699 336.891 190.699H483.916C486.917 190.699 489.35 188.269 489.35 185.27V131.571C489.35 128.572 486.917 126.141 483.916 126.141Z" fill="white"/>
<path d="M483.916 191.585H336.891C333.405 191.585 330.57 188.752 330.57 185.27V143.383L312.904 127.826C312.442 127.419 312.284 126.781 312.502 126.205C312.72 125.628 313.261 125.256 313.878 125.256H483.916C487.401 125.256 490.237 128.088 490.237 131.571V185.27C490.237 188.752 487.401 191.585 483.916 191.585ZM314.678 127.027L332.341 142.585V185.27C332.341 187.775 334.382 189.813 336.889 189.813H483.914C486.421 189.813 488.462 187.775 488.462 185.27V131.571C488.462 129.066 486.421 127.027 483.914 127.027H314.678Z" fill="black"/>
<path d="M475.38 143.16H396.981C396.492 143.16 396.095 142.764 396.095 142.275C396.095 141.786 396.492 141.389 396.981 141.389H475.38C475.87 141.389 476.267 141.786 476.267 142.275C476.267 142.764 475.87 143.16 475.38 143.16Z" fill="black"/>
<path d="M430.5 158.98H396.981C396.492 158.98 396.095 158.583 396.095 158.094C396.095 157.605 396.492 157.209 396.981 157.209H430.5C430.989 157.209 431.386 157.605 431.386 158.094C431.386 158.583 430.989 158.98 430.5 158.98Z" fill="black"/>
<path d="M461.462 174.8H396.981C396.492 174.8 396.095 174.403 396.095 173.914C396.095 173.425 396.492 173.028 396.981 173.028H461.462C461.951 173.028 462.348 173.425 462.348 173.914C462.348 174.405 461.951 174.8 461.462 174.8Z" fill="black"/>
<path d="M361.473 178.796C350.047 178.796 340.751 169.509 340.751 158.094C340.751 146.68 350.047 137.393 361.473 137.393C372.899 137.393 382.195 146.68 382.195 158.094C382.195 169.509 372.899 178.796 361.473 178.796ZM361.473 139.164C351.024 139.164 342.524 147.656 342.524 158.094C342.524 168.533 351.024 177.025 361.473 177.025C371.922 177.025 380.422 168.533 380.422 158.094C380.422 147.656 371.922 139.164 361.473 139.164Z" fill="black"/>
<path d="M361.863 165.956L352.014 156.693C351.372 156.089 351.342 155.081 351.946 154.44C352.551 153.799 353.56 153.769 354.202 154.373L361.482 161.219L378.131 139.58C378.668 138.883 379.67 138.751 380.369 139.288C381.067 139.825 381.199 140.826 380.661 141.524L361.863 165.956Z" fill="black"/>
<path d="M484.097 362.759H337.072C333.586 362.759 330.751 359.926 330.751 356.444V314.557L310.167 296.43H484.097C487.582 296.43 490.418 299.262 490.418 302.744V356.444C490.418 359.925 487.582 362.759 484.097 362.759ZM314.859 298.199L332.522 313.757V356.444C332.522 358.949 334.563 360.987 337.07 360.987H484.095C486.602 360.987 488.643 358.949 488.643 356.444V302.744C488.643 300.24 486.602 298.201 484.095 298.201H314.859V298.199Z" fill="black"/>
<path d="M484.096 362.759H337.072C333.586 362.759 330.75 359.926 330.75 356.444V314.557L313.085 299C312.622 298.592 312.465 297.956 312.683 297.379C312.901 296.802 313.442 296.43 314.059 296.43H484.096C487.582 296.43 490.417 299.262 490.417 302.744V356.444C490.417 359.925 487.582 362.759 484.096 362.759ZM314.858 298.199L332.522 313.757V356.444C332.522 358.949 334.563 360.987 337.07 360.987H484.094C486.602 360.987 488.642 358.949 488.642 356.444V302.744C488.642 300.24 486.602 298.201 484.094 298.201H314.858V298.199Z" fill="black"/>
<path d="M484.096 297.313H314.059C313.52 297.313 313.27 297.979 313.672 298.334L331.637 314.155V356.442C331.637 359.441 334.07 361.871 337.072 361.871H484.096C487.098 361.871 489.531 359.441 489.531 356.442V302.743C489.531 299.745 487.098 297.313 484.096 297.313Z" fill="white"/>
<path d="M484.096 362.759H337.072C333.586 362.759 330.75 359.926 330.75 356.444V314.557L313.085 299C312.622 298.592 312.465 297.956 312.683 297.379C312.901 296.802 313.442 296.43 314.059 296.43H484.096C487.582 296.43 490.417 299.262 490.417 302.744V356.444C490.417 359.925 487.582 362.759 484.096 362.759ZM314.858 298.199L332.522 313.757V356.444C332.522 358.949 334.563 360.987 337.07 360.987H484.094C486.602 360.987 488.642 358.949 488.642 356.444V302.744C488.642 300.24 486.602 298.201 484.094 298.201H314.858V298.199Z" fill="black"/>
<path d="M361.654 351.792C374.106 351.792 384.201 341.708 384.201 329.268C384.201 316.828 374.106 306.744 361.654 306.744C349.202 306.744 339.107 316.828 339.107 329.268C339.107 341.708 349.202 351.792 361.654 351.792Z" fill="#FFBF31"/>
<path d="M361.654 352.678C348.732 352.678 338.221 342.176 338.221 329.266C338.221 316.357 348.733 305.857 361.654 305.857C374.574 305.857 385.089 316.359 385.089 329.266C385.089 342.174 374.576 352.678 361.654 352.678ZM361.654 307.628C349.71 307.628 339.994 317.335 339.994 329.266C339.994 341.198 349.71 350.907 361.654 350.907C373.597 350.907 383.316 341.2 383.316 329.266C383.316 317.337 373.597 307.628 361.654 307.628Z" fill="black"/>
<path d="M359.149 335.989L359.142 334.965C359.133 333.486 359.353 332.271 359.803 331.314C360.25 330.358 361.092 329.344 362.326 328.276C364.037 326.813 365.114 325.713 365.559 324.976C366.004 324.243 366.22 323.355 366.215 322.321C366.208 321.033 365.786 320.04 364.954 319.343C364.122 318.647 362.929 318.305 361.372 318.314C360.374 318.32 359.402 318.444 358.456 318.681C357.509 318.922 356.422 319.354 355.202 319.981L354.065 317.429C356.448 316.166 358.941 315.524 361.546 315.508C363.961 315.494 365.842 316.075 367.19 317.253C368.537 318.431 369.216 320.102 369.231 322.261C369.236 323.184 369.119 323.995 368.874 324.698C368.633 325.401 368.273 326.066 367.798 326.694C367.321 327.323 366.291 328.336 364.708 329.736C363.436 330.83 362.598 331.737 362.191 332.46C361.784 333.185 361.585 334.145 361.592 335.346L361.596 335.971L359.149 335.989ZM358.253 341.621C358.243 339.903 358.996 339.039 360.514 339.03C361.248 339.025 361.814 339.242 362.215 339.684C362.615 340.123 362.819 340.759 362.825 341.593C362.83 342.401 362.631 343.031 362.229 343.479C361.826 343.931 361.266 344.16 360.546 344.163C359.888 344.167 359.344 343.97 358.91 343.575C358.48 343.182 358.259 342.53 358.253 341.621Z" fill="#2E2E2E"/>
<path d="M360.526 345.051C359.652 345.051 358.909 344.774 358.312 344.231C357.691 343.66 357.374 342.785 357.366 341.627C357.352 339.425 358.498 338.157 360.508 338.144C361.494 338.141 362.296 338.456 362.872 339.088C363.422 339.691 363.705 340.532 363.712 341.588C363.719 342.62 363.443 343.456 362.89 344.071C362.317 344.714 361.53 345.044 360.553 345.051C360.544 345.051 360.535 345.051 360.526 345.051ZM360.537 339.916C360.531 339.916 360.526 339.916 360.519 339.916C359.815 339.919 359.131 340.056 359.14 341.616C359.143 342.061 359.209 342.649 359.51 342.925C359.778 343.17 360.101 343.286 360.54 343.279C361.154 343.276 361.42 343.056 361.567 342.891C361.817 342.612 361.943 342.178 361.939 341.598C361.936 340.994 361.808 340.552 361.56 340.281C361.416 340.123 361.156 339.916 360.537 339.916ZM358.267 336.88L358.255 334.97C358.246 333.367 358.496 332.01 358.999 330.937C359.505 329.858 360.402 328.767 361.744 327.607C363.78 325.865 364.528 324.967 364.797 324.519C365.154 323.931 365.331 323.193 365.326 322.326C365.319 321.302 365.01 320.548 364.383 320.024C363.73 319.478 362.739 319.202 361.434 319.202C361.414 319.202 361.395 319.202 361.375 319.202C360.457 319.207 359.547 319.322 358.67 319.542C357.785 319.767 356.753 320.179 355.606 320.771L354.771 321.202L352.916 317.037L353.647 316.649C356.148 315.323 358.803 314.642 361.537 314.626C364.172 314.616 366.26 315.271 367.769 316.591C369.308 317.937 370.097 319.845 370.111 322.259C370.117 323.283 369.982 324.202 369.707 324.992C369.438 325.773 369.032 326.528 368.501 327.231C367.982 327.917 366.931 328.953 365.29 330.402C364.094 331.434 363.312 332.271 362.962 332.896C362.633 333.48 362.469 334.304 362.477 335.342L362.485 336.853L358.267 336.88ZM361.434 317.43C363.168 317.43 364.544 317.847 365.523 318.667C366.56 319.535 367.092 320.762 367.101 322.317C367.108 323.517 366.844 324.565 366.317 325.437C365.821 326.26 364.704 327.41 362.904 328.949C361.774 329.927 361 330.85 360.608 331.69C360.216 332.524 360.021 333.624 360.03 334.961V335.099L360.707 335.096C360.728 333.849 360.962 332.843 361.418 332.031C361.875 331.217 362.762 330.248 364.127 329.07C366.026 327.394 366.789 326.563 367.092 326.165C367.509 325.612 367.828 325.024 368.037 324.416C368.246 323.814 368.349 323.093 368.344 322.271C368.331 320.36 367.764 318.938 366.606 317.925C365.448 316.911 363.776 316.398 361.634 316.398C361.606 316.398 361.579 316.398 361.551 316.398C359.372 316.412 357.246 316.897 355.219 317.847L355.638 318.785C356.579 318.348 357.45 318.026 358.237 317.825C359.255 317.57 360.306 317.437 361.367 317.43C361.39 317.43 361.411 317.43 361.434 317.43Z" fill="black"/>
<path d="M416.863 314.332H397.16C396.671 314.332 396.273 313.936 396.273 313.447C396.273 312.958 396.671 312.561 397.16 312.561H416.863C417.352 312.561 417.749 312.958 417.749 313.447C417.749 313.936 417.354 314.332 416.863 314.332Z" fill="black"/>
<path d="M475.561 327.577H397.162C396.673 327.577 396.275 327.18 396.275 326.691C396.275 326.202 396.673 325.805 397.162 325.805H475.561C476.05 325.805 476.447 326.202 476.447 326.691C476.447 327.18 476.05 327.577 475.561 327.577Z" fill="black"/>
<path d="M461.726 340.874L397.162 340.824C396.673 340.824 396.275 340.428 396.275 339.939C396.275 339.45 396.673 339.053 397.162 339.053H397.212L461.726 339.103C462.215 339.103 462.612 339.499 462.612 339.988C462.61 340.479 462.215 340.874 461.726 340.874Z" fill="black"/>
<path d="M442.96 280.702H295.936C292.45 280.702 289.615 277.87 289.615 274.387V232.501L271.949 216.943C271.487 216.536 271.329 215.898 271.547 215.322C271.765 214.745 272.306 214.373 272.923 214.373H442.96C446.446 214.373 449.281 217.205 449.281 220.688V274.387C449.281 277.87 446.446 280.702 442.96 280.702ZM273.722 216.142L291.386 231.7V274.387C291.386 276.892 293.427 278.931 295.934 278.931H442.959C445.466 278.931 447.507 276.892 447.507 274.387V220.688C447.507 218.183 445.466 216.144 442.959 216.144H273.722V216.142Z" fill="black"/>
<path d="M442.961 215.257H271.377L290.502 232.1V274.387C290.502 277.386 292.934 279.816 295.936 279.816H442.961C445.963 279.816 448.395 277.386 448.395 274.387V220.688C448.395 217.689 445.963 215.257 442.961 215.257Z" fill="#C1C7D6"/>
<path d="M442.961 280.702H295.936C292.45 280.702 289.615 277.87 289.615 274.387V232.501L269.031 214.373H442.961C446.447 214.373 449.282 217.205 449.282 220.688V274.387C449.282 277.87 446.447 280.702 442.961 280.702ZM273.723 216.142L291.386 231.7V274.387C291.386 276.892 293.427 278.931 295.934 278.931H442.959C445.466 278.931 447.507 276.892 447.507 274.387V220.688C447.507 218.183 445.466 216.144 442.959 216.144H273.723V216.142Z" fill="black"/>
<path d="M320.518 269.736C332.97 269.736 343.065 259.651 343.065 247.212C343.065 234.772 332.97 224.687 320.518 224.687C308.066 224.687 297.972 234.772 297.972 247.212C297.972 259.651 308.066 269.736 320.518 269.736Z" fill="#02A2D1"/>
<path d="M320.518 270.621C307.596 270.621 297.085 260.119 297.085 247.21C297.085 234.3 307.598 223.8 320.518 223.8C333.44 223.8 343.953 234.302 343.953 247.21C343.953 260.117 333.44 270.621 320.518 270.621ZM320.518 225.571C308.575 225.571 298.858 235.278 298.858 247.21C298.858 259.141 308.575 268.85 320.518 268.85C332.462 268.85 342.18 259.143 342.18 247.21C342.18 235.28 332.463 225.571 320.518 225.571Z" fill="black"/>
<path d="M318.084 253.868L318.079 252.869C318.07 251.427 318.285 250.241 318.724 249.307C319.161 248.374 319.982 247.385 321.185 246.344C322.854 244.916 323.905 243.843 324.34 243.125C324.774 242.41 324.985 241.543 324.98 240.534C324.973 239.278 324.561 238.309 323.749 237.629C322.939 236.949 321.774 236.616 320.255 236.624C319.279 236.63 318.333 236.75 317.409 236.982C316.485 237.216 315.425 237.638 314.235 238.252L313.125 235.762C315.451 234.529 317.882 233.904 320.423 233.888C322.779 233.874 324.615 234.44 325.928 235.59C327.242 236.74 327.905 238.369 327.92 240.475C327.925 241.375 327.812 242.167 327.572 242.854C327.336 243.54 326.985 244.188 326.522 244.801C326.056 245.414 325.053 246.402 323.506 247.768C322.267 248.836 321.448 249.722 321.052 250.427C320.655 251.133 320.46 252.07 320.467 253.241L320.471 253.852L318.084 253.868ZM317.212 259.363C317.201 257.687 317.937 256.844 319.418 256.833C320.134 256.83 320.685 257.041 321.077 257.471C321.469 257.9 321.668 258.52 321.673 259.335C321.678 260.123 321.483 260.737 321.092 261.175C320.7 261.614 320.152 261.837 319.45 261.843C318.808 261.846 318.276 261.655 317.854 261.269C317.432 260.886 317.217 260.25 317.212 259.363Z" fill="#2E2E2E"/>
<path d="M319.428 262.73C318.572 262.73 317.839 262.459 317.254 261.924C316.644 261.364 316.332 260.505 316.325 259.368C316.311 257.207 317.437 255.96 319.412 255.948C319.421 255.948 319.43 255.948 319.439 255.948C320.401 255.948 321.173 256.26 321.733 256.876C322.274 257.468 322.552 258.293 322.559 259.329C322.566 260.342 322.293 261.163 321.751 261.767C321.187 262.399 320.414 262.723 319.455 262.728C319.444 262.73 319.435 262.73 319.428 262.73ZM319.439 257.721C319.433 257.721 319.428 257.721 319.423 257.721C318.747 257.724 318.089 257.855 318.098 259.359C318.102 259.976 318.224 260.411 318.451 260.621C318.705 260.853 319.017 260.961 319.428 260.961C319.433 260.961 319.437 260.961 319.442 260.961C320.033 260.957 320.288 260.746 320.428 260.589C320.669 260.321 320.788 259.901 320.784 259.342C320.781 258.759 320.659 258.33 320.421 258.07C320.283 257.917 320.034 257.721 319.439 257.721ZM317.203 254.759L317.192 252.875C317.183 251.307 317.428 249.98 317.921 248.93C318.414 247.874 319.293 246.808 320.604 245.674C322.588 243.975 323.316 243.102 323.579 242.668C323.925 242.098 324.097 241.382 324.091 240.541C324.086 239.549 323.786 238.819 323.178 238.311C322.536 237.774 321.549 237.501 320.258 237.514C319.364 237.519 318.478 237.63 317.623 237.845C316.763 238.063 315.758 238.467 314.639 239.042L313.804 239.471L311.978 235.368L312.708 234.981C315.151 233.686 317.745 233.02 320.417 233.004C320.448 233.004 320.48 233.004 320.51 233.004C323.036 233.004 325.054 233.65 326.513 234.926C328.02 236.244 328.792 238.111 328.806 240.472C328.811 241.472 328.678 242.372 328.411 243.146C328.146 243.912 327.749 244.65 327.23 245.338C326.721 246.007 325.696 247.02 324.093 248.434C322.926 249.44 322.166 250.255 321.825 250.862C321.506 251.429 321.348 252.228 321.354 253.239L321.362 254.734L317.203 254.759ZM320.313 235.74C322.011 235.74 323.357 236.148 324.316 236.952C325.334 237.802 325.854 239.007 325.864 240.53C325.871 241.705 325.613 242.732 325.097 243.586C324.611 244.39 323.52 245.515 321.761 247.019C320.66 247.97 319.909 248.868 319.527 249.684C319.146 250.496 318.958 251.566 318.965 252.866V252.979L319.582 252.975C319.605 251.764 319.834 250.788 320.279 249.996C320.728 249.197 321.593 248.251 322.926 247.102C324.777 245.469 325.519 244.659 325.815 244.269C326.221 243.733 326.529 243.161 326.733 242.569C326.937 241.984 327.036 241.283 327.031 240.484C327.02 238.624 326.467 237.243 325.343 236.259C324.203 235.262 322.554 234.766 320.426 234.777C318.311 234.789 316.245 235.26 314.277 236.18L314.667 237.057C315.58 236.633 316.424 236.321 317.187 236.128C318.182 235.879 319.21 235.749 320.245 235.742C320.27 235.74 320.292 235.74 320.313 235.74Z" fill="black"/>
<path d="M398.35 232.276H356.026C355.537 232.276 355.14 231.879 355.14 231.39C355.14 230.901 355.537 230.504 356.026 230.504H398.35C398.839 230.504 399.236 230.901 399.236 231.39C399.236 231.879 398.839 232.276 398.35 232.276Z" fill="black"/>
<path d="M434.425 248.097H356.026C355.537 248.097 355.14 247.7 355.14 247.212C355.14 246.723 355.537 246.326 356.026 246.326H434.425C434.915 246.326 435.312 246.723 435.312 247.212C435.312 247.7 434.915 248.097 434.425 248.097Z" fill="black"/>
<path d="M392.385 263.917H356.026C355.537 263.917 355.14 263.52 355.14 263.031C355.14 262.542 355.537 262.146 356.026 262.146H392.385C392.875 262.146 393.272 262.542 393.272 263.031C393.272 263.52 392.875 263.917 392.385 263.917Z" fill="black"/>
<path d="M107.107 234.026H96.8643V273.395H107.107V234.026Z" fill="#2E2E2E"/>
<path d="M108.172 274.458H95.8008V232.963H108.172V274.458ZM97.9285 272.333H106.044V235.089H97.9285V272.333Z" fill="black"/>
<path d="M327.008 382.768C327.008 382.768 337.925 386.257 350.54 387.446C363.874 388.703 379.183 389.027 386.763 388.106C401.68 386.294 428.542 385.586 431.781 386.115C435.746 386.762 444.156 391.242 441.592 393.496C438.535 396.185 423.568 396.61 417.715 396.029C421.974 398.164 430.2 402.431 434.372 406.066C438.544 409.702 440.588 416.524 439.711 418.601C438.833 420.679 435.37 424.14 433.145 423.878C431.029 424.573 426.948 423.393 425.613 422.989C422.106 424.771 422.077 428.847 413.111 425.639C404.144 422.431 395.546 423.223 392.722 423.427C389.897 423.63 374.131 428.693 368.668 428.641C363.205 428.59 356.978 426.243 353.201 424.612C349.425 422.978 322.158 421.335 322.158 421.335L327.008 382.768Z" fill="white"/>
<path d="M433.461 424.511C432.893 424.511 432.422 424.062 432.398 423.49C432.375 422.904 432.831 422.41 433.418 422.385C435.546 422.3 437.285 421.407 438.001 420.614C439.095 419.404 439.633 417.958 435.856 411.436C430.989 403.028 425.225 399.73 416.911 396.874C414.685 396.109 407.584 395.002 402.885 394.269C401.481 394.049 400.27 393.86 399.385 393.713C398.806 393.615 398.415 393.068 398.513 392.489C398.611 391.909 399.16 391.52 399.738 391.617C400.611 391.764 401.816 391.952 403.213 392.17C408.272 392.96 415.2 394.04 417.602 394.866C426.17 397.81 432.521 401.43 437.698 410.374C441.326 416.641 441.801 419.585 439.581 422.04C438.542 423.189 436.26 424.399 433.503 424.511C433.489 424.511 433.475 424.511 433.461 424.511Z" fill="black"/>
<path d="M428.508 425.492C427.056 425.492 425.932 425.263 425.835 425.242C425.26 425.122 424.891 424.557 425.014 423.983C425.136 423.409 425.698 423.04 426.274 423.163C427.446 423.405 430.842 423.717 432.434 422.247C432.606 422.089 432.641 421.762 432.643 421.515C432.654 418.663 428.434 412.377 425.673 409.784C420.368 404.803 409.535 401.204 396.694 400.158C396.109 400.111 395.673 399.597 395.72 399.012C395.768 398.428 396.284 397.992 396.868 398.04C410.173 399.124 421.487 402.936 427.132 408.236C429.734 410.678 434.79 417.583 434.773 421.524C434.769 422.497 434.47 423.264 433.881 423.807C432.4 425.171 430.225 425.492 428.508 425.492Z" fill="black"/>
<path d="M368.032 429.708C367.91 429.708 367.789 429.708 367.669 429.706C361.649 429.63 357.36 427.912 353.573 426.397C351.158 425.43 348.878 424.518 346.429 424.146C338.954 423.009 322.375 423.779 322.208 423.786C321.627 423.815 321.123 423.361 321.095 422.775C321.067 422.189 321.521 421.691 322.107 421.662C322.795 421.629 339.065 420.874 346.748 422.043C349.44 422.452 351.832 423.411 354.364 424.424C358.153 425.94 362.071 427.51 367.694 427.58C367.805 427.582 367.917 427.582 368.03 427.582C373.903 427.582 380.483 425.655 385.792 424.1C388.549 423.292 390.928 422.596 392.581 422.376C397.125 421.772 409.356 422.371 419.587 425.035C422.023 425.669 423.007 425.117 423.807 424.498C425.101 423.496 425.61 422.344 425.362 420.98C424.654 417.08 418.085 412.349 414.934 411.369C410.053 409.853 405.732 409.609 401.157 409.35C398.251 409.185 395.246 409.015 391.832 408.528C391.251 408.445 390.847 407.906 390.93 407.325C391.013 406.744 391.554 406.34 392.134 406.424C395.455 406.898 398.414 407.065 401.276 407.228C405.985 407.494 410.434 407.745 415.565 409.339C418.686 410.308 426.496 415.309 427.456 420.601C427.729 422.105 427.543 424.293 425.11 426.178C423.918 427.1 422.268 427.931 419.049 427.092C409.457 424.594 397.331 423.889 392.861 424.484C391.37 424.683 389.061 425.359 386.389 426.14C380.953 427.733 374.21 429.708 368.032 429.708Z" fill="black"/>
<path d="M419.697 397.633C419.222 397.633 418.79 397.312 418.667 396.83C418.522 396.262 418.868 395.682 419.437 395.539C424.258 394.317 429.689 394.294 430.081 394.294C430.088 394.294 430.091 394.294 430.095 394.294C431.215 394.295 432.341 394.359 433.43 394.421C436.251 394.582 438.916 394.733 439.962 393.69C440.395 393.259 440.577 392.565 440.521 391.569C440.409 389.585 437.723 388.151 432.536 387.306C427.643 386.507 421.424 386.406 416.428 386.324L416.236 386.321C411.899 386.416 406.045 386.959 399.266 387.587C389.885 388.457 379.25 389.444 369.51 389.513C357.636 389.513 336.123 386.758 328.108 384.624C327.541 384.473 327.202 383.891 327.355 383.324C327.506 382.757 328.089 382.42 328.656 382.571C336.387 384.629 357.996 387.389 369.501 387.389C379.143 387.32 389.729 386.339 399.068 385.472C405.898 384.84 411.795 384.293 416.21 384.197H416.229L416.462 384.201C421.527 384.284 427.831 384.387 432.879 385.21C439.272 386.254 442.466 388.296 442.645 391.452C442.735 393.064 442.34 394.324 441.466 395.197C439.748 396.913 436.62 396.736 433.31 396.547C432.249 396.486 431.153 396.424 430.091 396.423C430.077 396.423 430.065 396.423 430.051 396.423C428.146 396.423 423.648 396.667 419.96 397.602C419.871 397.622 419.784 397.633 419.697 397.633Z" fill="black"/>
<path d="M173.003 222.418C173.003 222.418 185.969 233.059 192.961 236.403C199.952 239.747 208.094 243.773 213.272 244.477C218.449 245.18 225.438 246.097 225.438 246.097C225.438 246.097 231.192 273.314 231.861 281.179C232.529 289.043 240.251 327.584 240.251 327.584L260.384 357.909L345.799 382.897L338.778 427.161C338.778 427.161 280.926 423.529 275.933 423.129C270.94 422.729 239.73 419.087 239.73 419.087L238.476 445.648H234.882H124.395L122.427 444.002C122.427 444.002 122.175 361.14 123.243 350.31C124.31 339.48 128.864 307.24 130.732 299.239C132.601 291.24 139.059 271.318 142.625 262.58C146.192 253.842 152.637 242.829 157.173 238.041C161.71 233.255 173.003 222.418 173.003 222.418Z" fill="#00A558"/>
<path d="M280.167 137.882C279.363 141.715 276.922 156.683 275.463 162.517C274.003 168.352 274.023 175.191 274.023 175.191C274.023 175.191 278.608 185.493 277.787 187.863C276.966 190.233 274.044 190.538 272.039 190.4C270.033 190.262 266.764 191.032 266.764 191.032C266.764 191.032 260.663 203.593 257.407 206.538C243.185 219.407 227.35 213.507 227.35 213.507C227.35 213.507 222.919 223.164 223.101 228.724C223.284 234.284 224.545 245.201 224.545 245.201C224.545 245.201 211.555 245.084 202.794 240.89C194.033 236.697 177.136 226.972 173.414 220.367C179.404 208.878 190.872 189.229 190.872 189.229C190.872 189.229 203.739 187.307 207.204 175.82C199.232 171.169 200.088 154.222 206.567 152.035C213.046 149.847 220.802 154.148 221.167 154.421C221.532 154.693 234.926 126.384 242.329 124.335C260.819 119.212 280.167 137.882 280.167 137.882Z" fill="white"/>
<path d="M237.034 215.996C223.564 215.996 214.001 207.148 208.826 202.36C208.395 201.961 208.368 201.288 208.767 200.858C209.166 200.427 209.84 200.401 210.271 200.799C216.558 206.616 229.642 218.722 248.284 211.725C253.839 209.64 260.88 205.252 266.049 189.702C266.233 189.144 266.836 188.843 267.394 189.029C267.951 189.213 268.254 189.815 268.068 190.372C265.713 197.455 262.839 202.817 259.281 206.762C256.391 209.966 253.135 212.175 249.032 213.714C244.745 215.324 240.741 215.996 237.034 215.996Z" fill="black"/>
<path d="M212.418 177.299C210.716 177.299 209.049 176.973 207.448 176.328C204.148 174.998 201.563 172.463 200.171 169.192C198.78 165.92 198.746 162.301 200.077 159.005C202.826 152.198 210.606 148.896 217.42 151.641C219.127 152.33 220.642 153.338 221.924 154.639C222.337 155.057 222.331 155.73 221.913 156.141C221.495 156.553 220.821 156.548 220.409 156.13C219.333 155.039 218.06 154.192 216.624 153.613C210.899 151.305 204.361 154.081 202.051 159.8C200.932 162.571 200.96 165.612 202.129 168.361C203.299 171.11 205.471 173.241 208.244 174.359C209.805 174.988 211.439 175.255 213.104 175.154C213.688 175.117 214.195 175.565 214.23 176.151C214.266 176.738 213.819 177.241 213.232 177.276C212.961 177.29 212.688 177.299 212.418 177.299Z" fill="black"/>
<path d="M206.789 162.491C206.659 162.491 206.53 162.468 206.402 162.418C205.854 162.206 205.585 161.589 205.797 161.042C206.641 158.879 208.283 157.264 210.301 156.608C212.313 155.955 214.51 156.291 216.487 157.558C216.982 157.875 217.126 158.532 216.808 159.026C216.491 159.52 215.833 159.664 215.338 159.347C213.909 158.431 212.352 158.176 210.957 158.629C209.549 159.086 208.39 160.248 207.778 161.814C207.615 162.234 207.214 162.491 206.789 162.491Z" fill="black"/>
<path d="M264.097 166.455C264.795 163.976 264.18 161.635 262.725 161.226C261.269 160.818 259.523 162.496 258.826 164.974C258.128 167.453 258.742 169.794 260.198 170.203C261.654 170.612 263.399 168.934 264.097 166.455Z" fill="#2E2E2E"/>
<path d="M260.643 171.347C260.396 171.347 260.152 171.314 259.914 171.248C258.847 170.949 258.033 170.003 257.68 168.657C257.373 167.489 257.418 166.087 257.806 164.709C258.194 163.33 258.888 162.11 259.758 161.274C260.764 160.309 261.951 159.926 263.017 160.225C264.085 160.525 264.898 161.471 265.251 162.817C265.558 163.984 265.514 165.387 265.125 166.765C264.737 168.143 264.044 169.364 263.173 170.2C262.393 170.949 261.501 171.347 260.643 171.347ZM262.283 162.25C261.983 162.25 261.604 162.448 261.233 162.804C260.639 163.375 260.138 164.278 259.854 165.282C259.57 166.287 259.529 167.319 259.737 168.117C259.891 168.706 260.173 169.112 260.49 169.201C260.808 169.289 261.258 169.089 261.698 168.667C262.292 168.097 262.794 167.194 263.077 166.189C263.361 165.185 263.404 164.152 263.194 163.355C263.04 162.765 262.758 162.36 262.441 162.271C262.391 162.257 262.338 162.25 262.283 162.25Z" fill="black"/>
<path d="M272.883 155.003C272.682 155.003 272.479 154.947 272.299 154.828C266.989 151.339 259.549 150.662 254.207 153.179C253.675 153.429 253.042 153.202 252.79 152.671C252.54 152.139 252.767 151.507 253.299 151.255C259.276 148.437 267.571 149.176 273.468 153.051C273.959 153.374 274.096 154.033 273.773 154.523C273.569 154.835 273.229 155.003 272.883 155.003Z" fill="black"/>
<path d="M272.239 191.494C270.686 191.494 268.89 191.303 266.946 191.094C266.363 191.032 265.939 190.508 266.001 189.925C266.063 189.342 266.586 188.919 267.171 188.981C272.085 189.507 275.124 189.743 275.673 188.044C276.363 185.911 275.9 183.674 274.127 180.565C272.515 177.738 272.276 174.686 273.104 167.507C273.62 163.038 276.719 150.368 276.852 149.829L276.861 149.794C277.152 148.763 277.351 147.971 277.509 147.222L277.523 147.162C277.535 147.119 278.688 142.838 279.108 139.187C279.175 138.604 279.702 138.185 280.287 138.254C280.87 138.321 281.289 138.847 281.221 139.432C280.796 143.121 279.698 147.261 279.585 147.688C279.42 148.471 279.212 149.296 278.915 150.352C278.782 150.896 275.711 163.485 275.218 167.75C274.361 175.175 274.76 177.381 275.977 179.513C278.074 183.192 278.59 185.938 277.698 188.698C276.991 190.889 274.994 191.494 272.239 191.494Z" fill="black"/>
<path d="M239.582 446.712C239.01 446.712 238.536 446.257 238.52 445.681C238.517 445.547 238.127 432.12 238.667 419.044C238.692 418.458 239.187 418.003 239.774 418.026C240.361 418.051 240.816 418.545 240.793 419.131C240.256 432.133 240.644 445.485 240.648 445.618C240.666 446.204 240.203 446.695 239.616 446.712C239.604 446.712 239.593 446.712 239.582 446.712Z" fill="black"/>
<path d="M239.302 326.487C238.77 326.487 238.311 326.09 238.247 325.548C234.577 294.559 226.091 253.875 224.573 247.084C213.917 246.032 203.714 243.067 194.237 238.268C185.95 234.072 178.341 228.48 172.235 222.099C171.829 221.674 171.843 221.003 172.268 220.597C172.694 220.192 173.366 220.208 173.772 220.631C186.919 234.368 205.785 243.263 225.534 245.04L226.296 245.109L226.474 245.851C227.378 249.631 236.437 292.162 240.36 325.299C240.43 325.881 240.013 326.409 239.43 326.478C239.387 326.485 239.344 326.487 239.302 326.487Z" fill="black"/>
<path d="M223.477 246.501C222.95 246.501 222.493 246.11 222.423 245.573C221.423 237.806 222.227 224.344 226.351 213.138C226.553 212.587 227.165 212.304 227.716 212.508C228.267 212.71 228.549 213.321 228.347 213.872C224.347 224.74 223.567 237.785 224.533 245.302C224.608 245.885 224.196 246.416 223.613 246.492C223.567 246.499 223.521 246.501 223.477 246.501Z" fill="black"/>
<path d="M207.846 175.344C203.112 184.489 194.223 191.397 188.016 190.549C175.37 178.681 165.774 162.209 165.004 140.663C164.696 132.01 165.623 111.424 183.132 103.493C184.475 81.7556 206.864 78.0251 216.997 77.7364C237.964 77.1377 249.262 83.4649 257.748 88.5592C261.257 89.8735 264.556 91.5156 267.608 93.503C278.615 96.0324 290.802 102.415 294.619 110.139C302.477 126.042 291.655 137.396 278.787 137.752C259.992 138.273 250.535 126.993 243.442 130.338C232.134 135.668 230.41 157.099 227.781 163.403C225.937 167.826 219.993 170.157 218.195 168.875L207.846 175.344Z" fill="#2E2E2E"/>
<path d="M189.074 191.68C188.665 191.68 188.262 191.654 187.872 191.601L187.535 191.555L187.287 191.323C180.437 184.895 174.992 177.62 171.102 169.702C166.719 160.783 164.309 151.027 163.941 140.7C163.767 135.824 164.047 128.531 166.375 121.474C169.278 112.679 174.57 106.398 182.115 102.794C182.523 97.7914 184.063 93.3949 186.698 89.7194C189.04 86.4549 192.26 83.7323 196.271 81.6298C203.934 77.6124 212.525 76.8011 216.963 76.6736C226.447 76.4026 234.761 77.492 242.382 80.0037C248.838 82.1311 253.742 84.9191 258.209 87.5992C261.727 88.9241 265.028 90.575 268.026 92.511C273.743 93.8449 279.53 96.1299 284.346 98.9569C289.812 102.167 293.694 105.87 295.57 109.67C299.142 116.9 299.252 123.961 295.88 129.553C292.554 135.067 286.014 138.617 278.812 138.817C268.514 139.104 261.092 135.981 255.129 133.473C250.267 131.427 246.753 129.95 243.891 131.3C235.887 135.072 232.818 147.984 230.788 156.527C230.072 159.543 229.451 162.149 228.758 163.814C227.414 167.038 224.155 169.238 221.52 169.989C219.859 170.462 218.458 170.375 217.571 169.743L218.809 168.014C218.995 168.147 219.68 168.304 220.937 167.947C223.009 167.355 225.728 165.555 226.793 162.999C227.421 161.494 228.022 158.966 228.717 156.04C230.841 147.1 234.052 133.59 242.983 129.381C246.705 127.628 250.787 129.344 255.955 131.517C261.728 133.946 268.913 136.968 278.754 136.695C285.238 136.516 291.101 133.36 294.057 128.46C297.043 123.509 296.903 117.171 293.662 110.614C289.821 102.841 277.339 96.8348 267.367 94.5427L267.182 94.5002L267.025 94.3975C264.088 92.4862 260.84 90.8566 257.372 89.5582L257.281 89.5246L257.198 89.475C249.716 84.9829 238.407 78.1952 217.025 78.8027C209.669 79.0135 185.56 81.419 184.193 103.562L184.154 104.2L183.571 104.464C167.476 111.753 165.696 130.249 166.067 140.627C166.737 159.375 174.487 176.277 188.486 189.534C191.111 189.753 194.493 188.427 197.833 185.855C201.452 183.068 204.672 179.163 206.901 174.858L208.791 175.834C206.422 180.41 202.993 184.565 199.133 187.537C195.622 190.239 192.101 191.68 189.074 191.68Z" fill="black"/>
<path d="M189.074 191.68C188.665 191.68 188.262 191.654 187.872 191.601L187.535 191.555L187.287 191.323C180.437 184.895 174.992 177.62 171.102 169.702C166.719 160.783 164.309 151.027 163.941 140.7C163.767 135.824 164.047 128.531 166.375 121.474C169.278 112.679 174.57 106.398 182.115 102.794C182.523 97.7914 184.063 93.3949 186.698 89.7194C189.04 86.4549 192.26 83.7323 196.271 81.6298C203.934 77.6124 212.525 76.8011 216.963 76.6736C226.447 76.4026 234.761 77.492 242.382 80.0037C248.838 82.1311 253.742 84.9191 258.209 87.5992C261.727 88.9241 265.028 90.575 268.026 92.511C273.743 93.8449 279.53 96.1299 284.346 98.9569C289.812 102.167 293.694 105.87 295.57 109.67C299.142 116.9 299.252 123.961 295.88 129.553C292.554 135.067 286.014 138.617 278.812 138.817C268.514 139.104 261.092 135.981 255.129 133.473C250.267 131.427 246.753 129.95 243.891 131.3C235.887 135.072 232.818 147.984 230.788 156.527C230.072 159.543 229.451 162.149 228.758 163.814C227.414 167.038 224.155 169.238 221.52 169.989C219.859 170.462 218.458 170.375 217.571 169.743C217.093 169.401 216.983 168.738 217.325 168.26C217.667 167.782 218.33 167.672 218.809 168.014C218.995 168.147 219.68 168.304 220.937 167.947C223.009 167.355 225.728 165.555 226.793 162.999C227.421 161.494 228.022 158.966 228.717 156.04C230.841 147.1 234.052 133.59 242.983 129.381C246.705 127.628 250.787 129.344 255.955 131.517C261.728 133.946 268.913 136.968 278.754 136.695C285.238 136.516 291.101 133.36 294.057 128.46C297.043 123.509 296.903 117.171 293.662 110.614C289.821 102.841 277.339 96.8348 267.367 94.5427L267.182 94.5002L267.025 94.3975C264.088 92.4862 260.84 90.8566 257.372 89.5582L257.281 89.5246L257.198 89.475C249.716 84.9829 238.407 78.1952 217.025 78.8027C209.669 79.0135 185.56 81.419 184.193 103.562L184.154 104.2L183.571 104.464C167.476 111.753 165.696 130.249 166.067 140.627C166.737 159.375 174.487 176.277 188.486 189.534C191.111 189.753 194.493 188.427 197.833 185.855C201.452 183.068 204.672 179.163 206.901 174.858C207.17 174.337 207.812 174.134 208.335 174.403C208.857 174.672 209.062 175.313 208.791 175.836C206.422 180.411 202.993 184.567 199.133 187.539C195.622 190.239 192.101 191.68 189.074 191.68Z" fill="black"/>
<path d="M122.078 368.57C122.06 368.57 122.044 368.57 122.026 368.569C121.439 368.54 120.987 368.043 121.014 367.456C121.524 356.772 122.748 340.024 125.672 320.916C128.402 303.065 131.925 287.695 136.14 275.237C140.723 261.689 145.701 251.257 151.802 242.406C157.167 234.621 163.387 227.959 172.582 220.146C178.045 212.026 185.253 199.425 188.258 190.793C188.452 190.239 189.058 189.946 189.613 190.138C190.168 190.331 190.46 190.937 190.269 191.491C187.187 200.344 179.813 213.229 174.267 221.455L174.185 221.577L174.074 221.673C158.472 234.91 147.594 248.03 138.16 275.919C126.67 309.883 123.762 354.65 123.143 367.561C123.111 368.128 122.642 368.57 122.078 368.57Z" fill="black"/>
<path d="M339.557 427.394L338.602 427.357C337.912 427.331 269.26 424.661 241.711 420.414C236.192 419.563 230.936 417.289 226.51 413.84C209.444 400.539 195.682 387.261 183.199 372.056C175.477 362.651 168.264 352.444 161.757 341.722C154.535 329.821 147.927 316.864 142.118 303.212C141.888 302.672 142.141 302.048 142.68 301.818C143.221 301.588 143.845 301.839 144.076 302.379C169.477 362.08 204.035 393.628 227.817 412.163C231.957 415.39 236.874 417.516 242.034 418.311C267.689 422.266 329.304 424.854 337.726 425.193L343.843 383.395L259.728 358.823L259.513 358.522C244.892 337.944 224.055 303.696 220.691 297.909C220.397 297.4 220.569 296.75 221.078 296.456C221.587 296.162 222.237 296.334 222.532 296.842C225.869 302.587 246.467 336.44 261.034 356.991L346.215 381.875L339.557 427.394Z" fill="black"/>
<path d="M252.427 202.13C252.407 202.13 252.388 202.129 252.368 202.128C247.442 201.858 241.687 198.144 239.536 193.847C239.274 193.322 239.487 192.683 240.011 192.421C240.536 192.159 241.176 192.371 241.439 192.896C243.253 196.52 248.311 199.775 252.483 200.004C253.07 200.036 253.519 200.537 253.487 201.123C253.457 201.69 252.987 202.13 252.427 202.13Z" fill="black"/>
<path d="M104.834 259.202H99.8C90.2785 259.202 82.5585 266.914 82.5585 276.426C82.5549 332.458 82.5514 388.489 82.5479 444.521C95.7237 444.532 108.9 444.543 122.075 444.553V276.426C122.075 266.912 114.357 259.202 104.834 259.202Z" fill="#C1C7D6"/>
<path d="M123.14 445.616L81.4844 445.582L81.495 276.426C81.495 266.342 89.7062 258.139 99.8004 258.139H104.834C114.928 258.139 123.14 266.342 123.14 276.426V445.616ZM83.6121 443.459L121.012 443.489V276.424C121.012 267.513 113.755 260.263 104.834 260.263H99.8004C90.88 260.263 83.6227 267.513 83.6227 276.424L83.6121 443.459Z" fill="black"/>
<path d="M122.076 445.616C121.489 445.616 121.012 445.139 121.012 444.553V277.145C121.012 267.837 113.432 260.264 104.114 260.264H101.632C92.0377 260.264 83.6209 268.152 83.6209 277.145V444.553C83.6209 445.139 83.1439 445.616 82.557 445.616C81.9701 445.616 81.4932 445.139 81.4932 444.553V277.145C81.4932 272.115 83.6812 267.33 87.6529 263.676C91.4757 260.156 96.5715 258.139 101.63 258.139H104.112C114.604 258.139 123.138 266.666 123.138 277.145V444.553C123.14 445.139 122.664 445.616 122.076 445.616Z" fill="black"/>
<path d="M233.876 205.784C233.756 205.784 233.632 205.763 233.513 205.72C221.482 201.343 212.179 191.147 209.232 179.113C209.092 178.543 209.441 177.967 210.012 177.829C210.583 177.689 211.159 178.038 211.298 178.608C214.078 189.961 222.869 199.584 234.242 203.722C234.793 203.922 235.078 204.533 234.876 205.084C234.718 205.516 234.311 205.784 233.876 205.784Z" fill="black"/>
<path d="M244.483 208.83C245.228 206.829 243.057 204.176 239.634 202.905C236.211 201.634 232.833 202.225 232.089 204.226C231.344 206.226 233.515 208.879 236.938 210.15C240.36 211.422 243.738 210.83 244.483 208.83Z" fill="#2E2E2E"/>
<path d="M240.473 211.893C239.227 211.893 237.885 211.642 236.574 211.156C232.541 209.658 230.135 206.453 231.099 203.864C232.064 201.274 235.979 200.419 240.014 201.917C241.844 202.597 243.42 203.667 244.454 204.93C245.619 206.354 245.986 207.874 245.49 209.21C244.993 210.545 243.72 211.456 241.906 211.774C241.45 211.854 240.97 211.893 240.473 211.893ZM236.113 203.302C234.537 203.302 233.385 203.825 233.094 204.606C232.631 205.849 234.252 208.026 237.317 209.165C238.777 209.707 240.316 209.895 241.541 209.681C242.564 209.502 243.277 209.061 243.497 208.469C243.716 207.879 243.466 207.079 242.809 206.276C242.021 205.314 240.734 204.452 239.273 203.91C238.131 203.486 237.048 203.302 236.113 203.302Z" fill="black"/>
<path d="M216.68 147.05C220.285 130.584 226.429 107.153 251.587 97.182C258.839 94.3072 269.68 93.4658 269.68 93.4658C266.675 92.4083 262.529 89.3545 259.786 88.8533C253.389 87.686 248.002 89.0587 242.69 91.0692C221.948 98.9215 213.452 120.275 210.264 145.444L216.68 147.05Z" fill="#FFBF31"/>
<path d="M217.546 147.24L215.814 146.861C217.677 138.348 220.099 128.494 225.277 119.247C228.091 114.222 231.504 109.838 235.422 106.214C239.917 102.057 245.245 98.7408 251.258 96.3584C256.171 94.4117 262.591 93.3896 266.393 92.9184C265.893 92.6527 265.391 92.3764 264.895 92.1036C262.996 91.0603 261.033 89.9798 259.625 89.723C253.173 88.545 247.822 90.0719 243.002 91.8964C225.287 98.6026 214.865 116.155 211.142 145.553L209.383 145.332C211.161 131.284 214.344 120.165 219.112 111.342C224.654 101.086 232.481 93.9866 242.373 90.242C247.433 88.3272 253.063 86.7277 259.942 87.9835C261.636 88.2917 263.726 89.4431 265.749 90.5555C267.217 91.3632 268.735 92.1975 269.971 92.6333L273.929 94.0255L269.746 94.3514C269.64 94.3603 258.951 95.2176 251.91 98.0092C226.085 108.242 220.53 133.609 217.546 147.24Z" fill="black"/>
<path d="M218.253 148.643C218.179 148.643 218.101 148.634 218.025 148.618C217.45 148.492 217.087 147.925 217.212 147.353L217.335 146.79C219.129 138.592 221.361 128.387 226.284 119.047C232.099 108.012 240.392 100.48 251.639 96.0236C256.233 94.2026 261.683 92.38 266.875 92.3038C263.274 90.6228 259.58 89.103 258.121 88.8373C251.712 87.6682 246.389 89.1863 241.592 91.0019C223.885 97.7046 213.026 115.947 209.319 145.222C209.244 145.805 208.712 146.216 208.129 146.143C207.546 146.069 207.132 145.537 207.207 144.955C211.021 114.839 222.335 96.0165 240.837 89.0127C245.921 87.089 251.58 85.4806 258.502 86.7454C261.446 87.2821 270.481 91.4872 274.382 93.7439L273.414 95.6339C267.16 92.8334 258.91 95.4266 252.421 97.9986C228.074 107.649 223.067 130.534 219.411 147.243L219.287 147.807C219.182 148.302 218.743 148.643 218.253 148.643Z" fill="black"/>
<path d="M197.249 160.404C198.971 150.761 206.191 143.98 213.379 145.259C220.567 146.54 224.998 155.395 223.277 165.038C221.555 174.681 214.335 181.462 207.147 180.183C199.961 178.904 195.53 170.049 197.249 160.404Z" fill="#FFBF31"/>
<path d="M208.888 181.223C208.259 181.223 207.626 181.168 206.993 181.054C203.234 180.385 200.064 177.818 198.065 173.826C196.112 169.92 195.512 165.098 196.377 160.248C198.181 150.139 205.878 143.024 213.536 144.388C217.295 145.057 220.465 147.624 222.463 151.617C224.417 155.522 225.016 160.344 224.151 165.194C222.495 174.468 215.881 181.223 208.888 181.223ZM211.623 145.991C205.481 145.991 199.626 152.143 198.124 160.56C197.324 165.038 197.869 169.468 199.652 173.035C201.394 176.514 204.112 178.744 207.305 179.313C213.998 180.505 220.773 174.033 222.406 164.886C223.206 160.408 222.662 155.978 220.878 152.41C219.137 148.931 216.419 146.701 213.225 146.133C212.69 146.037 212.154 145.991 211.623 145.991Z" fill="black"/>
<path d="M208.92 181.403C208.266 181.403 207.612 181.347 206.961 181.23C203.145 180.549 199.931 177.949 197.906 173.905C195.934 169.966 195.329 165.105 196.202 160.218C197.074 155.331 199.322 150.977 202.535 147.962C205.833 144.866 209.75 143.536 213.566 144.214C217.381 144.894 220.596 147.495 222.621 151.539C224.593 155.478 225.197 160.339 224.325 165.226C223.452 170.113 221.204 174.467 217.991 177.482C215.257 180.05 212.096 181.403 208.92 181.403ZM211.619 146.168C205.564 146.168 199.783 152.26 198.298 160.592C197.505 165.033 198.042 169.424 199.81 172.956C201.525 176.383 204.198 178.58 207.335 179.138C213.934 180.312 220.615 173.905 222.231 164.854C223.023 160.413 222.486 156.022 220.718 152.49C219.004 149.062 216.33 146.866 213.193 146.308C212.668 146.212 212.142 146.168 211.619 146.168Z" fill="black"/>
<path d="M320.548 426.555C320.493 426.555 320.438 426.551 320.384 426.542C319.804 426.452 319.405 425.908 319.495 425.329L326.857 378.01C326.948 377.431 327.492 377.032 328.072 377.122C328.651 377.213 329.05 377.757 328.96 378.336L321.598 425.655C321.517 426.179 321.064 426.555 320.548 426.555Z" fill="black"/>
<path d="M102.316 137.756C91.4026 137.756 82.5566 146.593 82.5566 157.496V225.701C82.5566 236.603 91.4026 245.44 102.316 245.44C113.229 245.44 122.075 236.603 122.075 225.701V157.496C122.075 146.593 113.229 137.756 102.316 137.756Z" fill="#C1C7D6"/>
<path d="M102.316 246.501C90.8338 246.501 81.4932 237.17 81.4932 225.699V157.496C81.4932 146.025 90.8338 136.693 102.316 136.693C113.799 136.693 123.14 146.025 123.14 157.496V225.701C123.14 237.17 113.799 246.501 102.316 246.501ZM102.316 138.819C92.0076 138.819 83.6209 147.197 83.6209 157.496V225.701C83.6209 235.999 92.0076 244.377 102.316 244.377C112.625 244.377 121.012 235.999 121.012 225.701V157.496C121.012 147.197 112.625 138.819 102.316 138.819Z" fill="black"/>
<path d="M102.316 246.501C90.8338 246.501 81.4932 237.17 81.4932 225.699V157.496C81.4932 146.025 90.8338 136.693 102.316 136.693C113.799 136.693 123.14 146.025 123.14 157.496V225.701C123.14 237.17 113.799 246.501 102.316 246.501ZM102.316 138.819C92.0076 138.819 83.6209 147.197 83.6209 157.496V225.701C83.6209 235.999 92.0076 244.377 102.316 244.377C112.625 244.377 121.012 235.999 121.012 225.701V157.496C121.012 147.197 112.625 138.819 102.316 138.819Z" fill="black"/>
<path d="M60.8636 258.188C60.61 258.188 60.3494 258.181 60.0923 258.167C59.6029 258.142 59.227 257.724 59.2536 257.235C59.2802 256.747 59.6987 256.373 60.1863 256.398C61.6331 256.474 63.0321 256.307 64.3654 255.903C64.8353 255.762 65.3282 256.027 65.4701 256.495C65.6119 256.963 65.346 257.457 64.8779 257.599C63.5853 257.99 62.236 258.188 60.8636 258.188ZM0.888798 257.267C0.821421 257.267 0.75227 257.26 0.68312 257.243C0.206158 257.129 -0.0881746 256.653 0.0253032 256.176C0.378148 254.683 0.787732 253.192 1.23987 251.743C1.38526 251.275 1.88173 251.015 2.34983 251.16C2.81792 251.305 3.07857 251.801 2.93317 252.269C2.49345 253.679 2.09627 255.129 1.75229 256.584C1.653 256.993 1.28952 257.267 0.888798 257.267ZM55.7074 257.258C55.6099 257.258 55.5089 257.243 55.4113 257.207C54.0106 256.713 52.5815 256.024 51.1648 255.159C50.7463 254.904 50.6151 254.359 50.8705 253.943C51.1258 253.525 51.6701 253.393 52.0886 253.649C53.4007 254.449 54.7181 255.083 56.0036 255.539C56.4646 255.702 56.7075 256.208 56.5443 256.669C56.4149 257.032 56.0727 257.258 55.7074 257.258ZM68.6599 255.616C68.385 255.616 68.1155 255.491 67.9418 255.252C67.6545 254.857 67.7414 254.302 68.1386 254.015C69.2521 253.207 70.2858 252.205 71.2113 251.034C71.5145 250.65 72.0731 250.584 72.4561 250.889C72.8408 251.192 72.9064 251.75 72.6015 252.132C71.5748 253.431 70.4241 254.547 69.1776 255.448C69.0216 255.562 68.8407 255.616 68.6599 255.616ZM47.9484 252.635C47.748 252.635 47.5459 252.568 47.381 252.43C46.2551 251.491 45.1168 250.428 43.9962 249.268C43.6558 248.916 43.6664 248.356 44.0192 248.016C44.3721 247.676 44.9324 247.686 45.2728 248.039C46.3491 249.153 47.4413 250.173 48.5176 251.071C48.8935 251.385 48.9431 251.943 48.6293 252.318C48.4555 252.527 48.202 252.635 47.9484 252.635ZM74.2948 248.62C74.1653 248.62 74.0341 248.591 73.91 248.531C73.4685 248.319 73.2841 247.789 73.4951 247.35C74.1139 246.064 74.6228 244.686 75.0058 243.254C75.1317 242.781 75.6193 242.502 76.0909 242.627C76.5643 242.753 76.8445 243.238 76.7186 243.711C76.3072 245.251 75.7611 246.735 75.0927 248.118C74.9419 248.434 74.6245 248.62 74.2948 248.62ZM3.58922 248.616C3.48106 248.616 3.37113 248.597 3.26651 248.554C2.81083 248.375 2.58565 247.862 2.76473 247.406C3.32503 245.98 3.94383 244.562 4.60165 243.189C4.81442 242.748 5.3428 242.562 5.7843 242.774C6.2258 242.987 6.41198 243.515 6.19921 243.956C5.55912 245.29 4.95804 246.668 4.4137 248.055C4.27717 248.402 3.94206 248.616 3.58922 248.616ZM41.6256 246.143C41.3685 246.143 41.1149 246.034 40.9394 245.819C40.0723 244.762 39.1946 243.621 38.3347 242.431L38.1468 242.17C37.8613 241.774 37.9535 241.219 38.3507 240.934C38.7496 240.649 39.3028 240.741 39.5883 241.138L39.7709 241.391C40.6131 242.553 41.4678 243.664 42.3117 244.694C42.622 245.074 42.5671 245.632 42.1876 245.941C42.021 246.078 41.8224 246.143 41.6256 246.143ZM7.51661 240.447C7.3659 240.447 7.21519 240.408 7.07511 240.328C6.65134 240.084 6.50595 239.542 6.74886 239.118C7.51484 237.792 8.33933 236.479 9.19928 235.221C9.47588 234.818 10.0273 234.715 10.4316 234.989C10.8358 235.266 10.9405 235.817 10.6638 236.22C9.82872 237.443 9.02729 238.714 8.28436 240.004C8.12124 240.287 7.82336 240.447 7.51661 240.447ZM76.6441 239.901C76.6193 239.901 76.5927 239.9 76.5679 239.898C76.0803 239.857 75.7185 239.427 75.7593 238.939C75.8196 238.236 75.8498 237.522 75.8498 236.821C75.8498 236.066 75.8143 235.308 75.7451 234.566C75.699 234.079 76.0572 233.647 76.5448 233.602C77.0324 233.556 77.465 233.916 77.5094 234.401C77.5838 235.198 77.6211 236.013 77.6211 236.821C77.6211 237.574 77.5892 238.337 77.5236 239.09C77.4863 239.554 77.0998 239.901 76.6441 239.901ZM36.3435 238.768C36.0474 238.768 35.7584 238.619 35.59 238.35C34.785 237.057 34.0101 235.719 33.2867 234.373C33.0544 233.943 33.2176 233.406 33.6484 233.174C34.0793 232.942 34.6165 233.105 34.8488 233.535C35.5527 234.848 36.3098 236.153 37.0935 237.413C37.3524 237.827 37.2247 238.374 36.8098 238.633C36.6645 238.725 36.5031 238.768 36.3435 238.768ZM12.6355 232.963C12.4405 232.963 12.2437 232.899 12.0805 232.768C11.6993 232.462 11.6373 231.904 11.944 231.523C12.905 230.327 13.9228 229.16 14.9707 228.049C15.3058 227.693 15.8679 227.677 16.2243 228.012C16.5807 228.347 16.5966 228.908 16.2615 229.264C15.2455 230.341 14.2579 231.473 13.327 232.634C13.1515 232.85 12.8944 232.963 12.6355 232.963ZM75.7842 230.919C75.4012 230.919 75.0465 230.667 74.9331 230.281C74.5625 229.016 74.0784 227.798 73.4933 226.661C73.4242 226.526 73.3532 226.391 73.2823 226.26C73.0518 225.828 73.2149 225.293 73.6458 225.061C74.0784 224.831 74.6139 224.994 74.8462 225.424C74.9224 225.566 74.9969 225.708 75.0696 225.851C75.7044 227.088 76.231 228.411 76.6335 229.783C76.7718 230.253 76.5023 230.745 76.0324 230.882C75.9508 230.908 75.8657 230.919 75.7842 230.919ZM32.0509 230.775C31.714 230.775 31.3931 230.582 31.2441 230.258C30.6111 228.875 30.0136 227.451 29.4675 226.023C29.2919 225.566 29.5207 225.054 29.9781 224.879C30.4356 224.703 30.948 224.932 31.1235 225.389C31.6572 226.781 32.2406 228.172 32.8576 229.521C33.0615 229.966 32.8647 230.492 32.4197 230.696C32.3009 230.751 32.175 230.775 32.0509 230.775ZM18.8591 226.367C18.6179 226.367 18.3768 226.267 18.2013 226.074C17.8732 225.711 17.9016 225.151 18.2633 224.824C19.4034 223.795 20.5949 222.803 21.8077 221.874C22.196 221.577 22.7528 221.651 23.0507 222.039C23.3485 222.427 23.2741 222.983 22.8858 223.281C21.712 224.179 20.5577 225.141 19.4531 226.138C19.2846 226.292 19.0718 226.367 18.8591 226.367ZM71.5926 222.932C71.3301 222.932 71.0695 222.815 70.8957 222.594C69.9915 221.444 68.979 220.378 67.8904 219.428C67.5216 219.106 67.4825 218.548 67.8052 218.18C68.1279 217.811 68.6865 217.774 69.0553 218.094C70.2291 219.117 71.316 220.263 72.2894 221.501C72.5926 221.885 72.5252 222.441 72.1404 222.744C71.9773 222.87 71.7841 222.932 71.5926 222.932ZM28.8026 222.308C28.4249 222.308 28.0756 222.066 27.9568 221.689C27.7955 221.173 27.6376 220.652 27.4852 220.13C27.1678 220.323 26.8539 220.519 26.5419 220.72C26.1287 220.984 25.5809 220.863 25.3167 220.452C25.0525 220.039 25.173 219.492 25.5844 219.228C26.049 218.931 26.5188 218.64 26.994 218.357C26.8983 217.995 26.8061 217.632 26.7156 217.269C26.5968 216.794 26.8876 216.314 27.3628 216.196C27.838 216.077 28.3185 216.367 28.4373 216.842C28.487 217.041 28.5366 217.241 28.588 217.441C28.916 217.26 29.2458 217.081 29.5774 216.909C30.0118 216.683 30.5473 216.849 30.7742 217.281C31.0012 217.714 30.8345 218.25 30.4019 218.477C29.9551 218.711 29.51 218.954 29.0668 219.203C29.2529 219.861 29.448 220.512 29.6501 221.159C29.7973 221.625 29.5366 222.122 29.0703 222.269C28.9799 222.294 28.8912 222.308 28.8026 222.308ZM64.791 217.003C64.6385 217.003 64.4842 216.964 64.3442 216.881C63.103 216.155 61.7714 215.528 60.3831 215.019C59.9239 214.851 59.688 214.341 59.8565 213.882C60.0249 213.424 60.5356 213.188 60.9948 213.356C62.4807 213.902 63.908 214.573 65.2396 215.352C65.6616 215.6 65.8034 216.142 65.557 216.564C65.3921 216.847 65.096 217.003 64.791 217.003ZM34.1006 216.651C33.753 216.651 33.4232 216.445 33.2814 216.104C33.0934 215.652 33.308 215.133 33.7619 214.947C35.1981 214.353 36.6627 213.827 38.1148 213.383C38.5829 213.239 39.0794 213.503 39.2212 213.971C39.3649 214.438 39.1007 214.934 38.6326 215.076C37.2336 215.503 35.824 216.01 34.441 216.582C34.3275 216.63 34.214 216.651 34.1006 216.651ZM42.7745 214.017C42.3596 214.017 41.9873 213.723 41.9057 213.301C41.8117 212.821 42.1256 212.355 42.6061 212.263C44.1451 211.964 45.6913 211.751 47.2037 211.633C47.6913 211.594 48.1186 211.959 48.1576 212.446C48.1966 212.933 47.8314 213.36 47.3438 213.399C45.8987 213.512 44.42 213.716 42.9465 214.003C42.888 214.01 42.8313 214.017 42.7745 214.017ZM56.3174 213.863C56.2607 213.863 56.2039 213.857 56.1472 213.847C54.7358 213.574 53.2624 213.399 51.7676 213.326C51.2783 213.303 50.9006 212.887 50.9254 212.398C50.9485 211.909 51.3652 211.532 51.8545 211.557C53.4343 211.633 54.9929 211.819 56.4858 212.109C56.9663 212.203 57.2802 212.667 57.188 213.147C57.1046 213.569 56.7341 213.863 56.3174 213.863ZM26.6128 213.509C26.1943 213.509 25.822 213.211 25.7422 212.784C25.4638 211.293 25.2262 209.767 25.033 208.251C24.9709 207.766 25.3149 207.323 25.8007 207.261C26.2848 207.199 26.7298 207.543 26.7919 208.028C26.9798 209.509 27.2121 211 27.4852 212.458C27.5756 212.938 27.2564 213.402 26.7759 213.491C26.721 213.503 26.666 213.509 26.6128 213.509ZM25.4709 204.512C25.0099 204.512 24.6198 204.154 24.5879 203.687C24.4833 202.174 24.4213 200.633 24.4 199.106C24.3929 198.617 24.7847 198.215 25.2741 198.21C25.2777 198.21 25.2812 198.21 25.2865 198.21C25.7706 198.21 26.166 198.599 26.1731 199.083C26.1926 200.578 26.2546 202.085 26.3557 203.566C26.3894 204.055 26.0206 204.477 25.533 204.51C25.5135 204.512 25.4922 204.512 25.4709 204.512ZM25.3539 195.446C25.3415 195.446 25.3291 195.446 25.3167 195.446C24.8273 195.425 24.4479 195.012 24.4674 194.523C24.5312 193.005 24.6376 191.468 24.7847 189.952C24.8326 189.465 25.2653 189.107 25.7529 189.155C26.2404 189.202 26.5968 189.635 26.5507 190.122C26.4071 191.606 26.3025 193.113 26.2404 194.598C26.2192 195.074 25.8273 195.446 25.3539 195.446ZM26.2263 186.421C26.1819 186.421 26.1376 186.418 26.0933 186.411C25.6092 186.338 25.2759 185.886 25.3486 185.403C25.5755 183.903 25.8451 182.385 26.1518 180.891C26.2511 180.411 26.7192 180.103 27.1979 180.202C27.6784 180.301 27.9869 180.769 27.8877 181.247C27.588 182.709 27.322 184.197 27.1004 185.667C27.0348 186.106 26.6571 186.421 26.2263 186.421ZM28.049 177.538C27.9745 177.538 27.9001 177.529 27.8256 177.51C27.3522 177.386 27.0685 176.902 27.1908 176.429C27.5738 174.959 28.0011 173.478 28.4604 172.028C28.6075 171.562 29.1075 171.303 29.5739 171.45C30.0402 171.597 30.2991 172.095 30.1519 172.563C29.7015 173.985 29.2831 175.436 28.9072 176.876C28.8026 177.274 28.4426 177.538 28.049 177.538ZM30.7849 168.894C30.682 168.894 30.5774 168.876 30.4746 168.837C30.0154 168.666 29.7831 168.155 29.9551 167.697C30.4888 166.273 31.065 164.845 31.6714 163.449C31.8665 163.001 32.3878 162.794 32.8381 162.989C33.2867 163.183 33.4942 163.704 33.2991 164.154C32.7051 165.522 32.1395 166.923 31.6165 168.317C31.4817 168.674 31.1448 168.894 30.7849 168.894ZM34.3967 160.576C34.2637 160.576 34.1307 160.546 34.003 160.484C33.5651 160.266 33.386 159.735 33.6023 159.297C34.2779 157.935 34.9995 156.573 35.7442 155.248C35.9836 154.821 36.5244 154.67 36.9517 154.91C37.379 155.149 37.5297 155.689 37.2904 156.116C36.5598 157.416 35.8541 158.752 35.191 160.085C35.0368 160.395 34.7229 160.576 34.3967 160.576ZM38.8383 152.671C38.6769 152.671 38.5138 152.626 38.3666 152.534C37.9517 152.274 37.8276 151.726 38.09 151.312C38.9021 150.026 39.7567 148.745 40.6326 147.502C40.9146 147.102 41.4678 147.006 41.8685 147.288C42.2692 147.569 42.3649 148.122 42.083 148.522C41.2248 149.741 40.3862 150.997 39.59 152.256C39.4198 152.524 39.1326 152.671 38.8383 152.671ZM44.0618 145.259C43.8703 145.259 43.6788 145.197 43.5157 145.072C43.1309 144.77 43.0618 144.212 43.365 143.828C44.3029 142.632 45.2834 141.444 46.2817 140.298C46.6026 139.929 47.1629 139.889 47.5317 140.211C47.9005 140.532 47.9413 141.091 47.6186 141.46C46.6399 142.585 45.6788 143.748 44.7586 144.921C44.5848 145.142 44.326 145.259 44.0618 145.259ZM50.0158 138.417C49.7942 138.417 49.5725 138.335 49.4006 138.169C49.0477 137.829 49.0371 137.269 49.3775 136.916C50.4325 135.822 51.53 134.738 52.64 133.698C52.9964 133.363 53.5585 133.381 53.8936 133.737C54.2287 134.093 54.211 134.654 53.8546 134.989C52.7659 136.009 51.6896 137.071 50.6559 138.144C50.4804 138.325 50.2481 138.417 50.0158 138.417ZM56.6365 132.21C56.3848 132.21 56.1348 132.104 55.9592 131.896C55.6418 131.523 55.6879 130.965 56.0621 130.648C57.2217 129.666 58.4238 128.699 59.6331 127.775C60.0214 127.477 60.5781 127.551 60.876 127.939C61.1739 128.327 61.0994 128.883 60.7093 129.181C59.5231 130.088 58.344 131.036 57.2075 131.997C57.0426 132.141 56.8387 132.21 56.6365 132.21Z" fill="black"/>
<path d="M561.438 380.649C578.142 380.649 591.683 367.121 591.683 350.434C591.683 333.746 578.142 320.219 561.438 320.219C544.734 320.219 531.192 333.746 531.192 350.434C531.192 367.121 544.734 380.649 561.438 380.649Z" fill="#02A2D1"/>
<path d="M561.438 381.535C544.272 381.535 530.306 367.584 530.306 350.434C530.306 333.286 544.27 319.333 561.438 319.333C578.605 319.333 592.57 333.284 592.57 350.434C592.57 367.582 578.603 381.535 561.438 381.535ZM561.438 321.104C545.249 321.104 532.079 334.262 532.079 350.434C532.079 366.606 545.249 379.763 561.438 379.763C577.626 379.763 590.796 366.606 590.796 350.434C590.796 334.262 577.626 321.104 561.438 321.104Z" fill="black"/>
<path d="M561.438 381.535C544.272 381.535 530.306 367.584 530.306 350.434C530.306 333.286 544.27 319.333 561.438 319.333C578.605 319.333 592.57 333.284 592.57 350.434C592.57 367.582 578.603 381.535 561.438 381.535ZM561.438 321.104C545.249 321.104 532.079 334.262 532.079 350.434C532.079 366.606 545.249 379.763 561.438 379.763C577.626 379.763 590.796 366.606 590.796 350.434C590.796 334.262 577.626 321.104 561.438 321.104Z" fill="black"/>
<path d="M549.011 352.043C549.904 349.89 548.881 347.422 546.726 346.53C544.571 345.638 542.1 346.66 541.207 348.813C540.314 350.966 541.338 353.435 543.493 354.326C545.648 355.218 548.119 354.196 549.011 352.043Z" fill="white"/>
<path d="M545.093 355.539C542.276 355.539 539.983 353.248 539.983 350.434C539.983 347.619 542.276 345.329 545.093 345.329C547.911 345.329 550.204 347.619 550.204 350.434C550.204 353.248 547.911 355.539 545.093 355.539ZM545.093 347.1C543.253 347.1 541.756 348.595 541.756 350.434C541.756 352.272 543.253 353.767 545.093 353.767C546.934 353.767 548.43 352.272 548.43 350.434C548.43 348.595 546.934 347.1 545.093 347.1Z" fill="black"/>
<path d="M565.356 352.043C566.249 349.89 565.225 347.422 563.07 346.53C560.915 345.638 558.445 346.66 557.552 348.813C556.659 350.966 557.683 353.434 559.838 354.326C561.993 355.218 564.463 354.196 565.356 352.043Z" fill="white"/>
<path d="M561.438 355.539C558.621 355.539 556.328 353.248 556.328 350.434C556.328 347.619 558.621 345.329 561.438 345.329C564.256 345.329 566.548 347.619 566.548 350.434C566.548 353.248 564.256 355.539 561.438 355.539ZM561.438 347.1C559.598 347.1 558.101 348.595 558.101 350.434C558.101 352.272 559.598 353.767 561.438 353.767C563.279 353.767 564.775 352.272 564.775 350.434C564.775 348.595 563.279 347.1 561.438 347.1Z" fill="black"/>
<path d="M582.417 352.042C583.309 349.889 582.286 347.421 580.131 346.529C577.976 345.638 575.505 346.66 574.612 348.813C573.72 350.966 574.743 353.434 576.898 354.326C579.053 355.218 581.524 354.195 582.417 352.042Z" fill="white"/>
<path d="M578.498 355.539C575.68 355.539 573.388 353.248 573.388 350.434C573.388 347.619 575.68 345.329 578.498 345.329C581.315 345.329 583.608 347.619 583.608 350.434C583.608 353.248 581.315 355.539 578.498 355.539ZM578.498 347.1C576.657 347.1 575.161 348.595 575.161 350.434C575.161 352.272 576.657 353.767 578.498 353.767C580.338 353.767 581.835 352.272 581.835 350.434C581.835 348.595 580.338 347.1 578.498 347.1Z" fill="black"/>
<path d="M585.067 269.334L591.514 246.39L591.973 244.939C593.865 240.612 599.546 238.913 604.663 241.145C609.778 243.377 612.394 248.694 610.502 253.021L610.009 253.958C610.009 253.958 597.562 274.247 597.565 274.251C596.056 276.711 592.533 277.595 589.338 276.201C586.327 274.888 584.604 271.989 585.067 269.334Z" fill="white"/>
<path d="M592.444 277.746C591.302 277.746 590.12 277.508 588.981 277.012C585.668 275.567 583.653 272.274 584.192 269.181L584.212 269.095L590.668 246.122L591.161 244.583C593.246 239.814 599.46 237.909 605.017 240.332C610.572 242.757 613.397 248.607 611.314 253.376L611.285 253.434L610.764 254.423C610.652 254.603 600.634 270.935 598.661 274.159L598.32 274.715C597.123 276.665 594.881 277.746 592.444 277.746ZM585.934 269.528C585.559 271.813 587.134 274.274 589.692 275.39C592.451 276.593 595.512 275.905 596.81 273.789L596.817 273.792C596.861 273.705 596.909 273.629 596.95 273.56L609.239 253.521L609.704 252.639C611.372 248.77 608.959 243.984 604.312 241.956C599.668 239.93 594.521 241.409 592.808 245.251L592.366 246.643L585.934 269.528Z" fill="black"/>
<path d="M590.744 291.847C592.163 288.6 590.202 284.61 586.363 282.935C582.524 281.26 578.261 282.535 576.842 285.782C575.422 289.029 577.384 293.019 581.223 294.694C585.062 296.369 589.324 295.094 590.744 291.847Z" fill="white"/>
<path d="M584.703 296.32C583.452 296.32 582.152 296.061 580.895 295.512C576.615 293.645 574.444 289.123 576.056 285.433C576.849 283.619 578.416 282.284 580.467 281.671C582.466 281.074 584.696 281.237 586.744 282.13C588.792 283.024 590.427 284.546 591.347 286.418C592.292 288.338 592.376 290.395 591.583 292.209C590.443 294.816 587.716 296.32 584.703 296.32ZM577.682 286.144C576.46 288.939 578.221 292.412 581.604 293.89C584.989 295.367 588.735 294.295 589.957 291.5C590.537 290.172 590.466 288.645 589.755 287.199C589.019 285.704 587.698 284.48 586.033 283.754C584.368 283.028 582.572 282.891 580.975 283.368C579.432 283.83 578.262 284.815 577.682 286.144Z" fill="black"/>
<path d="M592.444 277.746C591.302 277.746 590.12 277.508 588.981 277.012C585.668 275.567 583.653 272.274 584.192 269.181L584.212 269.095L590.668 246.122L591.161 244.583C593.246 239.814 599.46 237.909 605.017 240.332C610.572 242.757 613.397 248.607 611.314 253.376L611.285 253.434L610.764 254.423C610.652 254.603 600.634 270.935 598.661 274.159L598.32 274.715C597.123 276.665 594.881 277.746 592.444 277.746ZM585.934 269.528C585.559 271.813 587.134 274.274 589.692 275.39C592.451 276.593 595.512 275.905 596.81 273.789L596.817 273.792C596.861 273.705 596.909 273.629 596.95 273.56L609.239 253.521L609.704 252.639C611.372 248.77 608.959 243.984 604.312 241.956C599.668 239.93 594.521 241.409 592.808 245.251L592.366 246.643L585.934 269.528Z" fill="black"/>
<path d="M584.703 296.32C583.452 296.32 582.152 296.061 580.895 295.512C576.615 293.645 574.444 289.123 576.056 285.433C576.849 283.619 578.416 282.284 580.467 281.671C582.466 281.074 584.696 281.237 586.744 282.13C588.792 283.024 590.427 284.546 591.347 286.418C592.292 288.338 592.376 290.395 591.583 292.209C590.443 294.816 587.716 296.32 584.703 296.32ZM577.682 286.144C576.46 288.939 578.221 292.412 581.604 293.89C584.989 295.367 588.735 294.295 589.957 291.5C590.537 290.172 590.466 288.645 589.755 287.199C589.019 285.704 587.698 284.48 586.033 283.754C584.368 283.028 582.572 282.891 580.975 283.368C579.432 283.83 578.262 284.815 577.682 286.144Z" fill="black"/>
<path d="M134.236 94.3567L143.607 101.787L131.899 106.912L120.191 112.036L122.528 99.4812L124.864 86.9278L134.236 94.3567Z" fill="#00A558"/>
<path d="M119.014 113.519L124.262 85.3195L145.312 102.009L119.014 113.519ZM125.466 88.5362L121.368 110.554L141.903 101.566L125.466 88.5362Z" fill="black"/>
<path d="M594.735 124.305L606.838 133.902L592.468 139.575L578.097 145.249L580.363 129.978L582.63 114.708L594.735 124.305Z" fill="white"/>
<path d="M576.994 146.636L581.978 113.06L608.592 134.16L576.994 146.636ZM583.283 116.355L579.2 143.86L605.085 133.639L583.283 116.355Z" fill="black"/>
<path d="M43.2289 320.899L53.5181 329.056L41.3016 333.879L29.085 338.7L31.0123 325.72L32.9397 312.74L43.2289 320.899Z" fill="white"/>
<path d="M27.9834 340.089L32.2885 311.094L43.7799 320.206L55.2713 329.318L27.9834 340.089ZM33.5899 314.387L30.1856 337.314L51.7623 328.795L33.5899 314.387Z" fill="black"/>
<path d="M550.847 220H510.394C509.22 220 508.27 219.049 508.27 217.875V176.413C508.27 175.239 509.22 174.288 510.394 174.288H582.686C583.86 174.288 584.81 175.239 584.81 176.413V217.873C584.81 219.047 583.86 219.999 582.686 219.999H562.379H550.847V220Z" fill="white"/>
<path d="M582.688 220.089H562.381V219.912H582.688C583.81 219.912 584.723 218.998 584.723 217.875V176.413C584.723 175.29 583.81 174.376 582.688 174.376H510.395C509.273 174.376 508.36 175.29 508.36 176.413V217.873C508.36 218.996 509.273 219.91 510.395 219.91H550.848V220.087H510.395C509.176 220.087 508.183 219.093 508.183 217.873V176.413C508.183 175.193 509.176 174.199 510.395 174.199H582.688C583.908 174.199 584.901 175.193 584.901 176.413V217.873C584.901 219.095 583.908 220.089 582.688 220.089Z" fill="black"/>
<path d="M582.688 220.886H510.395C508.736 220.886 507.385 219.536 507.385 217.875V176.413C507.385 174.754 508.736 173.402 510.395 173.402H582.688C584.348 173.402 585.699 174.752 585.699 176.413V217.873C585.699 219.535 584.348 220.886 582.688 220.886ZM510.395 175.175C509.713 175.175 509.158 175.731 509.158 176.415V217.875C509.158 218.559 509.713 219.115 510.395 219.115H582.688C583.371 219.115 583.926 218.559 583.926 217.875V176.413C583.926 175.73 583.371 175.173 582.688 175.173H510.395V175.175Z" fill="black"/>
<path d="M546.363 197.921L545.923 197.662C509.177 176.045 508.794 175.662 508.668 175.537C508.323 175.191 508.323 174.63 508.668 174.284C508.995 173.96 509.511 173.941 509.858 174.226C510.908 174.963 532.068 187.456 546.382 195.877L583.922 174.7C584.348 174.46 584.888 174.61 585.129 175.037C585.371 175.462 585.22 176.002 584.793 176.243L546.363 197.921ZM509.867 174.233C509.887 174.249 509.904 174.267 509.922 174.284C509.911 174.274 509.894 174.254 509.867 174.233Z" fill="black"/>
<path d="M466.47 83.952C466.215 83.952 465.96 83.8422 465.784 83.6296L447.718 61.674C447.408 61.2967 447.461 60.7388 447.841 60.427C448.218 60.117 448.777 60.1702 449.089 60.5492L467.155 82.5048C467.465 82.8821 467.412 83.4401 467.033 83.7518C466.868 83.8847 466.667 83.952 466.47 83.952Z" fill="black"/>
<path d="M448.403 61.9964C448.204 61.9964 448.006 61.9309 447.841 61.7945C447.463 61.4845 447.408 60.9265 447.719 60.5475L465.785 38.5919C466.095 38.2146 466.653 38.1597 467.033 38.4697C467.411 38.7796 467.466 39.3376 467.155 39.7167L449.089 61.674C448.914 61.8866 448.66 61.9964 448.403 61.9964Z" fill="black"/>
<path d="M534.256 83.5783C534.057 83.5783 533.858 83.5127 533.694 83.3763C533.316 83.0663 533.261 82.5084 533.571 82.1293L551.635 60.1737C551.946 59.7964 552.504 59.7415 552.884 60.0515C553.261 60.3615 553.316 60.9195 553.006 61.2985L534.942 83.2541C534.764 83.4684 534.511 83.5783 534.256 83.5783Z" fill="black"/>
<path d="M552.321 61.6227C552.066 61.6227 551.811 61.5128 551.635 61.2985L533.571 39.3429C533.261 38.9656 533.314 38.4077 533.693 38.0959C534.071 37.7859 534.629 37.8391 534.941 38.2181L553.006 60.1737C553.316 60.551 553.263 61.109 552.883 61.4207C552.718 61.5571 552.52 61.6227 552.321 61.6227Z" fill="black"/>
<path d="M482.306 82.7829C483.998 82.7829 485.37 81.1611 485.37 79.1606C485.37 77.16 483.998 75.5382 482.306 75.5382C480.614 75.5382 479.242 77.16 479.242 79.1606C479.242 81.1611 480.614 82.7829 482.306 82.7829Z" fill="#2E2E2E"/>
<path d="M482.306 83.6686C480.127 83.6686 478.354 81.6457 478.354 79.1605C478.354 76.6754 480.127 74.6525 482.306 74.6525C484.485 74.6525 486.256 76.6754 486.256 79.1605C486.256 81.6457 484.483 83.6686 482.306 83.6686ZM482.306 76.4239C481.105 76.4239 480.127 77.6514 480.127 79.1605C480.127 80.6697 481.104 81.8972 482.306 81.8972C483.506 81.8972 484.483 80.6697 484.483 79.1605C484.483 77.6514 483.506 76.4239 482.306 76.4239Z" fill="black"/>
<path d="M500.324 82.7829C502.016 82.7829 503.388 81.1611 503.388 79.1606C503.388 77.16 502.016 75.5382 500.324 75.5382C498.632 75.5382 497.26 77.16 497.26 79.1606C497.26 81.1611 498.632 82.7829 500.324 82.7829Z" fill="#2E2E2E"/>
<path d="M500.323 83.6686C498.144 83.6686 496.373 81.6457 496.373 79.1605C496.373 76.6754 498.146 74.6525 500.323 74.6525C502.503 74.6525 504.276 76.6754 504.276 79.1605C504.276 81.6457 502.503 83.6686 500.323 83.6686ZM500.323 76.4239C499.123 76.4239 498.146 77.6514 498.146 79.1605C498.146 80.6697 499.123 81.8972 500.323 81.8972C501.524 81.8972 502.503 80.6697 502.503 79.1605C502.503 77.6514 501.526 76.4239 500.323 76.4239Z" fill="black"/>
<path d="M517.953 82.7829C519.645 82.7829 521.016 81.1611 521.016 79.1606C521.016 77.16 519.645 75.5382 517.953 75.5382C516.26 75.5382 514.889 77.16 514.889 79.1606C514.889 81.1611 516.26 82.7829 517.953 82.7829Z" fill="#2E2E2E"/>
<path d="M517.952 83.6686C515.773 83.6686 514.002 81.6457 514.002 79.1605C514.002 76.6754 515.775 74.6525 517.952 74.6525C520.132 74.6525 521.905 76.6754 521.905 79.1605C521.903 81.6457 520.13 83.6686 517.952 83.6686ZM517.952 76.4239C516.752 76.4239 515.775 77.6514 515.775 79.1605C515.775 80.6697 516.752 81.8972 517.952 81.8972C519.153 81.8972 520.132 80.6697 520.132 79.1605C520.13 77.6514 519.153 76.4239 517.952 76.4239Z" fill="black"/>
<path d="M308.699 61.5111H368.341C370.791 67.5247 376.355 71.7298 382.837 71.7298C391.584 71.7298 396.329 64.083 396.329 54.6489C396.329 45.2698 391.664 37.6655 382.988 37.5769V15.5646C382.988 7.45728 376.894 0.885666 369.378 0.885666H308.699C301.183 0.885666 295.089 7.45728 295.089 15.5646V46.8303C295.089 54.9394 301.181 61.5111 308.699 61.5111Z" fill="white"/>
<path d="M382.837 72.6155C376.387 72.6155 370.528 68.6247 367.755 62.3967H308.699C300.706 62.3967 294.202 55.4142 294.202 46.8321V15.5646C294.202 6.98257 300.706 0 308.699 0H369.378C377.371 0 383.874 6.98257 383.874 15.5646V36.7231C387.889 36.9924 391.247 38.8416 393.628 42.1062C395.942 45.2769 397.215 49.73 397.215 54.6472C397.215 59.5927 395.923 64.0689 393.577 67.2502C390.988 70.7609 387.275 72.6155 382.837 72.6155ZM308.699 1.77133C301.683 1.77133 295.975 7.95857 295.975 15.5646V46.8303C295.975 54.4364 301.683 60.6236 308.699 60.6236H368.938L369.163 61.1745C371.557 67.0464 376.924 70.8406 382.839 70.8406C390.497 70.8406 395.444 64.4833 395.444 54.6454C395.444 44.8889 390.552 38.5352 382.981 38.459L382.103 38.4502V15.5646C382.103 7.95857 376.396 1.77133 369.379 1.77133H308.699Z" fill="black"/>
<path d="M308.699 61.5111H369.378C376.894 61.5111 382.988 54.9394 382.988 46.8321V15.5646C382.988 7.45728 376.894 0.885666 369.378 0.885666H308.699C301.183 0.885666 295.089 7.45728 295.089 15.5646V46.8321C295.089 54.9394 301.181 61.5111 308.699 61.5111Z" fill="white"/>
<path d="M369.378 61.5996H308.699C301.146 61.5996 295 54.9749 295 46.8321V15.5646C295 7.42185 301.146 0.797096 308.699 0.797096H369.378C376.931 0.797096 383.076 7.42185 383.076 15.5646V46.8321C383.076 54.9749 376.931 61.5996 369.378 61.5996ZM308.699 0.974229C301.243 0.974229 295.177 7.51928 295.177 15.5646V46.8321C295.177 54.8774 301.243 61.4225 308.699 61.4225H369.378C376.833 61.4225 382.899 54.8774 382.899 46.8321V15.5646C382.899 7.51928 376.833 0.974229 369.378 0.974229H308.699Z" fill="black"/>
<path d="M369.378 62.3967H308.699C300.706 62.3967 294.202 55.4142 294.202 46.8321V15.5646C294.202 6.98257 300.706 0 308.699 0H369.378C377.371 0 383.874 6.98257 383.874 15.5646V46.8321C383.874 55.4142 377.371 62.3967 369.378 62.3967ZM308.699 1.77133C301.683 1.77133 295.975 7.95857 295.975 15.5646V46.8321C295.975 54.4382 301.683 60.6254 308.699 60.6254H369.378C376.394 60.6254 382.101 54.4382 382.101 46.8321V15.5646C382.101 7.95857 376.394 1.77133 369.378 1.77133H308.699Z" fill="black"/>
<path d="M361.044 20.4535H317.032C316.543 20.4535 316.146 20.0567 316.146 19.5679C316.146 19.079 316.543 18.6822 317.032 18.6822H361.044C361.533 18.6822 361.93 19.079 361.93 19.5679C361.93 20.0567 361.533 20.4535 361.044 20.4535Z" fill="black"/>
<path d="M361.044 32.084H317.032C316.543 32.084 316.146 31.6873 316.146 31.1984C316.146 30.7095 316.543 30.3127 317.032 30.3127H361.044C361.533 30.3127 361.93 30.7095 361.93 31.1984C361.93 31.6873 361.533 32.084 361.044 32.084Z" fill="black"/>
<path d="M361.044 43.7146H317.032C316.543 43.7146 316.146 43.3178 316.146 42.8289C316.146 42.34 316.543 41.9432 317.032 41.9432H361.044C361.533 41.9432 361.93 42.34 361.93 42.8289C361.93 43.3178 361.533 43.7146 361.044 43.7146Z" fill="black"/>
<path d="M380.77 71.7298C389.517 71.7298 396.607 64.0825 396.607 54.6489C396.607 45.2154 389.517 37.5681 380.77 37.5681C372.023 37.5681 364.933 45.2154 364.933 54.6489C364.933 64.0825 372.023 71.7298 380.77 71.7298Z" fill="#00A558"/>
<path d="M380.77 72.6155C371.548 72.6155 364.046 64.556 364.046 54.6489C364.046 44.7419 371.548 36.6824 380.77 36.6824C389.992 36.6824 397.494 44.7419 397.494 54.6489C397.494 64.556 389.992 72.6155 380.77 72.6155ZM380.77 38.4537C372.527 38.4537 365.819 45.7179 365.819 54.6489C365.819 63.5782 372.525 70.8442 380.77 70.8442C389.015 70.8442 395.72 63.58 395.72 54.6489C395.72 45.7179 389.013 38.4537 380.77 38.4537Z" fill="black"/>
<path d="M391.918 49.319L389.744 47.1439L379.114 59.5095L373.208 52.6509L371.034 54.8243L379.096 64.2017L379.111 64.1858L379.123 64.2017L391.918 49.319Z" fill="#2E2E2E"/>
<path d="M379.124 65.5585L379.11 65.5408L379.096 65.5568L369.828 54.7783L373.257 51.3472L379.114 58.1491L389.696 45.8401L393.127 49.2712L379.124 65.5585ZM372.241 54.8704L379.098 62.8449L379.108 62.8325L379.119 62.8449L390.708 49.3651L389.791 48.4475L379.112 60.8681L373.158 53.9528L372.241 54.8704Z" fill="black"/>
<path d="M573.25 450H26.5599C24.6006 450 23.0137 448.415 23.0137 446.457C23.0137 444.5 24.6006 442.915 26.5599 442.915H573.25C575.209 442.915 576.796 444.5 576.796 446.457C576.796 448.415 575.209 450 573.25 450Z" fill="black"/>
</g>
<defs>
<clipPath id="clip0_61_990">
<rect width="612" height="450" fill="white"/>
</clipPath>
</defs>
</svg>
