<svg width="59" height="59" viewBox="0 0 59 59" fill="none" xmlns="http://www.w3.org/2000/svg">
<path d="M29.2019 2.48688C14.4711 2.48688 2.48682 14.4712 2.48682 29.202C2.48682 43.9328 14.4711 55.9171 29.2019 55.9171C43.9327 55.9171 55.917 43.9328 55.917 29.202C55.917 14.4712 43.9327 2.48688 29.2019 2.48688Z" fill="black"/>
<path d="M40.4314 20.7146L41.0035 31.8955C41.0408 32.6321 40.7457 33.3098 40.2496 33.7811C39.8442 34.1662 39.3044 34.414 38.7018 34.4451C37.3625 34.5135 36.2209 33.4831 36.1521 32.1434L35.85 26.2363L22.0705 39.3263C21.0981 40.25 19.5607 40.2106 18.637 39.2382C17.7132 38.2658 17.7527 36.7284 18.7251 35.8047L32.5046 22.7147L26.6207 22.1099C25.2864 21.9725 24.3159 20.7796 24.4529 19.4456C24.5903 18.1112 25.7836 17.1412 27.1172 17.2777L38.254 18.4225C39.4457 18.5449 40.3703 19.5181 40.4314 20.7146Z" fill="white"/>
</svg>
