<svg width="20" height="23" viewBox="0 0 20 23" fill="none" xmlns="http://www.w3.org/2000/svg">
<path fill-rule="evenodd" clip-rule="evenodd" d="M13.3333 2.22222V1.11111C13.3333 0.497778 13.8311 0 14.4444 0C15.0578 0 15.5556 0.497778 15.5556 1.11111V2.22222C18.01 2.22222 20 4.21222 20 6.66667V17.7778C20 20.2322 18.01 22.2222 15.5556 22.2222C12.3778 22.2222 7.62111 22.2222 4.44444 22.2222C1.99 22.2222 0 20.2322 0 17.7778V6.66667C0 4.21222 1.99 2.22222 4.44444 2.22222V1.11111C4.44444 0.497778 4.94222 0 5.55556 0C6.16889 0 6.66667 0.497778 6.66667 1.11111V2.22222H13.3333ZM17.7778 11.1111H2.22222V17.7778C2.22222 19.0044 3.21667 20 4.44444 20H15.5556C16.7822 20 17.7778 19.0044 17.7778 17.7778V11.1111ZM15.5556 4.44444V5.55556C15.5556 6.16889 15.0578 6.66667 14.4444 6.66667C13.8311 6.66667 13.3333 6.16889 13.3333 5.55556V4.44444H6.66667V5.55556C6.66667 6.16889 6.16889 6.66667 5.55556 6.66667C4.94222 6.66667 4.44444 6.16889 4.44444 5.55556V4.44444C3.21667 4.44444 2.22222 5.43889 2.22222 6.66667V8.88889H17.7778V6.66667C17.7778 5.43889 16.7822 4.44444 15.5556 4.44444Z" fill="black"/>
</svg>
