<svg width="324" height="277" viewBox="0 0 324 277" fill="none" xmlns="http://www.w3.org/2000/svg">
<g clip-path="url(#clip0_307_98)">
<path d="M63.9246 273.216C63.6361 273.216 63.3966 272.982 63.3966 272.687V268.025C63.3966 267.736 63.6307 267.496 63.9246 267.496C64.2132 267.496 64.4527 267.73 64.4527 268.025V272.687C64.4472 272.982 64.2132 273.216 63.9246 273.216Z" fill="white"/>
<path d="M72.2262 276.87H67.5719C67.2833 276.87 67.0438 276.635 67.0438 276.341C67.0438 276.052 67.2779 275.812 67.5719 275.812H72.2262C72.5147 275.812 72.7542 276.046 72.7542 276.341C72.7542 276.635 72.5147 276.87 72.2262 276.87Z" fill="white"/>
<path d="M60.2719 276.87H55.6176C55.3291 276.87 55.0896 276.635 55.0896 276.341C55.0896 276.052 55.3237 275.812 55.6176 275.812H60.2719C60.5605 275.812 60.8 276.046 60.8 276.341C60.8 276.635 60.5605 276.87 60.2719 276.87Z" fill="white"/>
<path d="M66.4994 274.285C66.3633 274.285 66.2327 274.236 66.1293 274.132C65.9224 273.925 65.9224 273.592 66.1293 273.385L69.4227 270.086C69.6295 269.879 69.9616 269.879 70.1684 270.086C70.3753 270.293 70.3753 270.626 70.1684 270.833L66.875 274.132C66.7716 274.236 66.6355 274.285 66.4994 274.285Z" fill="white"/>
<path d="M61.3389 274.285C61.2028 274.285 61.0721 274.236 60.9687 274.132L57.6753 270.833C57.4684 270.626 57.4684 270.293 57.6753 270.086C57.8821 269.879 58.2142 269.879 58.4211 270.086L61.7145 273.385C61.9213 273.592 61.9213 273.925 61.7145 274.132C61.611 274.236 61.4749 274.285 61.3389 274.285Z" fill="white"/>
<path d="M8.82955 107.838C8.54103 107.838 8.30151 107.604 8.30151 107.309V102.647C8.30151 102.358 8.53559 102.118 8.82955 102.118C9.11806 102.118 9.35758 102.352 9.35758 102.647V107.309C9.35758 107.604 9.1235 107.838 8.82955 107.838Z" fill="white"/>
<path d="M8.82955 119.813C8.54103 119.813 8.30151 119.578 8.30151 119.284V114.622C8.30151 114.333 8.53559 114.093 8.82955 114.093C9.11806 114.093 9.35758 114.327 9.35758 114.622V119.284C9.35758 119.578 9.1235 119.813 8.82955 119.813Z" fill="white"/>
<path d="M17.1366 111.492H12.4823C12.1937 111.492 11.9542 111.257 11.9542 110.963C11.9542 110.674 12.1883 110.434 12.4823 110.434H17.1366C17.4251 110.434 17.6646 110.668 17.6646 110.963C17.6592 111.257 17.4251 111.492 17.1366 111.492Z" fill="white"/>
<path d="M5.18235 111.492H0.528033C0.23952 111.492 0 111.257 0 110.963C0 110.674 0.234077 110.434 0.528033 110.434H5.18235C5.47086 110.434 5.71038 110.668 5.71038 110.963C5.70493 111.257 5.47086 111.492 5.18235 111.492Z" fill="white"/>
<path d="M2.96135 117.375C2.82526 117.375 2.69461 117.326 2.59118 117.223C2.38432 117.015 2.38432 116.683 2.59118 116.476L5.88458 113.177C6.09144 112.969 6.4235 112.969 6.63036 113.177C6.83722 113.384 6.83722 113.716 6.63036 113.924L3.33696 117.223C3.22808 117.326 3.09199 117.375 2.96135 117.375Z" fill="white"/>
<path d="M11.4098 108.907C11.2737 108.907 11.1431 108.858 11.0397 108.754C10.8328 108.547 10.8328 108.214 11.0397 108.007L14.3331 104.708C14.5399 104.501 14.872 104.501 15.0788 104.708C15.2857 104.915 15.2857 105.248 15.0788 105.455L11.7854 108.754C11.682 108.858 11.5459 108.907 11.4098 108.907Z" fill="white"/>
<path d="M6.24926 108.907C6.11316 108.907 5.98252 108.858 5.87909 108.754L2.58569 105.455C2.37883 105.248 2.37883 104.915 2.58569 104.708C2.79254 104.501 3.12461 104.501 3.33146 104.708L6.62487 108.007C6.83173 108.214 6.83173 108.547 6.62487 108.754C6.52144 108.858 6.38535 108.907 6.24926 108.907Z" fill="white"/>
<path d="M14.7032 117.375C14.5671 117.375 14.4365 117.326 14.3331 117.223L11.0397 113.924C10.8328 113.716 10.8328 113.384 11.0397 113.177C11.2465 112.969 11.5786 112.969 11.7854 113.177L15.0788 116.476C15.2857 116.683 15.2857 117.015 15.0788 117.223C14.97 117.326 14.8339 117.375 14.7032 117.375Z" fill="white"/>
<path d="M78.5081 5.71472C78.2196 5.71472 77.9801 5.48024 77.9801 5.18578V0.528939C77.9801 0.239931 78.2142 0 78.5081 0C78.7966 0 79.0362 0.234478 79.0362 0.528939V5.19123C79.0362 5.48024 78.8021 5.71472 78.5081 5.71472Z" fill="white"/>
<path d="M78.5081 17.6895C78.2196 17.6895 77.9801 17.455 77.9801 17.1605V12.4982C77.9801 12.2092 78.2142 11.9693 78.5081 11.9693C78.7966 11.9693 79.0362 12.2038 79.0362 12.4982V17.1605C79.0362 17.455 78.8021 17.6895 78.5081 17.6895Z" fill="white"/>
<path d="M86.8152 9.37367H82.1608C81.8723 9.37367 81.6328 9.1392 81.6328 8.84473C81.6328 8.55573 81.8669 8.3158 82.1608 8.3158H86.8152C87.1037 8.3158 87.3432 8.55027 87.3432 8.84473C87.3377 9.13374 87.1037 9.37367 86.8152 9.37367Z" fill="white"/>
<path d="M74.8609 9.37367H70.2066C69.9181 9.37367 69.6786 9.1392 69.6786 8.84473C69.6786 8.55573 69.9127 8.3158 70.2066 8.3158H74.8609C75.1494 8.3158 75.389 8.55027 75.389 8.84473C75.3835 9.13374 75.1494 9.37367 74.8609 9.37367Z" fill="white"/>
<path d="M72.6399 15.252C72.5038 15.252 72.3732 15.2029 72.2698 15.0993C72.0629 14.8921 72.0629 14.5594 72.2698 14.3522L75.5632 11.0532C75.77 10.846 76.1021 10.846 76.3089 11.0532C76.5158 11.2604 76.5158 11.593 76.3089 11.8002L73.0156 15.0993C72.9067 15.2029 72.7706 15.252 72.6399 15.252Z" fill="white"/>
<path d="M81.0884 6.78896C80.9523 6.78896 80.8217 6.73988 80.7183 6.63627C80.5114 6.42906 80.5114 6.09643 80.7183 5.88921L84.0117 2.59016C84.2185 2.38295 84.5506 2.38295 84.7574 2.59016C84.9643 2.79738 84.9643 3.13001 84.7574 3.33722L81.464 6.63627C81.3606 6.73443 81.2245 6.78896 81.0884 6.78896Z" fill="white"/>
<path d="M75.9278 6.78896C75.7918 6.78896 75.6611 6.73988 75.5577 6.63627L72.2643 3.33722C72.0574 3.13001 72.0574 2.79738 72.2643 2.59016C72.4711 2.38295 72.8032 2.38295 73.0101 2.59016L76.3035 5.88921C76.5103 6.09643 76.5103 6.42906 76.3035 6.63627C76.2 6.73443 76.0639 6.78896 75.9278 6.78896Z" fill="white"/>
<path d="M84.3818 15.252C84.2457 15.252 84.1151 15.2029 84.0117 15.0993L80.7183 11.8002C80.5114 11.593 80.5114 11.2604 80.7183 11.0532C80.9251 10.846 81.2572 10.846 81.464 11.0532L84.7574 14.3522C84.9643 14.5594 84.9643 14.8921 84.7574 15.0993C84.6486 15.2029 84.5179 15.252 84.3818 15.252Z" fill="white"/>
<path d="M284.425 210.196C284.136 210.196 283.897 209.961 283.897 209.667V205.005C283.897 204.716 284.131 204.476 284.425 204.476C284.713 204.476 284.953 204.71 284.953 205.005V209.667C284.947 209.956 284.713 210.196 284.425 210.196Z" fill="white"/>
<path d="M284.425 222.171C284.136 222.171 283.897 221.936 283.897 221.642V216.979C283.897 216.69 284.131 216.45 284.425 216.45C284.713 216.45 284.953 216.685 284.953 216.979V221.642C284.947 221.931 284.713 222.171 284.425 222.171Z" fill="white"/>
<path d="M292.726 213.849H288.072C287.783 213.849 287.544 213.615 287.544 213.32C287.544 213.031 287.778 212.792 288.072 212.792H292.726C293.015 212.792 293.254 213.026 293.254 213.32C293.254 213.615 293.015 213.849 292.726 213.849Z" fill="white"/>
<path d="M280.772 213.849H276.118C275.829 213.849 275.59 213.615 275.59 213.32C275.59 213.031 275.824 212.792 276.118 212.792H280.772C281.061 212.792 281.3 213.026 281.3 213.32C281.3 213.615 281.061 213.849 280.772 213.849Z" fill="white"/>
<path d="M278.551 219.733C278.415 219.733 278.284 219.684 278.181 219.581C277.974 219.373 277.974 219.041 278.181 218.833L281.474 215.534C281.681 215.327 282.013 215.327 282.22 215.534C282.427 215.742 282.427 216.074 282.22 216.281L278.927 219.581C278.818 219.679 278.687 219.733 278.551 219.733Z" fill="white"/>
<path d="M287 211.265C286.863 211.265 286.733 211.216 286.629 211.112C286.423 210.905 286.423 210.572 286.629 210.365L289.923 207.066C290.13 206.859 290.462 206.859 290.669 207.066C290.875 207.273 290.875 207.606 290.669 207.813L287.375 211.112C287.272 211.216 287.136 211.265 287 211.265Z" fill="white"/>
<path d="M281.839 211.265C281.703 211.265 281.572 211.216 281.469 211.112L278.175 207.813C277.969 207.606 277.969 207.273 278.175 207.066C278.382 206.859 278.714 206.859 278.921 207.066L282.215 210.365C282.421 210.572 282.421 210.905 282.215 211.112C282.111 211.216 281.975 211.265 281.839 211.265Z" fill="white"/>
<path d="M290.293 219.733C290.157 219.733 290.026 219.684 289.923 219.581L286.629 216.281C286.423 216.074 286.423 215.742 286.629 215.534C286.836 215.327 287.168 215.327 287.375 215.534L290.669 218.833C290.875 219.041 290.875 219.373 290.669 219.581C290.565 219.679 290.429 219.733 290.293 219.733Z" fill="white"/>
<path d="M315.17 102.62C314.882 102.62 314.642 102.385 314.642 102.091V97.4284C314.642 97.1393 314.877 96.8994 315.17 96.8994C315.459 96.8994 315.699 97.1339 315.699 97.4284V102.091C315.693 102.385 315.459 102.62 315.17 102.62Z" fill="white"/>
<path d="M315.17 114.594C314.882 114.594 314.642 114.36 314.642 114.065V109.403C314.642 109.114 314.877 108.874 315.17 108.874C315.459 108.874 315.699 109.109 315.699 109.403V114.065C315.693 114.36 315.459 114.594 315.17 114.594Z" fill="white"/>
<path d="M323.472 106.273H318.818C318.529 106.273 318.29 106.039 318.29 105.744C318.29 105.455 318.524 105.215 318.818 105.215H323.472C323.761 105.215 324 105.45 324 105.744C324 106.039 323.761 106.273 323.472 106.273Z" fill="white"/>
<path d="M311.518 106.273H306.863C306.575 106.273 306.335 106.039 306.335 105.744C306.335 105.455 306.57 105.215 306.863 105.215H311.518C311.806 105.215 312.046 105.45 312.046 105.744C312.046 106.039 311.812 106.273 311.518 106.273Z" fill="white"/>
<path d="M309.297 112.157C309.161 112.157 309.03 112.108 308.927 112.004C308.72 111.797 308.72 111.464 308.927 111.257L312.22 107.958C312.427 107.751 312.759 107.751 312.966 107.958C313.173 108.165 313.173 108.498 312.966 108.705L309.672 112.004C309.564 112.108 309.433 112.157 309.297 112.157Z" fill="white"/>
<path d="M317.751 103.688C317.615 103.688 317.484 103.639 317.381 103.536C317.174 103.328 317.174 102.996 317.381 102.789L320.674 99.4896C320.881 99.2824 321.213 99.2824 321.42 99.4896C321.627 99.6968 321.627 100.029 321.42 100.237L318.126 103.536C318.018 103.639 317.881 103.688 317.751 103.688Z" fill="white"/>
<path d="M312.59 103.688C312.454 103.688 312.323 103.639 312.22 103.536L308.927 100.237C308.72 100.029 308.72 99.6968 308.927 99.4896C309.133 99.2824 309.466 99.2824 309.672 99.4896L312.966 102.789C313.173 102.996 313.173 103.328 312.966 103.536C312.857 103.639 312.721 103.688 312.59 103.688Z" fill="white"/>
<path d="M321.039 112.157C320.903 112.157 320.772 112.108 320.669 112.004L317.375 108.705C317.168 108.498 317.168 108.165 317.375 107.958C317.582 107.751 317.914 107.751 318.121 107.958L321.414 111.257C321.621 111.464 321.621 111.797 321.414 112.004C321.311 112.108 321.175 112.157 321.039 112.157Z" fill="white"/>
<path d="M105.128 250.908L102.493 162.112H231.507V250.466L105.318 250.744" fill="#0B0A10"/>
<path d="M225.612 246.513H110.555L107.98 167.172H226.896L225.612 246.513Z" fill="#FFB3DA"/>
<path d="M88.6169 276.461H248.567L231.507 250.466H104.904L88.6169 276.461Z" fill="#B7B8FB"/>
<path opacity="0.68" d="M88.6169 276.461H248.567L231.507 250.466H104.904L88.6169 276.461Z" fill="#0B0A10"/>
<path d="M107.098 253.874H227.887L230.407 256.732H104.687L107.098 253.874Z" stroke="white" stroke-width="0.3064" stroke-miterlimit="10" stroke-linecap="round" stroke-linejoin="round"/>
<path d="M102.776 260.254H232.204L234.909 263.319H100.794L102.776 260.254Z" stroke="white" stroke-width="0.3284" stroke-miterlimit="10" stroke-linecap="round" stroke-linejoin="round"/>
<path d="M128.9 267.719H201.948L203.478 271.182H127.778L128.9 267.719Z" stroke="white" stroke-width="0.2623" stroke-miterlimit="10" stroke-linecap="round" stroke-linejoin="round"/>
<path d="M207.724 102.505C206.189 101.813 204.469 101.289 203.342 100.155C202.765 99.5714 202.411 98.9061 202.193 98.1918L202.03 87.5366C201.845 75.5292 191.839 65.8883 179.482 65.5993C180.337 64.127 180.816 62.4093 180.767 60.5771C180.625 55.3259 176.265 51.1816 171.017 51.318C165.775 51.4597 161.638 55.8276 161.774 61.0842C161.861 64.3342 163.565 67.1534 166.091 68.8057C158.584 72.999 153.587 80.8622 153.723 89.8051L153.87 99.4241C153.728 99.6204 153.576 99.8168 153.396 99.9967C152.269 101.136 150.555 101.665 149.025 102.363C142.15 105.499 138.59 113.209 141.012 119.704C141.246 120.336 141.562 120.991 142.188 121.372C142.58 121.612 214.447 121.607 214.637 121.487C215.258 121.1 215.574 120.445 215.808 119.813C218.197 113.307 214.61 105.613 207.724 102.505Z" fill="#000201"/>
<path d="M160.751 95.1654L161.017 95.1599L161.192 106.638C161.202 107.304 161.251 107.953 161.333 108.596L160.958 108.602C157.125 108.661 153.973 105.701 153.913 101.987C153.859 98.279 156.918 95.2254 160.751 95.1654Z" fill="white"/>
<path d="M160.849 108.94C156.891 108.94 153.641 105.848 153.581 101.998C153.522 98.11 156.739 94.8927 160.751 94.8327L161.017 94.8273C161.219 94.8491 161.355 94.9745 161.355 95.1545L161.529 106.633C161.54 107.255 161.584 107.898 161.665 108.558C161.676 108.651 161.649 108.749 161.584 108.82C161.524 108.891 161.431 108.934 161.339 108.934L160.963 108.94C160.925 108.94 160.887 108.94 160.849 108.94ZM160.691 95.5034C157.076 95.5961 154.197 98.4862 154.246 101.987C154.3 105.471 157.25 108.269 160.843 108.269C160.876 108.269 160.914 108.269 160.947 108.269H160.958C160.898 107.718 160.865 107.173 160.86 106.644L160.691 95.5034Z" fill="#050004"/>
<path d="M195.389 95.3344L195.628 95.3289C199.079 95.2744 201.915 98.0336 201.97 101.491C202.024 104.948 199.27 107.789 195.819 107.844L195.481 107.849C195.536 107.249 195.563 106.638 195.552 106.022L195.389 95.3344Z" fill="white"/>
<path d="M195.481 108.182C195.389 108.182 195.301 108.143 195.236 108.072C195.171 108.002 195.138 107.909 195.149 107.816C195.203 107.205 195.225 106.6 195.22 106.022L195.057 95.3343C195.057 95.2471 195.089 95.1598 195.149 95.0944C195.209 95.029 195.296 94.9963 195.383 94.9908L195.623 94.9854C195.655 94.9854 195.693 94.9854 195.726 94.9854C197.446 94.9854 199.068 95.6452 200.304 96.8448C201.567 98.0717 202.275 99.7131 202.302 101.474C202.329 103.236 201.671 104.899 200.446 106.164C199.221 107.429 197.582 108.138 195.824 108.165L195.481 108.182C195.487 108.182 195.487 108.182 195.481 108.182ZM195.732 95.667L195.889 106.017C195.895 106.502 195.884 106.998 195.846 107.511C197.414 107.478 198.878 106.84 199.972 105.711C201.072 104.577 201.665 103.078 201.638 101.496C201.616 99.9148 200.979 98.4371 199.841 97.3356C198.731 96.2559 197.272 95.667 195.732 95.667Z" fill="#050004"/>
<path d="M195.639 105.673L195.476 95.1053L195.432 92.1553C195.427 91.9099 195.416 91.67 195.405 91.4246C185.835 89.7887 178.627 83.3869 177.185 75.4419C177.141 75.4473 177.092 75.4473 177.049 75.4528C176.074 83.0652 169.836 89.5596 161.094 92.0244C161.088 92.2425 161.083 92.4606 161.088 92.6788L161.132 95.6288L161.295 106.197C161.306 106.807 161.349 107.407 161.42 108.002C161.834 111.382 163.249 114.442 165.356 116.906V145.845H191.376V117.135C193.706 114.502 195.236 111.164 195.574 107.484C195.623 106.884 195.65 106.284 195.639 105.673Z" fill="white"/>
<path d="M191.371 146.178H165.35C165.165 146.178 165.018 146.031 165.018 145.845V117.032C162.846 114.453 161.491 111.35 161.083 108.045C161.006 107.424 160.963 106.808 160.952 106.208L160.745 92.6899C160.74 92.4663 160.745 92.2427 160.751 92.0191C160.756 91.8719 160.854 91.7465 160.996 91.7029C169.586 89.2817 175.753 82.8854 176.711 75.4094C176.733 75.2512 176.864 75.1258 177.022 75.1204L177.092 75.1149C177.267 75.104 177.479 75.2185 177.506 75.3821C178.927 83.1908 186.14 89.5053 195.454 91.0976C195.606 91.1249 195.721 91.2503 195.731 91.4084C195.748 91.6538 195.759 91.9046 195.764 92.1555L195.971 105.673C195.982 106.262 195.955 106.884 195.9 107.517C195.568 111.132 194.12 114.502 191.703 117.266V145.851C191.709 146.031 191.556 146.178 191.371 146.178ZM165.688 145.507H191.039V117.13C191.039 117.048 191.072 116.972 191.121 116.907C193.489 114.229 194.915 110.957 195.236 107.446C195.291 106.84 195.312 106.241 195.307 105.673L195.1 92.1555C195.1 92.0028 195.095 91.8556 195.084 91.7029C186.145 90.0833 179.128 84.2105 177.152 76.8162C175.661 83.9106 169.635 89.8761 161.42 92.27C161.42 92.4009 161.415 92.5317 161.42 92.6681L161.627 106.186C161.638 106.759 161.676 107.353 161.752 107.953C162.144 111.17 163.478 114.185 165.612 116.683C165.661 116.743 165.693 116.819 165.693 116.901V145.507H165.688Z" fill="#050004"/>
<path d="M175.046 122.774C178.562 124.988 186.009 129.317 191.191 129.874V117.424C187.931 120.892 183.315 123.057 178.181 123.057C177.109 123.057 176.064 122.954 175.046 122.774Z" fill="#000201"/>
<path d="M191.524 130.244L191.153 130.206C185.993 129.65 178.731 125.489 174.866 123.057L173.418 122.147L175.1 122.447C176.145 122.632 177.185 122.725 178.181 122.725C183.059 122.725 187.593 120.762 190.946 117.195L191.524 116.585V130.244ZM176.559 123.314C180.44 125.664 186.401 128.876 190.859 129.497V118.242C187.441 121.574 182.972 123.395 178.181 123.395C177.648 123.39 177.109 123.363 176.559 123.314Z" fill="#000201"/>
<path d="M198.361 103.279C198.285 103.279 198.214 103.258 198.154 103.203L196.929 102.216C196.798 102.107 196.722 101.949 196.728 101.78C196.733 101.611 196.809 101.453 196.951 101.349L198.306 100.346C198.453 100.237 198.666 100.269 198.774 100.417C198.883 100.564 198.851 100.776 198.704 100.886L197.473 101.796L198.573 102.685C198.715 102.8 198.742 103.012 198.622 103.154C198.557 103.236 198.459 103.279 198.361 103.279Z" fill="#000201"/>
<path d="M157.642 103.901C157.55 103.901 157.457 103.863 157.386 103.787C157.267 103.645 157.283 103.438 157.425 103.318L158.497 102.396L157.239 101.524C157.087 101.42 157.049 101.207 157.158 101.06C157.261 100.907 157.468 100.869 157.621 100.978L159.003 101.943C159.145 102.042 159.226 102.194 159.237 102.369C159.243 102.538 159.177 102.701 159.047 102.81L157.855 103.836C157.8 103.874 157.719 103.901 157.642 103.901Z" fill="#000201"/>
<path d="M174.49 97.7337C174.501 98.5407 173.859 99.206 173.053 99.2223C172.248 99.2332 171.583 98.5898 171.567 97.7828C171.556 96.9757 172.199 96.3104 173.004 96.2941C173.81 96.2832 174.474 96.9266 174.49 97.7337Z" fill="#000201"/>
<path d="M189.972 97.5919C189.983 98.3989 189.341 99.0642 188.535 99.0751C187.729 99.086 187.065 98.4426 187.049 97.6355C187.038 96.8285 187.68 96.1632 188.486 96.1469C189.297 96.136 189.961 96.7849 189.972 97.5919Z" fill="#000201"/>
<path d="M190.653 92.8805C190.244 92.9896 189.754 92.8696 189.275 92.7769C188.791 92.6733 188.306 92.5861 187.882 92.5261C187.457 92.4607 186.962 92.4061 186.472 92.3625C185.987 92.308 185.481 92.2807 185.127 92.0626C184.784 91.8554 184.703 91.3864 185.214 90.9066C185.699 90.4376 186.847 90.0177 188.257 90.2195C189.667 90.4322 190.625 91.1628 190.936 91.7518C191.273 92.3625 191.05 92.7824 190.653 92.8805Z" fill="#000201"/>
<path d="M170.408 94.3856C170.832 94.3965 171.279 94.1675 171.725 93.9712C172.171 93.7639 172.623 93.5676 173.026 93.4095C173.429 93.2514 173.892 93.0823 174.36 92.9296C174.822 92.766 175.307 92.6243 175.601 92.3298C175.889 92.0463 175.862 91.5773 175.253 91.2228C174.675 90.8739 173.462 90.7266 172.133 91.2501C170.811 91.7791 170.043 92.7115 169.869 93.355C169.689 94.0202 170.005 94.3747 170.408 94.3856Z" fill="#000201"/>
<path d="M179.907 103.994C179.733 103.994 179.586 103.857 179.575 103.677C179.564 103.492 179.705 103.334 179.891 103.323L181.164 103.252C182.917 103.154 184.262 101.643 184.164 99.8931C184.153 99.6913 184.066 99.5059 183.913 99.375C183.761 99.2387 183.56 99.1787 183.369 99.1842C181.986 99.2714 180.8 98.2026 180.723 96.8176L180.549 93.6712C180.538 93.4858 180.68 93.3277 180.865 93.3168C181.072 93.3168 181.208 93.4476 181.219 93.633L181.393 96.7794C181.453 97.7937 182.335 98.5789 183.331 98.5189C183.701 98.4916 184.077 98.6225 184.36 98.8788C184.643 99.1296 184.812 99.4786 184.833 99.8603C184.953 101.982 183.325 103.808 181.208 103.923L179.934 103.994C179.918 103.994 179.912 103.994 179.907 103.994Z" fill="#000201"/>
<path d="M171.616 104.888C171.997 104.544 172.563 104.534 172.988 104.823C173.755 105.346 175.394 106.235 177.544 106.148C178.072 106.126 178.426 106.693 178.274 107.2C177.936 108.312 176.853 110.106 173.93 109.218C170.369 108.138 170.625 105.782 171.616 104.888Z" fill="white"/>
<path d="M175.389 109.79C174.931 109.79 174.42 109.714 173.832 109.534C171.453 108.814 170.843 107.565 170.696 106.884C170.517 106.06 170.789 105.177 171.393 104.637C171.883 104.201 172.612 104.163 173.178 104.544C173.924 105.057 175.492 105.897 177.533 105.81C177.887 105.793 178.187 105.946 178.399 106.224C178.633 106.529 178.709 106.927 178.595 107.293C178.393 107.953 177.626 109.79 175.389 109.79ZM172.335 104.953C172.155 104.953 171.975 105.013 171.839 105.139C171.513 105.433 171.192 106.028 171.349 106.742C171.556 107.669 172.503 108.432 174.028 108.896C176.717 109.714 177.642 108.122 177.953 107.096C178.002 106.938 177.969 106.764 177.865 106.633C177.816 106.573 177.718 106.475 177.555 106.48C175.329 106.568 173.614 105.657 172.797 105.101C172.656 105.002 172.493 104.953 172.335 104.953Z" fill="#000201"/>
<path d="M199.509 110.674C198.023 110.674 196.804 109.474 196.782 107.98C196.76 106.469 197.963 105.226 199.471 105.204C199.488 105.204 199.499 105.204 199.515 105.204C201.001 105.204 202.22 106.404 202.242 107.898C202.264 109.409 201.055 110.652 199.553 110.674C199.537 110.674 199.526 110.674 199.509 110.674ZM199.509 105.87C199.499 105.87 199.488 105.87 199.477 105.87C198.339 105.886 197.43 106.829 197.446 107.969C197.463 109.098 198.383 110.003 199.509 110.003C199.52 110.003 199.531 110.003 199.542 110.003C200.68 109.987 201.589 109.043 201.573 107.904C201.556 106.775 200.631 105.87 199.509 105.87Z" fill="#F38200"/>
<path d="M156.935 110.799C156.222 110.799 155.547 110.526 155.035 110.025C154.512 109.518 154.218 108.836 154.207 108.105C154.186 106.6 155.389 105.352 156.897 105.33C156.913 105.33 156.924 105.33 156.94 105.33C158.426 105.33 159.646 106.529 159.667 108.023C159.678 108.754 159.406 109.447 158.9 109.97C158.394 110.494 157.713 110.788 156.984 110.799C156.962 110.799 156.946 110.799 156.935 110.799ZM156.935 106C156.924 106 156.913 106 156.902 106C155.764 106.017 154.855 106.96 154.872 108.1C154.882 108.651 155.1 109.169 155.498 109.55C155.895 109.932 156.418 110.161 156.962 110.134C157.512 110.123 158.029 109.905 158.41 109.507C158.791 109.109 158.998 108.591 158.992 108.034C158.982 106.906 158.056 106 156.935 106Z" fill="#F38200"/>
<path d="M210.544 224.728L206.417 217.776L203.456 212.786L174.392 212.639L144.839 212.786L141.877 217.776L137.751 224.728L133.434 232.008C130.664 236.681 128.388 241.66 126.624 246.851H221.665C219.901 241.66 217.626 236.681 214.855 232.008L210.544 224.728Z" fill="#000201"/>
<path d="M209.656 223.556H139.286C139.101 223.556 138.954 223.409 138.954 223.223C138.954 223.038 139.101 222.891 139.286 222.891H209.656C209.841 222.891 209.988 223.038 209.988 223.223C209.988 223.403 209.841 223.556 209.656 223.556Z" fill="#FFF8F8"/>
<path d="M171.943 235.225C171.758 235.225 171.611 235.078 171.611 234.893V223.223C171.611 223.038 171.758 222.891 171.943 222.891C172.128 222.891 172.275 223.038 172.275 223.223V234.893C172.28 235.072 172.128 235.225 171.943 235.225Z" fill="#FFF8F8"/>
<path d="M178.9 235.225C178.715 235.225 178.568 235.078 178.568 234.893V223.223C178.568 223.038 178.715 222.891 178.9 222.891C179.085 222.891 179.232 223.038 179.232 223.223V234.893C179.232 235.072 179.085 235.225 178.9 235.225Z" fill="#FFF8F8"/>
<path d="M136.88 235.373C136.733 235.373 136.603 235.274 136.559 235.127C136.51 234.947 136.613 234.767 136.793 234.718C147.604 231.719 145.775 223.643 145.688 223.305C145.644 223.125 145.753 222.945 145.933 222.902C146.113 222.858 146.292 222.967 146.336 223.147C146.358 223.24 148.421 232.188 136.967 235.367C136.94 235.367 136.913 235.373 136.88 235.373Z" fill="#FFF8F8"/>
<path d="M209.406 235.372C209.379 235.372 209.346 235.367 209.319 235.361C197.865 232.182 199.928 223.234 199.95 223.141C199.994 222.961 200.179 222.852 200.353 222.896C200.533 222.94 200.642 223.12 200.598 223.299C200.516 223.643 198.682 231.713 209.493 234.713C209.673 234.762 209.776 234.947 209.727 235.122C209.683 235.274 209.553 235.372 209.406 235.372Z" fill="#FFF8F8"/>
<path d="M141.349 183.482C140.56 182.075 125.307 170.449 119.591 166.114C118.355 165.176 117.974 163.48 118.688 162.101L128.731 142.743C132.787 134.923 140.495 129.835 149.058 129.181C149.678 129.132 150.31 129.105 150.936 129.105H163.663L177.228 139.324L191.545 129.105H201.431C202.062 129.105 202.688 129.132 203.309 129.181C210.141 129.705 217.56 133.402 222.432 138.184C225.372 141.069 240.364 158.24 240.364 158.24L210.108 179.823L206.434 216.352C206.434 216.352 142.819 217.127 141.926 216.51C141.888 216.478 141.349 183.482 141.349 183.482Z" fill="#00A558"/>
<path d="M156.575 217.083C148.143 217.083 142.068 217.007 141.752 216.789C141.562 216.658 141.562 216.658 141.023 183.58C140.206 182.457 131.981 175.919 119.395 166.381C118.023 165.345 117.604 163.48 118.399 161.948L128.443 142.59C132.558 134.656 140.261 129.519 149.041 128.848C149.722 128.794 150.348 128.772 150.947 128.772H163.674C163.745 128.772 163.815 128.794 163.875 128.838L177.245 138.909L191.36 128.832C191.415 128.794 191.485 128.772 191.556 128.772H201.442C202.041 128.772 202.667 128.799 203.347 128.848C209.972 129.356 217.56 132.927 222.677 137.944C225.595 140.807 240.478 157.847 240.631 158.022C240.69 158.093 240.723 158.185 240.712 158.278C240.701 158.371 240.652 158.458 240.576 158.513L210.446 180.008L206.787 216.391C206.771 216.56 206.63 216.69 206.461 216.69C196.684 216.81 172.454 217.083 156.575 217.083ZM142.259 216.265C145.34 216.663 188.889 216.238 206.145 216.031L209.792 179.796C209.803 179.697 209.852 179.61 209.928 179.556L239.885 158.185C237.936 155.955 224.904 141.069 222.209 138.424C217.196 133.505 209.771 130.01 203.293 129.514C202.629 129.465 202.019 129.437 201.436 129.437H191.66L177.43 139.596C177.31 139.678 177.152 139.678 177.038 139.591L163.56 129.443H150.941C150.359 129.443 149.749 129.465 149.085 129.519C140.533 130.174 133.037 135.174 129.025 142.901L118.982 162.259C118.339 163.497 118.677 165.007 119.787 165.847C127.61 171.774 140.854 181.922 141.638 183.313C141.665 183.362 141.682 183.416 141.682 183.471C141.856 194.126 142.188 213.948 142.259 216.265Z" fill="#050004"/>
<g opacity="0.24">
<path d="M156.575 217.083C148.143 217.083 142.068 217.007 141.752 216.789C141.562 216.658 141.562 216.658 141.023 183.58C140.206 182.457 131.981 175.919 119.395 166.381C118.023 165.345 117.604 163.48 118.399 161.948L128.443 142.59C132.558 134.656 140.261 129.519 149.041 128.848C149.722 128.794 150.348 128.772 150.947 128.772H163.674C163.745 128.772 163.815 128.794 163.875 128.838L177.245 138.909L191.36 128.832C191.415 128.794 191.485 128.772 191.556 128.772H201.442C202.041 128.772 202.667 128.799 203.347 128.848C209.972 129.356 217.56 132.927 222.677 137.944C225.595 140.807 240.478 157.847 240.631 158.022C240.69 158.093 240.723 158.185 240.712 158.278C240.701 158.371 240.652 158.458 240.576 158.513L210.446 180.008L206.787 216.391C206.771 216.56 206.63 216.69 206.461 216.69C196.684 216.81 172.454 217.083 156.575 217.083ZM142.259 216.265C145.34 216.663 188.889 216.238 206.145 216.031L209.792 179.796C209.803 179.697 209.852 179.61 209.928 179.556L239.885 158.185C237.936 155.955 224.904 141.069 222.209 138.424C217.196 133.505 209.771 130.01 203.293 129.514C202.629 129.465 202.019 129.437 201.436 129.437H191.66L177.43 139.596C177.31 139.678 177.152 139.678 177.038 139.591L163.56 129.443H150.941C150.359 129.443 149.749 129.465 149.085 129.519C140.533 130.174 133.037 135.174 129.025 142.901L118.982 162.259C118.339 163.497 118.677 165.007 119.787 165.847C127.61 171.774 140.854 181.922 141.638 183.313C141.665 183.362 141.682 183.416 141.682 183.471C141.856 194.126 142.188 213.948 142.259 216.265Z" fill="#050004"/>
</g>
<path d="M178.143 170.253C178.045 170.253 177.953 170.209 177.887 170.133C154.371 141.396 162.482 129.296 162.841 128.794C162.95 128.647 163.157 128.608 163.304 128.718C163.456 128.827 163.489 129.034 163.385 129.181C163.304 129.301 155.263 141.428 178.404 169.708C178.519 169.849 178.502 170.062 178.361 170.177C178.295 170.231 178.219 170.253 178.143 170.253Z" fill="#000201"/>
<path d="M178.535 170.253C178.464 170.253 178.388 170.231 178.328 170.182C178.187 170.067 178.159 169.855 178.274 169.713C201.006 141.21 192.416 129.208 192.324 129.088C192.215 128.941 192.242 128.734 192.389 128.619C192.536 128.505 192.743 128.538 192.857 128.685C193.233 129.181 201.845 141.221 178.796 170.133C178.731 170.209 178.633 170.253 178.535 170.253Z" fill="#000201"/>
<path d="M186.809 197.889L170.571 197.97C170.201 197.97 169.896 197.67 169.891 197.3L169.744 171.256C169.744 170.88 170.043 170.58 170.413 170.575L186.651 170.493C187.022 170.493 187.326 170.793 187.332 171.164L187.479 197.207C187.484 197.583 187.18 197.889 186.809 197.889Z" fill="url(#paint0_linear_307_98)"/>
<path d="M170.718 198.308C170.081 198.308 169.558 197.79 169.553 197.152L169.406 171.414C169.401 170.771 169.923 170.247 170.56 170.242L186.494 170.16H186.499C187.136 170.16 187.659 170.678 187.664 171.316L187.811 197.054C187.816 197.698 187.294 198.221 186.657 198.227L170.718 198.308ZM186.505 170.831L170.571 170.913C170.299 170.913 170.076 171.136 170.081 171.409L170.228 197.147C170.228 197.42 170.451 197.638 170.723 197.638L186.657 197.556C186.929 197.556 187.152 197.332 187.147 197.06L187 171.322C187 171.049 186.777 170.831 186.505 170.831Z" fill="#050004"/>
<path d="M183.525 174.887L173.846 174.937L173.888 183.171L183.566 183.121L183.525 174.887Z" fill="#B7B8FB"/>
<path d="M173.886 183.504C173.701 183.504 173.554 183.356 173.554 183.171L173.505 174.937C173.505 174.85 173.538 174.763 173.603 174.703C173.663 174.637 173.75 174.604 173.837 174.604L183.516 174.555C183.701 174.555 183.848 174.703 183.848 174.888L183.897 183.122C183.897 183.209 183.864 183.296 183.799 183.356C183.739 183.422 183.652 183.455 183.565 183.455L173.886 183.504ZM174.175 175.264L174.218 182.833L183.227 182.789L183.184 175.226L174.175 175.264Z" fill="#050004"/>
<path d="M174.283 189.153C174.098 189.153 173.951 189.006 173.951 188.82C173.951 188.635 174.098 188.482 174.283 188.482L183.233 188.439C183.418 188.439 183.565 188.586 183.565 188.771C183.565 188.957 183.418 189.109 183.233 189.109L174.283 189.153Z" fill="#000201"/>
<path d="M174.3 192.305C174.115 192.305 173.968 192.157 173.968 191.972C173.968 191.787 174.115 191.634 174.3 191.634L183.249 191.59C183.434 191.59 183.581 191.738 183.581 191.923C183.581 192.108 183.434 192.261 183.249 192.261L174.3 192.305Z" fill="#000201"/>
<path d="M158.513 209.34L119.613 209.754C118.807 209.765 118.149 209.116 118.143 208.309L117.577 155.099C117.566 154.292 118.214 153.632 119.02 153.627L157.92 153.212C158.726 153.201 159.384 153.85 159.39 154.657L159.956 207.867C159.961 208.669 159.319 209.329 158.513 209.34Z" fill="#F34919"/>
<path d="M119.923 210.087C118.764 210.087 117.817 209.149 117.806 207.987L117.245 155.437C117.24 154.87 117.452 154.336 117.849 153.927C118.247 153.523 118.775 153.294 119.341 153.289L157.582 152.88C158.116 152.88 158.682 153.087 159.085 153.485C159.488 153.883 159.716 154.412 159.722 154.979L160.283 207.529C160.288 208.096 160.076 208.631 159.678 209.034C159.281 209.438 158.753 209.667 158.187 209.672L119.945 210.081C119.94 210.087 119.929 210.087 119.923 210.087ZM157.604 153.545C157.599 153.545 157.593 153.545 157.588 153.545L119.346 153.954C118.546 153.965 117.904 154.619 117.909 155.426L118.47 207.977C118.481 208.778 119.134 209.405 119.94 209.416L158.181 209.007C158.568 209.002 158.932 208.849 159.205 208.571C159.477 208.293 159.624 207.927 159.618 207.54L159.058 154.99C159.052 154.603 158.9 154.237 158.622 153.965C158.345 153.692 157.985 153.545 157.604 153.545Z" fill="#050004"/>
<path d="M151.083 151.625C151.066 149.853 149.613 148.43 147.844 148.446L142.4 148.506C142.422 148.348 142.444 148.196 142.444 148.032C142.427 146.249 140.963 144.815 139.183 144.836C137.403 144.853 135.971 146.32 135.993 148.103C135.993 148.266 136.02 148.419 136.047 148.577L130.457 148.637C128.688 148.654 127.267 150.11 127.283 151.882L127.316 155.094L151.121 154.837L151.083 151.625Z" fill="url(#paint1_linear_307_98)"/>
<path d="M127.316 155.426C127.229 155.426 127.147 155.393 127.082 155.333C127.016 155.274 126.984 155.186 126.984 155.099L126.951 151.887C126.929 149.93 128.503 148.326 130.451 148.305L135.666 148.25C135.661 148.201 135.661 148.157 135.661 148.108C135.65 147.154 136.009 146.26 136.679 145.578C137.343 144.896 138.236 144.515 139.183 144.509C141.126 144.493 142.759 146.069 142.781 148.037C142.781 148.086 142.781 148.13 142.776 148.179L147.844 148.125C148.796 148.114 149.684 148.474 150.359 149.139C151.034 149.799 151.415 150.688 151.42 151.636L151.453 154.848C151.453 155.034 151.306 155.186 151.121 155.186L127.316 155.426ZM139.216 145.169C139.205 145.169 139.194 145.169 139.183 145.169C138.41 145.18 137.686 145.485 137.147 146.042C136.608 146.592 136.314 147.323 136.32 148.097C136.32 148.234 136.341 148.365 136.363 148.495C136.38 148.594 136.352 148.703 136.292 148.779C136.227 148.855 136.14 148.91 136.042 148.915L130.451 148.975C128.867 148.992 127.593 150.295 127.61 151.882L127.642 154.761L150.778 154.516L150.745 151.636C150.74 150.868 150.43 150.148 149.88 149.613C149.341 149.084 148.628 148.79 147.871 148.79C147.86 148.79 147.849 148.79 147.838 148.79L142.395 148.85C142.319 148.872 142.204 148.812 142.139 148.735C142.074 148.665 142.046 148.566 142.057 148.468C142.079 148.31 142.095 148.179 142.095 148.043C142.09 146.451 140.794 145.169 139.216 145.169Z" fill="#050004"/>
<path d="M140.435 148.054C140.44 148.73 139.902 149.281 139.227 149.286C138.552 149.292 138.002 148.752 137.996 148.076C137.991 147.399 138.53 146.849 139.205 146.843C139.874 146.838 140.424 147.378 140.435 148.054Z" fill="url(#paint2_linear_307_98)"/>
<path d="M139.216 149.619C138.807 149.619 138.421 149.461 138.132 149.177C137.838 148.888 137.67 148.495 137.664 148.081C137.653 147.225 138.345 146.516 139.199 146.511C140.07 146.5 140.762 147.192 140.767 148.048C140.778 148.904 140.087 149.613 139.232 149.619C139.227 149.619 139.221 149.619 139.216 149.619ZM139.216 147.181C139.21 147.181 139.21 147.181 139.205 147.181C138.715 147.187 138.323 147.59 138.328 148.076C138.328 148.31 138.426 148.534 138.595 148.697C138.764 148.861 138.987 148.932 139.221 148.948C139.711 148.943 140.103 148.539 140.097 148.054C140.092 147.568 139.7 147.181 139.216 147.181Z" fill="#050004"/>
<path d="M135.323 178.781L120.702 179.817L121.366 173.726C121.644 172.33 121.328 171.071 120.147 170.275C117.991 168.819 115.051 169.68 114.012 172.063L105.683 193.008C103.086 199.541 101.938 213.479 108.797 214.962L109.237 215.131C114.099 216.985 119.493 215.518 123.01 211.679C123.723 210.899 124.436 210.381 125.057 210.392C126.467 210.419 128.203 209.732 129.542 209.421C131.17 209.04 132.759 208.522 134.273 207.813C134.991 207.48 135.71 207.099 136.26 206.521C137.925 204.754 136.63 201.695 134.109 202.016L130.359 202.491C132.988 201.935 135.367 201.346 137.044 200.904C138.236 200.588 139.183 199.595 139.303 198.363C139.471 196.623 138.051 195.255 136.418 195.391L128.181 196.056C133.309 195.369 136.684 194.475 138.671 193.81C140.038 193.352 140.892 192.005 140.74 190.571L140.707 190.243C140.533 188.591 139.047 186.786 137.403 186.961L136.363 186.988C138.562 186.677 140.119 184.676 139.885 182.467C139.651 180.177 137.599 178.525 135.323 178.781Z" fill="white"/>
<path d="M113.571 216.26C112.074 216.26 110.571 215.992 109.123 215.442L108.682 215.273C107.071 214.929 105.764 213.871 104.844 212.143C102.183 207.142 103.445 197.741 105.378 192.883L113.707 171.938C114.246 170.7 115.291 169.778 116.575 169.408C117.86 169.037 119.232 169.249 120.342 169.997C121.562 170.82 122.03 172.129 121.703 173.792L121.083 179.457L135.296 178.449C136.488 178.323 137.653 178.661 138.584 179.414C139.515 180.166 140.097 181.241 140.228 182.429C140.413 184.18 139.575 185.794 138.187 186.672C138.775 186.803 139.352 187.152 139.858 187.686C140.511 188.378 140.952 189.322 141.045 190.205L141.077 190.532C141.246 192.141 140.304 193.613 138.78 194.12C137.871 194.426 136.641 194.786 135.051 195.157L136.396 195.047C137.289 194.977 138.165 195.304 138.791 195.942C139.422 196.585 139.727 197.474 139.64 198.385C139.51 199.715 138.502 200.855 137.131 201.215C136.57 201.362 135.9 201.537 135.138 201.722C135.933 201.913 136.608 202.436 137 203.216C137.599 204.394 137.403 205.779 136.499 206.739C135.917 207.355 135.155 207.758 134.414 208.102C132.955 208.784 131.339 209.329 129.618 209.732C129.227 209.825 128.807 209.945 128.366 210.076C127.299 210.387 126.08 210.741 125.051 210.714C124.719 210.692 124.153 210.91 123.255 211.892C120.664 214.733 117.142 216.26 113.571 216.26ZM117.828 169.893C117.468 169.893 117.109 169.942 116.755 170.046C115.661 170.362 114.774 171.147 114.316 172.194L105.993 193.128C104.11 197.867 102.863 207.006 105.432 211.826C106.254 213.369 107.408 214.313 108.867 214.629L109.357 214.809C114.006 216.581 119.27 215.262 122.765 211.445C123.636 210.496 124.403 210.06 125.062 210.054C126.009 210.081 127.158 209.738 128.181 209.443C128.633 209.312 129.069 209.187 129.471 209.094C131.148 208.702 132.721 208.173 134.137 207.513C134.921 207.148 135.541 206.799 136.02 206.297C136.728 205.55 136.88 204.465 136.412 203.538C135.971 202.671 135.127 202.229 134.158 202.354L130.408 202.829C130.228 202.851 130.065 202.731 130.038 202.551C130.01 202.376 130.125 202.207 130.299 202.169C133.015 201.597 135.427 200.991 136.967 200.582C138.067 200.293 138.878 199.388 138.982 198.33C139.052 197.605 138.818 196.929 138.323 196.422C137.833 195.92 137.152 195.669 136.456 195.724L128.219 196.389C128.04 196.405 127.882 196.274 127.86 196.094C127.838 195.915 127.969 195.751 128.149 195.729C133.32 195.037 136.673 194.131 138.579 193.499C139.798 193.09 140.56 191.907 140.424 190.614L140.391 190.287C140.315 189.54 139.934 188.744 139.379 188.155C138.796 187.533 138.111 187.233 137.452 187.299L136.385 187.332C136.2 187.315 136.058 187.201 136.042 187.026C136.026 186.852 136.151 186.694 136.33 186.666C138.361 186.377 139.787 184.556 139.569 182.511C139.461 181.497 138.965 180.586 138.17 179.943C137.376 179.305 136.379 179.01 135.367 179.125C135.361 179.125 135.356 179.125 135.356 179.125L120.734 180.161C120.631 180.166 120.538 180.128 120.468 180.057C120.397 179.986 120.364 179.888 120.375 179.79L121.039 173.699C121.317 172.276 120.958 171.229 119.967 170.564C119.325 170.116 118.579 169.893 117.828 169.893Z" fill="#050004"/>
<path d="M124.022 188.951C123.859 188.951 123.712 188.831 123.69 188.662C123.669 188.477 123.794 188.313 123.979 188.286L137.207 186.497C137.392 186.464 137.555 186.601 137.582 186.786C137.604 186.972 137.479 187.135 137.294 187.162L124.066 188.951C124.05 188.951 124.033 188.951 124.022 188.951Z" fill="#000201"/>
<path d="M125.149 196.814C124.986 196.814 124.844 196.694 124.817 196.531C124.79 196.345 124.915 196.176 125.1 196.149L135.144 194.677C135.323 194.655 135.498 194.775 135.525 194.96C135.552 195.146 135.427 195.315 135.242 195.342L125.198 196.814C125.182 196.814 125.166 196.814 125.149 196.814Z" fill="#000201"/>
<path d="M126.559 203.516C126.401 203.516 126.26 203.401 126.233 203.238C126.2 203.058 126.32 202.883 126.505 202.851L134.246 201.46C134.431 201.427 134.599 201.547 134.632 201.733C134.665 201.913 134.545 202.087 134.36 202.12L126.619 203.511C126.597 203.516 126.581 203.516 126.559 203.516Z" fill="#000201"/>
<path d="M117.3 180.673C117.131 180.673 116.989 180.548 116.967 180.379C116.946 180.194 117.076 180.03 117.256 180.008L123.059 179.294C123.244 179.267 123.407 179.403 123.429 179.583C123.451 179.768 123.32 179.932 123.141 179.954L117.338 180.668C117.327 180.668 117.31 180.673 117.3 180.673Z" fill="#000201"/>
<path d="M247.337 122.632C247.196 119.011 239.444 108.291 235.29 106.05L238.611 97.0139C239.656 94.1675 238.35 90.9229 235.808 90.6557C234.055 90.4758 232.231 91.7027 230.212 95.0618C230.212 95.0618 222.65 110.755 221.344 111.933C210.887 121.378 214.3 137.748 214.3 137.748L209.183 179.207C208.595 185.548 208.508 193.406 213.004 198.472C216.749 202.693 223.227 203.81 228.562 201.995C244.779 196.476 243.418 177.669 242.928 163.9C242.77 159.467 241.806 135.948 241.806 135.948L245.53 129.71C246.847 127.512 247.43 125.048 247.337 122.632Z" fill="white"/>
<path d="M223.478 203.178C219.319 203.178 215.307 201.586 212.748 198.706C208.159 193.537 208.252 185.559 208.845 179.185L213.957 137.769C213.75 136.695 210.946 120.882 221.115 111.693C222.035 110.859 226.875 101.207 229.901 94.9254C231.894 91.6155 233.832 90.1268 235.835 90.3286C236.929 90.4431 237.882 91.0702 238.519 92.0953C239.389 93.4968 239.542 95.4271 238.916 97.1339L235.693 105.902C239.945 108.449 247.517 118.973 247.664 122.627C247.762 125.184 247.119 127.698 245.808 129.901L242.133 136.052C242.204 137.731 243.102 159.674 243.254 163.906L243.314 165.52C243.81 178.781 244.49 196.94 228.66 202.327C226.973 202.9 225.214 203.178 223.478 203.178ZM235.476 90.9775C233.848 90.9775 232.215 92.3789 230.495 95.2417C229.732 96.8285 222.884 111.001 221.567 112.19C211.377 121.394 214.594 137.524 214.626 137.688C214.632 137.726 214.637 137.759 214.632 137.797L209.515 179.256C208.938 185.483 208.834 193.281 213.255 198.259C216.706 202.147 222.961 203.56 228.459 201.689C243.815 196.465 243.173 179.316 242.656 165.541L242.596 163.922C242.443 159.543 241.48 136.204 241.474 135.97C241.474 135.905 241.491 135.839 241.523 135.785L245.247 129.546C246.493 127.458 247.103 125.07 247.011 122.643C246.875 119.148 239.106 108.482 235.143 106.339C234.996 106.262 234.931 106.088 234.986 105.93L238.306 96.894C238.861 95.378 238.731 93.6713 237.969 92.4389C237.441 91.5937 236.668 91.0756 235.78 90.9829C235.671 90.9775 235.574 90.9775 235.476 90.9775Z" fill="#050004"/>
<path d="M219.771 97.003L214.909 99.157C212.536 100.209 209.7 99.0043 208.584 96.4687L208.165 95.5144C207.049 92.9788 208.067 90.0723 210.44 89.0199L215.301 86.866L219.771 97.003Z" fill="#000201"/>
<path d="M213.108 99.8713C212.449 99.8713 211.785 99.735 211.142 99.4623C209.869 98.9225 208.851 97.9082 208.274 96.5995L207.854 95.6453C207.277 94.342 207.218 92.9024 207.675 91.5937C208.138 90.2795 209.068 89.2544 210.304 88.7091L215.165 86.5551C215.247 86.5224 215.339 86.517 215.421 86.5497C215.503 86.5824 215.568 86.6478 215.606 86.7242L220.075 96.8613C220.152 97.0303 220.075 97.2266 219.907 97.303L215.046 99.4569C214.425 99.735 213.766 99.8713 213.108 99.8713ZM215.127 87.3077L210.571 89.3253C209.509 89.7942 208.704 90.683 208.301 91.8227C207.898 92.9678 207.958 94.2329 208.464 95.3781L208.883 96.3323C209.39 97.4829 210.282 98.3717 211.398 98.8462C212.509 99.3151 213.706 99.3151 214.768 98.8462L219.324 96.8286L215.127 87.3077Z" fill="#000201"/>
<path d="M245.165 134.678C242.868 135.692 240.048 134.34 238.861 131.651L227.277 105.384C226.091 102.696 226.994 99.6968 229.286 98.6826C231.583 97.6683 234.403 99.0207 235.59 101.709L247.174 127.976C248.361 130.659 247.457 133.658 245.165 134.678Z" fill="#000201"/>
<path d="M243.554 135.348C242.857 135.348 242.144 135.185 241.453 134.852C240.19 134.247 239.161 133.156 238.557 131.788L226.973 105.521C226.368 104.146 226.254 102.652 226.657 101.311C227.065 99.9476 227.952 98.9061 229.15 98.3772C231.61 97.2866 234.632 98.7207 235.889 101.573L247.473 127.84C248.731 130.692 247.751 133.892 245.29 134.983C244.746 135.228 244.153 135.348 243.554 135.348ZM230.897 98.6826C230.397 98.6826 229.901 98.7807 229.428 98.9934C228.41 99.446 227.653 100.34 227.299 101.507C226.94 102.696 227.043 104.026 227.582 105.253L239.166 131.52C239.705 132.747 240.62 133.718 241.741 134.252C242.841 134.781 244.011 134.825 245.029 134.372C247.152 133.434 247.98 130.626 246.869 128.112L235.285 101.845C234.425 99.8877 232.639 98.6826 230.897 98.6826Z" fill="#000201"/>
<path d="M236.14 100.684L227.245 104.621C225.383 105.444 223.206 104.599 222.384 102.734L221.507 100.749C220.685 98.8843 221.529 96.7031 223.391 95.8797L232.286 91.9426C234.147 91.1192 236.325 91.9645 237.147 93.8294L238.023 95.8143C238.845 97.6792 238.001 99.8604 236.14 100.684Z" fill="#FFF9F3"/>
<path d="M225.759 105.275C225.269 105.275 224.779 105.182 224.305 105.003C223.303 104.615 222.514 103.857 222.079 102.876L221.202 100.891C220.304 98.8625 221.229 96.4795 223.255 95.5798L232.149 91.6427C234.18 90.7484 236.553 91.67 237.452 93.6985L238.328 95.6834C238.763 96.6649 238.785 97.761 238.399 98.7643C238.012 99.7677 237.256 100.558 236.276 100.995L227.381 104.932C226.864 105.161 226.308 105.275 225.759 105.275ZM233.772 91.9644C233.32 91.9644 232.863 92.0571 232.422 92.2534L223.527 96.1905C221.834 96.9376 221.066 98.9279 221.812 100.618L222.688 102.603C223.048 103.427 223.712 104.054 224.545 104.381C225.378 104.703 226.292 104.686 227.109 104.321L236.004 100.384C237.696 99.6368 238.464 97.6464 237.718 95.956L236.842 93.9711C236.287 92.7115 235.056 91.9644 233.772 91.9644Z" fill="#000201"/>
<path d="M234.92 96.2832L224.703 100.809C219.711 103.018 213.755 100.493 211.404 95.1599L210.516 93.1532C208.165 87.8257 210.31 81.7129 215.301 79.5044L225.519 74.9785L234.92 96.2832Z" fill="#F381D8"/>
<path d="M220.925 101.938C216.88 101.938 212.922 99.4351 211.099 95.2962L210.212 93.2896C209.041 90.634 208.911 87.7057 209.841 85.0501C210.778 82.3836 212.667 80.306 215.171 79.1991L225.388 74.6731C225.47 74.6349 225.563 74.6349 225.644 74.6676C225.726 74.7003 225.791 74.7658 225.829 74.8421L235.225 96.1469C235.301 96.316 235.225 96.5123 235.056 96.5886L224.839 101.115C223.57 101.676 222.242 101.938 220.925 101.938ZM225.35 75.4201L215.437 79.8098C213.108 80.8404 211.344 82.7817 210.473 85.2682C209.596 87.7657 209.722 90.5194 210.827 93.0169L211.714 95.0236C213.989 100.177 219.749 102.631 224.572 100.498L234.485 96.1087L225.35 75.4201Z" fill="#050004"/>
<path d="M225.519 74.9784L234.915 96.2832C242.612 92.8751 251.306 92.2262 259.809 94.4183L273.265 97.6683L249.994 44.9871L243.663 57.7961C239.553 65.572 233.222 71.5703 225.519 74.9784Z" fill="#F8EEE2"/>
<path d="M273.271 98.0009C273.243 98.0009 273.216 97.9955 273.194 97.99L259.738 94.7401C251.257 92.5534 242.726 93.1914 235.056 96.5886C234.975 96.6268 234.882 96.6268 234.8 96.5941C234.719 96.5614 234.653 96.4959 234.615 96.4196L225.22 75.1148C225.143 74.9457 225.22 74.7494 225.388 74.6731C233.053 71.2813 239.275 65.3921 243.369 57.6435L249.7 44.8453C249.76 44.7308 249.879 44.6654 250.005 44.6599C250.135 44.6654 250.25 44.7417 250.304 44.8617L273.581 97.5429C273.63 97.6574 273.614 97.7937 273.532 97.8919C273.461 97.9628 273.369 98.0009 273.271 98.0009ZM249.874 92.8043C253.189 92.8043 256.548 93.235 259.901 94.0966L272.694 97.1884L249.977 45.7778L243.962 57.9488C239.847 65.7357 233.63 71.6794 225.965 75.153L235.094 95.847C239.776 93.8185 244.768 92.8043 249.874 92.8043Z" fill="#000201"/>
<path d="M225.519 74.9784L234.915 96.2832C242.612 92.8751 251.306 92.2262 259.809 94.4183L273.265 97.6683L249.994 44.9871L243.663 57.7961C239.553 65.572 233.222 71.5703 225.519 74.9784Z" fill="#F38200"/>
<path d="M273.271 98.0009C273.243 98.0009 273.216 97.9955 273.194 97.99L259.738 94.7401C251.257 92.5534 242.726 93.1914 235.056 96.5886C234.975 96.6268 234.882 96.6268 234.8 96.5941C234.719 96.5614 234.653 96.4959 234.615 96.4196L225.22 75.1148C225.143 74.9457 225.22 74.7494 225.388 74.6731C233.053 71.2813 239.275 65.3921 243.369 57.6435L249.7 44.8453C249.76 44.7308 249.879 44.6654 250.005 44.6599C250.135 44.6654 250.25 44.7417 250.304 44.8617L273.581 97.5429C273.63 97.6574 273.614 97.7937 273.532 97.8919C273.461 97.9628 273.369 98.0009 273.271 98.0009ZM249.874 92.8043C253.189 92.8043 256.548 93.235 259.901 94.0966L272.694 97.1884L249.977 45.7778L243.962 57.9488C239.847 65.7357 233.63 71.6794 225.965 75.153L235.094 95.847C239.776 93.8185 244.768 92.8043 249.874 92.8043Z" fill="#050004"/>
<path d="M276.002 97.4079C281.238 95.0414 280.035 81.0239 273.313 66.099C266.592 51.174 256.898 40.9934 251.661 43.3599C246.424 45.7265 247.628 59.744 254.349 74.6689C261.071 89.5938 270.765 99.7745 276.002 97.4079Z" fill="white"/>
<path d="M274.349 98.0882C268.693 98.0882 260.206 88.5128 254.011 74.7058C248.834 63.1673 246.787 51.6833 248.921 46.1377C249.515 44.5945 250.407 43.553 251.578 43.0404C257.092 40.6193 266.798 50.7345 273.679 66.0683C278.856 77.6068 280.903 89.0908 278.769 94.6364C278.175 96.1796 277.283 97.2212 276.112 97.7337C275.562 97.9682 274.975 98.0882 274.349 98.0882ZM253.363 43.3403C252.819 43.3403 252.313 43.4384 251.839 43.6457C250.843 44.0819 250.064 45.0034 249.542 46.3721C247.468 51.7651 249.509 63.0419 254.615 74.4277C260.62 87.8039 269.014 97.4229 274.316 97.4229C274.86 97.4229 275.367 97.3248 275.84 97.1176C276.836 96.6813 277.615 95.7598 278.137 94.3911C280.211 88.9981 278.17 77.7213 273.064 66.3355C267.065 52.9593 258.671 43.3403 253.363 43.3403Z" fill="#000201"/>
<path d="M269.961 67.2734C275.198 79.0191 276.482 89.8433 272.83 91.4519C269.177 93.0606 261.964 84.8429 256.727 73.0972C251.491 61.3515 250.206 50.5273 253.859 48.9187C257.511 47.3101 264.724 55.5277 269.961 67.2734Z" fill="#000201"/>
<mask id="mask0_307_98" style="mask-type:luminance" maskUnits="userSpaceOnUse" x="251" y="48" width="24" height="44">
<path d="M269.961 67.2734C275.198 79.0191 276.482 89.8433 272.83 91.4519C269.177 93.0606 261.964 84.8429 256.727 73.0972C251.491 61.3515 250.206 50.5273 253.859 48.9187C257.511 47.3101 264.724 55.5277 269.961 67.2734Z" fill="white"/>
</mask>
<g mask="url(#mask0_307_98)">
<path d="M263.407 70.4743C268.507 81.9092 269.754 92.4444 266.199 94.0094C262.639 95.5744 255.622 87.5749 250.522 76.14C245.421 64.7051 244.174 54.1699 247.729 52.6049C251.289 51.0399 258.306 59.0394 263.407 70.4743Z" fill="#000201"/>
</g>
<mask id="mask1_307_98" style="mask-type:luminance" maskUnits="userSpaceOnUse" x="251" y="48" width="24" height="44">
<path d="M269.961 67.2734C275.198 79.0191 276.482 89.8433 272.83 91.4519C269.177 93.0606 261.964 84.8429 256.727 73.0972C251.491 61.3515 250.206 50.5273 253.859 48.9187C257.511 47.3101 264.724 55.5277 269.961 67.2734Z" fill="white"/>
</mask>
<g mask="url(#mask1_307_98)">
<path d="M249.754 70.2562L256.673 67.2407C259.498 66.0083 263.031 67.7915 264.555 71.2214C266.085 74.6513 265.029 78.4302 262.204 79.6626L255.285 82.6781L249.754 70.2562Z" fill="#7C55FF"/>
<path d="M255.285 83.0107C255.16 83.0107 255.034 82.9344 254.98 82.8144L249.449 70.3925C249.411 70.3107 249.411 70.218 249.444 70.1362C249.476 70.0544 249.542 69.989 249.623 69.9508L256.542 66.9353C259.531 65.6321 263.265 67.4915 264.866 71.0851C265.731 73.0318 265.829 75.1693 265.138 76.9579C264.599 78.3484 263.603 79.4172 262.34 79.9734L255.421 82.9944C255.377 83.0053 255.334 83.0107 255.285 83.0107ZM250.195 70.4307L255.454 82.2418L262.073 79.3572C263.173 78.8774 264.038 77.9394 264.517 76.7125C265.143 75.093 265.051 73.1408 264.256 71.3577C262.802 68.1023 259.466 66.39 256.809 67.5515L250.195 70.4307Z" fill="#050004"/>
</g>
<mask id="mask2_307_98" style="mask-type:luminance" maskUnits="userSpaceOnUse" x="251" y="48" width="24" height="44">
<path d="M269.961 67.2734C275.198 79.0191 276.482 89.8433 272.83 91.4519C269.177 93.0606 261.964 84.8429 256.727 73.0972C251.491 61.3515 250.206 50.5273 253.859 48.9187C257.511 47.3101 264.724 55.5277 269.961 67.2734Z" fill="white"/>
</mask>
<g mask="url(#mask2_307_98)">
<path d="M263.037 72.7755C262.519 71.4449 262.59 70.0381 263.124 69.1329C263.82 69.64 264.447 70.4525 264.849 71.4886C265.334 72.7318 265.399 74.0242 265.111 75.0603C264.278 74.7603 263.488 73.937 263.037 72.7755Z" fill="white"/>
<path d="M265.105 75.3929C265.067 75.3929 265.029 75.3874 264.991 75.3711C264.044 75.0275 263.194 74.1005 262.726 72.89C262.187 71.4995 262.226 69.989 262.835 68.9529C262.884 68.8711 262.96 68.8166 263.053 68.7948C263.145 68.773 263.243 68.7948 263.32 68.8493C264.098 69.411 264.751 70.2998 265.16 71.3577C265.65 72.6173 265.748 73.9969 265.432 75.1421C265.405 75.2293 265.345 75.3056 265.263 75.3493C265.209 75.382 265.154 75.3929 265.105 75.3929ZM263.347 72.65C263.69 73.528 264.24 74.2205 264.871 74.5804C265.034 73.6534 264.92 72.5901 264.534 71.6031C264.229 70.8178 263.777 70.1362 263.238 69.6509C262.911 70.4907 262.944 71.6194 263.347 72.65Z" fill="#050004"/>
</g>
<path d="M227.757 73.9151L237.076 95.3998L234.92 96.2069L225.519 74.9784L227.757 73.9151Z" fill="#FFF9F3"/>
<path d="M234.92 96.545C234.79 96.545 234.67 96.4686 234.615 96.3487L225.22 75.1202C225.149 74.9566 225.22 74.7603 225.383 74.684L227.615 73.6206C227.697 73.5825 227.789 73.577 227.876 73.6097C227.963 73.6425 228.029 73.7079 228.067 73.7897L237.392 95.2744C237.43 95.3562 237.43 95.4544 237.392 95.5362C237.359 95.618 237.288 95.6888 237.201 95.7161L235.04 96.5286C234.997 96.5341 234.958 96.545 234.92 96.545ZM225.96 75.142L235.094 95.787L236.63 95.209L227.582 74.3622L225.96 75.142Z" fill="#000201"/>
<path d="M244.74 116.634C244.376 116.83 244.038 117.07 243.717 117.332L237.539 122.31C236.003 123.548 235.878 125.98 237.451 127.174C238.535 127.998 240.092 128.025 242.421 126.88L248.252 122.883C249.983 121.694 250.821 119.475 250.086 117.506C249.493 115.925 248.061 114.84 244.74 116.634Z" fill="white"/>
<path d="M239.291 128.101C238.502 128.101 237.827 127.883 237.25 127.442C236.466 126.847 236.009 125.926 235.993 124.906C235.976 123.804 236.477 122.741 237.326 122.049L243.505 117.07C243.891 116.759 244.234 116.525 244.577 116.339C246.276 115.418 247.669 115.156 248.714 115.543C249.476 115.827 250.043 116.454 250.396 117.392C251.159 119.431 250.337 121.858 248.437 123.161L242.607 127.158C241.327 127.791 240.233 128.101 239.291 128.101ZM247.686 116.039C246.929 116.039 245.998 116.339 244.898 116.928C244.588 117.097 244.278 117.304 243.924 117.593L237.745 122.572C237.054 123.134 236.646 124.001 236.657 124.895C236.668 125.718 237.021 126.433 237.647 126.907C238.693 127.698 240.206 127.589 242.269 126.58L248.061 122.61C249.711 121.481 250.429 119.387 249.77 117.632C249.487 116.879 249.052 116.388 248.48 116.176C248.246 116.083 247.979 116.039 247.686 116.039Z" fill="#050004"/>
<path d="M240.881 111.41C240.516 111.606 240.179 111.846 239.858 112.108L233.679 117.086C232.144 118.324 232.019 120.756 233.592 121.95C234.675 122.774 236.232 122.801 238.562 121.656L244.392 117.659C246.123 116.47 246.962 114.251 246.227 112.282C245.633 110.701 244.202 109.616 240.881 111.41Z" fill="white"/>
<path d="M235.432 122.877C234.643 122.877 233.968 122.659 233.391 122.218C232.607 121.623 232.149 120.702 232.133 119.682C232.117 118.58 232.618 117.517 233.467 116.83L239.645 111.851C240.026 111.546 240.38 111.306 240.718 111.121C242.416 110.199 243.81 109.937 244.855 110.325C245.617 110.614 246.183 111.235 246.537 112.173C247.299 114.213 246.477 116.639 244.577 117.942L238.747 121.939C237.473 122.561 236.374 122.877 235.432 122.877ZM241.039 111.704C240.734 111.868 240.413 112.086 240.064 112.369L233.886 117.348C233.195 117.904 232.786 118.777 232.797 119.671C232.808 120.494 233.162 121.209 233.788 121.683C234.833 122.474 236.346 122.37 238.41 121.356L244.202 117.386C245.851 116.257 246.57 114.164 245.911 112.408C245.628 111.655 245.198 111.164 244.621 110.952C243.766 110.625 242.563 110.881 241.039 111.704Z" fill="#050004"/>
<path d="M237.098 105.188C236.744 105.401 236.417 105.657 236.107 105.935L230.168 111.197C228.693 112.506 228.682 114.943 230.309 116.056C231.431 116.825 232.988 116.781 235.258 115.532L240.897 111.268C242.574 110.003 243.309 107.745 242.481 105.815C241.812 104.256 240.331 103.236 237.098 105.188Z" fill="white"/>
<path d="M231.997 116.901C231.289 116.901 230.663 116.71 230.119 116.334C229.308 115.778 228.807 114.878 228.747 113.858C228.682 112.762 229.128 111.672 229.95 110.946L235.889 105.684C236.265 105.352 236.591 105.106 236.929 104.904C238.584 103.906 239.961 103.574 241.023 103.917C241.801 104.168 242.394 104.763 242.786 105.684C243.646 107.685 242.933 110.15 241.099 111.535L235.459 115.799C234.125 116.536 232.982 116.901 231.997 116.901ZM240.141 104.452C239.362 104.452 238.399 104.795 237.272 105.477C236.972 105.657 236.673 105.886 236.33 106.186L230.391 111.448C229.727 112.037 229.362 112.926 229.417 113.82C229.466 114.643 229.852 115.336 230.5 115.783C231.583 116.525 233.086 116.345 235.1 115.238L240.701 111.001C242.296 109.796 242.917 107.669 242.177 105.946C241.861 105.21 241.404 104.741 240.821 104.55C240.609 104.485 240.38 104.452 240.141 104.452Z" fill="#050004"/>
<path d="M233.951 132.306C233.951 132.306 234.871 122.305 224.773 123.826C223.129 124.072 236.771 121.056 236.395 116.59C236.02 112.13 228.671 113.7 221.344 116.012" fill="white"/>
<path d="M233.957 132.638C233.946 132.638 233.935 132.638 233.924 132.638C233.739 132.622 233.603 132.458 233.619 132.273C233.625 132.229 233.973 128.009 231.458 125.637C229.956 124.219 227.724 123.723 224.822 124.159C224.713 124.175 224.381 124.224 224.311 123.913C224.24 123.592 224.381 123.554 225.171 123.314C234.403 120.554 236.189 118.15 236.063 116.623C235.993 115.783 235.655 115.172 235.035 114.758C232.574 113.106 226.096 114.867 221.442 116.334C221.268 116.388 221.077 116.29 221.023 116.116C220.968 115.941 221.066 115.75 221.24 115.696C226.434 114.06 232.732 112.408 235.405 114.202C236.194 114.731 236.64 115.527 236.728 116.568C236.929 118.962 233.837 121.192 227.294 123.352C229.199 123.445 230.75 124.05 231.921 125.157C234.67 127.758 234.305 132.153 234.289 132.338C234.272 132.507 234.125 132.638 233.957 132.638Z" fill="#050004"/>
<path d="M282.236 38.5308L280.026 49.862L278.023 47.4627L274.12 55.2987L276.646 42.6532L278.72 44.7308L282.236 38.5308Z" fill="#FFD387"/>
<path d="M274.12 55.6313C274.082 55.6313 274.049 55.6258 274.011 55.6149C273.853 55.5604 273.761 55.3968 273.793 55.2332L276.319 42.5878C276.341 42.4678 276.433 42.3696 276.548 42.3315C276.668 42.2933 276.793 42.326 276.88 42.4133L278.644 44.1855L281.942 38.3672C282.024 38.2254 282.193 38.1599 282.351 38.2199C282.503 38.2745 282.596 38.4381 282.563 38.5962L280.353 49.9275C280.331 50.0529 280.233 50.1565 280.108 50.1892C279.983 50.2219 279.852 50.1783 279.77 50.0802L278.094 48.0735L274.419 55.4513C274.359 55.5604 274.24 55.6313 274.12 55.6313ZM276.853 43.3294L274.936 52.9048L277.718 47.3155C277.767 47.2119 277.865 47.1465 277.979 47.1301C278.088 47.1137 278.203 47.1628 278.273 47.2501L279.83 49.1095L281.512 40.4829L279.008 44.8998C278.959 44.9925 278.867 45.0525 278.763 45.0689C278.66 45.0798 278.556 45.0471 278.48 44.9762L276.853 43.3294Z" fill="#050004"/>
<path d="M300.396 79.3136L289.591 80.3115L291.224 77.8631L283.118 76.4017L295.198 75.3438L293.869 77.7758L300.396 79.3136Z" fill="#FFD387"/>
<path d="M289.591 80.6441C289.476 80.6441 289.362 80.5841 289.302 80.4805C289.237 80.3715 289.242 80.2297 289.313 80.1261L290.663 78.103L283.064 76.7343C282.9 76.7071 282.781 76.5598 282.792 76.3908C282.797 76.2218 282.928 76.0854 283.096 76.0745L295.176 75.0167C295.301 75.0057 295.415 75.0657 295.486 75.1693C295.551 75.2729 295.557 75.4038 295.497 75.5129L294.381 77.5577L300.478 78.9973C300.636 79.0355 300.745 79.1827 300.734 79.3463C300.723 79.5099 300.592 79.6408 300.429 79.6571L289.618 80.655C289.612 80.6441 289.602 80.6441 289.591 80.6441ZM285.644 76.5162L291.278 77.5305C291.387 77.5523 291.48 77.6232 291.529 77.7268C291.572 77.8304 291.561 77.9503 291.501 78.043L290.255 79.908L298.328 79.1609L293.793 78.0921C293.69 78.0703 293.608 77.9994 293.565 77.9013C293.521 77.8086 293.526 77.6941 293.575 77.6068L294.604 75.7255L285.644 76.5162Z" fill="#050004"/>
<path d="M308.6 51.956L293.548 63.0037L293.793 57.9488L280.565 62.971L297.435 50.7127L297.62 55.4677L308.6 51.956Z" fill="#FFD387"/>
<path d="M293.548 63.3363C293.494 63.3363 293.439 63.3254 293.39 63.2982C293.276 63.2382 293.211 63.1182 293.216 62.9873L293.434 58.4396L280.679 63.2872C280.522 63.3472 280.347 63.2818 280.266 63.1346C280.19 62.9873 280.228 62.8019 280.364 62.7038L297.234 50.4455C297.332 50.3746 297.462 50.3582 297.577 50.4128C297.685 50.4673 297.762 50.5764 297.762 50.7018L297.93 55.0205L308.491 51.6451C308.649 51.5961 308.818 51.667 308.888 51.8142C308.965 51.9614 308.921 52.1359 308.79 52.2341L293.739 63.2763C293.684 63.3145 293.619 63.3363 293.548 63.3363ZM293.793 57.6107C293.864 57.6107 293.929 57.6325 293.989 57.6761C294.082 57.7416 294.131 57.8506 294.125 57.9651L293.913 62.3221L306.749 52.9048L297.724 55.7949C297.626 55.8276 297.517 55.8112 297.43 55.7512C297.342 55.6913 297.293 55.5931 297.288 55.4895L297.125 51.3561L282.786 61.7768L293.673 57.638C293.712 57.6216 293.755 57.6107 293.793 57.6107Z" fill="#050004"/>
<path d="M30.3918 149.373C32.6944 151.396 35.0026 153.42 37.3052 155.443C37.6863 155.775 38.247 155.219 37.8605 154.886C35.5578 152.863 33.2497 150.84 30.947 148.817C30.566 148.485 30.0053 149.041 30.3918 149.373Z" fill="white"/>
<path d="M299.912 115.281C302.215 117.304 304.523 119.327 306.825 121.351C307.206 121.683 307.767 121.127 307.381 120.794C305.078 118.771 302.77 116.748 300.467 114.725C300.092 114.387 299.531 114.943 299.912 115.281Z" fill="white"/>
<path d="M66.015 122.021C67.6045 119.715 69.1941 117.408 70.7891 115.101C71.0776 114.682 70.3971 114.289 70.1086 114.703C68.5191 117.01 66.9295 119.317 65.3345 121.623C65.0406 122.043 65.7265 122.436 66.015 122.021Z" fill="white"/>
<path d="M143.658 68.124C145.247 65.8174 146.837 63.5108 148.432 61.2042C148.72 60.7843 148.04 60.3917 147.751 60.8061C146.162 63.1128 144.572 65.4194 142.977 67.726C142.689 68.1458 143.375 68.5439 143.658 68.124Z" fill="white"/>
<path d="M117.18 45.8486C119.314 48.4715 121.442 51.0944 123.576 53.7172C123.897 54.1099 124.453 53.5482 124.131 53.161C121.997 50.5381 119.869 47.9153 117.735 45.2924C117.414 44.8943 116.859 45.456 117.18 45.8486Z" fill="white"/>
<path d="M269.651 5.83467C271.785 8.45755 273.913 11.0804 276.047 13.7033C276.368 14.0959 276.923 13.5343 276.602 13.1471C274.468 10.5242 272.34 7.90135 270.206 5.27847C269.89 4.88585 269.335 5.44751 269.651 5.83467Z" fill="white"/>
<path d="M41.4697 95.6016C40.5878 92.8642 39.7005 90.1268 38.8187 87.3894C38.6608 86.9095 37.8987 87.1113 38.0566 87.6021C38.9384 90.3395 39.8257 93.0769 40.7076 95.8142C40.8655 96.2941 41.6276 96.0869 41.4697 95.6016Z" fill="white"/>
<path d="M207.506 62.6002C208.731 64.6668 210.163 66.6081 211.779 68.3858C212.122 68.762 212.678 68.2004 212.335 67.8296C210.761 66.101 209.373 64.2142 208.187 62.2021C207.925 61.7659 207.245 62.1639 207.506 62.6002Z" fill="white"/>
<path d="M244.169 31.4473C245.612 30.1495 247.054 28.8517 248.491 27.5484C248.867 27.2103 248.312 26.6487 247.936 26.9922C246.494 28.29 245.051 29.5878 243.614 30.8911C243.233 31.2292 243.793 31.7854 244.169 31.4473Z" fill="white"/>
<path d="M53.2769 26.7141C54.7194 25.4163 56.162 24.1185 57.5991 22.8153C57.9747 22.4772 57.4195 21.9155 57.0439 22.2591C55.6013 23.5569 54.1587 24.8547 52.7216 26.1579C52.3405 26.496 52.9012 27.0522 53.2769 26.7141Z" fill="white"/>
<path d="M270.021 261.301C271.883 259.125 273.739 256.95 275.601 254.769C275.927 254.387 275.372 253.825 275.045 254.212C273.184 256.388 271.327 258.564 269.466 260.745C269.134 261.127 269.689 261.688 270.021 261.301Z" fill="white"/>
<path d="M305.72 217.241C308.518 214.155 311.017 210.796 313.162 207.224C313.423 206.788 312.743 206.39 312.481 206.826C310.369 210.343 307.919 213.648 305.165 216.685C304.822 217.056 305.377 217.617 305.72 217.241Z" fill="white"/>
<path d="M11.4425 202.605C12.8851 204.05 14.3277 205.49 15.7648 206.935C16.1241 207.295 16.6848 206.739 16.32 206.379C14.8775 204.934 13.4349 203.494 11.9978 202.049C11.644 201.689 11.0833 202.245 11.4425 202.605Z" fill="white"/>
<path d="M37.6373 260.914C38.2252 260.053 38.8077 259.196 39.3956 258.335C39.5153 258.16 39.4283 257.899 39.2541 257.795C39.0581 257.68 38.8349 257.762 38.7151 257.937C38.1272 258.798 37.5447 259.654 36.9568 260.516C36.8371 260.69 36.9242 260.952 37.0984 261.056C37.2889 261.17 37.5175 261.089 37.6373 260.914Z" fill="white"/>
<path d="M280.157 171.676C282.307 169.217 284.463 166.752 286.619 164.293C286.951 163.911 286.395 163.349 286.063 163.736C283.908 166.196 281.757 168.661 279.602 171.12C279.27 171.496 279.825 172.058 280.157 171.676Z" fill="white"/>
<path d="M89.0525 85.1646C89.0525 86.2552 88.1707 87.1386 87.0819 87.1386C85.9932 87.1386 85.1113 86.2552 85.1113 85.1646C85.1113 84.074 85.9932 83.1906 87.0819 83.1906C88.1707 83.1906 89.0525 84.074 89.0525 85.1646Z" fill="black"/>
<path d="M277.778 154.75C277.778 155.748 276.972 156.555 275.976 156.555C274.98 156.555 274.174 155.748 274.174 154.75C274.174 153.752 274.98 152.945 275.976 152.945C276.972 152.945 277.778 153.752 277.778 154.75Z" fill="black"/>
<path d="M294.49 132.311C294.49 132.791 294.103 133.173 293.63 133.173C293.156 133.173 292.77 132.785 292.77 132.311C292.77 131.831 293.156 131.449 293.63 131.449C294.103 131.449 294.49 131.837 294.49 132.311Z" fill="black"/>
<path d="M266.537 133.511C267.012 133.511 267.397 133.125 267.397 132.649C267.397 132.173 267.012 131.788 266.537 131.788C266.062 131.788 265.677 132.173 265.677 132.649C265.677 133.125 266.062 133.511 266.537 133.511Z" fill="black"/>
<path d="M47.7244 161.414C48.1994 161.414 48.5845 161.028 48.5845 160.552C48.5845 160.076 48.1994 159.69 47.7244 159.69C47.2493 159.69 46.8643 160.076 46.8643 160.552C46.8643 161.028 47.2493 161.414 47.7244 161.414Z" fill="black"/>
<path d="M62.5474 179.747C62.5474 180.646 61.818 181.377 60.9198 181.377C60.0216 181.377 59.2921 180.646 59.2921 179.747C59.2921 178.847 60.0216 178.116 60.9198 178.116C61.818 178.116 62.5474 178.847 62.5474 179.747Z" fill="black"/>
<path d="M62.5474 153.114C62.5474 154.014 61.818 154.745 60.9198 154.745C60.0216 154.745 59.2921 154.014 59.2921 153.114C59.2921 152.214 60.0216 151.484 60.9198 151.484C61.818 151.484 62.5474 152.214 62.5474 153.114Z" fill="black"/>
<path d="M103.641 87.253C104.059 87.253 104.398 86.9137 104.398 86.4951C104.398 86.0765 104.059 85.7371 103.641 85.7371C103.224 85.7371 102.885 86.0765 102.885 86.4951C102.885 86.9137 103.224 87.253 103.641 87.253Z" fill="black"/>
<path d="M83.3585 98.1754C83.3585 99.0588 82.6399 99.7785 81.758 99.7785C80.8762 99.7785 80.1576 99.0588 80.1576 98.1754C80.1576 97.292 80.8762 96.5722 81.758 96.5722C82.6399 96.5722 83.3585 97.2865 83.3585 98.1754Z" fill="black"/>
<path d="M272.089 115.085C272.089 115.859 271.463 116.481 270.696 116.481C269.923 116.481 269.302 115.854 269.302 115.085C269.302 114.311 269.928 113.689 270.696 113.689C271.469 113.689 272.089 114.311 272.089 115.085Z" fill="black"/>
<path d="M87.2671 248.394C93.7722 253.525 103.054 252.593 108.002 246.3C112.95 240.013 111.687 230.754 105.182 225.617L86.2763 210.698L95.1331 199.432L114.453 214.678C127.392 224.892 129.902 243.306 120.065 255.816C110.228 268.325 91.7635 270.19 78.824 259.976L59.5045 244.73L68.3613 233.464L87.2671 248.394Z" fill="#050004"/>
<path d="M78.6171 260.249L59.2976 245.002C59.2268 244.948 59.1833 244.866 59.1724 244.779C59.1615 244.692 59.1887 244.599 59.2432 244.528L68.1054 233.262C68.2197 233.115 68.4375 233.093 68.579 233.208L87.4848 248.127C90.5604 250.553 94.3655 251.677 98.1924 251.295C102.019 250.908 105.411 249.059 107.746 246.093C110.081 243.127 111.083 239.391 110.56 235.574C110.038 231.757 108.056 228.316 104.981 225.89L86.0749 210.97C86.0041 210.916 85.9606 210.834 85.9497 210.747C85.9388 210.659 85.966 210.567 86.0204 210.496L94.8772 199.23C94.9916 199.083 95.2093 199.061 95.3508 199.176L114.67 214.422C127.735 224.734 130.277 243.399 120.337 256.039C114.175 263.875 104.632 267.583 95.1549 266.803C89.352 266.318 83.5762 264.164 78.6171 260.249ZM86.7499 210.643L105.389 225.355C108.606 227.891 110.675 231.49 111.219 235.481C111.763 239.478 110.718 243.394 108.269 246.513C105.819 249.626 102.264 251.562 98.2523 251.971C94.2458 252.375 90.2719 251.202 87.0602 248.661L68.4212 233.949L59.9781 244.681L79.0308 259.72C91.8016 269.797 110.087 267.959 119.798 255.614C129.504 243.274 127.016 225.028 114.246 214.951L95.193 199.912L86.7499 210.643Z" fill="#050004"/>
<path d="M87.6808 246.289C94.1859 251.42 103.467 250.488 108.416 244.195C113.364 237.908 112.101 228.649 105.596 223.512L86.69 208.593L95.5468 197.327L114.866 212.573C127.806 222.787 130.315 241.202 120.479 253.711C110.642 266.22 92.1772 268.085 79.2377 257.871L59.9182 242.625L68.775 231.359L87.6808 246.289Z" fill="#00A558"/>
<path d="M79.0253 258.144L59.7059 242.897C59.5589 242.783 59.5317 242.57 59.6514 242.423L68.5082 231.157C68.5627 231.086 68.6443 231.043 68.7314 231.032C68.8185 231.021 68.9111 231.048 68.9818 231.103L87.8876 246.022C90.9632 248.449 94.7683 249.572 98.5952 249.19C102.422 248.803 105.813 246.954 108.149 243.988C110.484 241.022 111.486 237.286 110.963 233.469C110.441 229.652 108.459 226.211 105.383 223.785L86.4777 208.865C86.4069 208.811 86.3634 208.729 86.3525 208.642C86.3416 208.555 86.3688 208.462 86.4233 208.391L95.2801 197.125C95.3944 196.978 95.6121 196.956 95.7536 197.071L115.073 212.317C128.138 222.629 130.68 241.294 120.74 253.934C114.578 261.77 105.035 265.478 95.5577 264.698C89.7602 264.219 83.9845 262.059 79.0253 258.144ZM87.1636 208.538L105.803 223.25C109.02 225.786 111.088 229.385 111.633 233.377C112.177 237.374 111.132 241.289 108.682 244.408C106.233 247.522 102.678 249.457 98.666 249.866C94.6595 250.27 90.6856 249.098 87.4739 246.556L68.8349 231.844L60.3918 242.576L79.4445 257.615C92.2153 267.692 110.5 265.855 120.212 253.509C129.918 241.163 127.43 222.923 114.659 212.846L95.6067 197.807L87.1636 208.538Z" fill="#050004"/>
<path d="M95.83 215.791L104.676 204.541L95.5469 197.332L86.6956 208.582L95.83 215.791Z" fill="url(#paint3_linear_307_98)"/>
<path d="M95.6176 216.058L86.4887 208.849C86.4179 208.795 86.3743 208.713 86.3634 208.626C86.3526 208.538 86.3798 208.446 86.4342 208.375L95.2856 197.125C95.3999 196.978 95.6176 196.956 95.7592 197.071L104.888 204.274C104.959 204.329 105.002 204.41 105.013 204.498C105.024 204.585 104.997 204.678 104.943 204.748L96.0912 215.998C96.0205 216.091 95.9062 216.134 95.7973 216.123C95.7374 216.123 95.6721 216.096 95.6176 216.058ZM95.6013 197.807L87.1691 208.527L95.7701 215.316L104.202 204.596L95.6013 197.807Z" fill="#050004"/>
<path d="M69.0471 249.839L77.8931 238.59L68.7641 231.381L59.9127 242.636L69.0471 249.839Z" fill="url(#paint4_linear_307_98)"/>
<path d="M68.8349 250.106L59.7059 242.897C59.5589 242.783 59.5317 242.57 59.6514 242.423L68.5028 231.174C68.5572 231.103 68.6389 231.059 68.726 231.048C68.8131 231.037 68.9056 231.065 68.9764 231.119L78.1054 238.328C78.2523 238.442 78.2796 238.655 78.1598 238.802L69.3084 250.052C69.254 250.123 69.1724 250.166 69.0853 250.177C69.0635 250.183 69.0417 250.183 69.0199 250.177C68.9546 250.172 68.8893 250.15 68.8349 250.106ZM68.8185 231.855L60.3863 242.576L68.9873 249.365L77.4195 238.644L68.8185 231.855Z" fill="#050004"/>
<path d="M41.0396 229.718L55.1549 224.859L53.7668 228.665L65.0678 227.967L49.2758 233.322L50.2556 229.647L41.0396 229.718Z" fill="#FFD387"/>
<path d="M49.0417 233.573C48.9492 233.486 48.9165 233.36 48.9492 233.24L49.8201 229.99L41.045 230.061C40.8708 230.056 40.7401 229.941 40.7075 229.778C40.6803 229.614 40.7728 229.456 40.9307 229.401L55.046 224.543C55.1712 224.499 55.3073 224.532 55.3944 224.625C55.487 224.717 55.5142 224.854 55.4706 224.979L54.2621 228.3L65.046 227.635C65.2147 227.629 65.3672 227.744 65.3998 227.907C65.4325 228.076 65.3345 228.24 65.1766 228.294L49.3846 233.649C49.3411 233.666 49.2921 233.671 49.2486 233.666C49.1723 233.655 49.1016 233.622 49.0417 233.573ZM53.7885 229.003C53.6742 229.009 53.5654 228.96 53.4946 228.867C53.4293 228.774 53.4075 228.654 53.4456 228.551L54.5888 225.41L43.1027 229.363L50.2502 229.309C50.3536 229.309 50.457 229.358 50.5224 229.44C50.5877 229.521 50.6095 229.63 50.5822 229.734L49.7603 232.804L62.5528 228.463L53.7885 229.003Z" fill="#050004"/>
<path d="M74.9207 182.887L83.0372 194.382L79.2375 194.137L82.8576 204.181L73.8429 191.301L77.4248 191.22L74.9207 182.887Z" fill="#FFD387"/>
<path d="M82.58 204.378L73.5653 191.498C73.4945 191.394 73.4837 191.263 73.5381 191.149C73.5925 191.04 73.7068 190.963 73.832 190.963L76.9676 190.892L74.5887 182.991C74.5397 182.833 74.6159 182.664 74.7629 182.588C74.9099 182.517 75.0895 182.56 75.1875 182.697L83.3094 194.191C83.3856 194.295 83.3911 194.437 83.3312 194.551C83.2659 194.666 83.1461 194.731 83.0155 194.726L79.7275 194.513L83.1679 204.072C83.2278 204.23 83.157 204.41 83.0046 204.487C82.9447 204.514 82.8848 204.53 82.8195 204.525C82.7324 204.509 82.6399 204.459 82.58 204.378ZM75.8408 184.78L77.7515 191.121C77.7841 191.225 77.7624 191.334 77.7025 191.416C77.6426 191.503 77.5392 191.552 77.4357 191.558L74.4853 191.623L81.6818 201.907L78.9218 194.251C78.8837 194.142 78.9001 194.022 78.9708 193.935C79.0416 193.842 79.1505 193.793 79.2648 193.799L82.3568 194.001L75.8408 184.78Z" fill="#050004"/>
<path d="M40.37 189.938L62.4821 199.683L56.6682 202.687L70.8653 214.286L46.211 203.282L51.4151 199.993L40.37 189.938Z" fill="#FFD387"/>
<path d="M70.7292 214.597L46.075 203.592C45.9606 203.543 45.8844 203.434 45.8735 203.309C45.8627 203.183 45.9225 203.063 46.0314 202.998L50.8599 199.944L40.1414 190.189C40.0162 190.08 39.9944 189.895 40.087 189.753C40.1795 189.611 40.3537 189.562 40.5061 189.627L62.6236 199.377C62.7434 199.432 62.8196 199.546 62.825 199.677C62.8305 199.808 62.7597 199.928 62.64 199.988L57.278 202.753L71.0776 214.029C71.2083 214.138 71.2409 214.324 71.1538 214.471C71.0885 214.58 70.9633 214.64 70.8381 214.629C70.8 214.624 70.7619 214.613 70.7292 214.597ZM42.1283 191.083L51.6384 199.743C51.7146 199.813 51.7581 199.917 51.7472 200.021C51.7363 200.124 51.6819 200.222 51.5894 200.277L46.9187 203.233L68.6824 212.944L56.4451 202.949C56.358 202.878 56.309 202.764 56.3199 202.649C56.3308 202.535 56.4015 202.436 56.4995 202.382L61.6873 199.704L42.1283 191.083Z" fill="#050004"/>
</g>
<defs>
<linearGradient id="paint0_linear_307_98" x1="169.742" y1="184.234" x2="187.481" y2="184.234" gradientUnits="userSpaceOnUse">
<stop stop-color="white"/>
<stop offset="0.9413" stop-color="#F9F9F9"/>
</linearGradient>
<linearGradient id="paint1_linear_307_98" x1="127.28" y1="149.963" x2="151.117" y2="149.963" gradientUnits="userSpaceOnUse">
<stop stop-color="white"/>
<stop offset="0.9413" stop-color="#F9F9F9"/>
</linearGradient>
<linearGradient id="paint2_linear_307_98" x1="137.995" y1="148.066" x2="140.433" y2="148.066" gradientUnits="userSpaceOnUse">
<stop stop-color="white"/>
<stop offset="0.9413" stop-color="#F9F9F9"/>
</linearGradient>
<linearGradient id="paint3_linear_307_98" x1="100.112" y1="200.935" x2="91.2434" y2="212.172" gradientUnits="userSpaceOnUse">
<stop stop-color="white"/>
<stop offset="0.9413" stop-color="#F9F9F9"/>
</linearGradient>
<linearGradient id="paint4_linear_307_98" x1="73.3301" y1="234.986" x2="64.4618" y2="246.222" gradientUnits="userSpaceOnUse">
<stop stop-color="white"/>
<stop offset="0.9413" stop-color="#F9F9F9"/>
</linearGradient>
<clipPath id="clip0_307_98">
<rect width="324" height="277" fill="white"/>
</clipPath>
</defs>
</svg>
