<svg width="45" height="27" viewBox="0 0 45 27" fill="none" xmlns="http://www.w3.org/2000/svg">
<path d="M0.761764 15.4525L10.2528 25.9526C10.8785 26.644 11.7651 27 12.6565 27C13.3848 27 14.1171 26.7627 14.7141 26.2778C16.0403 25.1997 16.194 23.3056 15.0571 22.0473L10.0426 16.4999L41.8363 16.4999C43.5834 16.4999 45 15.1566 45 13.4999C45 11.8431 43.5834 10.4999 41.8363 10.4999L10.0426 10.4999L15.0571 4.95244C16.194 3.69413 16.0403 1.80007 14.7141 0.721937C13.3872 -0.356197 11.3898 -0.209712 10.2528 1.04714L0.761764 11.5472C-0.253921 12.6708 -0.253921 14.329 0.761764 15.4525Z" fill="#808080"/>
</svg>
