<svg width="39" height="39" viewBox="0 0 39 39" fill="none" xmlns="http://www.w3.org/2000/svg">
<path d="M19.1132 1.69641C9.5096 1.69641 1.69653 9.50948 1.69653 19.1131C1.69653 28.7167 9.5096 36.5297 19.1132 36.5297C28.7168 36.5297 36.5299 28.7167 36.5299 19.1131C36.5299 9.50948 28.7168 1.69641 19.1132 1.69641Z" fill="#00A558"/>
<path d="M24.7399 11.8638L26.9989 18.8042C27.1474 19.2615 27.0768 19.7382 26.8446 20.1191C26.6549 20.4303 26.3572 20.678 25.9831 20.7999C25.1518 21.0704 24.2582 20.6157 23.9874 19.7842L22.794 16.1174L16.3438 26.6968C15.8887 27.4434 14.9143 27.6797 14.1677 27.2245C13.4212 26.7693 13.1849 25.795 13.6401 25.0484L20.0902 14.4689L16.284 15.0876C15.4208 15.2277 14.6073 14.6416 14.467 13.7787C14.3269 12.9155 14.9133 12.1022 15.7758 11.9617L22.9801 10.7908C23.751 10.6655 24.4982 11.1211 24.7399 11.8638Z" fill="white"/>
</svg>
