<svg width="457" height="396" viewBox="0 0 457 396" fill="none" xmlns="http://www.w3.org/2000/svg">
<g clip-path="url(#clip0_9_1875)">
<path d="M445.587 141.649C445.538 138.976 445.535 138.84 445.486 136.167L442.103 134.904C441.409 133.531 440.993 132.705 440.299 131.332L441.294 127.863C439.172 126.234 439.063 126.151 436.94 124.524L433.842 126.378C432.334 126.064 431.427 125.874 429.921 125.56L427.826 122.62C425.228 123.263 425.096 123.295 422.497 123.937L422.016 127.513C420.831 128.494 420.117 129.084 418.931 130.065L415.323 129.868C414.206 132.298 414.149 132.421 413.031 134.851L415.531 137.456C415.559 138.993 415.576 139.919 415.604 141.457L413.201 144.151C414.407 146.537 414.469 146.66 415.673 149.047L419.27 148.719C420.491 149.656 421.226 150.22 422.447 151.156L423.058 154.712C425.677 155.26 425.811 155.287 428.431 155.834L430.418 152.82C431.912 152.451 432.811 152.229 434.306 151.859L437.471 153.599C439.533 151.894 439.638 151.808 441.7 150.103L440.579 146.672C441.222 145.274 441.609 144.433 442.251 143.035L445.587 141.649ZM429.072 147.679C424.414 147.563 420.732 143.697 420.849 139.044C420.966 134.391 424.837 130.713 429.495 130.829C434.154 130.945 437.836 134.813 437.718 139.466C437.602 144.119 433.731 147.796 429.072 147.679Z" fill="#DBDBDD"/>
<path d="M405.494 187.106C414.015 187.106 420.923 180.206 420.923 171.695C420.923 163.184 414.015 156.284 405.494 156.284C396.973 156.284 390.065 163.184 390.065 171.695C390.065 180.206 396.973 187.106 405.494 187.106Z" fill="#DBDBDD"/>
<path d="M405.494 170.787C403.613 170.787 402.096 169.228 402.169 167.334C402.235 165.611 403.64 164.207 405.365 164.142C407.064 164.077 408.494 165.286 408.773 166.89C408.83 167.22 409.113 167.463 409.447 167.463C409.872 167.463 410.192 167.079 410.121 166.661C409.734 164.417 407.75 162.719 405.38 162.776C402.891 162.835 400.859 164.863 400.801 167.351C400.739 169.992 402.864 172.153 405.495 172.153V172.152C407.376 172.152 408.893 173.711 408.82 175.605C408.754 177.327 407.35 178.732 405.625 178.797C403.925 178.861 402.495 177.652 402.217 176.048C402.16 175.718 401.877 175.476 401.543 175.476C401.117 175.476 400.797 175.86 400.869 176.278C401.256 178.522 403.239 180.22 405.609 180.164C408.1 180.105 410.13 178.076 410.188 175.589C410.249 172.948 408.124 170.787 405.494 170.787Z" fill="white"/>
<path d="M405.494 160.689C405.123 160.689 404.82 160.961 404.82 161.295V182.095C404.82 182.431 405.121 182.701 405.494 182.701C405.865 182.701 406.168 182.429 406.168 182.095V161.295C406.167 160.961 405.865 160.689 405.494 160.689Z" fill="white"/>
<path d="M429.717 115.998H316.834C316.532 115.998 316.287 115.753 316.287 115.451V36.7396C316.287 29.2393 322.396 23.1383 329.905 23.1383H416.646C424.155 23.1383 430.263 29.2393 430.263 36.7396V115.453C430.264 115.753 430.02 115.998 429.717 115.998ZM317.382 114.906H429.17V36.7396C429.17 29.8426 423.552 24.2299 416.646 24.2299H329.906C323.001 24.2299 317.382 29.8413 317.382 36.7396V114.906Z" fill="#DBDBDD"/>
<path d="M416.647 133.866H329.906C322.397 133.866 316.289 127.765 316.289 120.265V115.452C316.289 115.15 316.533 114.906 316.836 114.906H429.719C430.021 114.906 430.266 115.15 430.266 115.452V120.265C430.264 127.764 424.156 133.866 416.647 133.866ZM317.382 115.998V120.264C317.382 127.161 323 132.774 329.906 132.774H416.647C423.552 132.774 429.171 127.162 429.171 120.264V115.998H317.382Z" fill="#DBDBDD"/>
<path d="M243.082 142.214C243.082 142.214 244.101 121.559 240.879 121.559C238.66 121.559 239.433 127.961 237.263 128.503C235.093 129.045 232.529 114.501 226.317 115.227C220.104 115.951 221.287 123.916 222.619 129.534C223.95 135.152 231.051 140.618 232.381 143.869C233.714 147.119 243.082 142.214 243.082 142.214Z" fill="#FF7976"/>
<path d="M278.682 94.1266C267.871 98.1764 258.886 96.1238 253.948 94.2071V110.842C253.948 114.098 251.305 116.74 248.042 116.74H32.8915C29.6298 116.74 26.9854 114.1 26.9854 110.842V25.847C26.9854 22.5905 29.6285 19.9492 32.8915 19.9492H248.044C251.305 19.9492 253.95 22.5892 253.95 25.847V80.0554C257.703 84.3388 266.768 93.1261 278.682 94.1266Z" fill="white"/>
<path d="M248.042 117.011H32.8915C29.4845 117.011 26.7118 114.243 26.7118 110.842V25.8469C26.7118 22.444 29.4831 19.6772 32.8915 19.6772H248.044C251.451 19.6772 254.223 22.4453 254.223 25.8469V79.9524C257.667 83.8622 266.805 92.8554 278.707 93.8546C278.834 93.8652 278.937 93.9629 278.955 94.0896C278.973 94.2163 278.9 94.3378 278.781 94.3826C273.95 96.1924 269.01 96.9646 264.099 96.6768C260.687 96.4775 257.367 95.7805 254.225 94.6031V110.842C254.222 114.243 251.451 117.011 248.042 117.011ZM32.8915 20.2237C29.7858 20.2237 27.2589 22.7462 27.2589 25.8482V110.842C27.2589 113.942 29.7858 116.466 32.8915 116.466H248.044C251.149 116.466 253.676 113.944 253.676 110.842V94.2071C253.676 94.1173 253.721 94.0328 253.795 93.9814C253.87 93.9299 253.964 93.9193 254.049 93.9523C258.356 95.6248 267.008 97.8186 277.465 94.2718C272.632 93.6514 267.806 91.7281 263.104 88.5482C258.896 85.7023 255.693 82.4564 253.745 80.2349C253.701 80.1847 253.677 80.1214 253.677 80.0554V25.8469C253.677 22.7462 251.151 20.2224 248.045 20.2224H32.8915V20.2237Z" fill="#DBDBDD"/>
<path d="M229.286 35.8142V106.874H51.6474C51.6474 106.874 66.2191 60.7701 73.3279 60.7701C84.6274 60.7701 85.2023 79.3267 94.7785 80.8566C100.291 81.737 102.971 74.382 104.676 70.4721C105.97 67.5074 107.138 64.4912 108.656 61.6294C111.481 56.3138 119.244 51.8298 125.208 54.4685C132.747 57.8028 129.931 69.4782 137.69 72.6369C143.736 75.0987 149.143 70.224 151.417 64.9387C153.743 59.532 155 47.7404 161.259 45.4713C166.226 43.6708 169.263 46.1538 170.894 50.75C173.185 57.2074 172.898 71.6918 182.854 70.1157C192.118 68.6479 193.823 57.2616 195.086 49.7349C195.652 46.3663 196.1 42.0684 198.234 39.196C201.808 34.3833 206.81 38.6614 209.983 41.8308C217.725 49.5633 223.742 39.6963 229.286 35.8142Z" fill="#00A558"/>
<path d="M39.7585 106.874C39.7585 106.874 54.9302 87.8975 73.7733 94.2533C92.6164 100.609 99.297 99.3168 112.596 89.0855C125.895 78.8542 132.573 89.4564 140.467 94.0078C148.359 98.5591 155.506 89.1198 157.464 79.5868C159.421 70.0551 167.986 71.5216 172.391 83.0082C176.796 94.4949 190.744 90.585 194.415 81.2975C198.086 72.01 198.605 59.3815 210.825 66.429C223.046 73.4765 229.286 59.7894 229.286 59.7894V106.874H39.7585Z" fill="#323F8B"/>
<path d="M241.4 107.42H32.9074C32.6047 107.42 32.3602 107.176 32.3602 106.874C32.3602 106.571 32.6047 106.327 32.9074 106.327H241.4C241.703 106.327 241.947 106.571 241.947 106.874C241.947 107.176 241.701 107.42 241.4 107.42Z" fill="#29346D"/>
<path d="M52.1945 105.782H51.1003V106.875H52.1945V105.782Z" fill="#323F8B"/>
<path d="M52.1945 103.559H51.1003V101.338H52.1945V103.559ZM52.1945 99.1162H51.1003V96.8946H52.1945V99.1162ZM52.1945 94.6731H51.1003V92.4515H52.1945V94.6731ZM52.1945 90.2286H51.1003V88.0071H52.1945V90.2286ZM52.1945 85.7855H51.1003V83.5639H52.1945V85.7855ZM52.1945 81.3424H51.1003V79.1208H52.1945V81.3424ZM52.1945 76.8993H51.1003V74.6777H52.1945V76.8993ZM52.1945 72.4548H51.1003V70.2333H52.1945V72.4548ZM52.1945 68.0117H51.1003V65.7901H52.1945V68.0117ZM52.1945 63.5686H51.1003V61.347H52.1945V63.5686ZM52.1945 59.1241H51.1003V56.9026H52.1945V59.1241ZM52.1945 54.681H51.1003V52.4595H52.1945V54.681ZM52.1945 50.2379H51.1003V48.0163H52.1945V50.2379ZM52.1945 45.7935H51.1003V43.5719H52.1945V45.7935ZM52.1945 41.3503H51.1003V39.1288H52.1945V41.3503Z" fill="#323F8B"/>
<path d="M52.1945 35.8142H51.1003V36.9072H52.1945V35.8142Z" fill="#323F8B"/>
<path d="M87.7226 105.782H86.6283V106.875H87.7226V105.782Z" fill="#323F8B"/>
<path d="M87.7226 103.559H86.6283V101.338H87.7226V103.559ZM87.7226 99.1162H86.6283V96.8946H87.7226V99.1162ZM87.7226 94.6731H86.6283V92.4515H87.7226V94.6731ZM87.7226 90.2286H86.6283V88.0071H87.7226V90.2286ZM87.7226 85.7855H86.6283V83.5639H87.7226V85.7855ZM87.7226 81.3424H86.6283V79.1208H87.7226V81.3424ZM87.7226 76.8993H86.6283V74.6777H87.7226V76.8993ZM87.7226 72.4548H86.6283V70.2333H87.7226V72.4548ZM87.7226 68.0117H86.6283V65.7901H87.7226V68.0117ZM87.7226 63.5686H86.6283V61.347H87.7226V63.5686ZM87.7226 59.1241H86.6283V56.9026H87.7226V59.1241ZM87.7226 54.681H86.6283V52.4595H87.7226V54.681ZM87.7226 50.2379H86.6283V48.0163H87.7226V50.2379ZM87.7226 45.7935H86.6283V43.5719H87.7226V45.7935ZM87.7226 41.3503H86.6283V39.1288H87.7226V41.3503Z" fill="#323F8B"/>
<path d="M87.7226 35.8142H86.6283V36.9072H87.7226V35.8142Z" fill="#323F8B"/>
<path d="M123.251 105.782H122.156V106.875H123.251V105.782Z" fill="#323F8B"/>
<path d="M123.249 103.559H122.155V101.338H123.249V103.559ZM123.249 99.1162H122.155V96.8946H123.249V99.1162ZM123.249 94.6731H122.155V92.4515H123.249V94.6731ZM123.249 90.2286H122.155V88.0071H123.249V90.2286ZM123.249 85.7855H122.155V83.5639H123.249V85.7855ZM123.249 81.3424H122.155V79.1208H123.249V81.3424ZM123.249 76.8993H122.155V74.6777H123.249V76.8993ZM123.249 72.4548H122.155V70.2333H123.249V72.4548ZM123.249 68.0117H122.155V65.7901H123.249V68.0117ZM123.249 63.5686H122.155V61.347H123.249V63.5686ZM123.249 59.1241H122.155V56.9026H123.249V59.1241ZM123.249 54.681H122.155V52.4595H123.249V54.681ZM123.249 50.2379H122.155V48.0163H123.249V50.2379ZM123.249 45.7935H122.155V43.5719H123.249V45.7935ZM123.249 41.3503H122.155V39.1288H123.249V41.3503Z" fill="#323F8B"/>
<path d="M123.251 35.8142H122.157V36.9072H123.251V35.8142Z" fill="#323F8B"/>
<path d="M158.779 105.782H157.684V106.875H158.779V105.782Z" fill="#323F8B"/>
<path d="M158.777 103.559H157.683V101.338H158.777V103.559ZM158.777 99.1162H157.683V96.8946H158.777V99.1162ZM158.777 94.6731H157.683V92.4515H158.777V94.6731ZM158.777 90.2286H157.683V88.0071H158.777V90.2286ZM158.777 85.7855H157.683V83.5639H158.777V85.7855ZM158.777 81.3424H157.683V79.1208H158.777V81.3424ZM158.777 76.8993H157.683V74.6777H158.777V76.8993ZM158.777 72.4548H157.683V70.2333H158.777V72.4548ZM158.777 68.0117H157.683V65.7901H158.777V68.0117ZM158.777 63.5686H157.683V61.347H158.777V63.5686ZM158.777 59.1241H157.683V56.9026H158.777V59.1241ZM158.777 54.681H157.683V52.4595H158.777V54.681ZM158.777 50.2379H157.683V48.0163H158.777V50.2379ZM158.777 45.7935H157.683V43.5719H158.777V45.7935ZM158.777 41.3503H157.683V39.1288H158.777V41.3503Z" fill="#323F8B"/>
<path d="M158.779 35.8142H157.685V36.9072H158.779V35.8142Z" fill="#323F8B"/>
<path d="M194.307 105.782H193.213V106.875H194.307V105.782Z" fill="#323F8B"/>
<path d="M194.305 103.559H193.211V101.338H194.305V103.559ZM194.305 99.1162H193.211V96.8946H194.305V99.1162ZM194.305 94.6731H193.211V92.4515H194.305V94.6731ZM194.305 90.2286H193.211V88.0071H194.305V90.2286ZM194.305 85.7855H193.211V83.5639H194.305V85.7855ZM194.305 81.3424H193.211V79.1208H194.305V81.3424ZM194.305 76.8993H193.211V74.6777H194.305V76.8993ZM194.305 72.4548H193.211V70.2333H194.305V72.4548ZM194.305 68.0117H193.211V65.7901H194.305V68.0117ZM194.305 63.5686H193.211V61.347H194.305V63.5686ZM194.305 59.1241H193.211V56.9026H194.305V59.1241ZM194.305 54.681H193.211V52.4595H194.305V54.681ZM194.305 50.2379H193.211V48.0163H194.305V50.2379ZM194.305 45.7935H193.211V43.5719H194.305V45.7935ZM194.305 41.3503H193.211V39.1288H194.305V41.3503Z" fill="#323F8B"/>
<path d="M194.307 35.8142H193.213V36.9072H194.307V35.8142Z" fill="#323F8B"/>
<path d="M229.833 105.782H228.739V106.875H229.833V105.782Z" fill="#323F8B"/>
<path d="M229.833 103.559H228.739V101.338H229.833V103.559ZM229.833 99.1162H228.739V96.8946H229.833V99.1162ZM229.833 94.6731H228.739V92.4515H229.833V94.6731ZM229.833 90.2286H228.739V88.0071H229.833V90.2286ZM229.833 85.7855H228.739V83.5639H229.833V85.7855ZM229.833 81.3424H228.739V79.1208H229.833V81.3424ZM229.833 76.8993H228.739V74.6777H229.833V76.8993ZM229.833 72.4548H228.739V70.2333H229.833V72.4548ZM229.833 68.0117H228.739V65.7901H229.833V68.0117ZM229.833 63.5686H228.739V61.347H229.833V63.5686ZM229.833 59.1241H228.739V56.9026H229.833V59.1241ZM229.833 54.681H228.739V52.4595H229.833V54.681ZM229.833 50.2379H228.739V48.0163H229.833V50.2379ZM229.833 45.7935H228.739V43.5719H229.833V45.7935ZM229.833 41.3503H228.739V39.1288H229.833V41.3503Z" fill="#323F8B"/>
<path d="M229.833 35.8142H228.739V36.9072H229.833V35.8142Z" fill="#323F8B"/>
<path d="M363.613 390.09C395.485 390.09 421.321 385.95 421.321 380.842C421.321 375.735 395.485 371.594 363.613 371.594C331.742 371.594 305.905 375.735 305.905 380.842C305.905 385.95 331.742 390.09 363.613 390.09Z" fill="#ECEDF2"/>
<path d="M423.264 360.541C423.264 351.401 377.033 343.993 320.002 343.993C300.046 343.993 281.413 344.9 265.621 346.471C249.538 344.896 230.753 343.993 210.686 343.993C155.292 343.993 109.671 350.881 103.685 359.741C42.6646 362.651 0 369.324 0 377.088C0 387.533 77.2015 396 172.433 396C267.665 396 344.867 387.533 344.867 377.088C344.867 376.927 344.848 376.768 344.811 376.608C389.858 374.827 423.264 368.309 423.264 360.541Z" fill="#ECEDF2"/>
<path d="M205.335 359.336C225.446 359.336 241.749 357.682 241.749 355.642C241.749 353.603 225.446 351.949 205.335 351.949C185.225 351.949 168.922 353.603 168.922 355.642C168.922 357.682 185.225 359.336 205.335 359.336Z" fill="#BDC3D1"/>
<path d="M325.895 366.033C358.812 366.033 385.497 363.81 385.497 361.068C385.497 358.325 358.812 356.102 325.895 356.102C292.978 356.102 266.293 358.325 266.293 361.068C266.293 363.81 292.978 366.033 325.895 366.033Z" fill="#BDC3D1"/>
<path d="M98.4221 24.9427H86.8926C78.8165 24.9427 72.2693 31.482 72.2693 39.5485C72.2693 45.0833 75.3513 49.8987 79.8949 52.3763C79.4627 55.4466 78.5151 57.6985 77.0495 61.4566C81.8257 58.8839 85.7931 57.8411 87.3896 54.1543H98.4221C106.498 54.1543 113.045 47.6151 113.045 39.5485C113.044 31.482 106.497 24.9427 98.4221 24.9427Z" fill="white"/>
<path d="M77.0495 62.003C76.9187 62.003 76.7892 61.9568 76.6874 61.8658C76.5156 61.714 76.4561 61.4711 76.5394 61.2586L76.8803 60.3847C78.079 57.3236 78.8891 55.2539 79.2975 52.668C74.6138 49.9594 71.7209 44.9684 71.7209 39.5485C71.7209 31.1942 78.5257 24.3962 86.8913 24.3962H98.4208C106.785 24.3962 113.591 31.1929 113.591 39.5485C113.591 47.9041 106.786 54.7008 98.4208 54.7008H87.7398C86.3812 57.49 83.7499 58.7638 80.4499 60.3583C79.4429 60.8454 78.4015 61.3483 77.3085 61.937C77.2279 61.9806 77.138 62.003 77.0495 62.003ZM86.8913 25.4892C79.1297 25.4892 72.8152 31.7962 72.8152 39.5485C72.8152 44.6965 75.6288 49.4274 80.1565 51.8971C80.3561 52.0067 80.4671 52.2271 80.4354 52.4528C80.0495 55.1971 79.2658 57.288 78.0883 60.3002C78.7332 59.9755 79.3596 59.6719 79.9728 59.3749C83.1948 57.8173 85.7402 56.5858 86.886 53.9378C86.9732 53.7372 87.1702 53.6078 87.3882 53.6078H98.4208C106.182 53.6078 112.497 47.3009 112.497 39.5485C112.497 31.7962 106.184 25.4892 98.4221 25.4892H86.8913Z" fill="#DBDBDD"/>
<path d="M92.6574 41.5839C92.0799 41.5839 91.6015 41.1338 91.5684 40.557L90.5112 22.5139C90.4741 21.8882 90.9724 21.3602 91.6001 21.3602H93.7147C94.3424 21.3602 94.8406 21.8882 94.8036 22.5139L93.7464 40.557C93.712 41.1338 93.2349 41.5839 92.6574 41.5839Z" fill="#00A558"/>
<path d="M92.6574 46.7807C93.5508 46.7807 94.275 45.9947 94.275 45.0251C94.275 44.0555 93.5508 43.2695 92.6574 43.2695C91.764 43.2695 91.0398 44.0555 91.0398 45.0251C91.0398 45.9947 91.764 46.7807 92.6574 46.7807Z" fill="#00A558"/>
<path d="M83.1948 220.102H36.5153C29.1448 220.102 23.1686 214.134 23.1686 206.771V138.085C23.1686 130.724 29.1435 124.755 36.5153 124.755H83.1935C90.564 124.755 96.5402 130.722 96.5402 138.085V206.771C96.5402 214.133 90.5653 220.102 83.1948 220.102Z" fill="white"/>
<path d="M82.7336 220.647H36.9752C29.0602 220.647 22.6215 214.216 22.6215 206.311V138.543C22.6215 130.638 29.0602 124.207 36.9752 124.207H82.7336C90.6486 124.207 97.0873 130.638 97.0873 138.543V206.311C97.0873 214.216 90.6486 220.647 82.7336 220.647ZM36.9752 125.301C29.6642 125.301 23.7158 131.242 23.7158 138.544V206.312C23.7158 213.614 29.6642 219.556 36.9752 219.556H82.7336C90.0446 219.556 95.993 213.614 95.993 206.312V138.544C95.993 131.242 90.0446 125.301 82.7336 125.301H36.9752Z" fill="#DBDBDD"/>
<path d="M45.9421 155.567H36.5708C35.4012 155.567 34.4523 154.62 34.4523 153.451V144.091C34.4523 142.923 35.4012 141.975 36.5708 141.975H45.9421C47.1117 141.975 48.0606 142.923 48.0606 144.091V153.451C48.0606 154.621 47.1117 155.567 45.9421 155.567Z" fill="white"/>
<path d="M45.8681 155.841H36.6435C35.2849 155.841 34.1787 154.736 34.1787 153.379V144.165C34.1787 142.808 35.2849 141.703 36.6435 141.703H45.8681C47.2267 141.703 48.3328 142.808 48.3328 144.165V153.379C48.3328 154.736 47.228 155.841 45.8681 155.841ZM36.6435 142.25C35.5862 142.25 34.7258 143.109 34.7258 144.165V153.379C34.7258 154.435 35.5862 155.294 36.6435 155.294H45.8681C46.9254 155.294 47.7857 154.435 47.7857 153.379V144.165C47.7857 143.109 46.9254 142.25 45.8681 142.25H36.6435Z" fill="#DBDBDD"/>
<path d="M45.9421 182.163H36.5708C35.4012 182.163 34.4523 181.215 34.4523 180.047V170.687C34.4523 169.518 35.4012 168.571 36.5708 168.571H45.9421C47.1117 168.571 48.0606 169.518 48.0606 170.687V180.047C48.0606 181.215 47.1117 182.163 45.9421 182.163Z" fill="white"/>
<path d="M45.8681 182.436H36.6435C35.2849 182.436 34.1787 181.331 34.1787 179.974V170.761C34.1787 169.404 35.2849 168.299 36.6435 168.299H45.8681C47.2267 168.299 48.3328 169.404 48.3328 170.761V179.974C48.3328 181.331 47.228 182.436 45.8681 182.436ZM36.6435 168.844C35.5862 168.844 34.7258 169.703 34.7258 170.759V179.973C34.7258 181.029 35.5862 181.888 36.6435 181.888H45.8681C46.9254 181.888 47.7857 181.029 47.7857 179.973V170.759C47.7857 169.703 46.9254 168.844 45.8681 168.844H36.6435Z" fill="#DBDBDD"/>
<path d="M45.9421 208.757H36.5708C35.4012 208.757 34.4523 207.809 34.4523 206.641V197.281C34.4523 196.112 35.4012 195.165 36.5708 195.165H45.9421C47.1117 195.165 48.0606 196.112 48.0606 197.281V206.641C48.0606 207.81 47.1117 208.757 45.9421 208.757Z" fill="white"/>
<path d="M45.8681 209.03H36.6435C35.2849 209.03 34.1787 207.925 34.1787 206.568V197.355C34.1787 195.998 35.2849 194.893 36.6435 194.893H45.8681C47.2267 194.893 48.3328 195.998 48.3328 197.355V206.568C48.3328 207.926 47.228 209.03 45.8681 209.03ZM36.6435 195.439C35.5862 195.439 34.7258 196.299 34.7258 197.355V206.568C34.7258 207.624 35.5862 208.483 36.6435 208.483H45.8681C46.9254 208.483 47.7857 207.624 47.7857 206.568V197.355C47.7857 196.299 46.9254 195.439 45.8681 195.439H36.6435Z" fill="#DBDBDD"/>
<path d="M52.0399 136.099L41.2558 148.772L33.6316 142.796V146.52L41.2558 152.496L52.0399 139.822V136.099Z" fill="#00A558"/>
<path d="M52.0399 162.29L41.2558 174.963L33.6316 168.988V172.711L41.2558 178.687L52.0399 166.014V162.29Z" fill="#00A558"/>
<path d="M46.9399 198.445L44.7778 196.285L41.2558 199.803L37.7351 196.285L35.573 198.445L39.095 201.961L35.573 205.479L37.7351 207.639L41.2558 204.121L44.7778 207.639L46.9399 205.479L43.4179 201.961L46.9399 198.445Z" fill="#091558"/>
<path d="M74.7275 146.652H55.8579C55.2288 146.652 54.7187 146.142 54.7187 145.514V145.436C54.7187 144.808 55.2288 144.298 55.8579 144.298H74.7275C75.3565 144.298 75.8667 144.808 75.8667 145.436V145.514C75.8667 146.142 75.3565 146.652 74.7275 146.652Z" fill="#CAE2F5"/>
<path d="M84.9393 153.673H55.8579C55.2288 153.673 54.7187 153.164 54.7187 152.535V152.457C54.7187 151.829 55.2288 151.32 55.8579 151.32H84.9393C85.5684 151.32 86.0785 151.829 86.0785 152.457V152.535C86.0785 153.164 85.5684 153.673 84.9393 153.673Z" fill="#ECEDF2"/>
<path d="M74.7275 173.033H55.8579C55.2288 173.033 54.7187 172.524 54.7187 171.896V171.818C54.7187 171.189 55.2288 170.68 55.8579 170.68H74.7275C75.3565 170.68 75.8667 171.189 75.8667 171.818V171.896C75.8667 172.524 75.3565 173.033 74.7275 173.033Z" fill="#00A558"/>
<path d="M84.9393 180.055H55.8579C55.2288 180.055 54.7187 179.545 54.7187 178.917V178.839C54.7187 178.211 55.2288 177.701 55.8579 177.701H84.9393C85.5684 177.701 86.0785 178.211 86.0785 178.839V178.917C86.0785 179.545 85.5684 180.055 84.9393 180.055Z" fill="#ECEDF2"/>
<path d="M67.4297 199.628H55.8579C55.2288 199.628 54.7187 199.118 54.7187 198.49V198.412C54.7187 197.784 55.2288 197.274 55.8579 197.274H67.4297C68.0588 197.274 68.5689 197.784 68.5689 198.412V198.49C68.5689 199.118 68.0588 199.628 67.4297 199.628Z" fill="#ECEDF2"/>
<path d="M84.9393 206.65H55.8579C55.2288 206.65 54.7187 206.14 54.7187 205.512V205.434C54.7187 204.806 55.2288 204.296 55.8579 204.296H84.9393C85.5684 204.296 86.0785 204.806 86.0785 205.434V205.512C86.0785 206.14 85.5684 206.65 84.9393 206.65Z" fill="#00A558"/>
<path d="M118.275 147.975L105.526 165.242H109.578L118.962 152.028L118.275 147.975Z" fill="#091558"/>
<path d="M180.41 160.89L176.339 136.905C175.93 134.501 173.668 132.553 171.283 132.553H121.338H118.255C115.871 132.553 114.269 134.501 114.678 136.905L118.749 160.89C119.158 163.293 121.42 165.242 123.804 165.242H126.888H176.834C179.217 165.242 180.819 163.293 180.41 160.89Z" fill="#091558"/>
<path d="M125.522 165.242H128.606L123.056 132.552H119.973C117.589 132.552 115.987 134.5 116.396 136.904L120.467 160.888C120.874 163.293 123.138 165.242 125.522 165.242Z" fill="#091558"/>
<path d="M128.606 165.788H125.522C122.887 165.788 120.377 163.631 119.928 160.981L115.856 136.996C115.628 135.652 115.946 134.389 116.75 133.437C117.531 132.513 118.675 132.005 119.973 132.005H123.056C123.323 132.005 123.551 132.198 123.596 132.461L129.145 165.15C129.171 165.309 129.128 165.471 129.023 165.594C128.919 165.717 128.766 165.788 128.606 165.788ZM119.973 133.1C119.003 133.1 118.156 133.47 117.585 134.144C116.992 134.845 116.76 135.794 116.935 136.814L121.007 160.798C121.371 162.947 123.397 164.696 125.522 164.696H127.958L122.594 133.1H119.973Z" fill="#29346D"/>
<path d="M178.552 165.242H128.604L127.887 161.011L123.056 132.553H173.002C175.386 132.553 177.648 134.501 178.057 136.905L178.536 139.733L182.128 160.89C182.537 163.293 180.935 165.242 178.552 165.242Z" fill="white"/>
<path d="M178.552 165.788H128.604C128.337 165.788 128.11 165.595 128.065 165.333L122.516 132.644C122.489 132.486 122.533 132.323 122.637 132.201C122.742 132.078 122.894 132.007 123.055 132.007H173C175.635 132.007 178.144 134.163 178.594 136.814L182.668 160.798C182.896 162.142 182.578 163.405 181.774 164.356C180.993 165.279 179.849 165.788 178.552 165.788ZM129.067 164.695H178.552C179.522 164.695 180.369 164.324 180.94 163.651C181.534 162.95 181.765 162.001 181.59 160.981L177.517 136.996C177.153 134.847 175.127 133.098 173.002 133.098H123.704L129.067 164.695Z" fill="#29346D"/>
<path d="M122.948 152.995C122.345 152.995 121.774 152.502 121.671 151.895L120.654 145.9C120.551 145.292 120.955 144.8 121.558 144.8C122.16 144.8 122.731 145.292 122.834 145.9L123.852 151.895C123.954 152.502 123.549 152.995 122.948 152.995Z" fill="white"/>
<path d="M397.802 82.2716C397.802 84.839 397.41 87.3325 396.679 89.6768C395.95 92.0212 394.883 94.2163 393.538 96.2029C390.85 100.176 387.053 103.327 382.571 105.222C379.584 106.484 376.29 107.183 372.862 107.183C370.291 107.184 367.793 106.791 365.447 106.062C363.1 105.333 360.904 104.267 358.914 102.924C354.937 100.239 351.781 96.4471 349.885 91.971C348.621 88.9878 347.922 85.697 347.922 82.273C347.922 79.7056 348.315 77.2108 349.044 74.8664C349.447 73.5715 349.953 72.3228 350.552 71.1295L360.621 76.1587C360.489 76.4188 360.366 76.6841 360.252 76.9547C359.562 78.5875 359.181 80.3695 359.179 82.273C359.179 83.6999 359.395 85.0582 359.794 86.3386C360.193 87.619 360.774 88.8175 361.513 89.9092C362.989 92.0938 365.091 93.8348 367.538 94.8671C369.172 95.5561 370.957 95.9389 372.862 95.9389C374.29 95.9389 375.65 95.7238 376.932 95.3251C378.214 94.9278 379.415 94.3457 380.508 93.6078C382.694 92.1334 384.437 90.0359 385.471 87.5912C386.162 85.9584 386.544 84.1764 386.544 82.2743C386.543 80.9213 386.351 79.6303 385.99 78.412L396.79 75.2347C397.448 77.4695 397.802 79.8376 397.802 82.2716Z" fill="#ECEDF2"/>
<path d="M392.368 66.7485L383.564 73.7564C382.147 71.9836 380.295 70.5686 378.186 69.6789C376.551 68.9898 374.767 68.607 372.863 68.607C372.673 68.607 372.484 68.611 372.297 68.6189L371.832 57.3844C372.174 57.3699 372.519 57.3633 372.864 57.3633C375.435 57.362 377.931 57.754 380.278 58.484C382.625 59.2126 384.823 60.2792 386.812 61.6216C388.913 63.0393 390.789 64.7698 392.368 66.7485Z" fill="#091558"/>
<path d="M372.296 68.6176C371.073 68.6664 369.903 68.875 368.791 69.2195C367.51 69.6168 366.309 70.1989 365.216 70.9355C363.27 72.2476 361.676 74.0533 360.621 76.1574L350.552 71.1282C351.037 70.1606 351.584 69.2287 352.185 68.339C354.873 64.3658 358.67 61.215 363.153 59.3195C365.839 58.1843 368.773 57.5045 371.831 57.3817L372.296 68.6176Z" fill="#F35757"/>
<path d="M396.791 75.232L385.991 78.4093C385.972 78.3406 385.952 78.2733 385.931 78.206C385.533 76.9256 384.95 75.727 384.213 74.6354C384.008 74.3331 383.792 74.0401 383.565 73.7549L392.369 66.7471C393.774 68.508 394.948 70.4642 395.841 72.5722C396.205 73.4355 396.523 74.3239 396.791 75.232Z" fill="#00A558"/>
<path d="M408.794 65.369C408.688 65.1063 408.391 64.9796 408.129 65.0852L394.204 70.6556C393.941 70.7612 393.814 71.0582 393.918 71.3196C394.024 71.5822 394.321 71.709 394.583 71.6034L408.51 66.033C408.772 65.9274 408.898 65.6304 408.794 65.369Z" fill="#00A558"/>
<path d="M410.143 69.3C412.601 69.3 414.593 67.3102 414.593 64.8556C414.593 62.401 412.601 60.4111 410.143 60.4111C407.686 60.4111 405.694 62.401 405.694 64.8556C405.694 67.3102 407.686 69.3 410.143 69.3Z" fill="#00A558"/>
<path d="M387.737 48.3054C390.195 48.3054 392.187 46.3155 392.187 43.8609C392.187 41.4063 390.195 39.4165 387.737 39.4165C385.28 39.4165 383.287 41.4063 383.287 43.8609C383.287 46.3155 385.28 48.3054 387.737 48.3054Z" fill="#091558"/>
<path d="M405.761 100.938L392.38 93.0679C392.186 92.9531 391.935 93.0178 391.82 93.2131C391.705 93.4072 391.769 93.658 391.965 93.7728L405.346 101.643C405.54 101.757 405.791 101.693 405.906 101.497C406.021 101.303 405.957 101.053 405.761 100.938Z" fill="#ECEDF2"/>
<path d="M405.963 106.071C408.381 106.071 410.34 104.114 410.34 101.699C410.34 99.2849 408.381 97.3275 405.963 97.3275C403.546 97.3275 401.586 99.2849 401.586 101.699C401.586 104.114 403.546 106.071 405.963 106.071Z" fill="#ECEDF2"/>
<path d="M350.551 57.0504C352.968 57.0504 354.928 55.0931 354.928 52.6786C354.928 50.2641 352.968 48.3068 350.551 48.3068C348.133 48.3068 346.174 50.2641 346.174 52.6786C346.174 55.0931 348.133 57.0504 350.551 57.0504Z" fill="#F35757"/>
<path d="M387.839 43.8741C387.62 43.8187 387.398 43.9507 387.341 44.1698L382.111 64.7195C382.056 64.9387 382.188 65.1604 382.407 65.2172C382.627 65.2726 382.849 65.1406 382.906 64.9215L388.135 44.3717C388.191 44.1513 388.058 43.9295 387.839 43.8741Z" fill="#091558"/>
<path d="M361.733 64.5876L352.743 54.2771C352.595 54.1068 352.336 54.0883 352.166 54.2375C351.995 54.3853 351.977 54.644 352.126 54.8143L361.115 65.1248C361.263 65.2951 361.522 65.3136 361.693 65.1644C361.863 65.0153 361.881 64.7578 361.733 64.5876Z" fill="#F35757"/>
<path d="M317.643 81.0533C317.643 81.0533 317.931 92.5835 323.248 93.4732C328.565 94.3629 333.196 94.1913 333.71 99.5017C334.224 104.812 330.622 105.154 331.908 107.81C333.194 110.464 340.534 116.404 335.278 118.531C330.022 120.657 321.104 125.111 315.958 107.638C310.815 90.1653 317.643 81.0533 317.643 81.0533Z" fill="#091558"/>
<path d="M292.492 72.5499C292.492 72.5499 283.8 72.2067 281.629 82.7139C279.458 93.2211 283.186 96.0498 277.4 99.3868C271.614 102.724 273.665 108.882 277.4 111.034C280.877 113.04 279 115.945 272.484 116.745C265.967 117.545 267.224 130.677 284.602 125.881C301.981 121.084 299.466 102.584 299.466 101.442C299.468 100.3 292.492 72.5499 292.492 72.5499Z" fill="#091558"/>
<path d="M209.029 340.514C224.122 340.514 224.122 340.514 224.122 340.514V327.367C217.95 327.203 211.704 325.867 206.208 323.019C207.175 329.385 208.592 338.544 209.029 340.514Z" fill="#CAE2F5"/>
<path d="M205.256 316.704C205.256 316.704 205.659 319.414 206.208 323.02C211.703 325.868 217.95 327.204 224.122 327.368V316.02L205.256 316.704Z" fill="#A8B7C2"/>
<path d="M146.497 265.06C144.782 261.229 143.361 257.326 142.181 253.295C138.889 257.189 135.664 261.043 134.818 262.188C144.724 273.561 144.724 273.561 144.724 273.561L148.933 269.903C148.346 269.211 147.808 268.472 147.326 267.687C146.912 266.856 146.912 265.889 146.497 265.06Z" fill="#CAE2F5"/>
<path d="M150.328 243.716C150.328 243.716 146.205 248.535 142.182 253.295C143.362 257.326 144.783 261.231 146.499 265.06C146.914 265.889 146.914 266.857 147.328 267.685C147.811 268.471 148.35 269.21 148.936 269.902L163.228 257.482L150.328 243.716Z" fill="#A8B7C2"/>
<path d="M285.176 170.742C285.176 170.742 284.678 171.782 283.722 173.404C279.818 180.028 268.266 196.338 251.733 190.972C231.154 184.292 227.037 143.596 227.037 143.596L228.229 143.384C232.907 140.903 238.677 140.001 245.301 140.331C245.301 140.331 250.362 146.351 259.449 169.557C260.753 158.759 269.283 124.512 285.249 116.452C297.378 110.327 285.176 170.742 285.176 170.742Z" fill="white"/>
<path d="M259.449 170.102C259.225 170.102 259.022 169.966 258.94 169.755C249.989 146.896 244.933 140.74 244.882 140.68C244.688 140.449 244.718 140.105 244.95 139.911C245.181 139.717 245.526 139.747 245.72 139.978C245.924 140.22 250.66 145.988 259.196 167.428C260.207 161.045 262.706 151.025 266.342 141.776C270.008 132.446 276.222 120.395 285.003 115.962C285.272 115.826 285.602 115.934 285.738 116.204C285.874 116.473 285.765 116.802 285.496 116.938C269.943 124.789 261.36 158.301 259.992 169.62C259.962 169.868 259.767 170.065 259.518 170.097C259.495 170.101 259.471 170.102 259.449 170.102Z" fill="#CAE2F5"/>
<path d="M283.722 173.404C279.818 180.028 268.266 196.338 251.733 190.972C231.154 184.292 227.037 143.596 227.037 143.596L228.229 143.384C229.134 146.632 230.69 152.193 233.318 161.551C238.742 180.856 244.659 178.592 252.747 182.235C260.834 185.88 269.708 180.069 270.892 167.658C272.075 155.248 278.584 145.496 278.584 145.496L283.722 173.404Z" fill="#CAE2F5"/>
<path d="M220.349 238.249C220.349 238.249 231.148 258.552 298.55 252.769C267.682 213.069 228.067 210.915 228.067 210.915L220.349 238.249Z" fill="#091558"/>
<path d="M338.341 234.299C333.796 251.448 289.101 270.575 216.904 221.467C211.592 226.744 186.669 251.02 159.808 269.243C156.506 269.243 153.773 267.494 151.559 265.015C146.181 258.998 143.859 248.688 143.859 248.688C143.859 248.688 194.024 178.094 212.802 171.604C231.715 165.069 288.432 197.813 288.432 197.813L291.455 198.156L320 201.396L333.708 202.953C333.708 202.953 334.233 203.738 334.969 205.168C337.33 209.753 341.871 220.981 338.341 234.299Z" fill="#091558"/>
<path d="M338.341 234.299C333.796 251.448 289.101 270.575 216.904 221.467C211.592 226.744 186.669 251.02 159.808 269.243C156.506 269.243 153.773 267.494 151.559 265.015C156.412 262.91 166.505 257.607 180.755 245.422C194.217 233.16 193.068 221.782 199.986 217.793C206.904 213.804 219.512 210.997 228.98 219.123C238.446 227.25 272.678 240.694 290.621 241.581C308.563 242.468 322.026 238.626 325.871 227.546C329.719 216.464 320.921 215.147 315.517 212.032C310.113 208.916 286.816 202.792 291.457 198.156C293.68 195.936 306.867 198.314 320.002 201.396C325.232 202.624 330.453 203.962 334.972 205.168C337.33 209.753 341.871 220.981 338.341 234.299Z" fill="black"/>
<path d="M338.341 208.861C322.593 217.943 279.632 192.987 279.632 192.987C279.632 192.987 278.412 193.037 278.039 190.58C277.328 185.93 276.156 175.771 275.316 155.93C274.03 125.611 285.25 116.449 285.25 116.449C285.25 116.449 295.123 106.341 319.047 110.708C330.444 112.789 334.282 119.332 335.689 133.155C337.236 148.348 335.849 172.335 338.341 208.861Z" fill="white"/>
<path d="M338.341 208.861C322.593 217.943 279.632 192.987 279.632 192.987C279.632 192.987 278.412 193.037 278.039 190.58C283.56 191.228 294.128 192.493 304.488 193.857C319.447 195.827 322.271 174.945 322.271 174.945C322.271 174.945 325.429 156.231 323.401 145.593C322.258 139.597 329.314 135.548 335.688 133.155C337.236 148.348 335.849 172.335 338.341 208.861Z" fill="#BDD4E6"/>
<path d="M293.573 154.026C293.573 154.026 273.702 137.762 273.061 138.402C272.42 139.042 270.699 139.601 274.186 143.293C275.431 144.605 278.682 148.35 278.682 148.35C278.682 148.35 272.913 155.215 276.315 158.613C279.717 162.01 288.346 163.912 289.332 163.912C290.32 163.914 293.573 154.026 293.573 154.026Z" fill="#FF7976"/>
<path d="M343.474 192.038C309.311 192.038 285.175 164.923 285.175 164.923C285.175 164.923 285.461 164.201 285.939 163.089C287.375 159.731 290.535 152.824 292.721 151.564C313.353 163.462 332.659 165.664 332.659 165.664C332.659 165.664 324.925 146.765 323.4 141.285L328.541 114.728C338.61 117.171 350.266 134.934 355.966 152.818C362.195 172.356 361.311 192.038 343.474 192.038Z" fill="white"/>
<path d="M332.66 166.21C332.639 166.21 332.618 166.209 332.598 166.207C332.549 166.201 327.645 165.627 320.284 163.602C313.496 161.734 303.157 158.211 292.449 152.036C292.187 151.886 292.097 151.552 292.249 151.291C292.4 151.029 292.734 150.939 292.996 151.091C303.595 157.203 313.829 160.692 320.548 162.542C327.834 164.549 332.674 165.116 332.723 165.121C333.023 165.156 333.238 165.426 333.204 165.726C333.172 166.005 332.935 166.21 332.66 166.21Z" fill="#CAE2F5"/>
<path d="M358.66 164.269C358.414 164.269 358.191 164.102 358.13 163.853L355.441 152.967C352.596 144.048 348.336 135.287 343.445 128.296C338.341 121.003 333.003 116.373 328.412 115.26C328.118 115.188 327.938 114.893 328.01 114.6C328.081 114.307 328.377 114.127 328.671 114.198C334.886 115.706 340.623 122.357 344.341 127.672C349.296 134.755 353.61 143.627 356.487 152.654C356.491 152.666 356.494 152.678 356.496 152.688L359.19 163.593C359.263 163.886 359.083 164.182 358.789 164.254C358.747 164.263 358.704 164.269 358.66 164.269Z" fill="#CAE2F5"/>
<path d="M234.372 232.361C227.116 225.114 218.977 218.753 218.977 218.753C209.505 218.753 195.051 213.869 193.637 246.888C192.223 279.906 202.512 319.989 202.512 319.989C210.668 321.643 218.901 321.611 227.209 319.989C227.209 319.989 238.87 264.487 238.87 248.223L234.372 232.361Z" fill="#091558"/>
<path d="M310.758 109.907C310.758 109.907 306.82 136.643 298.487 138.384C290.154 140.125 290.987 112.83 290.987 112.83C290.987 112.83 297.559 108.194 310.758 109.907Z" fill="#CAE2F5"/>
<path d="M309.904 109.681C309.18 110.803 308.171 112.435 306.777 114.804C305.131 117.599 302.503 119.377 299.906 120.507C297.461 121.571 294.674 120.016 294.29 117.38L293.625 112.828L293.185 109.808C293.185 109.808 292.977 108.241 291.732 108.083C288.826 107.713 281.967 105.209 281.642 97.2312C281.231 87.1464 291.814 65.3189 302.24 68.6942C312.666 72.0681 311.668 84.3124 308.894 95.3542C307.48 100.993 308.534 106.066 309.904 109.681Z" fill="#FF7976"/>
<path d="M290.621 77.8035C290.621 77.8035 293.242 91.7704 301.068 93.563C300.382 100.529 309.904 109.681 309.904 109.681C309.904 109.681 317.125 111.824 322.323 110.38C321.603 97.7276 316.474 90.7078 317.761 79.9736C319.048 69.2393 305.531 66.2693 300.954 67.7543C284.832 64.556 289.685 76.8676 290.621 77.8035Z" fill="#091558"/>
<path d="M293.628 112.83C293.628 112.83 293.628 112.83 293.625 112.83L293.185 109.81C293.185 109.81 292.977 108.243 291.732 108.084C293.7 107.89 296.624 105.667 296.624 105.667C297.138 108.195 293.628 112.83 293.628 112.83Z" fill="#F35757"/>
<path d="M227.094 340.514C225.836 333.719 224.122 334.747 224.122 334.747C224.122 334.747 222.978 335.889 217.033 336.689C211.087 337.488 207.542 335.204 207.542 335.204L200.682 340.514C200.682 340.514 186.996 344.477 181.202 348.183C180.15 348.856 180.644 351.632 181.195 353.709L225.212 353.456C226.37 350.331 227.922 344.989 227.094 340.514Z" fill="#00A558"/>
<path d="M181.197 353.709C181.553 355.051 181.933 356.102 181.933 356.102H224.122C224.122 356.102 224.615 355.077 225.213 353.458L181.197 353.709Z" fill="#091558"/>
<path d="M102.334 258.03L133.196 286.762C133.196 286.762 134.475 286.263 136.27 285.331L103.667 255.342C102.881 256.748 102.334 258.03 102.334 258.03Z" fill="#091558"/>
<path d="M147.773 271.14C147.773 271.14 146.156 271.197 141.262 267.733C136.367 264.269 135.334 260.184 135.334 260.184L126.691 259.396C126.691 259.396 113.973 252.974 107.205 251.74C106.069 251.533 104.673 253.54 103.667 255.342L136.269 285.331C139.262 283.779 143.688 281.025 146.011 277.384C149.728 271.557 147.773 271.14 147.773 271.14Z" fill="#00A558"/>
<path d="M275.995 348.698V356.283C275.995 359.383 278.511 361.896 281.616 361.896H285.058C286.767 361.896 288.341 360.968 289.167 359.476L295.126 348.698H275.995Z" fill="#091558"/>
<path d="M369.09 348.698V356.283C369.09 359.383 366.573 361.896 363.469 361.896H360.026C358.318 361.896 356.744 360.968 355.918 359.476L349.959 348.698H369.09Z" fill="#091558"/>
<path d="M377.967 353.456H267.117C264.871 353.456 263.05 351.637 263.05 349.395V256.034H382.033V349.395C382.033 351.639 380.214 353.456 377.967 353.456Z" fill="#DBDBDD"/>
<path d="M118.922 255.222L117.148 258.638L119.581 260.115L121.289 256.109L118.922 255.222Z" fill="#091558"/>
<path d="M122.407 257.061L120.633 260.477L123.064 261.953L124.774 257.948L122.407 257.061Z" fill="#091558"/>
<path d="M126.549 258.638L124.774 262.053L127.206 263.53L128.916 259.524L126.549 258.638Z" fill="#091558"/>
<path d="M191.879 342.137L193.042 345.806L195.808 345.132L194.181 341.093L191.879 342.137Z" fill="#091558"/>
<path d="M195.646 340.977L196.808 344.645L199.573 343.972L197.946 339.932L195.646 340.977Z" fill="#091558"/>
<path d="M199.69 339.166L200.853 342.834L203.619 342.161L201.992 338.122L199.69 339.166Z" fill="#091558"/>
<path d="M343.474 192.038C309.311 192.038 285.175 164.924 285.175 164.924C285.175 164.924 285.461 164.201 285.939 163.089C291.599 167.465 309.949 181.207 320.693 184.011C333.513 187.356 347.578 190.352 353.076 183.806C359.113 177.776 356.077 162.67 355.966 152.819C362.195 172.356 361.311 192.038 343.474 192.038Z" fill="#CAE2F5"/>
<path d="M440.212 187.108H389.498V196.63H440.212V187.108Z" fill="#ECEDF2"/>
<path d="M418.539 196.629H420.305V187.106H418.539V196.629Z" fill="#BDC3D1"/>
<path d="M406.535 187.107H404.77V196.63H406.535V187.107Z" fill="#BDC3D1"/>
<path d="M402.21 187.107H400.444V196.63H402.21V187.107Z" fill="#BDC3D1"/>
<path d="M397.884 187.107H396.119V196.63H397.884V187.107Z" fill="#BDC3D1"/>
<path d="M423.042 196.629H424.808V187.106H423.042V196.629Z" fill="#BDC3D1"/>
<path d="M427.544 196.629H429.309V187.106H427.544V196.629Z" fill="#BDC3D1"/>
<path d="M432.046 196.629H433.812V187.106H432.046V196.629Z" fill="#BDC3D1"/>
<path d="M433.591 196.63H382.876V206.153H433.591V196.63Z" fill="#ECEDF2"/>
<path d="M411.919 206.151H413.685V196.629H411.919V206.151Z" fill="#BDC3D1"/>
<path d="M399.914 196.63H398.149V206.152H399.914V196.63Z" fill="#BDC3D1"/>
<path d="M395.589 196.63H393.823V206.152H395.589V196.63Z" fill="#BDC3D1"/>
<path d="M391.263 196.63H389.498V206.152H391.263V196.63Z" fill="#BDC3D1"/>
<path d="M416.422 206.151H418.188V196.629H416.422V206.151Z" fill="#BDC3D1"/>
<path d="M420.923 206.151H422.689V196.629H420.923V206.151Z" fill="#BDC3D1"/>
<path d="M425.425 206.151H427.19V196.629H425.425V206.151Z" fill="#BDC3D1"/>
<path d="M381.314 260.345H263.621C261.317 260.345 259.45 258.48 259.45 256.179V255.891C259.45 253.59 261.317 251.725 263.621 251.725H381.314C383.618 251.725 385.485 253.59 385.485 255.891V256.179C385.485 258.48 383.618 260.345 381.314 260.345Z" fill="#00A558"/>
<path d="M369.33 289.599H275.753C274.41 289.599 273.323 288.511 273.323 287.171V268.092C273.323 266.751 274.412 265.665 275.753 265.665H369.33C370.673 265.665 371.761 266.752 371.761 268.092V287.171C371.762 288.511 370.673 289.599 369.33 289.599Z" fill="white"/>
<path d="M368.448 342.834H276.637C274.508 342.834 272.776 341.104 272.776 338.977V304.02C272.776 301.893 274.508 300.163 276.637 300.163H368.448C370.577 300.163 372.309 301.893 372.309 304.02V338.977C372.308 341.105 370.577 342.834 368.448 342.834ZM276.637 301.256C275.111 301.256 273.87 302.495 273.87 304.02V338.977C273.87 340.502 275.111 341.741 276.637 341.741H368.448C369.974 341.741 371.215 340.502 371.215 338.977V304.02C371.215 302.495 369.974 301.256 368.448 301.256H276.637Z" fill="#B8B8C1"/>
<path d="M322.542 275.612C324.394 275.612 325.895 274.113 325.895 272.263C325.895 270.414 324.394 268.914 322.542 268.914C320.691 268.914 319.19 270.414 319.19 272.263C319.19 274.113 320.691 275.612 322.542 275.612Z" fill="#091558"/>
<path d="M23.4118 86.3953C33.5149 86.3953 41.7051 78.2149 41.7051 68.1239C41.7051 58.0328 33.5149 49.8524 23.4118 49.8524C13.3087 49.8524 5.1185 58.0328 5.1185 68.1239C5.1185 78.2149 13.3087 86.3953 23.4118 86.3953Z" fill="white"/>
<path d="M23.4118 86.9417C13.0229 86.9417 4.57135 78.5004 4.57135 68.1238C4.57135 57.7473 13.0229 49.3059 23.4118 49.3059C33.8008 49.3059 42.2523 57.7473 42.2523 68.1238C42.2523 78.5004 33.8008 86.9417 23.4118 86.9417ZM23.4118 50.3989C13.6268 50.3989 5.66562 58.3506 5.66562 68.1238C5.66562 77.8971 13.6268 85.8488 23.4118 85.8488C33.1968 85.8488 41.158 77.8971 41.158 68.1238C41.158 58.3492 33.1981 50.3989 23.4118 50.3989Z" fill="#DBDBDD"/>
<path d="M8.44754 70.3361L20.1435 79.8943L36.132 60.2474L31.6624 56.3534L19.0797 72.2831L11.2837 66.6982L8.44754 70.3361Z" fill="#323F8B"/>
<path d="M101.085 328.355C101.085 328.355 102.187 331.605 108.4 318.604C114.613 305.604 135.964 301.728 128.452 294.225C120.941 286.723 103.814 296.442 98.9323 306.932C94.0503 317.422 95.9891 328.355 101.085 328.355Z" fill="#DADDE5"/>
<path d="M109.66 327.526C109.66 327.526 124.797 332.975 134.285 326.39C143.772 319.804 143.977 315.724 135.421 313.369C126.865 311.014 101.731 319.311 109.66 327.526Z" fill="#DADDE5"/>
<path d="M86.0746 321.545C86.0746 321.545 102.371 311.322 86.0746 280.196C69.7782 249.071 38.5902 243.161 38.5902 252.223C38.5902 261.285 72.5363 297.813 77.2702 311.997C82.0028 326.18 86.0746 321.545 86.0746 321.545Z" fill="#DADDE5"/>
<path d="M58.3253 331.572C58.3253 331.572 66.7887 332.326 59.9799 320.775C53.1712 309.223 27.6528 293.655 22.6255 301.439C17.5982 309.225 51.6632 332.451 58.3253 331.572Z" fill="#DADDE5"/>
<path d="M61.2817 338.76C61.024 338.76 60.7954 338.577 60.7451 338.315C58.2844 325.342 49.6359 317.216 42.8139 312.684C35.388 307.75 28.4497 305.878 28.3796 305.86C28.0876 305.783 27.9144 305.484 27.9911 305.192C28.069 304.9 28.3677 304.726 28.6598 304.804C28.7298 304.822 35.8162 306.731 43.3901 311.755C47.8452 314.71 51.6011 318.152 54.5562 321.985C58.2566 326.784 60.7002 332.211 61.8196 338.113C61.8764 338.408 61.6808 338.695 61.3835 338.75C61.3491 338.757 61.3147 338.76 61.2817 338.76Z" fill="#B8B8C1"/>
<path d="M87.4702 339.624C87.1675 339.624 86.923 339.38 86.923 339.078C86.923 312.156 77.1698 292.108 68.9879 280.029C60.1148 266.929 51.1227 260.114 51.0329 260.047C50.791 259.866 50.7421 259.523 50.9232 259.282C51.1042 259.041 51.4465 258.992 51.6884 259.173C51.7795 259.241 60.8932 266.142 69.8667 279.379C75.1345 287.15 79.3332 295.557 82.3437 304.37C86.1076 315.384 88.0146 327.062 88.0146 339.079C88.0173 339.38 87.7728 339.624 87.4702 339.624Z" fill="#B8B8C1"/>
<path d="M101.447 336.613C101.168 336.613 100.93 336.401 100.904 336.118C100.173 328.362 100.547 321.516 102.017 315.77C103.239 310.993 105.227 306.93 107.924 303.694C113.891 296.537 121.21 295.816 121.518 295.788C121.818 295.76 122.084 295.984 122.111 296.285C122.138 296.584 121.916 296.849 121.616 296.877C121.544 296.884 114.413 297.603 108.746 304.416C102.946 311.391 100.674 322.022 101.993 336.015C102.021 336.316 101.8 336.581 101.5 336.611C101.482 336.613 101.464 336.613 101.447 336.613Z" fill="#B8B8C1"/>
<path d="M106.185 338.697C106.169 338.697 106.153 338.696 106.137 338.695C105.836 338.668 105.614 338.404 105.639 338.103C105.649 337.994 105.885 335.368 107.053 331.979C108.136 328.84 110.258 324.441 114.222 321.317C118.587 317.877 124.242 316.649 131.031 317.667C131.329 317.712 131.536 317.991 131.491 318.289C131.446 318.587 131.167 318.793 130.868 318.748C124.392 317.778 119.022 318.929 114.905 322.171C107.708 327.838 106.737 338.095 106.73 338.198C106.704 338.482 106.465 338.697 106.185 338.697Z" fill="#B8B8C1"/>
<path d="M69.7213 326.068C69.7213 326.068 63.4663 327.955 60.2747 317.5C57.0831 307.044 56.3165 296.332 61.9346 296.332C67.5526 296.332 70.4879 309.834 72.4028 316.09C74.3178 322.345 72.1041 326.068 69.7213 326.068Z" fill="#DADDE5"/>
<path d="M73.1257 336.613C72.8825 336.613 72.6618 336.451 72.5971 336.205C72.5455 336.007 67.3345 316.21 63.05 303.539C62.9535 303.253 63.1068 302.944 63.3936 302.846C63.679 302.75 63.9896 302.903 64.0861 303.19C68.3825 315.894 73.6028 335.729 73.6543 335.928C73.731 336.22 73.5565 336.518 73.2645 336.595C73.2182 336.608 73.172 336.613 73.1257 336.613Z" fill="#B8B8C1"/>
<path d="M125.434 352.823C125.434 359.73 120.712 365.986 113.068 370.542H52.0042C50.647 369.735 49.3809 368.87 48.2192 367.96C42.8311 363.744 39.6369 358.505 39.6369 352.824C39.6369 345.288 45.2589 338.524 54.169 333.902H110.902C119.812 338.523 125.434 345.287 125.434 352.823Z" fill="#DADDE5"/>
<path d="M125.434 352.823C125.434 359.73 120.712 365.986 113.068 370.542H52.0042C50.647 369.735 49.3809 368.87 48.2192 367.961C61.1562 367.578 101.069 365.672 106.982 356.655C112.099 348.852 107.195 338.841 104.09 333.901H110.9C119.812 338.523 125.434 345.287 125.434 352.823Z" fill="#BDC3D1"/>
<path d="M156.15 187.033H104.43C103.161 187.033 102.133 186.007 102.133 184.739V184.581C102.133 183.314 103.161 182.287 104.43 182.287H156.15C157.419 182.287 158.447 183.314 158.447 184.581V184.739C158.447 186.007 157.419 187.033 156.15 187.033Z" fill="#00A558"/>
<path d="M130.384 196.912H104.43C103.161 196.912 102.133 195.885 102.133 194.618V194.46C102.133 193.193 103.161 192.166 104.43 192.166H130.384C131.653 192.166 132.681 193.193 132.681 194.46V194.618C132.681 195.885 131.653 196.912 130.384 196.912Z" fill="#DBDBDD"/>
<path d="M130.384 208.047H104.43C103.161 208.047 102.133 207.02 102.133 205.752V205.594C102.133 204.327 103.161 203.3 104.43 203.3H130.384C131.653 203.3 132.681 204.327 132.681 205.594V205.752C132.681 207.018 131.653 208.047 130.384 208.047Z" fill="#DBDBDD"/>
<path d="M187.45 170.361H96.5402V165.243H187.45C188.818 165.243 189.927 166.35 189.927 167.717V167.887C189.927 169.253 188.818 170.361 187.45 170.361Z" fill="#DBDBDD"/>
<path d="M454.523 211.27H363.613V206.152H454.523C455.891 206.152 457 207.26 457 208.626V208.796C457 210.163 455.891 211.27 454.523 211.27Z" fill="#DBDBDD"/>
<path d="M177.064 163.449H130.277L129.605 159.486C129.605 159.486 138.206 149.38 145.873 153.533C153.541 157.686 156.496 154.825 158.991 150.58C158.991 150.58 161.023 142.184 168.137 140.708C171.695 139.97 174.742 139.693 177.051 139.554L180.416 159.373C180.798 161.625 179.296 163.449 177.064 163.449Z" fill="#CAE2F5"/>
<path d="M330.926 36.7264H329.174C328.167 36.7264 327.35 35.9106 327.35 34.9048V33.1545C327.35 32.1486 328.167 31.3329 329.174 31.3329H330.926C331.934 31.3329 332.75 32.1486 332.75 33.1545V34.9048C332.749 35.9106 331.934 36.7264 330.926 36.7264Z" fill="#DADDE5"/>
<path d="M344.351 36.7264H342.599C341.592 36.7264 340.775 35.9106 340.775 34.9048V33.1545C340.775 32.1486 341.592 31.3329 342.599 31.3329H344.351C345.358 31.3329 346.175 32.1486 346.175 33.1545V34.9048C346.174 35.9106 345.358 36.7264 344.351 36.7264Z" fill="#DADDE5"/>
<path d="M357.774 36.7264H356.022C355.015 36.7264 354.198 35.9106 354.198 34.9048V33.1545C354.198 32.1486 355.015 31.3329 356.022 31.3329H357.774C358.781 31.3329 359.598 32.1486 359.598 33.1545V34.9048C359.598 35.9106 358.781 36.7264 357.774 36.7264Z" fill="#DADDE5"/>
<path d="M232.938 45.0886C241.972 45.0886 249.295 37.774 249.295 28.751C249.295 19.7279 241.972 12.4133 232.938 12.4133C223.904 12.4133 216.581 19.7279 216.581 28.751C216.581 37.774 223.904 45.0886 232.938 45.0886Z" fill="#00A558"/>
<path d="M232.938 27.7873C230.944 27.7873 229.337 26.1347 229.413 24.1269C229.483 22.3001 230.973 20.8124 232.8 20.7438C234.602 20.6751 236.118 21.9569 236.414 23.657C236.474 24.0068 236.773 24.2642 237.129 24.2642C237.579 24.2642 237.919 23.8577 237.842 23.4141C237.431 21.0355 235.329 19.2363 232.816 19.2957C230.176 19.3578 228.023 21.5081 227.962 24.1454C227.896 26.9451 230.149 29.2367 232.938 29.2367V29.2353C234.932 29.2353 236.539 30.888 236.463 32.8957C236.392 34.7226 234.903 36.2102 233.075 36.2789C231.274 36.3475 229.758 35.0658 229.462 33.3656C229.401 33.0158 229.103 32.7584 228.747 32.7584C228.296 32.7584 227.957 33.165 228.033 33.6085C228.444 35.9871 230.547 37.7876 233.058 37.7282C235.699 37.6662 237.851 35.5146 237.914 32.8772C237.978 30.0775 235.726 27.7873 232.938 27.7873Z" fill="white"/>
<path d="M232.938 17.0822C232.544 17.0822 232.224 17.3699 232.224 17.725V39.7756C232.224 40.1307 232.544 40.4184 232.938 40.4184C233.332 40.4184 233.651 40.1307 233.651 39.7756V17.725C233.651 17.3699 233.332 17.0822 232.938 17.0822Z" fill="white"/>
<path d="M185.971 26.1624C193.205 26.1624 199.068 20.3057 199.068 13.0812C199.068 5.85665 193.205 0 185.971 0C178.738 0 172.875 5.85665 172.875 13.0812C172.875 20.3057 178.738 26.1624 185.971 26.1624Z" fill="#00A558"/>
<path d="M185.972 12.3104C184.375 12.3104 183.088 10.9877 183.149 9.37995C183.204 7.91739 184.398 6.72675 185.861 6.67131C187.304 6.61719 188.517 7.64283 188.753 9.00375C188.802 9.28359 189.042 9.48951 189.326 9.48951C189.686 9.48951 189.959 9.16347 189.898 8.80839C189.569 6.90363 187.885 5.46351 185.874 5.51103C183.761 5.56119 182.036 7.28247 181.987 9.39447C181.934 11.6358 183.738 13.4706 185.97 13.4706C187.567 13.4706 188.854 14.7933 188.793 16.4024C188.738 17.8649 187.544 19.0556 186.081 19.111C184.638 19.1651 183.425 18.1395 183.188 16.7786C183.139 16.4987 182.9 16.2928 182.616 16.2928C182.255 16.2928 181.983 16.6188 182.044 16.9739C182.373 18.8787 184.057 20.3201 186.067 20.2726C188.181 20.2224 189.905 18.4998 189.953 16.3892C190.009 14.1425 188.205 12.3104 185.972 12.3104Z" fill="white"/>
<path d="M185.972 3.73828C185.656 3.73828 185.399 3.96796 185.399 4.25308V21.9081C185.399 22.1919 185.656 22.4229 185.972 22.4229C186.287 22.4229 186.544 22.1932 186.544 21.9081V4.25308C186.544 3.96928 186.287 3.73828 185.972 3.73828Z" fill="white"/>
<path d="M270.99 36.4412C275.375 36.4412 278.93 32.8906 278.93 28.5106C278.93 24.1307 275.375 20.5801 270.99 20.5801C266.605 20.5801 263.05 24.1307 263.05 28.5106C263.05 32.8906 266.605 36.4412 270.99 36.4412Z" fill="#00A558"/>
<path d="M270.99 28.0434C270.023 28.0434 269.242 27.2408 269.279 26.2666C269.312 25.3796 270.036 24.6576 270.923 24.6246C271.798 24.5916 272.532 25.2133 272.676 26.0383C272.706 26.2086 272.851 26.3326 273.024 26.3326C273.243 26.3326 273.407 26.1346 273.37 25.9195C273.171 24.7645 272.15 23.892 270.931 23.921C269.649 23.9514 268.605 24.9955 268.574 26.2746C268.543 27.6342 269.636 28.7456 270.99 28.7456C271.958 28.7456 272.739 29.5482 272.702 30.5223C272.669 31.4094 271.944 32.1314 271.058 32.1644C270.183 32.1974 269.448 31.5757 269.304 30.7507C269.275 30.5804 269.129 30.4563 268.956 30.4563C268.737 30.4563 268.573 30.6543 268.61 30.8695C268.81 32.0245 269.83 32.8983 271.05 32.8693C272.332 32.8389 273.377 31.7948 273.406 30.5144C273.436 29.1548 272.343 28.0434 270.99 28.0434Z" fill="white"/>
<path d="M270.99 22.8478C270.798 22.8478 270.644 22.9877 270.644 23.1593V33.8619C270.644 34.0335 270.798 34.1734 270.99 34.1734C271.182 34.1734 271.336 34.0335 271.336 33.8619V23.1593C271.336 22.9877 271.182 22.8478 270.99 22.8478Z" fill="white"/>
</g>
<defs>
<clipPath id="clip0_9_1875">
<rect width="457" height="396" fill="white"/>
</clipPath>
</defs>
</svg>
