<svg width="83" height="83" viewBox="0 0 83 83" fill="none" xmlns="http://www.w3.org/2000/svg">
<path d="M42.4309 21.7296H40.7832V20.0824C40.7832 9.31152 46.4879 3.60693 57.2587 3.60693H58.9059V5.25466C58.9059 16.0249 53.2012 21.7296 42.4309 21.7296ZM55.5489 6.96392C48.3824 7.45806 44.6344 11.206 44.1191 18.3937C51.41 17.8995 55.0753 14.2336 55.5489 6.96392Z" fill="white"/>
<path d="M55.6144 79.3936C52.9603 79.3917 50.3465 78.7486 47.9947 77.5196C44.5273 75.6631 40.3612 75.6631 36.8944 77.5196C34.5421 78.7486 31.9283 79.3917 29.2742 79.3936C18.1951 79.3936 9.50391 64.1948 9.50391 44.7956C9.50391 32.9947 18.3803 23.3774 29.2742 23.3774C31.3141 23.3774 33.3401 23.7184 35.2673 24.3869L41.3839 26.5076C42.0844 26.7495 42.8457 26.7495 43.5462 26.5076L49.6419 24.3869C51.563 23.7214 53.5811 23.3806 55.6144 23.3774C61.5657 23.3774 67.1262 26.2404 70.9156 31.2239L72.3571 33.1389L70.0505 33.7977C64.1281 35.5046 60.1834 41.0928 60.5593 47.2451C60.9345 53.3973 65.5296 58.4643 71.6156 59.4375L73.4902 59.7463L72.9133 61.5588C69.4948 72.556 62.843 79.3936 55.6144 79.3936ZM42.4343 72.8032C44.905 72.8226 47.3353 73.4373 49.5182 74.5952C51.397 75.587 53.4899 76.103 55.6144 76.0982C61.0101 76.0982 66.1378 70.8467 69.2269 62.2797C62.1328 60.2893 57.2379 53.8106 57.2621 46.4426C57.2905 40.0364 61.0118 34.2214 66.8172 31.5123C63.7902 28.4233 59.8154 26.6724 55.6144 26.6724C53.9461 26.6729 52.2894 26.9511 50.7127 27.4965L44.5967 29.6173C43.2018 30.0963 41.6868 30.0963 40.2924 29.6173L34.1553 27.4965C32.5788 26.9511 30.9219 26.6724 29.2538 26.6724C20.1717 26.6724 12.7789 34.8072 12.7789 44.7956C12.7789 61.7651 20.3159 76.0982 29.2538 76.0982C31.3781 76.1035 33.4717 75.5877 35.3499 74.5952C37.5328 73.4373 39.963 72.8226 42.4343 72.8032Z" fill="white"/>
</svg>
