<svg width="447" height="380" viewBox="0 0 447 380" fill="none" xmlns="http://www.w3.org/2000/svg">
<path d="M131.188 162.982C130.946 162.982 130.75 162.786 130.749 162.544L130.728 158.148C130.727 157.905 130.922 157.707 131.165 157.706C131.165 157.706 131.166 157.706 131.167 157.706C131.408 157.706 131.604 157.902 131.605 158.144L131.626 162.54C131.627 162.783 131.432 162.981 131.19 162.982C131.189 162.982 131.189 162.982 131.188 162.982ZM131.147 154.188C130.906 154.188 130.709 153.993 130.708 153.751L130.688 149.354C130.687 149.111 130.882 148.914 131.124 148.913C131.124 148.913 131.125 148.913 131.126 148.913C131.367 148.913 131.563 149.108 131.564 149.35L131.585 153.746C131.586 153.989 131.391 154.187 131.149 154.188C131.149 154.188 131.148 154.188 131.147 154.188ZM395.959 147.362C395.718 147.362 395.522 147.166 395.521 146.924L395.5 142.528C395.499 142.285 395.694 142.087 395.935 142.086C395.936 142.086 395.937 142.086 395.937 142.086C396.178 142.086 396.374 142.282 396.375 142.524L396.397 146.92C396.398 147.163 396.203 147.361 395.962 147.362C395.961 147.362 395.96 147.362 395.959 147.362ZM131.107 145.396C130.866 145.396 130.67 145.2 130.669 144.958L130.648 140.562C130.647 140.319 130.842 140.121 131.084 140.12C131.084 140.12 131.085 140.12 131.086 140.12C131.327 140.12 131.524 140.316 131.525 140.558L131.546 144.954C131.547 145.197 131.351 145.395 131.109 145.396C131.108 145.396 131.107 145.396 131.107 145.396ZM395.916 138.568C395.675 138.568 395.479 138.373 395.478 138.131L395.456 133.734C395.455 133.491 395.65 133.294 395.891 133.293C395.892 133.293 395.893 133.293 395.893 133.293C396.134 133.293 396.331 133.488 396.332 133.73L396.353 138.127C396.354 138.369 396.159 138.567 395.918 138.568C395.917 138.568 395.916 138.568 395.916 138.568ZM131.065 136.603C130.824 136.603 130.628 136.407 130.627 136.166L130.607 131.769C130.606 131.526 130.801 131.328 131.043 131.327C131.043 131.327 131.045 131.327 131.046 131.327C131.287 131.327 131.483 131.523 131.484 131.765L131.504 136.161C131.505 136.404 131.31 136.602 131.067 136.603C131.067 136.603 131.066 136.603 131.065 136.603ZM395.872 129.776C395.631 129.776 395.435 129.58 395.434 129.338L395.412 124.942C395.411 124.699 395.606 124.501 395.847 124.5C395.848 124.5 395.849 124.5 395.849 124.5C396.09 124.5 396.287 124.696 396.288 124.938L396.31 129.334C396.311 129.577 396.115 129.775 395.874 129.776C395.873 129.776 395.873 129.776 395.872 129.776ZM131.026 127.81C130.785 127.81 130.588 127.614 130.587 127.372L130.568 122.976C130.566 122.733 130.762 122.535 131.004 122.534C131.004 122.534 131.005 122.534 131.006 122.534C131.247 122.534 131.443 122.73 131.444 122.971L131.464 127.368C131.465 127.611 131.27 127.808 131.028 127.81C131.027 127.81 131.027 127.81 131.026 127.81ZM395.828 120.983C395.587 120.983 395.391 120.787 395.39 120.546L395.368 116.149C395.367 115.906 395.562 115.708 395.803 115.707C396.03 115.698 396.244 115.902 396.244 116.145L396.265 120.541C396.266 120.784 396.071 120.982 395.828 120.983C395.831 120.983 395.829 120.983 395.828 120.983ZM130.985 119.017C130.744 119.017 130.548 118.821 130.547 118.579L130.527 114.183C130.526 113.94 130.721 113.742 130.963 113.741C130.963 113.741 130.964 113.741 130.965 113.741C131.206 113.741 131.403 113.937 131.404 114.179L131.423 118.575C131.424 118.818 131.229 119.016 130.987 119.017C130.987 119.017 130.986 119.017 130.985 119.017ZM395.785 112.19C395.543 112.19 395.347 111.994 395.346 111.752L395.324 107.356C395.323 107.113 395.518 106.915 395.76 106.914C396.03 106.889 396.199 107.109 396.2 107.351L396.222 111.748C396.223 111.991 396.028 112.188 395.787 112.19C395.787 112.19 395.786 112.19 395.785 112.19ZM130.945 110.224C130.704 110.224 130.508 110.029 130.507 109.787L130.486 105.39C130.485 105.148 130.68 104.95 130.922 104.949C130.922 104.949 130.923 104.949 130.924 104.949C131.166 104.949 131.362 105.144 131.363 105.386L131.384 109.783C131.385 110.025 131.19 110.223 130.947 110.224C130.946 110.224 130.945 110.224 130.945 110.224ZM395.741 103.397C395.5 103.397 395.303 103.201 395.302 102.959L395.28 98.563C395.279 98.3201 395.475 98.1222 395.716 98.1212C395.717 98.1212 395.718 98.1212 395.718 98.1212C395.959 98.1212 396.155 98.317 396.156 98.5588L396.178 102.955C396.179 103.198 395.984 103.396 395.743 103.397C395.743 103.397 395.742 103.397 395.741 103.397ZM130.905 101.431C130.664 101.431 130.467 101.235 130.466 100.993L130.445 96.5968C130.444 96.3539 130.64 96.156 130.882 96.155C130.882 96.155 130.883 96.155 130.884 96.155C131.125 96.155 131.321 96.3507 131.322 96.5926L131.343 100.989C131.344 101.232 131.149 101.43 130.907 101.431C130.907 101.431 130.906 101.431 130.905 101.431ZM395.697 94.6044C395.456 94.6044 395.26 94.4086 395.259 94.1667L395.237 89.7704C395.236 89.5275 395.431 89.3297 395.672 89.3286C395.673 89.3286 395.674 89.3286 395.674 89.3286C395.915 89.3286 396.111 89.5244 396.112 89.7663L396.134 94.1625C396.135 94.4054 395.94 94.6033 395.699 94.6044C395.699 94.6044 395.698 94.6044 395.697 94.6044ZM130.864 92.6381C130.623 92.6381 130.427 92.4423 130.426 92.2005L130.405 87.8042C130.404 87.5613 130.599 87.3634 130.841 87.3624C130.841 87.3624 130.842 87.3624 130.843 87.3624C131.084 87.3624 131.28 87.5582 131.281 87.8L131.302 92.1963C131.303 92.4392 131.108 92.6371 130.866 92.6381C130.866 92.6381 130.865 92.6381 130.864 92.6381ZM395.654 85.8107C395.413 85.8107 395.217 85.615 395.216 85.3731L395.194 80.9768C395.193 80.7339 395.388 80.536 395.629 80.535C395.63 80.535 395.631 80.535 395.631 80.535C395.872 80.535 396.068 80.7308 396.07 80.9726L396.091 85.3689C396.092 85.6118 395.897 85.8097 395.656 85.8107C395.655 85.8107 395.654 85.8107 395.654 85.8107ZM130.823 83.8456C130.582 83.8456 130.386 83.6498 130.385 83.4079L130.365 79.0116C130.364 78.7687 130.559 78.5708 130.801 78.5698C130.801 78.5698 130.802 78.5698 130.803 78.5698C131.045 78.5698 131.241 78.7656 131.242 79.0074L131.262 83.4037C131.263 83.6466 131.067 83.8445 130.825 83.8456C130.825 83.8456 130.824 83.8456 130.823 83.8456ZM395.61 77.0182C395.369 77.0182 395.173 76.8224 395.172 76.5805L395.15 72.1842C395.149 71.9413 395.344 71.7434 395.585 71.7424C395.788 71.7434 396.026 71.9371 396.026 72.18L396.048 76.5763C396.049 76.8192 395.853 77.0171 395.612 77.0182C395.611 77.0182 395.611 77.0182 395.61 77.0182ZM130.784 75.0519C130.542 75.0519 130.346 74.8561 130.345 74.6143L130.325 70.218C130.324 69.9751 130.519 69.7772 130.762 69.7762C130.762 69.7762 130.763 69.7762 130.764 69.7762C131.005 69.7762 131.201 69.9719 131.202 70.2138L131.222 74.6101C131.223 74.853 131.028 75.0509 130.786 75.0519C130.785 75.0519 130.784 75.0519 130.784 75.0519ZM395.565 68.2256C395.324 68.2256 395.128 68.0298 395.127 67.7879L395.105 63.3916C395.104 63.1487 395.299 62.9509 395.54 62.9498C395.787 62.9341 395.981 63.1446 395.981 63.3875L396.003 67.7837C396.004 68.0266 395.809 68.2245 395.566 68.2256C395.567 68.2256 395.566 68.2256 395.565 68.2256ZM130.743 66.2593C130.502 66.2593 130.306 66.0635 130.304 65.8217L130.285 61.4254C130.284 61.1825 130.479 60.9846 130.721 60.9836C130.721 60.9836 130.722 60.9836 130.723 60.9836C130.964 60.9836 131.16 61.1794 131.161 61.4212L131.181 65.8175C131.182 66.0604 130.987 66.2583 130.745 66.2593C130.745 66.2593 130.744 66.2593 130.743 66.2593ZM395.522 59.4319C395.28 59.4319 395.084 59.2362 395.083 58.9943L395.061 54.598C395.06 54.3551 395.255 54.1572 395.496 54.1562C395.498 54.1562 395.499 54.1562 395.499 54.1562C395.74 54.1562 395.936 54.352 395.937 54.5938L395.959 58.9901C395.96 59.233 395.765 59.4309 395.523 59.4319C395.524 59.4319 395.523 59.4319 395.522 59.4319ZM130.702 57.4668C130.461 57.4668 130.265 57.271 130.264 57.0291L130.243 52.6328C130.242 52.3899 130.437 52.1921 130.679 52.191C130.679 52.191 130.68 52.191 130.681 52.191C130.922 52.191 131.119 52.3868 131.12 52.6286L131.141 57.0249C131.142 57.2678 130.946 57.4657 130.704 57.4668C130.704 57.4668 130.703 57.4668 130.702 57.4668ZM395.478 50.6394C395.237 50.6394 395.04 50.4436 395.039 50.2017L395.017 45.8054C395.016 45.5625 395.212 45.3647 395.454 45.3636C395.454 45.3636 395.455 45.3636 395.456 45.3636C395.697 45.3636 395.893 45.5594 395.894 45.8013L395.915 50.1975C395.916 50.4404 395.721 50.6383 395.479 50.6394C395.48 50.6394 395.479 50.6394 395.478 50.6394ZM130.663 48.6731C130.421 48.6731 130.225 48.4773 130.224 48.2355L130.203 43.8392C130.202 43.5963 130.397 43.3984 130.64 43.3974C130.64 43.3974 130.641 43.3974 130.642 43.3974C130.883 43.3974 131.079 43.5932 131.08 43.835L131.101 48.2313C131.102 48.4742 130.907 48.6721 130.665 48.6731C130.665 48.6731 130.664 48.6731 130.663 48.6731ZM395.435 41.8468C395.194 41.8468 394.998 41.651 394.996 41.4091L394.975 37.0129C394.974 36.77 395.169 36.5721 395.411 36.571C395.411 36.571 395.412 36.571 395.413 36.571C395.654 36.571 395.85 36.7668 395.851 37.0087L395.873 41.405C395.874 41.6479 395.679 41.8457 395.437 41.8468C395.436 41.8468 395.435 41.8468 395.435 41.8468ZM130.622 39.8805C130.381 39.8805 130.184 39.6848 130.183 39.4429L130.163 35.0466C130.161 34.8037 130.357 34.6058 130.599 34.6048C130.599 34.6048 130.6 34.6048 130.601 34.6048C130.842 34.6048 131.038 34.8006 131.039 35.0424L131.06 39.4387C131.061 39.6816 130.866 39.8795 130.624 39.8805C130.624 39.8805 130.623 39.8805 130.622 39.8805ZM395.391 33.0532C395.15 33.0532 394.954 32.8574 394.953 32.6155C394.921 30.4922 394.996 29.6494 394.825 28.2768C394.795 28.036 394.966 27.8161 395.205 27.7858C395.437 27.7554 395.665 27.9261 395.695 28.1669C395.875 29.617 395.797 30.4786 395.829 32.6103C395.831 32.8532 395.635 33.0511 395.394 33.0521C395.392 33.0532 395.392 33.0532 395.391 33.0532ZM130.581 31.088C130.34 31.088 130.144 30.8922 130.143 30.6503C130.161 30.3027 130.006 28.6244 130.645 26.1839C130.706 25.9494 130.943 25.8091 131.18 25.8708C131.415 25.9326 131.554 26.1734 131.492 26.4079C130.908 28.6412 131.034 30.3509 131.018 30.6472C131.019 30.8901 130.824 31.088 130.582 31.088C130.582 31.088 130.582 31.088 130.581 31.088ZM393.684 24.1841C393.106 22.8859 392.341 21.6787 391.409 20.5982C391.25 20.415 391.27 20.1365 391.454 19.9784C391.636 19.8203 391.913 19.8392 392.072 20.0234C393.06 21.1699 393.873 22.4493 394.486 23.8261C394.584 24.048 394.485 24.3077 394.265 24.4072C394.044 24.5056 393.784 24.4072 393.684 24.1841ZM132.557 22.643C132.35 22.5153 132.287 22.2451 132.413 22.0378C133.203 20.75 134.175 19.5879 135.301 18.5828C135.481 18.4215 135.757 18.4372 135.92 18.6194C136.08 18.8005 136.065 19.079 135.884 19.2403C134.821 20.1889 133.905 21.285 133.159 22.4995C133.031 22.7079 132.761 22.7697 132.557 22.643ZM388.433 17.8886C388.353 17.8886 388.27 17.8666 388.197 17.8195C386.997 17.0542 385.695 16.4721 384.327 16.091C384.093 16.026 383.957 15.7831 384.022 15.5497C384.087 15.3162 384.325 15.178 384.562 15.2439C386.014 15.6491 387.394 16.2658 388.668 17.0772C388.871 17.207 388.932 17.4793 388.803 17.6845C388.719 17.8164 388.577 17.8886 388.433 17.8886ZM138.845 16.6919C138.743 16.4721 138.838 16.2103 139.057 16.1077C140.424 15.4711 141.875 15.0419 143.369 14.8314C143.606 14.7979 143.83 14.9644 143.863 15.2052C143.897 15.446 143.73 15.668 143.49 15.7015C142.082 15.8994 140.714 16.3045 139.426 16.9045C139.206 17.0081 138.946 16.9118 138.845 16.6919ZM380.112 15.5601H375.729C375.487 15.5601 375.291 15.3633 375.291 15.1204C375.291 14.8775 375.487 14.6807 375.729 14.6807H380.112C380.354 14.6807 380.55 14.8775 380.55 15.1204C380.55 15.3633 380.355 15.5601 380.112 15.5601ZM371.346 15.5601H366.963C366.721 15.5601 366.525 15.3633 366.525 15.1204C366.525 14.8775 366.721 14.6807 366.963 14.6807H371.346C371.588 14.6807 371.784 14.8775 371.784 15.1204C371.784 15.3633 371.588 15.5601 371.346 15.5601ZM362.58 15.5601H358.197C357.955 15.5601 357.759 15.3633 357.759 15.1204C357.759 14.8775 357.955 14.6807 358.197 14.6807H362.58C362.822 14.6807 363.019 14.8775 363.019 15.1204C363.019 15.3633 362.822 15.5601 362.58 15.5601ZM353.813 15.5601H349.43C349.188 15.5601 348.992 15.3633 348.992 15.1204C348.992 14.8775 349.188 14.6807 349.43 14.6807H353.813C354.055 14.6807 354.252 14.8775 354.252 15.1204C354.252 15.3633 354.055 15.5601 353.813 15.5601ZM345.047 15.5601H340.664C340.422 15.5601 340.226 15.3633 340.226 15.1204C340.226 14.8775 340.422 14.6807 340.664 14.6807H345.047C345.29 14.6807 345.486 14.8775 345.486 15.1204C345.486 15.3633 345.29 15.5601 345.047 15.5601ZM336.28 15.5601H331.898C331.655 15.5601 331.459 15.3633 331.459 15.1204C331.459 14.8775 331.655 14.6807 331.898 14.6807H336.28C336.523 14.6807 336.719 14.8775 336.719 15.1204C336.719 15.3633 336.523 15.5601 336.28 15.5601ZM327.515 15.5601H323.132C322.889 15.5601 322.693 15.3633 322.693 15.1204C322.693 14.8775 322.889 14.6807 323.132 14.6807H327.515C327.757 14.6807 327.953 14.8775 327.953 15.1204C327.953 15.3633 327.757 15.5601 327.515 15.5601ZM318.748 15.5601H314.365C314.123 15.5601 313.926 15.3633 313.926 15.1204C313.926 14.8775 314.123 14.6807 314.365 14.6807H318.748C318.99 14.6807 319.186 14.8775 319.186 15.1204C319.186 15.3633 318.99 15.5601 318.748 15.5601ZM309.982 15.5601H305.599C305.357 15.5601 305.16 15.3633 305.16 15.1204C305.16 14.8775 305.357 14.6807 305.599 14.6807H309.982C310.224 14.6807 310.42 14.8775 310.42 15.1204C310.42 15.3633 310.224 15.5601 309.982 15.5601ZM301.215 15.5601H296.832C296.59 15.5601 296.394 15.3633 296.394 15.1204C296.394 14.8775 296.59 14.6807 296.832 14.6807H301.215C301.457 14.6807 301.653 14.8775 301.653 15.1204C301.653 15.3633 301.458 15.5601 301.215 15.5601ZM292.449 15.5601H288.066C287.824 15.5601 287.628 15.3633 287.628 15.1204C287.628 14.8775 287.824 14.6807 288.066 14.6807H292.449C292.691 14.6807 292.887 14.8775 292.887 15.1204C292.887 15.3633 292.691 15.5601 292.449 15.5601ZM283.683 15.5601H279.3C279.058 15.5601 278.862 15.3633 278.862 15.1204C278.862 14.8775 279.058 14.6807 279.3 14.6807H283.683C283.925 14.6807 284.122 14.8775 284.122 15.1204C284.122 15.3633 283.925 15.5601 283.683 15.5601ZM274.916 15.5601H270.533C270.291 15.5601 270.095 15.3633 270.095 15.1204C270.095 14.8775 270.291 14.6807 270.533 14.6807H274.916C275.158 14.6807 275.355 14.8775 275.355 15.1204C275.355 15.3633 275.158 15.5601 274.916 15.5601ZM266.15 15.5601H261.767C261.525 15.5601 261.329 15.3633 261.329 15.1204C261.329 14.8775 261.525 14.6807 261.767 14.6807H266.15C266.393 14.6807 266.589 14.8775 266.589 15.1204C266.589 15.3633 266.393 15.5601 266.15 15.5601ZM257.383 15.5601H253.001C252.758 15.5601 252.562 15.3633 252.562 15.1204C252.562 14.8775 252.758 14.6807 253.001 14.6807H257.383C257.626 14.6807 257.822 14.8775 257.822 15.1204C257.822 15.3633 257.626 15.5601 257.383 15.5601ZM248.618 15.5601H244.235C243.992 15.5601 243.796 15.3633 243.796 15.1204C243.796 14.8775 243.992 14.6807 244.235 14.6807H248.618C248.86 14.6807 249.056 14.8775 249.056 15.1204C249.056 15.3633 248.86 15.5601 248.618 15.5601ZM239.851 15.5601H235.468C235.226 15.5601 235.029 15.3633 235.029 15.1204C235.029 14.8775 235.226 14.6807 235.468 14.6807H239.851C240.093 14.6807 240.289 14.8775 240.289 15.1204C240.289 15.3633 240.094 15.5601 239.851 15.5601ZM231.085 15.5601H226.702C226.46 15.5601 226.263 15.3633 226.263 15.1204C226.263 14.8775 226.46 14.6807 226.702 14.6807H231.085C231.327 14.6807 231.523 14.8775 231.523 15.1204C231.523 15.3633 231.327 15.5601 231.085 15.5601ZM222.319 15.5601H217.936C217.694 15.5601 217.498 15.3633 217.498 15.1204C217.498 14.8775 217.694 14.6807 217.936 14.6807H222.319C222.561 14.6807 222.757 14.8775 222.757 15.1204C222.757 15.3633 222.561 15.5601 222.319 15.5601ZM213.552 15.5601H209.169C208.927 15.5601 208.731 15.3633 208.731 15.1204C208.731 14.8775 208.927 14.6807 209.169 14.6807H213.552C213.794 14.6807 213.99 14.8775 213.99 15.1204C213.99 15.3633 213.794 15.5601 213.552 15.5601ZM204.786 15.5601H200.403C200.161 15.5601 199.965 15.3633 199.965 15.1204C199.965 14.8775 200.161 14.6807 200.403 14.6807H204.786C205.028 14.6807 205.225 14.8775 205.225 15.1204C205.225 15.3633 205.028 15.5601 204.786 15.5601ZM196.019 15.5601H191.636C191.394 15.5601 191.198 15.3633 191.198 15.1204C191.198 14.8775 191.394 14.6807 191.636 14.6807H196.019C196.261 14.6807 196.458 14.8775 196.458 15.1204C196.458 15.3633 196.261 15.5601 196.019 15.5601ZM187.253 15.5601H182.87C182.628 15.5601 182.432 15.3633 182.432 15.1204C182.432 14.8775 182.628 14.6807 182.87 14.6807H187.253C187.496 14.6807 187.692 14.8775 187.692 15.1204C187.692 15.3633 187.496 15.5601 187.253 15.5601ZM178.486 15.5601H174.104C173.861 15.5601 173.665 15.3633 173.665 15.1204C173.665 14.8775 173.861 14.6807 174.104 14.6807H178.486C178.729 14.6807 178.925 14.8775 178.925 15.1204C178.925 15.3633 178.729 15.5601 178.486 15.5601ZM169.721 15.5601H165.338C165.096 15.5601 164.899 15.3633 164.899 15.1204C164.899 14.8775 165.096 14.6807 165.338 14.6807H169.721C169.963 14.6807 170.159 14.8775 170.159 15.1204C170.159 15.3633 169.963 15.5601 169.721 15.5601ZM160.954 15.5601H156.571C156.329 15.5601 156.132 15.3633 156.132 15.1204C156.132 14.8775 156.329 14.6807 156.571 14.6807H160.954C161.196 14.6807 161.392 14.8775 161.392 15.1204C161.392 15.3633 161.197 15.5601 160.954 15.5601ZM152.188 15.5601H147.805C147.563 15.5601 147.366 15.3633 147.366 15.1204C147.366 14.8775 147.563 14.6807 147.805 14.6807H152.188C152.43 14.6807 152.626 14.8775 152.626 15.1204C152.626 15.3633 152.43 15.5601 152.188 15.5601Z" fill="#373A50"/>
<path d="M46.4211 295.789H39.4902V373.303H46.4211V295.789Z" fill="#373A50"/>
<path d="M85.8602 290.283V296.509C85.8602 297.948 84.6974 299.113 83.2643 299.113H15.7991C14.3649 299.113 13.2031 297.947 13.2031 296.509V290.283C13.2031 288.844 14.3659 287.679 15.7991 287.679H83.2643C84.6985 287.679 85.8602 288.844 85.8602 290.283Z" fill="#909EFF"/>
<path d="M24.0173 297.582L15.8005 299.113C14.3841 299.336 13.0553 298.365 12.834 296.944L0.0317606 215.3C-0.19057 213.879 0.77808 212.547 2.19452 212.325L10.4113 210.793C11.8278 210.57 13.1566 211.541 13.3778 212.962L26.1791 294.606C26.4014 296.027 25.4338 297.36 24.0173 297.582Z" fill="#909EFF"/>
<path d="M54.6915 299.114L62.9083 297.582C64.3247 297.359 65.2934 296.028 65.0711 294.607L52.2698 212.963C52.0475 211.542 50.7198 210.571 49.3033 210.794H10.4102C11.8266 210.571 13.1554 211.542 13.3766 212.963L26.1779 294.607C26.4002 296.028 25.4315 297.36 24.0151 297.582L15.7983 299.114H54.6915Z" fill="#909EFF"/>
<path d="M69.9055 379.863C69.6529 378.398 68.4494 377.233 66.9244 377.101C55.4844 376.113 44.1371 368.922 44.1371 368.922H41.7782C41.7782 368.922 30.4299 376.113 18.9898 377.101C17.4659 377.233 16.2624 378.398 16.0098 379.863H69.9055Z" fill="#373A50"/>
<path d="M110.32 364.504L107.754 375.253C107.313 377.522 108.996 379.646 111.299 379.724C120.753 380.041 139.339 379.727 142.77 379.697C143.044 379.695 143.262 379.478 143.275 379.204C143.428 375.915 141.251 373.824 138.042 372.208L125.673 363.853C125.65 363.839 125.624 363.832 125.597 363.834L110.32 364.504Z" fill="#373A50"/>
<path d="M110.316 364.503C110.455 367.688 125.735 367.018 125.597 363.833L125.899 351.245L111.592 350.799L110.316 364.503Z" fill="#FFDAD9"/>
<path d="M75.7174 253.892H109.324C122.993 253.892 133.701 265.684 132.427 279.336L130.042 356.374C129.99 359.27 107.3 357.994 107.352 355.098L103.399 286.047L49.6953 261.62L53.2839 246.578L75.7174 253.892Z" fill="#111228"/>
<path d="M77.6575 364.504L75.0918 375.253C74.6513 377.522 76.3339 379.646 78.6366 379.724C88.0924 380.041 106.677 379.727 110.108 379.697C110.382 379.695 110.6 379.478 110.612 379.204C110.766 375.915 108.589 373.824 105.38 372.208L93.0108 363.853C92.9878 363.839 92.9617 363.832 92.9346 363.834L77.6575 364.504Z" fill="#373A50"/>
<path d="M77.6562 364.503C77.7951 367.688 93.0753 367.018 92.9365 363.833L93.2392 351.245L78.9318 350.799L77.6562 364.503Z" fill="#FFDAD9"/>
<path d="M55.3543 254.732C55.3543 254.732 96.8298 254.983 105.01 265.414C116.011 279.441 104.993 337.073 96.2808 356.116C96.2035 358.93 74.5676 358.329 74.6448 355.515L77.7668 288.231L50.2501 288.022C35.8351 287.912 24.0735 276.422 23.56 261.972C23.3805 256.936 23.6894 253.331 23.6894 253.331L55.3543 254.732Z" fill="#373A50"/>
<path d="M129.333 229.291C129.333 229.291 133.11 222.256 136.778 223.555C140.446 224.854 136.778 228.209 136.778 228.209C136.778 228.209 150.365 227.805 148.531 234.299C146.697 240.792 144.323 244.039 141.95 239.709C139.576 235.381 127.068 238.057 127.068 238.057" fill="#FFDAD9"/>
<path d="M130.964 225.166L130.248 237.219L130.147 238.889C130.147 238.889 89.6903 244.639 76.5519 241.441C75.339 241.136 74.3506 240.762 73.6585 240.302C63.1881 233.311 60.5744 211.589 58.2259 199.331C54.9358 182.174 67.7621 168.067 78.7304 181.822C82.8607 187.003 86.8355 220.289 86.8355 220.289L130.964 225.166Z" fill="#008A4A"/>
<path d="M130.247 237.219L130.146 238.889C130.146 238.889 89.6888 244.639 76.5504 241.441C74.6371 239.482 73.4159 236.837 72.8481 234.138C72.132 230.751 72.3345 227.24 72.7082 223.8C73.4472 216.996 74.8469 210.271 76.8698 203.732C77.422 201.954 78.3479 199.145 80.2069 198.31C82.8592 197.116 82.5638 201.938 82.7819 203.499C83.6065 209.398 84.4312 215.305 85.2558 221.202C85.738 224.658 86.3444 228.373 88.787 230.853C91.4706 233.584 95.6166 234.083 99.4285 234.427C109.704 235.354 119.972 236.29 130.247 237.219Z" fill="#008A4A"/>
<path d="M82.8338 227.896C82.6939 235.347 82.3515 242.128 82.0634 246.933C81.791 251.381 81.5582 254.134 81.5582 254.134C77.5051 257.427 48.0553 260.158 32.2573 258.402C30.0089 258.153 28.0487 257.817 26.4704 257.38C25.0394 256.974 23.9267 256.498 23.219 255.929C22.9622 255.726 22.7597 255.508 22.6125 255.281C22.6125 255.281 16.0627 201 22.8463 185.793C23.29 184.787 23.7952 183.952 24.3713 183.312C31.0684 175.838 66.7101 166.881 77.0093 180.878C82.3599 188.159 83.1678 209.958 82.8338 227.896Z" fill="#00A558"/>
<path d="M82.8348 227.896C82.6949 235.347 82.3526 242.128 82.0645 246.933C72.7454 246.793 63.4263 246.653 54.1156 246.512C47.6753 246.418 41.234 246.325 34.801 246.232C33.1675 246.208 31.4713 246.2 30.0173 246.934C27.4735 248.222 26.4777 251.366 26.3848 254.214C26.3535 255.267 26.4078 256.329 26.4704 257.382C25.0394 256.976 23.9267 256.501 23.219 255.931C22.9622 255.728 22.7597 255.51 22.6125 255.283C22.6125 255.283 16.0627 201.002 22.8463 185.796C25.2419 185.421 27.6541 185.187 30.0726 185.272C36.1862 185.491 41.258 187.715 44.284 193.027C47.691 199.012 49.9153 205.675 50.7556 212.518C51.1052 215.35 51.2848 218.393 52.9956 220.671C55.197 223.597 59.1874 224.354 62.7969 224.9C69.4793 225.898 76.1534 226.897 82.8348 227.896Z" fill="#008A4A"/>
<path d="M62.551 182.668C51.7205 186.4 45.1936 172.639 45.1936 172.639L44.8867 151.282L52.471 155.752L59.6054 159.962L59.4968 161.234L58.9541 167.602L58.7505 172.363C58.7516 172.363 68.842 180.5 62.551 182.668Z" fill="#FFDAD9"/>
<path d="M59.4958 161.234L58.9531 167.603C57.092 166.012 53.2038 162.556 51.7435 160.037C51.1757 159.05 51.3928 158.187 51.9773 157.484L59.4958 161.234Z" fill="#FECDCB"/>
<path d="M66.4317 164.458C57.2024 166.061 45.9857 155.766 44.6057 154.492C44.5358 154.407 44.4993 154.377 44.4993 154.377C44.4993 154.377 38.6227 152.755 39.4535 147.763C40.6288 140.799 45.1078 145.969 45.1078 145.969L42.4023 132.996L48.2893 125.96L72.0881 131.108C72.0881 131.108 72.6037 136.78 72.6214 143.557C72.6559 152.763 71.0818 163.651 66.4317 164.458Z" fill="#FFDAD9"/>
<path d="M75.5301 136.62C72.4686 139.046 55.4546 144.545 51.3712 137.868C50.437 136.34 48.0749 147.042 46.8923 147.518C45.7096 147.993 45.1063 145.969 45.1063 145.969C45.1063 145.969 40.6274 140.799 39.452 147.764C38.6212 152.756 44.478 154.373 44.478 154.373C44.478 154.373 45.7295 155.487 45.7994 155.571L45.2859 163.416C33.2779 152.89 30.7478 136.803 37.4573 128.536C44.1659 120.283 47.4382 120.36 54.8669 121.796C62.2946 123.232 65.6714 118.06 71.1023 121.387C76.5353 124.702 78.5018 134.265 75.5301 136.62Z" fill="#111228"/>
<path d="M69.6999 146.738C69.5726 145.878 68.9713 145.244 68.3461 145.343C67.7303 145.431 67.3336 146.202 67.4704 147.063" fill="#FFDAD9"/>
<path d="M60.8682 146.797C60.7409 145.937 60.1302 145.303 59.5144 145.402C58.8986 145.489 58.5019 146.261 58.6293 147.122" fill="#FFDAD9"/>
<path d="M67.0365 147.131C66.8549 145.916 67.5073 145.023 68.287 144.906C69.2452 144.765 69.9926 145.679 70.1356 146.672L69.2671 146.797C69.1961 146.3 68.836 145.712 68.4164 145.775C67.9811 145.84 67.8329 146.53 67.9029 146.999L67.0365 147.131Z" fill="#FFDAD9"/>
<path d="M58.1956 147.189C58.0066 145.929 58.6976 145.076 59.4544 144.964C60.3166 144.835 61.1328 145.608 61.3009 146.727L60.4345 146.859C60.3333 146.194 59.8907 145.785 59.5838 145.834C59.1433 145.899 58.991 146.581 59.063 147.058L58.1956 147.189Z" fill="#FFDAD9"/>
<path d="M58.6299 147.124C58.7604 147.989 59.3574 148.61 59.9785 148.518C60.5933 148.433 60.991 147.66 60.8678 146.794C60.7373 145.935 60.133 145.307 59.5192 145.399C58.8982 145.491 58.5005 146.258 58.6299 147.124Z" fill="#111228"/>
<path d="M67.4682 147.066C67.5913 147.932 68.1957 148.553 68.8105 148.461C69.4326 148.376 69.8303 147.602 69.6998 146.736C69.5766 145.878 68.9723 145.249 68.3502 145.342C67.7354 145.434 67.3377 146.2 67.4682 147.066Z" fill="#111228"/>
<path d="M69.9509 144.739C68.928 144.383 68.499 144.012 67.6452 144.57C67.4322 144.763 67.1911 144.954 66.8926 145.131C66.9792 144.811 67.1024 144.487 67.2903 144.198C67.7944 143.542 68.6597 143.453 69.3173 143.955C69.6044 144.163 69.7954 144.44 69.9509 144.739Z" fill="#111228"/>
<path d="M60.4509 144.543C59.427 144.186 58.998 143.816 58.1452 144.374C57.9322 144.568 57.6911 144.758 57.3926 144.935C57.4792 144.615 57.6024 144.291 57.7903 144.001C58.2976 143.34 59.1639 143.26 59.8173 143.758C60.1033 143.968 60.2954 144.245 60.4509 144.543Z" fill="#111228"/>
<path d="M64.3997 146.13C64.6773 148.252 64.6418 150.283 64.8892 151.16C65.1762 152.237 65.9581 152.558 66.0656 153.4C66.1251 153.89 65.9309 154.344 65.6595 154.691C65.3714 155.032 65.0249 155.29 64.6679 155.521C65.2639 154.949 65.8975 154.225 65.7336 153.458C65.5625 152.743 64.7848 152.444 64.4675 151.278C64.1658 150.129 64.3266 147.03 64.3997 146.13Z" fill="#111228"/>
<path d="M62.8672 157.997C62.8776 159.627 64.0362 160.942 65.4496 160.932C66.8556 160.923 67.9964 159.593 67.986 157.963C67.986 157.934 67.9787 157.912 67.9787 157.89C66.5456 158.237 64.8462 158.248 62.8745 157.923C62.8734 157.945 62.8672 157.967 62.8672 157.997Z" fill="white"/>
<path d="M288.935 253.78V263.731C288.935 264.572 288.259 265.264 287.406 265.264H47.9491C47.0963 265.264 46.4199 264.572 46.4199 263.731V253.78C46.4199 252.925 47.0963 252.246 47.9491 252.246H287.406C288.258 252.246 288.935 252.925 288.935 253.78Z" fill="#EBF2FF"/>
<path d="M275.774 265.26H267.498V379.861H275.774V265.26Z" fill="url(#paint0_linear_161_810)"/>
<path d="M67.8537 265.265H59.5742V379.864H67.8537V265.265Z" fill="url(#paint1_linear_161_810)"/>
<path d="M92.0781 252.246H126.725L144.718 205.153H141.192L123.748 246.419L96.8681 247.556C94.2409 247.493 92.0781 249.611 92.0781 252.246Z" fill="#111228"/>
<path d="M126.723 252.246H171.09L187.999 204.475L144.716 205.153L126.723 252.246Z" fill="#373A50"/>
<path d="M90.8803 232.857C90.8803 232.857 94.6568 225.822 98.3247 227.121C101.993 228.419 98.3247 231.775 98.3247 231.775C98.3247 231.775 111.912 231.371 110.078 237.864C108.244 244.358 105.87 247.604 103.497 243.275C101.123 238.947 88.6152 241.623 88.6152 241.623" fill="#FFDAD9"/>
<path d="M40.7566 185.97C44.887 191.151 48.3816 223.851 48.3816 223.851L92.5085 228.733L91.6953 242.458C91.6953 242.458 43.3902 249.323 35.2067 243.864C24.7342 236.878 22.1216 215.158 19.7689 202.895C16.4798 185.742 29.7852 172.211 40.7566 185.97Z" fill="#00A558"/>
<path d="M379.622 200.858C379.622 205.925 375.536 210.024 370.485 210.024H364.217V31.1233H370.515C375.245 31.1233 379.13 34.7354 379.577 39.3662C379.647 40.0656 379.612 92.663 379.622 200.858Z" fill="url(#paint2_linear_161_810)"/>
<path d="M375.747 40.3034V200.861C375.747 205.928 371.662 210.025 366.61 210.025H207.395C202.344 210.025 198.25 205.928 198.25 200.861V40.3034C198.25 35.236 202.343 31.1318 207.395 31.1318H366.611C371.662 31.1307 375.747 35.236 375.747 40.3034Z" fill="white"/>
<path d="M375.756 40.2665V49.6716H198.258V40.2665C198.258 35.2159 202.33 31.1243 207.365 31.1243H366.648C371.676 31.1243 375.756 35.2159 375.756 40.2665Z" fill="url(#paint3_linear_161_810)"/>
<path d="M364.084 41.4714C364.084 43.0262 365.334 44.2868 366.884 44.2868C368.435 44.2868 369.685 43.0262 369.685 41.4714C369.685 39.9229 368.435 38.6624 366.884 38.6624C365.333 38.6624 364.084 39.9229 364.084 41.4714Z" fill="white"/>
<path d="M356.559 41.4714C356.559 43.0262 357.809 44.2868 359.359 44.2868C360.909 44.2868 362.16 43.0262 362.16 41.4714C362.16 39.9229 360.909 38.6624 359.359 38.6624C357.808 38.6624 356.559 39.9229 356.559 41.4714Z" fill="white"/>
<path d="M349.035 41.4714C349.035 43.0262 350.286 44.2868 351.836 44.2868C353.386 44.2868 354.636 43.0262 354.636 41.4714C354.636 39.9229 353.386 38.6624 351.836 38.6624C350.285 38.6624 349.035 39.9229 349.035 41.4714Z" fill="white"/>
<path d="M237.041 66.2476H224.43C223.934 66.2476 223.531 65.8435 223.531 65.3472C223.531 64.8509 223.935 64.4468 224.43 64.4468H237.041C237.537 64.4468 237.94 64.8509 237.94 65.3472C237.94 65.8435 237.537 66.2476 237.041 66.2476Z" fill="url(#paint4_linear_161_810)"/>
<path d="M218.721 66.2476H211.925C211.429 66.2476 211.025 65.8435 211.025 65.3472C211.025 64.8509 211.429 64.4468 211.925 64.4468H218.721C219.217 64.4468 219.62 64.8509 219.62 65.3472C219.62 65.8435 219.217 66.2476 218.721 66.2476Z" fill="url(#paint5_linear_161_810)"/>
<path d="M328.223 73.616H316.291C315.795 73.616 315.393 73.2119 315.393 72.7156C315.393 72.2193 315.797 71.8152 316.291 71.8152H328.223C328.719 71.8152 329.122 72.2193 329.122 72.7156C329.122 73.2119 328.719 73.616 328.223 73.616Z" fill="url(#paint6_linear_161_810)"/>
<path d="M246.654 73.6158H233.74C233.245 73.6158 232.842 73.2116 232.842 72.7154C232.842 72.2191 233.246 71.8149 233.74 71.8149H246.654C247.15 71.8149 247.553 72.2191 247.553 72.7154C247.553 73.2116 247.15 73.6158 246.654 73.6158Z" fill="url(#paint7_linear_161_810)"/>
<path d="M228.547 73.6158H218.305C217.809 73.6158 217.406 73.2116 217.406 72.7154C217.406 72.2191 217.81 71.8149 218.305 71.8149H228.547C229.043 71.8149 229.445 72.2191 229.445 72.7154C229.445 73.2116 229.043 73.6158 228.547 73.6158Z" fill="url(#paint8_linear_161_810)"/>
<path d="M362.068 80.9851H326.678C326.182 80.9851 325.779 80.581 325.779 80.0847C325.779 79.5874 326.183 79.1843 326.678 79.1843H362.069C362.565 79.1843 362.968 79.5885 362.968 80.0847C362.968 80.5821 362.564 80.9851 362.068 80.9851Z" fill="url(#paint9_linear_161_810)"/>
<path d="M322.608 80.9851H241.883C241.387 80.9851 240.984 80.581 240.984 80.0847C240.984 79.5874 241.388 79.1843 241.883 79.1843H322.608C323.104 79.1843 323.506 79.5885 323.506 80.0847C323.506 80.5821 323.104 80.9851 322.608 80.9851Z" fill="url(#paint10_linear_161_810)"/>
<path d="M235.986 80.9851H218.305C217.809 80.9851 217.406 80.581 217.406 80.0847C217.406 79.5874 217.81 79.1843 218.305 79.1843H235.986C236.482 79.1843 236.885 79.5885 236.885 80.0847C236.885 80.5821 236.481 80.9851 235.986 80.9851Z" fill="url(#paint11_linear_161_810)"/>
<path d="M322.255 88.3523H218.305C217.809 88.3523 217.406 87.9482 217.406 87.4519C217.406 86.9546 217.81 86.5515 218.305 86.5515H322.255C322.751 86.5515 323.154 86.9557 323.154 87.4519C323.154 87.9482 322.75 88.3523 322.255 88.3523Z" fill="url(#paint12_linear_161_810)"/>
<path d="M362.069 95.7217H323.66C323.165 95.7217 322.762 95.3176 322.762 94.8213C322.762 94.324 323.166 93.9209 323.66 93.9209H362.069C362.565 93.9209 362.968 94.325 362.968 94.8213C362.969 95.3176 362.565 95.7217 362.069 95.7217Z" fill="url(#paint13_linear_161_810)"/>
<path d="M315.446 95.7216H235.985C235.489 95.7216 235.086 95.3175 235.086 94.8212C235.086 94.3239 235.49 93.9208 235.985 93.9208H315.446C315.942 93.9208 316.345 94.3249 316.345 94.8212C316.346 95.3175 315.942 95.7216 315.446 95.7216Z" fill="url(#paint14_linear_161_810)"/>
<path d="M231.354 95.7215H218.305C217.809 95.7215 217.406 95.3173 217.406 94.8211C217.406 94.3237 217.81 93.9207 218.305 93.9207H231.354C231.849 93.9207 232.252 94.3248 232.252 94.8211C232.252 95.3173 231.849 95.7215 231.354 95.7215Z" fill="url(#paint15_linear_161_810)"/>
<path d="M316.712 103.09H242.514C242.018 103.09 241.615 102.686 241.615 102.189C241.615 101.692 242.019 101.289 242.514 101.289H316.712C317.208 101.289 317.61 101.693 317.61 102.189C317.61 102.686 317.208 103.09 316.712 103.09Z" fill="url(#paint16_linear_161_810)"/>
<path d="M237.53 103.09H218.305C217.809 103.09 217.406 102.686 217.406 102.189C217.406 101.692 217.81 101.289 218.305 101.289H237.53C238.026 101.289 238.428 101.693 238.428 102.189C238.428 102.686 238.026 103.09 237.53 103.09Z" fill="url(#paint17_linear_161_810)"/>
<path d="M241.883 110.457H225.741C225.245 110.457 224.842 110.053 224.842 109.557C224.842 109.06 225.246 108.656 225.741 108.656H241.883C242.379 108.656 242.782 109.061 242.782 109.557C242.782 110.053 242.378 110.457 241.883 110.457Z" fill="url(#paint18_linear_161_810)"/>
<path d="M221.11 110.457H211.925C211.429 110.457 211.025 110.053 211.025 109.557C211.025 109.06 211.429 108.657 211.925 108.657H221.11C221.605 108.657 222.008 109.061 222.008 109.557C222.008 110.053 221.605 110.457 221.11 110.457Z" fill="url(#paint19_linear_161_810)"/>
<path d="M348.205 117.826H245.813C245.317 117.826 244.914 117.422 244.914 116.926C244.914 116.43 245.318 116.025 245.813 116.025H348.205C348.701 116.025 349.103 116.43 349.103 116.926C349.103 117.422 348.701 117.826 348.205 117.826Z" fill="url(#paint20_linear_161_810)"/>
<path d="M240.197 117.826H217.674C217.178 117.826 216.775 117.422 216.775 116.926C216.775 116.43 217.179 116.025 217.674 116.025H240.197C240.693 116.025 241.096 116.43 241.096 116.926C241.096 117.422 240.693 117.826 240.197 117.826Z" fill="url(#paint21_linear_161_810)"/>
<path d="M324.497 125.195H231.989C231.493 125.195 231.09 124.791 231.09 124.294C231.09 123.798 231.494 123.394 231.989 123.394H324.497C324.993 123.394 325.395 123.798 325.395 124.294C325.395 124.791 324.991 125.195 324.497 125.195Z" fill="url(#paint22_linear_161_810)"/>
<path d="M226.02 125.194H217.674C217.178 125.194 216.775 124.79 216.775 124.294C216.775 123.798 217.179 123.394 217.674 123.394H226.02C226.516 123.394 226.919 123.798 226.919 124.294C226.919 124.79 226.516 125.194 226.02 125.194Z" fill="url(#paint23_linear_161_810)"/>
<path d="M316.712 133.334H242.514C242.018 133.334 241.615 132.93 241.615 132.434C241.615 131.936 242.019 131.533 242.514 131.533H316.712C317.208 131.533 317.61 131.937 317.61 132.434C317.61 132.93 317.208 133.334 316.712 133.334Z" fill="url(#paint24_linear_161_810)"/>
<path d="M237.53 133.335H218.305C217.809 133.335 217.406 132.93 217.406 132.434C217.406 131.937 217.81 131.534 218.305 131.534H237.53C238.026 131.534 238.428 131.938 238.428 132.434C238.428 132.93 238.026 133.335 237.53 133.335Z" fill="url(#paint25_linear_161_810)"/>
<path d="M342.381 133.335H323.157C322.661 133.335 322.258 132.93 322.258 132.434C322.258 131.937 322.662 131.534 323.157 131.534H342.381C342.877 131.534 343.28 131.938 343.28 132.434C343.281 132.93 342.877 133.335 342.381 133.335Z" fill="url(#paint26_linear_161_810)"/>
<path d="M241.883 140.702H225.741C225.245 140.702 224.842 140.298 224.842 139.802C224.842 139.305 225.246 138.901 225.741 138.901H241.883C242.379 138.901 242.782 139.305 242.782 139.802C242.782 140.298 242.378 140.702 241.883 140.702Z" fill="url(#paint27_linear_161_810)"/>
<path d="M221.11 140.702H211.925C211.429 140.702 211.025 140.298 211.025 139.801C211.025 139.305 211.429 138.901 211.925 138.901H221.11C221.605 138.901 222.008 139.305 222.008 139.801C222.008 140.298 221.605 140.702 221.11 140.702Z" fill="url(#paint28_linear_161_810)"/>
<path d="M358.624 140.702H309.742C309.247 140.702 308.844 140.298 308.844 139.801C308.844 139.305 309.248 138.901 309.742 138.901H358.624C359.12 138.901 359.523 139.305 359.523 139.801C359.523 140.298 359.12 140.702 358.624 140.702Z" fill="url(#paint29_linear_161_810)"/>
<path d="M304.127 140.702H246.75C246.254 140.702 245.852 140.298 245.852 139.802C245.852 139.305 246.256 138.901 246.75 138.901H304.127C304.623 138.901 305.026 139.305 305.026 139.802C305.026 140.298 304.623 140.702 304.127 140.702Z" fill="url(#paint30_linear_161_810)"/>
<path d="M359.489 110.458H301.834C301.338 110.458 300.936 110.054 300.936 109.558C300.936 109.06 301.34 108.657 301.834 108.657H359.489C359.985 108.657 360.387 109.061 360.387 109.558C360.389 110.054 359.985 110.458 359.489 110.458Z" fill="url(#paint31_linear_161_810)"/>
<path d="M295.872 110.458H252.672C252.176 110.458 251.773 110.054 251.773 109.557C251.773 109.06 252.177 108.657 252.672 108.657H295.872C296.368 108.657 296.771 109.061 296.771 109.557C296.772 110.054 296.368 110.458 295.872 110.458Z" fill="url(#paint32_linear_161_810)"/>
<path d="M282.69 157.704V190.375C282.69 192.313 281.115 193.882 279.184 193.882H275.654V154.195H279.184C281.115 154.196 282.69 155.766 282.69 157.704Z" fill="url(#paint33_linear_161_810)"/>
<path d="M280.566 157.704V190.375C280.566 192.313 278.992 193.883 277.061 193.883H214.522C212.59 193.883 211.025 192.312 211.025 190.375V157.704C211.025 155.766 212.591 154.197 214.522 154.197H277.061C278.992 154.197 280.566 155.766 280.566 157.704Z" fill="url(#paint34_linear_161_810)"/>
<path d="M241.224 163.182V184.897C241.224 185.713 240.564 186.375 239.751 186.375H218.102C217.289 186.375 216.629 185.713 216.629 184.897V163.182C216.629 162.366 217.289 161.704 218.102 161.704H239.751C240.564 161.704 241.224 162.366 241.224 163.182Z" fill="#00A558"/>
<path d="M225.381 172.72L221.39 174.501L225.386 176.277C225.802 176.464 225.937 176.979 225.609 177.308C225.429 177.488 225.176 177.528 224.929 177.44L224.924 177.435L220.174 175.299C219.86 175.152 219.66 174.894 219.66 174.548V174.451C219.66 174.108 219.86 173.847 220.174 173.7L224.924 171.564C225.204 171.461 225.438 171.524 225.609 171.696C225.949 172.034 225.781 172.567 225.381 172.72Z" fill="white"/>
<path d="M231.101 169.627L227.949 178.882C227.792 179.357 227.197 179.443 226.893 179.123C226.732 178.955 226.669 178.732 226.761 178.453L229.914 169.198C229.992 168.961 230.213 168.769 230.513 168.769C230.929 168.767 231.262 169.145 231.101 169.627Z" fill="white"/>
<path d="M238.195 174.45V174.547C238.195 174.892 237.995 175.148 237.687 175.298L232.93 177.434C232.54 177.615 232.062 177.328 232.062 176.866C232.062 176.602 232.247 176.373 232.474 176.277L236.465 174.501L232.474 172.72C232.064 172.563 231.912 172.029 232.245 171.695C232.432 171.498 232.751 171.48 232.93 171.563L237.68 173.699C237.995 173.846 238.195 174.107 238.195 174.45Z" fill="white"/>
<path d="M267.722 163.095H246.721V169.743H267.722V163.095Z" fill="url(#paint35_linear_161_810)"/>
<path d="M275.894 173.39H247V174.704H275.894V173.39Z" fill="url(#paint36_linear_161_810)"/>
<path d="M275.894 176.926H247V178.24H275.894V176.926Z" fill="url(#paint37_linear_161_810)"/>
<path d="M275.894 180.461H247V181.775H275.894V180.461Z" fill="url(#paint38_linear_161_810)"/>
<path d="M255.288 183.998H247V185.312H255.288V183.998Z" fill="url(#paint39_linear_161_810)"/>
<path d="M261.464 183.998H256.832V185.312H261.464V183.998Z" fill="url(#paint40_linear_161_810)"/>
<path d="M266.495 183.998H262.908V185.312H266.495V183.998Z" fill="url(#paint41_linear_161_810)"/>
<path d="M360.393 157.704V190.375C360.393 192.313 358.819 193.882 356.888 193.882H353.357V154.195H356.888C358.819 154.196 360.393 155.766 360.393 157.704Z" fill="url(#paint42_linear_161_810)"/>
<path d="M358.269 157.704V190.375C358.269 192.313 356.695 193.883 354.764 193.883H292.225C290.294 193.883 288.729 192.312 288.729 190.375V157.704C288.729 155.766 290.294 154.197 292.225 154.197H354.764C356.695 154.197 358.269 155.766 358.269 157.704Z" fill="url(#paint43_linear_161_810)"/>
<path d="M318.927 163.185V184.897C318.927 185.713 318.271 186.372 317.456 186.372H295.803C294.989 186.372 294.332 185.713 294.332 184.897V163.185C294.332 162.369 294.989 161.701 295.803 161.701H317.456C318.271 161.701 318.927 162.368 318.927 163.185Z" fill="url(#paint44_linear_161_810)"/>
<path d="M345.425 163.095H324.424V169.742H345.425V163.095Z" fill="url(#paint45_linear_161_810)"/>
<path d="M353.597 173.39H324.703V174.704H353.597V173.39Z" fill="url(#paint46_linear_161_810)"/>
<path d="M353.597 176.925H324.703V178.239H353.597V176.925Z" fill="url(#paint47_linear_161_810)"/>
<path d="M353.597 180.461H324.703V181.775H353.597V180.461Z" fill="url(#paint48_linear_161_810)"/>
<path d="M332.991 183.997H324.703V185.311H332.991V183.997Z" fill="url(#paint49_linear_161_810)"/>
<path d="M339.168 183.997H334.535V185.311H339.168V183.997Z" fill="url(#paint50_linear_161_810)"/>
<path d="M344.198 183.997H340.611V185.311H344.198V183.997Z" fill="url(#paint51_linear_161_810)"/>
<path d="M314.21 175.219L314.217 172.92L312.565 172.913C312.418 172.122 312.114 171.356 311.647 170.658L312.822 169.49L311.212 167.861L310.038 169.028C309.35 168.558 308.585 168.242 307.798 168.088L307.805 166.431L305.516 166.42L305.509 168.085C304.721 168.233 303.953 168.542 303.265 169.009L302.094 167.823L300.472 169.435L301.639 170.617C301.171 171.306 300.856 172.067 300.698 172.859L299.042 172.855L299.035 175.148L300.683 175.16C300.831 175.95 301.138 176.721 301.604 177.411L300.43 178.578L302.039 180.207L303.214 179.04C303.9 179.517 304.662 179.829 305.452 179.987L305.445 181.637L307.734 181.655L307.742 179.99C308.534 179.84 309.298 179.534 309.986 179.067L311.156 180.252L312.777 178.641L311.607 177.456C312.075 176.766 312.394 176.002 312.548 175.213L314.21 175.219ZM308.668 176.106C307.534 177.234 305.695 177.229 304.563 176.083C303.435 174.941 303.447 173.097 304.582 171.968C305.721 170.837 307.563 170.839 308.69 171.98C309.822 173.126 309.807 174.974 308.668 176.106Z" fill="white"/>
<path d="M174.44 33.2764H171.529V130.729H174.44C177.391 130.729 179.783 128.33 179.783 125.37V38.6348C179.783 35.6761 177.391 33.2764 174.44 33.2764Z" fill="url(#paint52_linear_161_810)"/>
<path d="M111.311 33.2764H171.466C174.42 33.2764 176.814 35.6782 176.814 38.6411V125.363C176.814 128.326 174.42 130.728 171.466 130.728H111.311C108.357 130.728 105.963 128.326 105.963 125.363V38.6411C105.963 35.6782 108.357 33.2764 111.311 33.2764Z" fill="url(#paint53_linear_161_810)"/>
<path d="M160.792 44.3157H111.898V47.0399H160.792V44.3157Z" fill="white"/>
<path d="M126.66 50.6562H111.898V53.3805H126.66V50.6562Z" fill="white"/>
<path d="M130.833 76.0161H118.646V78.7404H130.833V76.0161Z" fill="white"/>
<path d="M154.177 76.0161H135.332V78.7404H154.177V76.0161Z" fill="white"/>
<path d="M155.533 50.6562H133.035V53.3805H155.533V50.6562Z" fill="white"/>
<path d="M136.035 56.9967H111.898V59.721H136.035V56.9967Z" fill="white"/>
<path d="M157.604 56.9968H142.801V59.7211H157.604V56.9968Z" fill="white"/>
<path d="M138.97 63.3352H123.4V66.0595H138.97V63.3352Z" fill="white"/>
<path d="M151.987 63.3352H144.969V66.0595H151.987V63.3352Z" fill="white"/>
<path d="M170.873 63.3352H156.58V66.0595H170.873V63.3352Z" fill="white"/>
<path d="M120.452 88.3853H113.051V91.1095H120.452V88.3853Z" fill="white"/>
<path d="M136.302 88.3853H125.047V91.1095H136.302V88.3853Z" fill="white"/>
<path d="M134.377 69.6758H124.678V72.4H134.377V69.6758Z" fill="white"/>
<path d="M157.347 69.6758H140.246V72.4H157.347V69.6758Z" fill="white"/>
<path d="M130.833 119.444H118.646V122.169H130.833V119.444Z" fill="white"/>
<path d="M154.177 119.444H135.332V122.169H154.177V119.444Z" fill="white"/>
<path d="M138.97 106.764H123.4V109.489H138.97V106.764Z" fill="white"/>
<path d="M151.987 106.764H144.969V109.488H151.987V106.764Z" fill="white"/>
<path d="M170.873 106.764H156.58V109.488H170.873V106.764Z" fill="white"/>
<path d="M134.377 113.104H124.678V115.828H134.377V113.104Z" fill="white"/>
<path d="M157.347 113.104H140.246V115.828H157.347V113.104Z" fill="white"/>
<path d="M150.398 88.6336C150.096 88.331 149.684 88.2148 149.187 88.4043L142.055 91.6133C141.545 91.8552 141.197 92.3054 141.197 92.8844V93.0278C141.197 93.6089 141.545 94.058 142.062 94.302L149.187 97.5079L149.207 97.5162C149.611 97.6691 150.076 97.6021 150.399 97.2775C150.958 96.7163 150.74 95.7835 150.009 95.4778L144.352 92.9556L150.001 90.4365C150.744 90.1277 150.958 89.1969 150.398 88.6336Z" fill="white"/>
<path d="M156.589 84.9544L151.856 98.8374C151.704 99.3002 151.812 99.7095 152.093 100.004C152.626 100.56 153.662 100.417 153.942 99.5787L158.675 85.6956C158.827 85.2339 158.721 84.8266 158.438 84.5282C157.909 83.9796 156.867 84.1157 156.589 84.9544Z" fill="white"/>
<path d="M168.455 91.61L161.325 88.4021C160.946 88.2398 160.431 88.3183 160.118 88.6335C159.557 89.1967 159.782 90.1317 160.507 90.4332L166.165 92.9554L160.515 95.4745C159.75 95.7969 159.575 96.735 160.118 97.2784C160.459 97.6208 160.967 97.6648 161.33 97.5077L168.46 94.2987C168.972 94.0579 169.318 93.6056 169.318 93.0277V92.8842C169.318 92.3052 168.975 91.8571 168.455 91.61Z" fill="white"/>
<path d="M441.659 132.865H438.748V230.317H441.659C444.61 230.317 447.001 227.918 447.001 224.959V138.223C447.001 135.264 444.609 132.865 441.659 132.865Z" fill="url(#paint54_linear_161_810)"/>
<path d="M378.53 132.865H438.685C441.638 132.865 444.033 135.267 444.033 138.229V224.951C444.033 227.914 441.638 230.316 438.685 230.316H378.53C375.576 230.316 373.182 227.914 373.182 224.951V138.229C373.182 135.267 375.576 132.865 378.53 132.865Z" fill="url(#paint55_linear_161_810)"/>
<path d="M424.588 147.926H403.321C402.789 147.926 402.355 147.492 402.355 146.958C402.355 146.424 402.789 145.988 403.321 145.988H424.588C425.121 145.988 425.554 146.423 425.554 146.958C425.554 147.492 425.121 147.926 424.588 147.926ZM403.32 146.868C403.27 146.868 403.231 146.908 403.231 146.958C403.231 147.008 403.271 147.048 403.32 147.048H424.587C424.638 147.048 424.676 147.008 424.676 146.958C424.676 146.908 424.637 146.868 424.587 146.868H403.32Z" fill="white"/>
<path d="M403.322 147.926H389.242C388.709 147.926 388.275 147.492 388.275 146.958C388.275 146.424 388.709 145.988 389.242 145.988H403.322C403.855 145.988 404.288 146.423 404.288 146.958C404.288 147.492 403.855 147.926 403.322 147.926ZM389.242 146.868C389.192 146.868 389.152 146.907 389.152 146.958C389.152 147.007 389.193 147.048 389.242 147.048H403.322C403.372 147.048 403.412 147.008 403.412 146.958C403.412 146.909 403.371 146.868 403.322 146.868H389.242Z" fill="white"/>
<path d="M424.588 152.464H403.321C402.789 152.464 402.355 152.03 402.355 151.495C402.355 150.961 402.789 150.526 403.321 150.526H424.588C425.121 150.526 425.554 150.961 425.554 151.495C425.554 152.03 425.121 152.464 424.588 152.464ZM403.32 151.406C403.27 151.406 403.231 151.445 403.231 151.496C403.231 151.546 403.271 151.586 403.32 151.586H424.587C424.638 151.586 424.676 151.546 424.676 151.496C424.676 151.445 424.637 151.406 424.587 151.406H403.32Z" fill="white"/>
<path d="M403.322 152.464H394.539C394.005 152.464 393.572 152.03 393.572 151.495C393.572 150.961 394.005 150.526 394.539 150.526H403.322C403.856 150.526 404.289 150.961 404.289 151.495C404.289 152.03 403.856 152.464 403.322 152.464ZM394.539 151.406C394.489 151.406 394.449 151.446 394.449 151.496C394.449 151.545 394.49 151.586 394.539 151.586H403.322C403.373 151.586 403.412 151.546 403.412 151.496C403.412 151.447 403.372 151.406 403.322 151.406H394.539Z" fill="white"/>
<path d="M424.05 157.002H403.559C403.027 157.002 402.594 156.568 402.594 156.033C402.594 155.499 403.027 155.064 403.559 155.064H424.05C424.583 155.064 425.016 155.499 425.016 156.033C425.017 156.568 424.584 157.002 424.05 157.002ZM403.559 155.944C403.51 155.944 403.471 155.984 403.471 156.034C403.471 156.083 403.511 156.124 403.559 156.124H424.05C424.099 156.124 424.139 156.084 424.139 156.034C424.139 155.985 424.098 155.944 424.05 155.944H403.559Z" fill="white"/>
<path d="M403.561 157.002H389.242C388.709 157.002 388.275 156.568 388.275 156.033C388.275 155.499 388.709 155.064 389.242 155.064H403.561C404.094 155.064 404.527 155.499 404.527 156.033C404.527 156.568 404.094 157.002 403.561 157.002ZM389.242 155.944C389.192 155.944 389.152 155.984 389.152 156.034C389.152 156.083 389.193 156.124 389.242 156.124H403.561C403.611 156.124 403.651 156.084 403.651 156.034C403.651 155.985 403.61 155.944 403.561 155.944H389.242Z" fill="white"/>
<path d="M424.05 161.54H395.253C394.72 161.54 394.287 161.106 394.287 160.572C394.287 160.038 394.72 159.602 395.253 159.602H424.05C424.582 159.602 425.016 160.037 425.016 160.572C425.017 161.106 424.584 161.54 424.05 161.54ZM395.254 160.482C395.204 160.482 395.165 160.521 395.165 160.572C395.165 160.622 395.205 160.662 395.254 160.662H424.051C424.1 160.662 424.14 160.622 424.14 160.572C424.14 160.523 424.099 160.482 424.051 160.482H395.254Z" fill="white"/>
<path d="M424.049 166.078H403.02C402.488 166.078 402.055 165.643 402.055 165.108C402.055 164.574 402.488 164.14 403.02 164.14H424.049C424.581 164.14 425.014 164.574 425.014 165.108C425.015 165.643 424.582 166.078 424.049 166.078ZM403.02 165.019C402.97 165.019 402.931 165.059 402.931 165.109C402.931 165.159 402.971 165.199 403.02 165.199H424.049C424.098 165.199 424.137 165.159 424.137 165.109C424.137 165.06 424.097 165.019 424.049 165.019H403.02Z" fill="white"/>
<path d="M403.021 166.078H393.819C393.287 166.078 392.854 165.643 392.854 165.108C392.854 164.574 393.287 164.14 393.819 164.14H403.021C403.555 164.14 403.988 164.574 403.988 165.108C403.988 165.643 403.555 166.078 403.021 166.078ZM393.819 165.019C393.769 165.019 393.73 165.059 393.73 165.109C393.73 165.159 393.77 165.199 393.819 165.199H403.021C403.071 165.199 403.111 165.159 403.111 165.109C403.111 165.06 403.07 165.019 403.021 165.019H393.819Z" fill="white"/>
<path d="M430.199 170.616H403.02C402.488 170.616 402.055 170.181 402.055 169.647C402.055 169.113 402.488 168.678 403.02 168.678H430.199C430.731 168.678 431.164 169.112 431.164 169.647C431.164 170.181 430.731 170.616 430.199 170.616ZM403.02 169.557C402.97 169.557 402.931 169.597 402.931 169.647C402.931 169.697 402.971 169.737 403.02 169.737H430.199C430.249 169.737 430.287 169.697 430.287 169.647C430.287 169.597 430.248 169.557 430.199 169.557H403.02Z" fill="white"/>
<path d="M396.929 170.615H389.242C388.709 170.615 388.275 170.181 388.275 169.647C388.275 169.113 388.709 168.677 389.242 168.677H396.929C397.461 168.677 397.894 169.112 397.894 169.647C397.894 170.181 397.462 170.615 396.929 170.615ZM389.242 169.557C389.192 169.557 389.152 169.596 389.152 169.647C389.152 169.696 389.193 169.737 389.242 169.737H396.929C396.978 169.737 397.017 169.697 397.017 169.647C397.017 169.597 396.977 169.557 396.929 169.557H389.242Z" fill="white"/>
<path d="M424.047 175.154H402.719C402.187 175.154 401.754 174.719 401.754 174.184C401.754 173.65 402.187 173.216 402.719 173.216H424.047C424.58 173.216 425.013 173.65 425.013 174.184C425.014 174.719 424.581 175.154 424.047 175.154ZM402.72 174.095C402.67 174.095 402.632 174.135 402.632 174.185C402.632 174.235 402.671 174.275 402.72 174.275H424.049C424.098 174.275 424.137 174.235 424.137 174.185C424.137 174.136 424.097 174.095 424.049 174.095H402.72Z" fill="white"/>
<path d="M402.725 175.154H389.242C388.709 175.154 388.275 174.72 388.275 174.185C388.275 173.651 388.709 173.216 389.242 173.216H402.725C403.258 173.216 403.691 173.651 403.691 174.185C403.691 174.72 403.258 175.154 402.725 175.154ZM389.242 174.096C389.192 174.096 389.152 174.135 389.152 174.186C389.152 174.235 389.193 174.276 389.242 174.276H402.725C402.775 174.276 402.815 174.236 402.815 174.186C402.815 174.136 402.774 174.096 402.725 174.096H389.242Z" fill="white"/>
<path d="M430.201 179.692H408.637C408.105 179.692 407.672 179.257 407.672 178.723C407.672 178.189 408.105 177.754 408.637 177.754H430.201C430.734 177.754 431.167 178.188 431.167 178.723C431.167 179.257 430.734 179.692 430.201 179.692ZM408.637 178.633C408.588 178.633 408.549 178.673 408.549 178.723C408.549 178.773 408.589 178.813 408.637 178.813H430.201C430.251 178.813 430.29 178.774 430.29 178.723C430.29 178.673 430.25 178.633 430.201 178.633H408.637Z" fill="white"/>
<path d="M398.781 179.692H389.242C388.709 179.692 388.275 179.257 388.275 178.723C388.275 178.19 388.709 177.754 389.242 177.754H398.781C399.314 177.754 399.747 178.188 399.747 178.723C399.747 179.257 399.314 179.692 398.781 179.692ZM389.242 178.633C389.192 178.633 389.152 178.673 389.152 178.723C389.152 178.773 389.193 178.814 389.242 178.814H398.781C398.83 178.814 398.87 178.774 398.87 178.723C398.87 178.674 398.829 178.633 398.781 178.633H389.242Z" fill="white"/>
<path d="M430.198 184.229H408.877C408.343 184.229 407.91 183.795 407.91 183.261C407.91 182.727 408.343 182.291 408.877 182.291H430.198C430.731 182.291 431.164 182.726 431.164 183.261C431.164 183.795 430.731 184.229 430.198 184.229ZM408.877 183.171C408.827 183.171 408.787 183.21 408.787 183.261C408.787 183.31 408.828 183.351 408.877 183.351H430.198C430.249 183.351 430.287 183.311 430.287 183.261C430.287 183.21 430.248 183.171 430.198 183.171H408.877Z" fill="white"/>
<path d="M398.781 184.23H389.242C388.709 184.23 388.275 183.795 388.275 183.261C388.275 182.727 388.709 182.292 389.242 182.292H398.781C399.314 182.292 399.747 182.726 399.747 183.261C399.747 183.795 399.314 184.23 398.781 184.23ZM389.242 183.171C389.192 183.171 389.152 183.211 389.152 183.261C389.152 183.31 389.193 183.351 389.242 183.351H398.781C398.83 183.351 398.87 183.312 398.87 183.261C398.87 183.212 398.829 183.171 398.781 183.171H389.242Z" fill="white"/>
<path d="M430.196 188.767H402.719C402.187 188.767 401.754 188.333 401.754 187.798C401.754 187.264 402.187 186.828 402.719 186.828H430.196C430.729 186.828 431.162 187.263 431.162 187.798C431.162 188.333 430.729 188.767 430.196 188.767ZM402.719 187.709C402.669 187.709 402.631 187.749 402.631 187.799C402.631 187.849 402.67 187.889 402.719 187.889H430.196C430.247 187.889 430.285 187.849 430.285 187.799C430.285 187.749 430.246 187.709 430.196 187.709H402.719Z" fill="white"/>
<path d="M397.885 188.767H389.242C388.709 188.767 388.275 188.333 388.275 187.798C388.275 187.264 388.709 186.828 389.242 186.828H397.885C398.418 186.828 398.851 187.263 398.851 187.798C398.851 188.333 398.418 188.767 397.885 188.767ZM389.242 187.709C389.192 187.709 389.152 187.75 389.152 187.799C389.152 187.848 389.193 187.889 389.242 187.889H397.885C397.935 187.889 397.974 187.848 397.974 187.799C397.974 187.75 397.934 187.709 397.885 187.709H389.242Z" fill="white"/>
<path d="M430.201 202.447H408.637C408.105 202.447 407.672 202.012 407.672 201.477C407.672 200.943 408.105 200.509 408.637 200.509H430.201C430.734 200.509 431.167 200.943 431.167 201.477C431.167 202.012 430.734 202.447 430.201 202.447ZM408.637 201.388C408.588 201.388 408.549 201.428 408.549 201.478C408.549 201.528 408.589 201.568 408.637 201.568H430.201C430.251 201.568 430.29 201.529 430.29 201.478C430.29 201.428 430.25 201.388 430.201 201.388H408.637Z" fill="white"/>
<path d="M398.781 202.447H389.242C388.709 202.447 388.275 202.013 388.275 201.478C388.275 200.944 388.709 200.509 389.242 200.509H398.781C399.314 200.509 399.747 200.944 399.747 201.478C399.747 202.013 399.314 202.447 398.781 202.447ZM389.242 201.389C389.192 201.389 389.152 201.429 389.152 201.479C389.152 201.528 389.193 201.569 389.242 201.569H398.781C398.83 201.569 398.87 201.528 398.87 201.479C398.87 201.43 398.829 201.389 398.781 201.389H389.242Z" fill="white"/>
<path d="M430.198 206.984H408.877C408.343 206.984 407.91 206.55 407.91 206.016C407.91 205.482 408.343 205.046 408.877 205.046H430.198C430.731 205.046 431.164 205.481 431.164 206.016C431.164 206.55 430.731 206.984 430.198 206.984ZM408.877 205.926C408.827 205.926 408.787 205.967 408.787 206.016C408.787 206.065 408.828 206.105 408.877 206.105H430.198C430.249 206.105 430.287 206.065 430.287 206.016C430.287 205.966 430.248 205.926 430.198 205.926H408.877Z" fill="white"/>
<path d="M398.781 206.984H389.242C388.709 206.984 388.275 206.55 388.275 206.016C388.275 205.482 388.709 205.046 389.242 205.046H398.781C399.314 205.046 399.747 205.481 399.747 206.016C399.747 206.55 399.314 206.984 398.781 206.984ZM389.242 205.926C389.192 205.926 389.152 205.967 389.152 206.016C389.152 206.065 389.193 206.105 389.242 206.105H398.781C398.83 206.105 398.87 206.065 398.87 206.016C398.87 205.967 398.829 205.926 398.781 205.926H389.242Z" fill="white"/>
<path d="M430.196 211.521H402.719C402.187 211.521 401.754 211.087 401.754 210.552C401.754 210.018 402.187 209.583 402.719 209.583H430.196C430.729 209.583 431.162 210.018 431.162 210.552C431.162 211.087 430.729 211.521 430.196 211.521ZM402.719 210.463C402.669 210.463 402.631 210.503 402.631 210.552C402.631 210.602 402.67 210.642 402.719 210.642H430.196C430.247 210.642 430.285 210.602 430.285 210.552C430.285 210.502 430.246 210.463 430.196 210.463H402.719Z" fill="white"/>
<path d="M397.885 211.522H389.242C388.709 211.522 388.275 211.088 388.275 210.553C388.275 210.019 388.709 209.584 389.242 209.584H397.885C398.418 209.584 398.851 210.019 398.851 210.553C398.851 211.088 398.418 211.522 397.885 211.522ZM389.242 210.464C389.192 210.464 389.152 210.503 389.152 210.553C389.152 210.602 389.193 210.643 389.242 210.643H397.885C397.935 210.643 397.974 210.602 397.974 210.553C397.974 210.503 397.934 210.464 397.885 210.464H389.242Z" fill="white"/>
<path d="M425.005 193.306H403.02C402.488 193.306 402.055 192.872 402.055 192.337C402.055 191.803 402.488 191.368 403.02 191.368H425.005C425.538 191.368 425.971 191.803 425.971 192.337C425.971 192.872 425.538 193.306 425.005 193.306ZM403.02 192.248C402.97 192.248 402.931 192.287 402.931 192.338C402.931 192.388 402.971 192.428 403.02 192.428H425.005C425.055 192.428 425.095 192.387 425.095 192.338C425.095 192.288 425.054 192.248 425.005 192.248H403.02Z" fill="white"/>
<path d="M403.023 193.306H389.242C388.709 193.306 388.275 192.871 388.275 192.336C388.275 191.802 388.709 191.368 389.242 191.368H403.023C403.557 191.368 403.99 191.802 403.99 192.336C403.99 192.871 403.557 193.306 403.023 193.306ZM389.242 192.247C389.192 192.247 389.152 192.287 389.152 192.337C389.152 192.388 389.193 192.427 389.242 192.427H403.023C403.073 192.427 403.113 192.387 403.113 192.337C403.113 192.288 403.072 192.247 403.023 192.247H389.242Z" fill="white"/>
<path d="M424.049 197.843H397.583C397.05 197.843 396.617 197.409 396.617 196.874C396.617 196.34 397.05 195.904 397.583 195.904H424.049C424.582 195.904 425.015 196.339 425.015 196.874C425.016 197.409 424.583 197.843 424.049 197.843ZM397.583 196.785C397.534 196.785 397.494 196.826 397.494 196.875C397.494 196.924 397.535 196.965 397.583 196.965H424.049C424.098 196.965 424.138 196.924 424.138 196.875C424.138 196.826 424.097 196.785 424.049 196.785H397.583Z" fill="white"/>
<path d="M432.126 219.865H431.749C430.92 219.865 430.213 219.162 430.213 218.324C430.213 217.489 430.916 216.782 431.749 216.782H432.22C433.069 216.782 433.632 216.733 433.632 215.9V175.63C433.632 173.967 434.371 172.722 435.831 171.916C434.371 171.11 433.632 169.864 433.632 168.202V147.281C433.632 146.443 433.054 146.399 432.22 146.399H431.749C430.924 146.399 430.213 145.7 430.213 144.858C430.213 144.021 430.917 143.316 431.749 143.316H432.126C435.192 143.316 436.957 144.445 436.957 147.533V168.108C436.957 169.112 437.069 169.822 439.478 170.224C440.425 170.392 440.911 171.052 440.911 171.917C440.911 172.78 440.426 173.442 439.482 173.609C437.897 173.874 436.957 174.23 436.957 175.725V215.649C436.957 218.263 435.734 219.865 432.126 219.865ZM431.749 217.661C431.403 217.661 431.09 217.975 431.09 218.323C431.09 218.672 431.405 218.985 431.749 218.985H432.126C435.208 218.985 436.08 217.812 436.08 215.647V175.724C436.08 173.749 437.256 173.089 439.334 172.741C439.787 172.661 440.034 172.417 440.034 171.916C440.034 171.413 439.787 171.17 439.329 171.09C436.565 170.628 436.081 169.62 436.081 168.107V147.532C436.081 145.371 435.211 144.195 432.127 144.195H431.75C431.404 144.195 431.091 144.508 431.091 144.857C431.091 145.204 431.403 145.518 431.75 145.518H432.221C433.522 145.518 434.51 145.851 434.51 147.28V168.201C434.51 169.795 435.34 170.874 437.047 171.502L438.169 171.915L437.047 172.327C435.34 172.956 434.51 174.035 434.51 175.629V215.899C434.51 217.336 433.507 217.66 432.221 217.66H431.749V217.661Z" fill="white"/>
<path d="M385.46 219.865H385.083C381.977 219.865 380.253 218.704 380.253 215.649V175.725C380.253 174.712 380.135 174.011 377.732 173.609C376.78 173.442 376.299 172.778 376.299 171.916C376.299 171.057 376.78 170.392 377.728 170.224C379.369 169.95 380.253 169.571 380.253 168.108V147.533C380.253 144.919 381.473 143.317 385.083 143.317H385.46C386.281 143.317 386.997 144.012 386.997 144.858C386.997 145.708 386.278 146.399 385.46 146.399H384.991C384.145 146.399 383.577 146.447 383.577 147.282V168.202C383.577 169.865 382.838 171.11 381.379 171.916C382.838 172.722 383.577 173.968 383.577 175.63V215.9C383.577 216.737 384.15 216.783 384.991 216.783H385.46C386.278 216.783 386.997 217.475 386.997 218.324C386.997 219.17 386.281 219.865 385.46 219.865ZM385.083 218.985H385.46C385.811 218.985 386.12 218.668 386.12 218.323C386.12 217.979 385.811 217.661 385.46 217.661H384.991C383.687 217.661 382.7 217.328 382.7 215.9V175.63C382.7 174.036 381.871 172.957 380.164 172.329L379.042 171.916L380.164 171.504C381.871 170.875 382.7 169.796 382.7 168.202V147.282C382.7 145.842 383.706 145.52 384.991 145.52H385.46C385.81 145.52 386.12 145.203 386.12 144.858C386.12 144.511 385.809 144.196 385.46 144.196H385.083C382.002 144.196 381.13 145.37 381.13 147.533V168.108C381.13 170.079 379.959 170.743 377.876 171.091C377.416 171.173 377.176 171.421 377.176 171.916C377.176 172.412 377.417 172.661 377.88 172.742C380.659 173.207 381.129 174.224 381.129 175.725V215.649C381.129 218.231 382.498 218.985 385.083 218.985Z" fill="white"/>
<path d="M405.062 58.4321H400.959V88.801H405.062C406.468 88.801 407.609 87.6577 407.609 86.2463V60.992C407.609 59.5807 406.469 58.4321 405.062 58.4321Z" fill="url(#paint56_linear_161_810)"/>
<path d="M405.668 60.992V86.2474C405.668 87.6577 404.529 88.802 403.122 88.802H354.185C352.774 88.802 351.633 87.6587 351.633 86.2474V60.992C351.633 59.5817 352.773 58.4321 354.185 58.4321H403.122C404.528 58.4321 405.668 59.5807 405.668 60.992Z" fill="#00A558"/>
<path d="M360.244 77.0654V68.3073C360.244 67.9555 360.511 67.654 360.881 67.654C361.245 67.654 361.532 67.9482 361.532 68.3073V72.0828H366.895V68.3073C366.895 67.9503 367.167 67.654 367.532 67.654C367.891 67.654 368.182 67.943 368.182 68.3073V77.0654C368.182 77.4381 367.882 77.704 367.532 77.704C367.171 77.704 366.895 77.4276 366.895 77.0654V73.2889H361.532V77.0654C361.532 77.4287 361.24 77.704 360.881 77.704C360.514 77.704 360.244 77.4213 360.244 77.0654Z" fill="white"/>
<path d="M373.219 77.065V68.9309H370.332C369.995 68.9309 369.738 68.6818 369.738 68.3352C369.738 67.9991 369.985 67.7248 370.332 67.7248H377.38C377.718 67.7248 377.987 67.9897 377.987 68.3352C377.987 68.6859 377.713 68.9309 377.38 68.9309H374.507V77.065C374.507 77.4283 374.215 77.7036 373.856 77.7036C373.49 77.7036 373.219 77.4209 373.219 77.065Z" fill="white"/>
<path d="M379.549 77.0654V68.5911C379.549 68.0843 379.95 67.654 380.469 67.654H380.936C381.329 67.654 381.655 67.9231 381.8 68.2497L385.012 76.2843L388.225 68.2497C388.37 67.922 388.697 67.654 389.088 67.654H389.556C390.075 67.654 390.475 68.0833 390.475 68.5911V77.0654C390.475 77.4213 390.205 77.704 389.839 77.704C389.489 77.704 389.188 77.4381 389.188 77.0654V69.0025L385.919 77.1072C385.771 77.4611 385.418 77.703 385.013 77.703C384.623 77.703 384.261 77.4726 384.107 77.1072L380.839 69.0025V77.0654C380.839 77.4287 380.547 77.704 380.188 77.704C379.819 77.704 379.549 77.4213 379.549 77.0654Z" fill="white"/>
<path d="M393.217 76.7387V68.3073C393.217 67.9555 393.484 67.654 393.854 67.654C394.218 67.654 394.505 67.9482 394.505 68.3073V76.3408H399.132C399.493 76.3408 399.783 76.633 399.783 76.9942C399.783 77.3585 399.49 77.6328 399.132 77.6328H394.108C393.617 77.6339 393.217 77.236 393.217 76.7387Z" fill="white"/>
<path d="M174.412 150.444H170.592V178.716H174.412C175.721 178.716 176.783 177.651 176.783 176.338V152.827C176.784 151.513 175.722 150.444 174.412 150.444Z" fill="url(#paint57_linear_161_810)"/>
<path d="M174.979 152.823V176.337C174.979 177.653 173.911 178.717 172.606 178.717H127.048C125.736 178.717 124.676 177.655 124.676 176.337V152.823C124.676 151.514 125.735 150.443 127.048 150.443H172.606C173.911 150.443 174.979 151.514 174.979 152.823Z" fill="url(#paint58_linear_161_810)"/>
<path d="M140.947 171.087C140.654 170.914 140.508 170.666 140.508 170.346C140.508 169.736 141.091 169.338 141.626 169.606C142.238 169.899 142.856 170.046 143.482 170.046C145.404 170.046 145.896 168.79 145.896 167.083V158.415C145.896 157.918 146.273 157.495 146.794 157.495C147.299 157.495 147.712 157.901 147.712 158.415V166.963C147.712 169.86 146.489 171.767 143.601 171.767C142.63 171.767 141.745 171.54 140.947 171.087Z" fill="white"/>
<path d="M151.126 170.806C150.574 170.577 150.367 169.864 150.797 169.395C151.054 169.113 151.456 169.087 151.765 169.225C152.988 169.772 154.299 170.046 155.696 170.046C158.024 170.046 159.188 169.278 159.188 167.743C159.188 166.345 157.201 165.943 155.755 165.562C153.17 164.888 150.706 164.214 150.706 161.498C150.706 159.357 152.378 157.395 155.874 157.395C157.337 157.395 158.662 157.615 159.846 158.056C160.217 158.19 160.404 158.457 160.404 158.857C160.404 159.382 159.936 159.878 159.286 159.618C158.249 159.258 157.178 159.078 156.073 159.078C154.394 159.078 152.521 159.668 152.521 161.359C152.521 162.989 154.47 163.387 156.093 163.762C158.748 164.401 160.982 165.083 160.982 167.865C160.982 169.899 159.223 171.768 155.873 171.768C154.185 171.767 152.602 171.447 151.126 170.806Z" fill="white"/>
<path d="M268.425 0.000976562H265.059V24.914H268.425C269.578 24.914 270.514 23.9759 270.514 22.819V2.10018C270.514 0.943263 269.578 0.000976562 268.425 0.000976562Z" fill="url(#paint59_linear_161_810)"/>
<path d="M268.925 2.09711V22.818C268.925 23.9781 267.984 24.9151 266.834 24.9151H226.688C225.532 24.9151 224.598 23.9781 224.598 22.818V2.09711C224.598 0.944381 225.532 0 226.688 0H266.834C267.983 0 268.925 0.944381 268.925 2.09711Z" fill="url(#paint60_linear_161_810)"/>
<path d="M232.012 12.4571C232.012 8.90679 234.379 6.64844 237.658 6.64844C238.905 6.64844 239.996 6.89029 241.336 7.65145C241.751 7.87865 241.794 8.40214 241.513 8.69529C241.312 8.90679 240.973 8.92563 240.756 8.81674C239.643 8.23253 238.815 8.05559 237.804 8.05559C235.073 8.05559 233.48 9.83441 233.48 12.4561C233.48 15.0243 235.028 16.8576 237.804 16.8576C238.818 16.8576 239.645 16.6796 240.756 16.0975C240.97 15.9907 241.309 16.0053 241.513 16.2106C241.784 16.4807 241.768 17.0262 241.336 17.2628C240.004 18.0197 238.914 18.2658 237.658 18.2658C234.337 18.2658 232.012 15.9687 232.012 12.4571Z" fill="white"/>
<path d="M243.61 17.49C243.161 17.3015 242.999 16.7246 243.344 16.3488C243.551 16.1216 243.875 16.0996 244.126 16.2116C245.115 16.6534 246.175 16.8743 247.304 16.8743C249.186 16.8743 250.127 16.2545 250.127 15.0138C250.127 13.881 248.533 13.5606 247.353 13.2497C245.276 12.7094 243.272 12.1545 243.272 9.96529C243.272 8.20635 244.668 6.64844 247.45 6.64844C248.634 6.64844 249.703 6.82642 250.661 7.1824C251.187 7.3719 251.223 7.95717 250.935 8.29953C250.773 8.49218 250.524 8.57175 250.21 8.44506C249.372 8.154 248.505 8.00742 247.613 8.00742C246.252 8.00742 244.742 8.48694 244.742 9.85221C244.742 11.1547 246.314 11.4918 247.63 11.7944C249.763 12.3095 251.581 12.8445 251.581 15.1112C251.581 17.1832 249.597 18.2658 247.452 18.2658C246.083 18.2658 244.804 18.0072 243.61 17.49Z" fill="white"/>
<path d="M253.547 17.49C253.099 17.3015 252.937 16.7246 253.281 16.3488C253.489 16.1216 253.813 16.0996 254.063 16.2116C255.053 16.6534 256.112 16.8743 257.241 16.8743C259.123 16.8743 260.065 16.2545 260.065 15.0138C260.065 13.881 258.47 13.5606 257.29 13.2497C255.213 12.7094 253.209 12.1545 253.209 9.96529C253.209 8.20635 254.606 6.64844 257.388 6.64844C258.571 6.64844 259.64 6.82642 260.598 7.1824C261.124 7.3719 261.161 7.95717 260.873 8.29953C260.71 8.49218 260.462 8.57175 260.147 8.44506C259.309 8.154 258.443 8.00742 257.55 8.00742C256.189 8.00742 254.68 8.48694 254.68 9.85221C254.68 11.1547 256.252 11.4918 257.567 11.7944C259.701 12.3095 261.519 12.8445 261.519 15.1112C261.519 17.1832 259.535 18.2658 257.39 18.2658C256.021 18.2658 254.742 18.0072 253.547 17.49Z" fill="white"/>
<defs>
<linearGradient id="paint0_linear_161_810" x1="267.498" y1="322.561" x2="275.775" y2="322.561" gradientUnits="userSpaceOnUse">
<stop stop-color="#D1DEFF"/>
<stop offset="1" stop-color="#B2C7FF"/>
</linearGradient>
<linearGradient id="paint1_linear_161_810" x1="59.5741" y1="322.565" x2="67.8535" y2="322.565" gradientUnits="userSpaceOnUse">
<stop stop-color="#D1DEFF"/>
<stop offset="1" stop-color="#B2C7FF"/>
</linearGradient>
<linearGradient id="paint2_linear_161_810" x1="364.217" y1="120.573" x2="379.623" y2="120.573" gradientUnits="userSpaceOnUse">
<stop stop-color="#D1DEFF"/>
<stop offset="1" stop-color="#B2C7FF"/>
</linearGradient>
<linearGradient id="paint3_linear_161_810" x1="198.258" y1="40.3979" x2="375.756" y2="40.3979" gradientUnits="userSpaceOnUse">
<stop stop-color="#D1DEFF"/>
<stop offset="1" stop-color="#B2C7FF"/>
</linearGradient>
<linearGradient id="paint4_linear_161_810" x1="230.865" y1="75.1013" x2="231.51" y2="123.538" gradientUnits="userSpaceOnUse">
<stop stop-color="#D1DEFF"/>
<stop offset="1" stop-color="#B2C7FF"/>
</linearGradient>
<linearGradient id="paint5_linear_161_810" x1="215.455" y1="75.3065" x2="216.1" y2="123.744" gradientUnits="userSpaceOnUse">
<stop stop-color="#D1DEFF"/>
<stop offset="1" stop-color="#B2C7FF"/>
</linearGradient>
<linearGradient id="paint6_linear_161_810" x1="322.273" y1="73.8839" x2="322.918" y2="122.321" gradientUnits="userSpaceOnUse">
<stop stop-color="#D1DEFF"/>
<stop offset="1" stop-color="#B2C7FF"/>
</linearGradient>
<linearGradient id="paint7_linear_161_810" x1="240.227" y1="74.9761" x2="240.872" y2="123.413" gradientUnits="userSpaceOnUse">
<stop stop-color="#D1DEFF"/>
<stop offset="1" stop-color="#B2C7FF"/>
</linearGradient>
<linearGradient id="paint8_linear_161_810" x1="223.459" y1="75.1994" x2="224.104" y2="123.636" gradientUnits="userSpaceOnUse">
<stop stop-color="#D1DEFF"/>
<stop offset="1" stop-color="#B2C7FF"/>
</linearGradient>
<linearGradient id="paint9_linear_161_810" x1="344.287" y1="73.5913" x2="344.932" y2="122.028" gradientUnits="userSpaceOnUse">
<stop stop-color="#D1DEFF"/>
<stop offset="1" stop-color="#B2C7FF"/>
</linearGradient>
<linearGradient id="paint10_linear_161_810" x1="282.17" y1="74.4184" x2="282.815" y2="122.855" gradientUnits="userSpaceOnUse">
<stop stop-color="#D1DEFF"/>
<stop offset="1" stop-color="#B2C7FF"/>
</linearGradient>
<linearGradient id="paint11_linear_161_810" x1="227.08" y1="75.1518" x2="227.725" y2="123.589" gradientUnits="userSpaceOnUse">
<stop stop-color="#D1DEFF"/>
<stop offset="1" stop-color="#B2C7FF"/>
</linearGradient>
<linearGradient id="paint12_linear_161_810" x1="270.109" y1="74.5786" x2="270.754" y2="123.015" gradientUnits="userSpaceOnUse">
<stop stop-color="#D1DEFF"/>
<stop offset="1" stop-color="#B2C7FF"/>
</linearGradient>
<linearGradient id="paint13_linear_161_810" x1="342.585" y1="73.6143" x2="343.229" y2="122.051" gradientUnits="userSpaceOnUse">
<stop stop-color="#D1DEFF"/>
<stop offset="1" stop-color="#B2C7FF"/>
</linearGradient>
<linearGradient id="paint14_linear_161_810" x1="275.447" y1="74.5082" x2="276.092" y2="122.945" gradientUnits="userSpaceOnUse">
<stop stop-color="#D1DEFF"/>
<stop offset="1" stop-color="#B2C7FF"/>
</linearGradient>
<linearGradient id="paint15_linear_161_810" x1="224.569" y1="75.1853" x2="225.214" y2="123.622" gradientUnits="userSpaceOnUse">
<stop stop-color="#D1DEFF"/>
<stop offset="1" stop-color="#B2C7FF"/>
</linearGradient>
<linearGradient id="paint16_linear_161_810" x1="279.246" y1="74.457" x2="279.89" y2="122.894" gradientUnits="userSpaceOnUse">
<stop stop-color="#D1DEFF"/>
<stop offset="1" stop-color="#B2C7FF"/>
</linearGradient>
<linearGradient id="paint17_linear_161_810" x1="227.559" y1="75.1453" x2="228.204" y2="123.582" gradientUnits="userSpaceOnUse">
<stop stop-color="#D1DEFF"/>
<stop offset="1" stop-color="#B2C7FF"/>
</linearGradient>
<linearGradient id="paint18_linear_161_810" x1="233.355" y1="75.0682" x2="234" y2="123.505" gradientUnits="userSpaceOnUse">
<stop stop-color="#D1DEFF"/>
<stop offset="1" stop-color="#B2C7FF"/>
</linearGradient>
<linearGradient id="paint19_linear_161_810" x1="216.064" y1="75.2986" x2="216.709" y2="123.735" gradientUnits="userSpaceOnUse">
<stop stop-color="#D1DEFF"/>
<stop offset="1" stop-color="#B2C7FF"/>
</linearGradient>
<linearGradient id="paint20_linear_161_810" x1="296.397" y1="70.7268" x2="297.097" y2="123.289" gradientUnits="userSpaceOnUse">
<stop stop-color="#D1DEFF"/>
<stop offset="1" stop-color="#B2C7FF"/>
</linearGradient>
<linearGradient id="paint21_linear_161_810" x1="228.382" y1="75.1344" x2="229.027" y2="123.571" gradientUnits="userSpaceOnUse">
<stop stop-color="#D1DEFF"/>
<stop offset="1" stop-color="#B2C7FF"/>
</linearGradient>
<linearGradient id="paint22_linear_161_810" x1="277.583" y1="74.4799" x2="278.228" y2="122.916" gradientUnits="userSpaceOnUse">
<stop stop-color="#D1DEFF"/>
<stop offset="1" stop-color="#B2C7FF"/>
</linearGradient>
<linearGradient id="paint23_linear_161_810" x1="221.198" y1="75.2297" x2="221.842" y2="123.667" gradientUnits="userSpaceOnUse">
<stop stop-color="#D1DEFF"/>
<stop offset="1" stop-color="#B2C7FF"/>
</linearGradient>
<linearGradient id="paint24_linear_161_810" x1="278.845" y1="74.4628" x2="279.49" y2="122.899" gradientUnits="userSpaceOnUse">
<stop stop-color="#D1DEFF"/>
<stop offset="1" stop-color="#B2C7FF"/>
</linearGradient>
<linearGradient id="paint25_linear_161_810" x1="227.159" y1="75.1512" x2="227.804" y2="123.588" gradientUnits="userSpaceOnUse">
<stop stop-color="#D1DEFF"/>
<stop offset="1" stop-color="#B2C7FF"/>
</linearGradient>
<linearGradient id="paint26_linear_161_810" x1="332.011" y1="75.1512" x2="332.656" y2="123.588" gradientUnits="userSpaceOnUse">
<stop stop-color="#D1DEFF"/>
<stop offset="1" stop-color="#B2C7FF"/>
</linearGradient>
<linearGradient id="paint27_linear_161_810" x1="232.955" y1="75.0739" x2="233.6" y2="123.511" gradientUnits="userSpaceOnUse">
<stop stop-color="#D1DEFF"/>
<stop offset="1" stop-color="#B2C7FF"/>
</linearGradient>
<linearGradient id="paint28_linear_161_810" x1="215.664" y1="75.304" x2="216.309" y2="123.741" gradientUnits="userSpaceOnUse">
<stop stop-color="#D1DEFF"/>
<stop offset="1" stop-color="#B2C7FF"/>
</linearGradient>
<linearGradient id="paint29_linear_161_810" x1="333.309" y1="73.738" x2="333.954" y2="122.175" gradientUnits="userSpaceOnUse">
<stop stop-color="#D1DEFF"/>
<stop offset="1" stop-color="#B2C7FF"/>
</linearGradient>
<linearGradient id="paint30_linear_161_810" x1="274.575" y1="74.52" x2="275.22" y2="122.957" gradientUnits="userSpaceOnUse">
<stop stop-color="#D1DEFF"/>
<stop offset="1" stop-color="#B2C7FF"/>
</linearGradient>
<linearGradient id="paint31_linear_161_810" x1="330.188" y1="73.7796" x2="330.833" y2="122.216" gradientUnits="userSpaceOnUse">
<stop stop-color="#D1DEFF"/>
<stop offset="1" stop-color="#B2C7FF"/>
</linearGradient>
<linearGradient id="paint32_linear_161_810" x1="273.809" y1="74.5301" x2="274.454" y2="122.967" gradientUnits="userSpaceOnUse">
<stop stop-color="#D1DEFF"/>
<stop offset="1" stop-color="#B2C7FF"/>
</linearGradient>
<linearGradient id="paint33_linear_161_810" x1="278.885" y1="154.153" x2="279.414" y2="193.88" gradientUnits="userSpaceOnUse">
<stop stop-color="#D1DEFF"/>
<stop offset="1" stop-color="#B2C7FF"/>
</linearGradient>
<linearGradient id="paint34_linear_161_810" x1="245.527" y1="153.783" x2="246.066" y2="194.297" gradientUnits="userSpaceOnUse">
<stop stop-color="#EBF2FF"/>
<stop offset="1" stop-color="#E1E8FF"/>
</linearGradient>
<linearGradient id="paint35_linear_161_810" x1="246.721" y1="166.419" x2="267.722" y2="166.419" gradientUnits="userSpaceOnUse">
<stop stop-color="#D1DEFF"/>
<stop offset="1" stop-color="#B2C7FF"/>
</linearGradient>
<linearGradient id="paint36_linear_161_810" x1="247" y1="174.047" x2="275.894" y2="174.047" gradientUnits="userSpaceOnUse">
<stop stop-color="#D1DEFF"/>
<stop offset="1" stop-color="#B2C7FF"/>
</linearGradient>
<linearGradient id="paint37_linear_161_810" x1="247" y1="177.583" x2="275.894" y2="177.583" gradientUnits="userSpaceOnUse">
<stop stop-color="#D1DEFF"/>
<stop offset="1" stop-color="#B2C7FF"/>
</linearGradient>
<linearGradient id="paint38_linear_161_810" x1="247" y1="181.118" x2="275.894" y2="181.118" gradientUnits="userSpaceOnUse">
<stop stop-color="#D1DEFF"/>
<stop offset="1" stop-color="#B2C7FF"/>
</linearGradient>
<linearGradient id="paint39_linear_161_810" x1="247" y1="184.655" x2="275.894" y2="184.655" gradientUnits="userSpaceOnUse">
<stop stop-color="#D1DEFF"/>
<stop offset="1" stop-color="#B2C7FF"/>
</linearGradient>
<linearGradient id="paint40_linear_161_810" x1="247" y1="184.655" x2="275.894" y2="184.655" gradientUnits="userSpaceOnUse">
<stop stop-color="#D1DEFF"/>
<stop offset="1" stop-color="#B2C7FF"/>
</linearGradient>
<linearGradient id="paint41_linear_161_810" x1="247.001" y1="184.655" x2="275.895" y2="184.655" gradientUnits="userSpaceOnUse">
<stop stop-color="#D1DEFF"/>
<stop offset="1" stop-color="#B2C7FF"/>
</linearGradient>
<linearGradient id="paint42_linear_161_810" x1="356.588" y1="154.153" x2="357.117" y2="193.88" gradientUnits="userSpaceOnUse">
<stop stop-color="#D1DEFF"/>
<stop offset="1" stop-color="#B2C7FF"/>
</linearGradient>
<linearGradient id="paint43_linear_161_810" x1="323.23" y1="153.783" x2="323.769" y2="194.296" gradientUnits="userSpaceOnUse">
<stop stop-color="#EBF2FF"/>
<stop offset="1" stop-color="#E1E8FF"/>
</linearGradient>
<linearGradient id="paint44_linear_161_810" x1="304.697" y1="160.416" x2="308.583" y2="187.652" gradientUnits="userSpaceOnUse">
<stop stop-color="#909EFF"/>
<stop offset="1" stop-color="#6977E3"/>
</linearGradient>
<linearGradient id="paint45_linear_161_810" x1="324.424" y1="166.418" x2="345.425" y2="166.418" gradientUnits="userSpaceOnUse">
<stop stop-color="#D1DEFF"/>
<stop offset="1" stop-color="#B2C7FF"/>
</linearGradient>
<linearGradient id="paint46_linear_161_810" x1="324.703" y1="174.047" x2="353.597" y2="174.047" gradientUnits="userSpaceOnUse">
<stop stop-color="#D1DEFF"/>
<stop offset="1" stop-color="#B2C7FF"/>
</linearGradient>
<linearGradient id="paint47_linear_161_810" x1="324.703" y1="177.582" x2="353.597" y2="177.582" gradientUnits="userSpaceOnUse">
<stop stop-color="#D1DEFF"/>
<stop offset="1" stop-color="#B2C7FF"/>
</linearGradient>
<linearGradient id="paint48_linear_161_810" x1="324.703" y1="181.118" x2="353.597" y2="181.118" gradientUnits="userSpaceOnUse">
<stop stop-color="#D1DEFF"/>
<stop offset="1" stop-color="#B2C7FF"/>
</linearGradient>
<linearGradient id="paint49_linear_161_810" x1="324.703" y1="184.654" x2="353.597" y2="184.654" gradientUnits="userSpaceOnUse">
<stop stop-color="#D1DEFF"/>
<stop offset="1" stop-color="#B2C7FF"/>
</linearGradient>
<linearGradient id="paint50_linear_161_810" x1="324.703" y1="184.654" x2="353.597" y2="184.654" gradientUnits="userSpaceOnUse">
<stop stop-color="#D1DEFF"/>
<stop offset="1" stop-color="#B2C7FF"/>
</linearGradient>
<linearGradient id="paint51_linear_161_810" x1="324.704" y1="184.654" x2="353.598" y2="184.654" gradientUnits="userSpaceOnUse">
<stop stop-color="#D1DEFF"/>
<stop offset="1" stop-color="#B2C7FF"/>
</linearGradient>
<linearGradient id="paint52_linear_161_810" x1="108.932" y1="82.0024" x2="179.783" y2="82.0024" gradientUnits="userSpaceOnUse">
<stop stop-color="#909EFF"/>
<stop offset="0.8529" stop-color="#6F7DE7"/>
<stop offset="1" stop-color="#6977E3"/>
</linearGradient>
<linearGradient id="paint53_linear_161_810" x1="160.38" y1="74.712" x2="115.771" y2="91.7328" gradientUnits="userSpaceOnUse">
<stop stop-color="#909EFF"/>
<stop offset="1" stop-color="#6977E3"/>
</linearGradient>
<linearGradient id="paint54_linear_161_810" x1="376.15" y1="181.591" x2="447.001" y2="181.591" gradientUnits="userSpaceOnUse">
<stop stop-color="#909EFF"/>
<stop offset="0.8529" stop-color="#6F7DE7"/>
<stop offset="1" stop-color="#6977E3"/>
</linearGradient>
<linearGradient id="paint55_linear_161_810" x1="427.598" y1="174.3" x2="382.989" y2="191.321" gradientUnits="userSpaceOnUse">
<stop stop-color="#909EFF"/>
<stop offset="1" stop-color="#6977E3"/>
</linearGradient>
<linearGradient id="paint56_linear_161_810" x1="403.549" y1="73.6167" x2="406.687" y2="73.6167" gradientUnits="userSpaceOnUse">
<stop stop-color="#F34B6D"/>
<stop offset="1" stop-color="#E24067"/>
</linearGradient>
<linearGradient id="paint57_linear_161_810" x1="173.716" y1="164.58" x2="175.22" y2="164.58" gradientUnits="userSpaceOnUse">
<stop stop-color="#FADF68"/>
<stop offset="1" stop-color="#EAC250"/>
</linearGradient>
<linearGradient id="paint58_linear_161_810" x1="176.334" y1="158.431" x2="123.303" y2="170.659" gradientUnits="userSpaceOnUse">
<stop stop-color="#FADF68"/>
<stop offset="1" stop-color="#EAC250"/>
</linearGradient>
<linearGradient id="paint59_linear_161_810" x1="267.81" y1="12.457" x2="269.136" y2="12.457" gradientUnits="userSpaceOnUse">
<stop stop-color="#3DCFA4"/>
<stop offset="1" stop-color="#30BB93"/>
</linearGradient>
<linearGradient id="paint60_linear_161_810" x1="270.119" y1="7.03845" x2="223.389" y2="17.814" gradientUnits="userSpaceOnUse">
<stop stop-color="#3DCFA4"/>
<stop offset="1" stop-color="#30BB93"/>
</linearGradient>
</defs>
</svg>
