<svg width="221" height="189" viewBox="0 0 221 189" fill="none" xmlns="http://www.w3.org/2000/svg">
<path d="M192.621 0H178.257L171.418 167.102H182.583C192.517 167.102 201.053 159.052 201.65 149.123L209.528 17.9789C210.124 8.04944 202.555 0 192.621 0Z" fill="#13213E"/>
<path d="M204.71 17.9789L196.832 149.123C196.235 159.052 187.699 167.102 177.765 167.102H122.309C112.375 167.102 104.806 159.052 105.402 149.123L113.28 17.9789C113.877 8.04944 122.414 0 132.347 0H187.803C197.737 0 205.306 8.04944 204.71 17.9789Z" fill="#463D5B"/>
<path d="M123.571 161.487C119.834 161.487 116.4 160.027 113.903 157.376C111.4 154.72 110.146 151.196 110.37 147.453L118.061 19.4191C118.519 11.8075 125.088 5.61517 132.704 5.61517H186.544C190.281 5.61517 193.714 7.07439 196.21 9.72441C198.713 12.3802 199.967 15.9037 199.742 19.6456L192.05 147.686C191.593 155.296 185.026 161.487 177.411 161.487L123.571 161.487Z" fill="white"/>
<path d="M168.762 12.3707H149.628C147.224 12.3707 145.106 11.2896 144.148 9.57439L141.709 5.20569H177.756L174.662 9.57439C173.447 11.2897 171.166 12.3707 168.762 12.3707Z" fill="#463D5B"/>
<path d="M96.791 56.9857C96.7919 59.9343 88.5042 77.3348 80.1581 81.1927C79.4071 81.5391 78.6593 81.7827 77.9267 81.9068C69.1787 83.3781 60.3422 75.4571 55.8348 70.5842C53.9087 68.5038 52.7727 66.9771 52.7727 66.9771L50.5963 49.5169C52.2806 49.0088 58.6751 51.0949 60.5075 52.4799C66.3604 56.9003 73.9234 63.5242 75.7944 63.8845C76.2075 63.9629 77.1633 62.5633 78.3335 60.6158C78.5664 60.2271 78.8081 59.8189 79.0559 59.3945C79.0583 59.3911 79.0607 59.3877 79.0632 59.3842C79.1994 59.1475 79.3408 58.9067 79.4789 58.6636C81.5017 55.172 83.0218 50.4897 84.2657 49.4873C87.4175 46.9443 96.7885 51.6384 96.791 56.9857Z" fill="#FFEB8E"/>
<path d="M80.1582 81.1927C79.4072 81.5391 78.6593 81.7828 77.9268 81.9068C69.1787 83.3781 60.3423 75.4572 55.8349 70.5842C55.4822 68.6725 55.37 66.7101 55.1958 64.7706C54.9683 62.2127 54.6255 59.6657 54.1749 57.1373L56.112 55.9398C56.7026 55.8975 57.6307 53.4622 58.0152 53.9121C59.0044 55.0768 59.9621 57.1427 60.3504 58.6188C61.709 63.8182 60.6702 71.4279 64.4104 75.2897C67.9646 78.9617 75.0489 81.0754 80.1582 81.1927Z" fill="#FFCB68"/>
<path d="M78.3336 60.6157C77.1931 63.0805 76.4624 67.2668 76.4317 67.5574C76.399 67.9054 75.7945 63.8844 75.7945 63.8844C76.2076 63.963 77.1635 62.5632 78.3336 60.6157Z" fill="#FB9543"/>
<path d="M96.1475 55.9967C96.2544 56.9998 95.4713 57.4932 94.2814 57.5941C93.9572 57.6215 93.5991 57.6197 93.2234 57.5891C90.792 57.4009 87.5174 56.072 86.1498 54.2466C86.129 54.2182 86.0805 54.1596 86.0132 54.085C85.8104 53.8551 85.4634 53.4748 85.4075 53.3919C84.3023 51.7349 84.5154 50.6253 85.1188 49.9971C85.5001 49.5989 86.04 49.3969 86.4981 49.3685C86.7133 49.3568 86.9503 49.3604 87.202 49.3934C89.4527 49.6449 93.6318 51.9345 95.3304 54.159C95.5198 54.404 95.6767 54.645 95.7977 54.8826C95.9864 55.2521 96.1084 55.6236 96.1475 55.9967Z" fill="#FB9543"/>
<path d="M100.389 48.6338C100.389 48.6338 100.069 49.6658 96.0044 53.9791C94.8181 55.2378 93.6338 56.9177 93.2233 57.5891C90.7919 57.4008 87.5173 56.072 86.1497 54.2465C86.1289 54.2182 86.0804 54.1595 86.0131 54.085L85.1186 49.997L84.4091 46.755C84.2853 46.2433 84.396 45.7036 84.713 45.2848L86.6131 42.778C87.1275 42.0982 88.0528 41.8899 88.8077 42.2827L89.5884 42.5847L90.8413 40.7298L100.389 48.6338Z" fill="#FFCAAC"/>
<path d="M89.5885 42.5847L93.5608 34.8306C94.0154 34.0269 95.0546 33.7739 95.828 34.2787C96.5056 34.721 96.7461 35.5994 96.3882 36.3249L92.8551 43.9171L89.5885 42.5847Z" fill="#FFCAAC"/>
<path d="M89.2181 48.8615C89.3027 48.8615 89.3847 48.8165 89.4285 48.7372C90.1 47.5172 89.7242 46.5841 89.2929 46.0173L90.0597 46.1913C90.8409 46.3696 91.635 45.9912 91.9903 45.273C92.205 44.8389 92.2273 44.3314 92.0516 43.8806C91.8759 43.4297 91.516 43.0708 91.0641 42.8966L88.8932 42.0584C88.7697 42.0097 88.6308 42.0722 88.583 42.1956C88.5354 42.3193 88.5968 42.4582 88.7204 42.5056L90.8913 43.3437C91.2223 43.4718 91.4756 43.7241 91.6044 44.0547C91.7333 44.3852 91.7175 44.742 91.5602 45.0603C91.3035 45.5787 90.7298 45.8525 90.1659 45.7235L88.57 45.3616C88.4561 45.3354 88.3404 45.396 88.2954 45.5033C88.2506 45.6111 88.2896 45.7354 88.3881 45.7978C88.4513 45.8385 89.9361 46.8199 89.008 48.5062C88.9441 48.622 88.9864 48.7679 89.1026 48.8319C89.1391 48.8517 89.1789 48.8615 89.2181 48.8615Z" fill="#FEABA5"/>
<path d="M95.4282 42.2161C96.131 42.7346 96.2898 43.7199 95.7854 44.4327L94.9422 45.6244C94.3716 46.3491 93.3042 46.4383 92.6187 45.8196C92.3423 45.5707 92.1716 45.249 92.1119 44.905C92.042 44.502 92.1271 44.0722 92.3809 43.7122L93.1566 42.5932C93.672 41.8497 94.7 41.6791 95.4282 42.2161Z" fill="#FFCAAC"/>
<path d="M93.6913 46.4709C93.7427 46.4709 93.7941 46.4687 93.8457 46.4643C94.3572 46.4209 94.8137 46.1752 95.1306 45.7726C95.2126 45.6687 95.1947 45.5179 95.0904 45.4357C94.9859 45.3546 94.8355 45.3717 94.7534 45.476C94.5194 45.7733 94.1826 45.9544 93.8049 45.9866C93.4235 46.0197 93.0615 45.8963 92.7793 45.6415C92.5495 45.4344 92.4003 45.1656 92.348 44.8639C92.2863 44.5073 92.3675 44.1473 92.5768 43.85L93.3537 42.7298C93.4293 42.6208 93.4021 42.4713 93.2932 42.396C93.184 42.3205 93.0347 42.3473 92.9594 42.4563L92.1835 43.5751C91.9014 43.9757 91.7916 44.4629 91.8753 44.9456C91.9461 45.3544 92.1476 45.7179 92.458 45.9976C92.796 46.3027 93.2384 46.4709 93.6913 46.4709Z" fill="#FEABA5"/>
<path d="M98.0359 43.8842C98.7387 44.4027 98.8975 45.388 98.3931 46.1008L97.5498 47.2925C96.9792 48.0172 95.9118 48.1064 95.2263 47.4876C94.95 47.2386 94.7792 46.9169 94.7195 46.5729C94.6496 46.17 94.7347 45.7402 94.9885 45.3801L95.7642 44.2611C96.2797 43.5177 97.3078 43.3471 98.0359 43.8842Z" fill="#FFCAAC"/>
<path d="M96.299 48.1391C96.3504 48.1391 96.4018 48.1368 96.4533 48.1325C96.9649 48.089 97.4214 47.8433 97.7383 47.4408C97.8203 47.3368 97.8024 47.186 97.6982 47.1039C97.5938 47.0224 97.4433 47.0395 97.3612 47.1442C97.1273 47.4415 96.7904 47.6226 96.4128 47.6547C96.0322 47.6872 95.6695 47.5642 95.3871 47.3096C95.1573 47.1027 95.0082 46.8337 94.9559 46.5321C94.8941 46.1755 94.9753 45.8155 95.1849 45.5182L95.9615 44.3978C96.0371 44.2891 96.0099 44.1395 95.901 44.0643C95.7918 43.9888 95.6425 44.016 95.5672 44.1249L94.7914 45.2437C94.5091 45.644 94.3994 46.1311 94.4832 46.6139C94.554 47.0227 94.7555 47.3865 95.0657 47.6659C95.4037 47.9707 95.8463 48.1391 96.299 48.1391Z" fill="#FEABA5"/>
<path d="M100.644 45.5523C101.347 46.0708 101.505 47.056 101.001 47.7689L100.158 48.9606C99.5871 49.6853 98.5197 49.7745 97.8342 49.1557C97.5579 48.9068 97.3871 48.5851 97.3274 48.2411C97.2575 47.8381 97.3426 47.4083 97.5964 47.0483L98.3721 45.9292C98.8875 45.1859 99.9155 45.0153 100.644 45.5523Z" fill="#FFCAAC"/>
<path d="M98.9067 49.8073C98.9581 49.8073 99.0095 49.8051 99.061 49.8007C99.5726 49.7573 100.029 49.5116 100.346 49.1091C100.428 49.0051 100.41 48.8543 100.306 48.7725C100.202 48.6901 100.051 48.7079 99.9689 48.8124C99.7349 49.1094 99.398 49.2908 99.0202 49.323C98.6404 49.3533 98.2772 49.2328 97.9948 48.9779C97.7652 48.7708 97.6159 48.5019 97.5636 48.2004C97.5018 47.8437 97.583 47.4837 97.7924 47.1864L98.569 46.066C98.6446 45.9573 98.6174 45.8078 98.5086 45.7326C98.3994 45.6573 98.2501 45.6842 98.1747 45.7931L97.399 46.9119C97.1167 47.3122 97.0069 47.7994 97.0908 48.2822C97.1616 48.6906 97.363 49.0544 97.6731 49.3339C98.0114 49.639 98.4539 49.8073 98.9067 49.8073Z" fill="#FEABA5"/>
<path d="M23.3626 187.152C29.3141 187.818 40.7133 188.75 50.1281 187.488C51.1303 187.353 51.8254 186.665 52.0854 185.84C52.3545 184.995 52.1667 184.01 51.3902 183.326C47.8908 180.243 42.1651 176.179 36.6595 176.605C36.0763 176.65 35.5093 176.711 34.9622 176.785C28.3715 177.691 24.2528 180.671 21.9 183.117C20.5258 184.548 21.3907 186.93 23.3626 187.152Z" fill="#F6F6FF"/>
<path d="M23.3626 187.152C29.3141 187.818 40.7133 188.75 50.1281 187.488C50.8936 187.385 51.4799 186.959 51.83 186.396C51.9761 186.162 51.7839 185.86 51.5079 185.877C46.6063 186.193 41.7017 186.51 36.8004 186.826C34.2634 186.99 31.7264 187.154 29.1841 187.243C27.485 187.302 25.5131 187.205 24.4893 185.847C23.628 184.703 23.8267 182.994 24.6843 181.846C25.542 180.698 26.9179 180.041 28.3119 179.705C29.7041 179.37 31.1487 179.314 32.5679 179.117C33.218 179.027 33.8879 178.899 34.4205 178.514C34.8944 178.172 35.2488 177.568 35.1043 177.063C35.057 176.898 34.8879 176.795 34.7178 176.82C28.2695 177.765 24.2236 180.701 21.8999 183.117C20.5258 184.548 21.3907 186.93 23.3626 187.152Z" fill="#E5DEFF"/>
<path d="M81.7594 72.0002C79.5464 73.8946 76.9999 75.3999 74.2738 76.4296C75.5574 75.4496 76.8511 74.4629 77.9141 73.2472C78.1169 73.0165 78.3104 72.7751 78.4911 72.525C78.6608 72.6324 78.8272 72.7011 78.9843 72.7325C79.7596 72.8819 80.7021 72.5763 81.7544 71.9699C81.7581 71.9794 81.7584 71.9913 81.7594 72.0002Z" fill="#9952D6"/>
<path d="M86.3827 161.139C86.3827 161.139 86.5447 165.846 79.4518 167.632C72.3589 169.418 70.3293 167.418 70.3293 167.418L72.1487 159.334L74.5475 150.635L81.9737 158.284L86.3827 161.139Z" fill="#463D5B"/>
<path d="M71.4216 160.19L74.7464 168.233L78.6875 177.77L85.8589 175.795L81.8721 163.407L77.6642 150.775L71.4216 160.19Z" fill="#FFCAAC"/>
<path d="M71.4216 160.19L74.7464 168.233C74.9295 167.746 75.0819 167.239 75.2985 166.764C76.0031 165.209 77.4094 163.989 79.0474 163.517C79.9626 163.252 80.9387 163.221 81.8721 163.407L77.6643 150.775L71.4216 160.19Z" fill="#FEABA5"/>
<path d="M100.878 175.93L82.276 181.349L77.6627 182.694L75.7185 175.651C75.5039 174.874 75.969 174.068 76.7536 173.869L83.0667 172.257C83.0667 172.257 82.7789 170.935 82.9765 170.559C83.4329 169.704 85.468 169.063 86.8479 170.831C88.2307 172.601 95.8124 172.562 95.8124 172.562C95.8124 172.562 96.8307 172.271 98.8523 172.159C99.7385 172.111 100.236 172.823 100.515 173.645C100.877 174.701 100.878 175.93 100.878 175.93Z" fill="#50456E"/>
<path d="M40.2749 153.399L45.4666 160.711L53.1596 152.073L58.4031 146.182L53.4463 140.063L53.4005 140.005L53.3761 140.033L43.9994 149.6L40.2749 153.399Z" fill="#FFCAAC"/>
<path d="M43.9994 149.6C44.637 149.835 45.3538 149.881 46.0401 149.847C46.9765 149.805 47.91 149.634 48.8464 149.692C50.219 149.774 51.5551 150.372 52.5343 151.338C52.7631 151.564 52.9735 151.811 53.1596 152.073L58.4031 146.183L53.4463 140.063C53.4249 140.051 53.4006 140.042 53.3762 140.033L43.9994 149.6Z" fill="#FEABA5"/>
<path d="M51.1541 172.359L39.3884 159.266L36.2169 155.594L41.3433 151.342C41.9677 150.819 42.9031 150.908 43.4152 151.545L47.5453 156.665C47.5453 156.665 48.6398 155.846 49.0681 155.87C50.0457 155.93 51.4886 157.529 50.4426 159.538C49.3963 161.551 50.3492 165.306 50.3492 165.306C50.3492 165.306 52.2886 167.596 53.2398 169.405C53.6554 170.199 53.2103 170.954 52.5722 171.556C51.7535 172.33 51.1541 172.359 51.1541 172.359Z" fill="#50456E"/>
<path d="M100.516 173.645C99.1704 173.817 96.5709 174.073 94.6325 173.773C91.8998 173.349 87.1591 171.652 84.4244 173.277C81.9039 174.777 80.8515 178.247 82.276 181.349L77.6626 182.694L75.7184 175.651C75.5038 174.874 75.9689 174.068 76.7535 173.869L83.0666 172.257C83.0666 172.257 82.7788 170.935 82.9765 170.559C83.4328 169.704 85.468 169.063 86.8478 170.831C88.2306 172.601 95.8124 172.562 95.8124 172.562C95.8124 172.562 96.8307 172.271 98.8523 172.159C99.7386 172.111 100.236 172.823 100.516 173.645Z" fill="#3E3968"/>
<path d="M39.6863 90.1402L41.369 95.1414L42.076 97.2359L42.5302 98.5757L54.6932 114.206L67.3265 116.521L71.4694 117.282L57.0063 131.374L47.0923 141.034C47.0923 141.034 53.5353 152.3 56.7728 153.013C57.0383 153.07 59.5784 151.123 63.2542 148.13C68.9038 143.528 77.2375 136.455 84.1347 130.389C90.0083 125.222 94.8389 120.78 96.0802 119.213C97.8365 116.994 98.7418 114.289 98.7418 111.558C98.7418 109.863 98.3931 108.153 97.6797 106.547C96.1441 103.1 93.1146 100.542 89.458 99.6086L57.3838 94.5594L56.312 93.6225L56.0177 93.3667L52.6395 90.4184L52.1021 89.9515L39.6863 90.1402Z" fill="#83609F"/>
<path d="M57.0062 131.374C59.0856 136.961 61.1715 142.544 63.2541 148.13C68.9036 143.528 77.2374 136.455 84.1346 130.389C83.9427 129.894 83.7507 129.398 83.5588 128.902C81.4122 123.348 79.2656 117.794 77.1221 112.24C76.9814 111.875 76.671 110.471 76.3128 110.315C75.9289 110.142 75.1707 110.66 74.822 110.829C73.7343 111.354 72.7106 112 71.7348 112.71C70.1608 113.854 68.7245 115.172 67.3264 116.521L71.4693 117.282L57.0062 131.374Z" fill="#463D5B"/>
<path d="M49.2287 95.415C49.2287 95.415 71.9085 101.722 76.6679 108.238C76.8675 108.512 76.5866 134.424 76.5866 134.424L75.5052 135.625L72.8158 113.306L47.4034 95.5685L49.2287 95.415Z" fill="#463D5B"/>
<path d="M76.2527 109.612C77.674 107.455 77.8242 104.524 76.6307 102.233C77.3204 104.664 76.8311 107.4 75.3417 109.441L76.2527 109.612Z" fill="#463D5B"/>
<path d="M33.8265 136.551V178.375C33.8265 178.566 33.9812 178.721 34.172 178.721H39.2591C39.4499 178.721 39.6046 178.566 39.6046 178.375V136.551H33.8265Z" fill="#F6F6FF"/>
<path d="M33.8265 136.551V178.375C33.8265 178.566 33.9812 178.721 34.172 178.721C34.3618 178.721 34.516 178.565 34.5175 178.376C34.6024 167.388 34.6873 157.667 34.7722 146.543C34.7835 145.192 34.8399 143.711 35.7337 142.696C36.5439 141.776 37.8869 141.474 39.1035 141.625C39.2727 141.645 39.4398 141.674 39.6046 141.71V136.551H33.8265Z" fill="#E5DEFF"/>
<path d="M18.7696 123.335C19.2052 132.867 27.0734 140.461 36.7156 140.461C36.9323 140.461 37.1512 140.456 37.3657 140.447C44.419 140.199 50.4342 135.885 53.1427 129.781C53.8649 128.158 54.3525 126.41 54.5624 124.578C54.6098 124.167 54.6437 123.755 54.6617 123.335L18.7696 123.335Z" fill="#F6F6FF"/>
<path d="M18.7696 123.335C19.2053 132.867 27.0735 140.461 36.7156 140.461C36.9323 140.461 37.1513 140.456 37.3657 140.447C32.3987 139.695 31.5645 139.331 28.6709 138.047C27.4318 137.497 25.9088 136.129 25.0556 135.075C24.2047 134.02 23.882 132.418 24.6538 131.303C25.5318 130.035 27.3217 129.905 28.8632 129.898C36.9571 129.859 45.051 129.819 53.1426 129.781C53.8649 128.158 54.3525 126.41 54.5623 124.578C53.8242 124.097 53.023 123.698 52.2127 123.335L18.7696 123.335Z" fill="#E5DEFF"/>
<path d="M13.4948 125.185C13.4948 126.936 14.9145 128.355 16.666 128.355H58.8238C60.5753 128.355 61.995 126.936 61.995 125.185C61.995 122.527 60.9229 120.122 59.1872 118.376C59.1781 118.367 59.1714 118.36 59.1623 118.351C57.4131 116.601 54.9958 115.52 52.3234 115.52H23.1665C17.8239 115.52 13.4948 119.847 13.4948 125.185Z" fill="#00A558"/>
<path d="M13.4948 125.185C13.4948 126.936 14.9145 128.355 16.666 128.355H18.9298C17.7742 127.653 16.8578 126.703 16.6795 125.399C16.4877 123.998 17.2866 122.604 18.3926 121.722C19.4986 120.84 20.8754 120.377 22.2297 119.969C34.1606 116.386 46.9921 115.838 59.187 118.376C59.178 118.367 59.1712 118.36 59.1622 118.351C57.4129 116.601 54.9957 115.52 52.3233 115.52H23.1663C17.8238 115.52 13.4948 119.847 13.4948 125.185Z" fill="#00CA6C"/>
<path d="M20.4906 110.765C21.7476 114.941 28.1834 115.437 28.1834 115.437L30.514 115.742L35.8659 116.441L55.2311 118.173L70.3293 167.418C70.3293 167.418 77.6932 158.835 86.3827 161.14L76.4653 112.185C75.6582 108.506 73.3044 105.351 70.0064 103.528L49.2288 95.415L47.6793 94.5593L39.6864 90.1406L21.7606 89.6546C21.7606 89.6546 18.7963 105.139 20.4906 110.765Z" fill="#83609F"/>
<path d="M20.4905 110.765C21.7476 114.941 28.1833 115.437 28.1833 115.437L30.5139 115.742C24.9447 112.301 21.7864 105.287 22.9789 98.8409C23.1807 97.7498 23.5222 96.6328 24.3058 95.8494C25.8242 94.3344 28.2997 94.6187 30.4286 94.8747C33.587 95.2573 36.7737 95.3349 39.9476 95.2107C40.4209 95.1927 40.8969 95.1693 41.3703 95.1409C43.4785 95.0194 45.5814 94.8151 47.6792 94.5591C47.9069 94.5307 48.1371 94.5023 48.3647 94.4737C49.7822 94.2928 56.0018 95.0245 57.0882 94.7323L52.638 90.4197L52.1026 89.9517L39.6864 90.1404L21.7607 89.6544C21.7607 89.6544 18.7962 105.139 20.4905 110.765Z" fill="#704D91"/>
<path d="M71.3772 165.803L71.9749 165.575C70.1609 160.826 61.6187 130.809 58.8119 120.945C58.394 119.477 58.1207 118.517 58.0399 118.239C57.5452 116.538 57.4564 115.684 57.9438 114.275L58.083 113.873L57.6583 113.851C56.7448 113.805 55.8027 113.867 54.8915 113.926C54.6665 113.941 54.4421 113.956 54.2189 113.97L55.2394 111.224L54.7433 111.26C51.083 111.522 29.1282 111.647 26.7869 109.373C23.4697 106.151 23.7076 100.108 23.9175 94.7763C23.9872 93.0076 24.0529 91.3373 23.9974 89.8072L23.3578 89.8304C23.4127 91.3365 23.3474 92.9952 23.2782 94.7515C23.0631 100.216 22.819 106.411 26.3411 109.831C28.8988 112.316 49.9544 112.125 54.2962 111.926L53.2814 114.655L53.7638 114.634C54.1504 114.617 54.5413 114.591 54.9337 114.565C55.686 114.515 56.4588 114.463 57.2085 114.476C56.8125 115.842 56.958 116.811 57.4253 118.418C57.5061 118.695 57.779 119.654 58.1964 121.121C61.0051 130.991 69.553 161.027 71.3772 165.803Z" fill="#463D5B"/>
<path d="M60.1495 71.8573C59.7133 82.7361 57.575 93.2246 57.575 93.2246C57.575 93.2246 56.6508 93.2062 54.7839 93.1636C52.4443 93.1057 48.6374 93.0081 43.3359 92.8465C41.3928 92.7855 39.2454 92.7184 36.8966 92.6422C34.8864 92.5751 33.0409 92.6147 31.3694 92.7154C24.4024 93.1514 20.4705 94.7338 20.4705 94.7338C20.4705 94.7338 20.7481 92.5385 20.3912 90.447C20.1868 89.2547 20.0404 87.4132 19.9398 85.1692C19.7232 80.303 19.7385 73.5343 19.9063 67.3815C19.9611 65.3448 20.0344 63.3751 20.1259 61.5641C20.379 56.2742 20.7573 52.3318 21.1966 52.0025C25.1712 49.0054 40.6334 47.8193 40.6334 47.8193C40.6334 47.8193 56.2237 49.2675 58.0265 53.4446C60.0274 58.0852 60.421 65.046 60.1495 71.8573Z" fill="#FFEB8E"/>
<path d="M43.3359 92.8466C41.3927 92.7855 39.2454 92.7185 36.8965 92.6423C34.8863 92.5752 33.0409 92.6148 31.3693 92.7155C24.4023 93.1515 20.4704 94.7339 20.4704 94.7339C20.4704 94.7339 20.748 92.5386 20.3911 90.4471C20.1868 89.2548 20.0404 87.4133 19.9397 85.1693C19.7231 80.3031 19.7385 73.5344 19.9062 67.3816C19.9611 65.3449 20.0343 63.3753 20.1258 61.5642C20.2722 61.1648 20.4217 60.7653 20.5712 60.3659C21.288 58.4481 22.2947 56.2621 24.2926 55.8169L24.8142 54.1613C28.1055 60.6068 27.8634 67.1629 24.2578 73.4407C23.8613 74.1328 23.4659 76.3547 23.2585 77.1261C23.0511 77.8975 23.1182 78.7938 23.649 79.3884C24.256 80.0623 25.2656 80.1689 26.1715 80.1415C28.4165 80.0745 30.6403 79.4738 32.8853 79.6201C35.716 79.803 38.4217 81.2208 40.2976 83.349C42.1736 85.4802 43.229 88.2822 43.3724 91.1178C43.403 91.694 43.3908 92.2703 43.3359 92.8466Z" fill="#FFCB68"/>
<path d="M37.284 99.0421C34.0994 100.765 30.4238 98.3165 30.4238 98.3165C30.4238 98.3165 9.97925 102.75 4.28487 99.0696C0.524078 96.6392 -0.537224 91.7519 0.237625 86.7973C0.237625 86.7943 0.240646 86.7913 0.237625 86.7883C0.435844 85.5412 8.9625 60.7601 13.5593 56.8939C19.782 51.6558 23.4904 50.8378 23.4904 50.8378C23.4904 50.8378 26.8336 57.5455 26.6749 60.3842C26.3546 66.1467 18.7867 81.6295 17.9997 83.2515C17.957 83.3369 17.9357 83.3856 17.9325 83.3887C17.9295 83.3917 17.9295 83.3949 17.9295 83.3949C17.9295 83.3949 19.2107 83.0351 21.1476 82.6022C26.1227 81.4832 35.4294 79.8642 38.4888 82.5534C42.7411 86.2912 40.4747 97.3133 37.284 99.0421Z" fill="#FFEB8E"/>
<path d="M27.1033 50.23C27.1033 50.23 27.1343 50.2274 27.1963 50.2171C27.3748 50.1964 27.8042 50.1421 28.3914 50.0542C29.8063 49.8448 32.1395 49.4389 34.1158 48.8209C37.1913 47.8617 39.5789 50.5945 39.5789 50.5945C39.5789 50.5945 45.9007 49.7672 49.1678 50.5945C52.4348 51.4244 54.6801 55.4683 55.0215 50.5945C55.363 45.7183 50.8906 38.6986 44.9723 36.7905C39.6462 35.0763 32.8794 35.8234 30.2435 37.9695C27.6957 40.0432 28.9838 43.6239 29.0692 43.8568L29.0718 43.8645C28.9762 43.8309 26.7592 43.0682 25.8565 45.6227C25.1969 47.4791 27.1033 50.23 27.1033 50.23Z" fill="#FFEB8E"/>
<path d="M34.5971 50.1693C34.8747 50.3218 35.1675 50.4742 35.4694 50.6267C38.8064 52.2945 43.495 53.8099 46.0145 53.7823C46.9205 53.7731 47.805 53.5963 48.6104 53.3219C49.2083 53.1176 49.7604 52.8615 50.2453 52.581C51.2641 51.9865 51.9658 51.2882 52.0969 50.7456C52.0969 50.7456 51.9902 47.1692 50.0226 43.9311C49.6048 43.239 49.0984 42.5621 48.4883 41.9402C48.0491 41.486 47.5488 41.059 46.9875 40.6749C43.9768 38.6168 41.0943 37.754 38.596 38.0771C37.4674 38.2204 36.4181 38.6076 35.4694 39.2357C35.0943 39.4796 34.7374 39.7631 34.3957 40.0833C31.2508 43.056 34.5971 50.1693 34.5971 50.1693Z" fill="#FB9543"/>
<path d="M27.1034 50.2301C27.1034 50.2301 27.1344 50.2274 27.1964 50.2171C27.3749 50.1964 27.8043 50.1421 28.3915 50.0543C26.7877 48.9399 25.9677 47.6367 26.8524 45.9407C28.1276 43.4922 30.8152 46.1295 30.9317 46.2458L29.0719 43.8646C28.9763 43.831 26.7593 43.0682 25.8566 45.6228C25.197 47.4791 27.1034 50.2301 27.1034 50.2301Z" fill="#FB9543"/>
<path d="M75.5158 109.227C78.501 107.942 80.6526 107.909 84.645 110.672C82.6237 110.423 81.2079 109.676 79.1866 109.427C78.4083 109.331 76.313 109.531 75.8462 110.161L75.5158 109.227Z" fill="#463D5B"/>
<path d="M35.4694 36.6043V50.6265C38.8064 52.2943 43.4949 53.8097 46.0145 53.7822C46.0725 53.7822 46.1273 53.7791 46.1852 53.776C47.0302 53.7516 47.8569 53.5779 48.6102 53.3218L48.4882 41.9399L48.4729 40.5801L48.4515 38.5404L35.4694 36.6043Z" fill="#FFCAAC"/>
<path d="M40.3103 40.9553C40.4721 40.7968 40.6947 40.7206 40.8594 40.5741C41.0302 40.4187 41.1125 40.2114 41.2712 40.0559C41.5732 39.7571 41.9575 39.6899 42.3694 39.6655C44.3826 39.5557 46.405 39.9156 48.3267 40.5315C48.3755 40.5467 48.4242 40.5619 48.4731 40.5803L48.4883 41.9401L48.5721 49.7474C48.5721 49.7474 45.0486 49.5242 45.0079 47.663C44.9975 47.1878 45.9536 47.532 46.405 47.3917C46.6032 47.3277 46.8076 47.2515 46.9449 47.099C47.2774 46.724 47.0364 46.0867 46.6124 45.8184C46.1854 45.5531 45.6576 45.5349 45.1573 45.4739C43.3667 45.2544 41.686 44.3061 40.533 42.9249C40.0206 42.3121 39.6515 41.6048 40.3103 40.9553Z" fill="#FEABA5"/>
<path d="M31.3272 36.2609C29.5281 38.0509 33.4188 43.25 35.7049 43.434L35.6615 39.8347C35.6615 39.8347 33.9756 37.0709 33.9616 36.8628C33.9616 36.8628 32.3801 36.6995 31.3272 36.2609Z" fill="#13213E"/>
<path d="M33.7186 38.1781C33.7186 38.1781 34.9517 39.6086 36.9055 41.1392C39.5361 43.1952 44.5385 45.5258 48.5179 44.6967C55.0017 43.35 54.0809 34.4181 52.1975 28.0561C51.4001 25.3627 48.8617 19.3953 48.8617 19.3953L42.5119 20.5787L37.2059 21.2147L33.6925 25.2465L33.6313 33.6049L33.7186 38.1781Z" fill="#FFCAAC"/>
<path d="M27.2463 31.1101C27.9239 33.1038 29.7996 33.9499 29.8755 33.916C29.8786 33.9133 29.8786 33.9133 29.8786 33.9133C30.6098 31.9057 33.6314 33.6047 33.6314 33.6047C33.6314 33.6047 33.8077 35.4107 34.5502 34.8124C35.2959 34.2113 34.9334 30.2652 34.9334 30.2652C34.9334 30.2652 35.9962 27.5796 35.0833 26.0328C35.2239 26.1004 38.3372 28.7601 40.5045 27.537C42.3561 26.4922 41.1504 24.1267 41.1504 24.1267C41.1504 24.1267 44.4536 26.0431 46.1571 25.2846C47.8149 24.5502 48.3632 22.8519 48.3331 22.7643C48.4025 22.8366 51.7371 26.5688 54.9447 22.5792C57.9849 18.7979 50.5249 13.7012 46.8101 13.6281C43.0954 13.5551 43.0849 15.8832 43.0849 15.8832C43.0849 15.8832 37.2061 13.4667 34.6058 14.7844C32.0056 16.0992 32.1642 18.536 32.1642 18.536C32.1642 18.536 28.0592 18.8081 27.3681 21.5622C26.6771 24.3163 27.997 24.8575 27.997 24.8575C27.997 24.8575 26.0549 27.6037 27.2463 31.1101Z" fill="#13213E"/>
<path d="M47.1531 35.3016C47.5056 35.3016 47.8049 35.221 48.0444 35.0617C48.3698 34.8456 48.5686 34.4733 48.5765 34.0659C48.5885 33.4339 48.1765 32.8193 47.8287 32.4149C47.6802 32.2422 47.5222 32.0785 47.3644 31.9152C47.1112 31.6532 46.8721 31.4059 46.6679 31.1192C46.6166 31.0471 46.5172 31.0299 46.4448 31.0817C46.3728 31.133 46.3561 31.2328 46.4073 31.3047C46.6253 31.6107 46.8841 31.8787 47.1343 32.1375C47.2879 32.2965 47.4415 32.4554 47.5862 32.6234C48.0264 33.1352 48.2646 33.6452 48.2567 34.0596C48.2509 34.3622 48.1053 34.6373 47.8672 34.7956C47.6551 34.9364 47.3595 34.998 47.015 34.977C46.9253 34.968 46.8506 35.0383 46.845 35.1263C46.8394 35.2144 46.9062 35.2905 46.9943 35.2962C47.0483 35.2997 47.1013 35.3016 47.1531 35.3016Z" fill="#13213E"/>
<path d="M44.133 31.8433C44.2747 32.0208 44.3994 32.2478 44.4851 32.5105C44.7324 33.2589 44.5826 34.0053 44.1514 34.1785C43.7185 34.3499 43.1684 33.8831 42.9229 33.1329C42.8441 32.896 42.8061 32.6582 42.8031 32.4413C43.0981 32.1838 43.5242 31.9108 44.133 31.8433Z" fill="#13213E"/>
<path d="M42.469 33.1684C42.5437 33.1684 42.6103 33.1159 42.6257 33.04C42.66 32.8688 42.7242 32.7318 42.8064 32.6537L42.8383 32.6244C42.8594 32.6047 42.8811 32.5844 42.9048 32.5647C43.2807 32.2368 43.6872 32.0535 44.1506 32.002C44.3468 31.977 44.5527 31.9783 44.7649 32.0039C44.8531 32.0152 44.9323 31.9524 44.9429 31.8646C44.9537 31.7769 44.8912 31.6973 44.8036 31.6866C44.5656 31.6573 44.3337 31.6567 44.113 31.6845C43.5847 31.7432 43.1211 31.9515 42.6979 32.3209C42.6724 32.3418 42.6458 32.3664 42.6203 32.3905L42.5891 32.4193C42.4202 32.5795 42.3455 32.8108 42.3121 32.977C42.2947 33.0635 42.3508 33.1478 42.4373 33.1652C42.4479 33.1675 42.4586 33.1684 42.469 33.1684Z" fill="#13213E"/>
<path d="M47.0796 28.5127L46.8731 27.9849C46.7314 27.623 46.8715 27.2028 47.1869 27.0513C48.1235 26.6015 50.0844 26.045 51.7876 28.0752C51.7876 28.0752 49.4283 28.0037 47.9093 28.8674C47.5999 29.0433 47.2227 28.8784 47.0796 28.5127Z" fill="#13213E"/>
<path d="M44.3632 29.6104L44.1063 29.1052C43.9302 28.7588 43.5231 28.5838 43.2001 28.7185C42.2409 29.1183 40.0213 30.7533 40.4052 33.3749C40.4052 33.3749 42.4208 31.025 44.0765 30.4656C44.4137 30.3517 44.5413 29.9604 44.3632 29.6104Z" fill="#13213E"/>
<path d="M50.0732 29.2592C50.2115 29.4518 50.3305 29.6901 50.4081 29.9574C50.6324 30.7193 50.4497 31.4218 50.001 31.5275C49.5507 31.6311 49.0052 31.0988 48.7826 30.3353C48.7112 30.0942 48.6816 29.8579 48.6869 29.647C48.9994 29.4398 49.4467 29.2366 50.0732 29.2592Z" fill="#13213E"/>
<path d="M48.3224 30.3089C48.3935 30.3089 48.4583 30.2611 48.4771 30.1893C48.5174 30.0341 48.5854 29.9149 48.6682 29.8543L48.7057 29.8278C48.7266 29.8128 48.7481 29.7972 48.7716 29.7824C49.1682 29.5198 49.591 29.4027 50.0677 29.419C50.2714 29.4233 50.4835 29.454 50.7007 29.5102C50.7857 29.5327 50.8733 29.4809 50.8955 29.3953C50.9177 29.3097 50.8662 29.2225 50.7807 29.2004C50.5397 29.1382 50.3028 29.1042 50.0769 29.0992C49.5344 29.0805 49.049 29.2154 48.5985 29.5136C48.5728 29.5295 48.5457 29.5488 48.5193 29.5679L48.4832 29.5932C48.3349 29.7022 48.2273 29.8792 48.1676 30.1087C48.1454 30.1943 48.1967 30.2815 48.282 30.304C48.2956 30.3073 48.309 30.3089 48.3224 30.3089Z" fill="#13213E"/>
<path d="M49.8844 40.3054C49.6822 40.4761 49.445 40.6047 49.1696 40.6707C48.2366 40.8973 47.3832 40.4721 46.6764 39.8411C46.0249 39.2533 45.4984 38.4915 45.1516 37.9162L45.2876 37.8729L50.8109 36.0478L51.0129 35.9828C51.0575 37.0868 51.001 39.3705 49.8844 40.3054Z" fill="#0A162B"/>
<path d="M50.8109 36.0477L50.7525 37.0825C50.3828 37.8648 46.8532 38.9006 46.1143 38.5573C45.8186 38.423 45.5286 38.1509 45.2877 37.8728L50.8109 36.0477Z" fill="white"/>
<path d="M49.8844 40.3054C49.6822 40.4761 49.445 40.6047 49.1696 40.6707C48.2366 40.8973 47.3832 40.472 46.6764 39.841C46.9725 39.2674 47.582 38.8897 48.2727 38.9178C49.0852 38.9508 49.7405 39.5427 49.8844 40.3054Z" fill="#FF5C63"/>
<g opacity="0.2">
<path d="M39.2972 33.8117C38.0407 31.8935 38.4113 29.4292 40.125 28.3076C41.8387 27.186 44.2466 27.8317 45.5032 29.7499C46.7598 31.6681 46.3892 34.1323 44.6755 35.254C42.9617 36.3756 40.5538 35.7299 39.2972 33.8117Z" fill="white"/>
</g>
<path d="M42.8071 35.961C43.5082 35.961 44.1807 35.7652 44.7651 35.3826C46.5498 34.2148 46.9419 31.6462 45.6393 29.6574C45.0099 28.6966 44.083 28.0117 43.0292 27.7292C41.969 27.4457 40.9071 27.6011 40.0396 28.1689C38.2547 29.3368 37.8625 31.9053 39.1653 33.8941C39.7947 34.8549 40.7216 35.5398 41.7754 35.8223C42.1213 35.9151 42.4677 35.961 42.8071 35.961ZM41.9986 27.9106C42.3102 27.9106 42.6283 27.9528 42.9463 28.038C43.9242 28.3003 44.7855 28.9377 45.3716 29.8324C46.5778 31.6739 46.2271 34.0437 44.5899 35.1154C43.7995 35.6326 42.8294 35.7739 41.8582 35.5136C40.8804 35.2513 40.0191 34.6139 39.433 33.7192C38.2268 31.8777 38.5774 29.5079 40.2148 28.4362C40.7462 28.0886 41.3589 27.9106 41.9986 27.9106Z" fill="#13213E"/>
<g opacity="0.2">
<path d="M46.7761 30.4316C45.5195 28.5134 45.8901 26.0492 47.6038 24.9275C49.3176 23.8059 51.7255 24.4516 52.9821 26.3698C54.2387 28.288 53.8681 30.7523 52.1543 31.8739C50.4406 32.9956 48.0327 32.3498 46.7761 30.4316Z" fill="white"/>
</g>
<path d="M50.2894 32.5744C50.9751 32.5744 51.6515 32.3893 52.2473 31.9992C54.032 30.8313 54.4243 28.2628 53.1215 26.274C52.4921 25.3131 51.5652 24.6283 50.5114 24.3458C49.4511 24.0615 48.3892 24.218 47.5217 24.7854C45.7371 25.9533 45.3448 28.5218 46.6476 30.5106C47.5157 31.836 48.9207 32.5744 50.2894 32.5744ZM49.4808 24.5272C49.7924 24.5272 50.1105 24.5694 50.4285 24.6546C51.4064 24.9169 52.2677 25.5542 52.8537 26.449C54.06 28.2904 53.7093 30.6603 52.0721 31.732C50.4353 32.8028 48.1216 32.1767 46.9153 30.3358C45.7091 28.4943 46.0597 26.1244 47.697 25.0528C48.2284 24.7052 48.8411 24.5272 49.4808 24.5272Z" fill="#13213E"/>
<path d="M33.6345 33.3368C33.6554 33.3368 33.6764 33.3328 33.6967 33.3243C36.6143 32.0948 38.585 32.2344 38.604 32.2353C38.6938 32.2397 38.769 32.1767 38.7762 32.0889C38.7832 32.0008 38.7178 31.9237 38.6298 31.9169C38.5466 31.9078 36.5686 31.767 33.5723 33.0295C33.4909 33.0639 33.4528 33.1576 33.4869 33.2391C33.5128 33.3 33.5722 33.3368 33.6345 33.3368Z" fill="#13213E"/>
<path d="M35.386 32.8159C35.386 32.8159 31.0208 30.3614 29.9645 33.2617C29.9645 33.2617 29.9645 33.2617 29.9601 33.2656C29.8569 33.558 29.7847 33.9033 29.7512 34.311C29.5876 36.502 31.0203 37.7795 32.5034 38.5098C32.5034 38.5098 32.5034 38.5098 32.5074 38.5144C33.9867 39.2401 35.512 39.4227 35.512 39.4227L35.386 32.8159Z" fill="#FFCAAC"/>
<path d="M103.563 68.528L92.7199 99.9292L59.7433 101.723L66.4068 70.0139L78.7814 69.5201L93.0303 68.9496L96.1291 68.8259L98.1974 68.7414L103.563 68.528Z" fill="#E5DEFF"/>
<path d="M84.8872 85.6244C84.8155 87.9616 83.0569 89.9488 80.9606 90.0629C78.8643 90.1769 77.2237 88.3745 77.2954 86.0374C77.3695 83.7001 79.1281 81.7128 81.2244 81.5988C83.3208 81.4848 84.9614 83.2872 84.8872 85.6244Z" fill="#DBB8E7"/>
<path d="M78.4187 89.0779C79.0713 89.74 79.9649 90.1166 80.9597 90.0636C83.0562 89.9491 84.8159 87.963 84.8868 85.6234C84.9415 83.9126 84.0747 82.488 82.7863 81.8928C83.5144 82.6253 83.9524 83.7092 83.9134 84.9399C83.8424 87.2767 82.0827 89.2629 79.9889 89.3772C79.4228 89.4073 78.8935 89.3006 78.4187 89.0779Z" fill="#B092C2"/>
<path d="M66.4056 70.0145L62.981 70.2007L57.9604 96.2172L42.014 98.1887L42.2183 102.633L59.7426 101.722L66.4056 70.0145Z" fill="#DBB8E7"/>
<g opacity="0.15">
<path d="M93.0304 68.9496C90.7234 73.8774 81.6787 91.295 76.7199 100.799L67.842 101.288C71.564 94.0167 80.2111 77.0858 84.0305 69.2403L93.0304 68.9496Z" fill="white"/>
</g>
<g opacity="0.15">
<path d="M98.1974 68.7414C95.9661 74.0405 88.0977 90.943 83.6652 100.422L81.8754 100.519C85.9754 91.5656 93.5241 75.0026 96.1292 68.8259L98.1974 68.7414Z" fill="white"/>
</g>
<path d="M33.1192 95.0163C33.1621 95.1553 33.2099 95.2858 33.2644 95.4145C33.4623 95.9062 33.711 96.3315 34.0127 96.6715C34.5072 97.2192 35.1552 97.531 35.988 97.4777C37.7791 97.3602 38.8234 95.9494 39.3943 94.1142C39.3951 94.1033 39.3992 94.0915 39.4033 94.0798C39.4403 93.9596 39.4729 93.8371 39.5056 93.7144C40.3682 90.4442 39.8651 86.0863 39.411 85.1534C39.2646 84.8483 39.0817 84.5811 38.8729 84.3527C38.6439 84.101 38.3859 83.9031 38.1047 83.754C38.0794 83.739 38.0542 83.7243 38.0255 83.7102C36.9371 83.1581 35.553 83.3174 34.4728 84.2411C34.0891 84.5682 33.7404 84.9897 33.4603 85.5116C33.336 85.7363 33.2252 85.9861 33.1288 86.2499C33.0976 86.3366 33.0696 86.4223 33.04 86.5155C32.5818 87.997 32.1948 92.2696 33.1192 95.0163Z" fill="#FB9543"/>
<path d="M33.1192 95.0163L39.5056 93.7143L39.8894 93.6372L40.454 93.5136L41.6812 93.2446L43.2236 95.8256C43.6308 96.5063 44.4281 96.787 45.1421 96.5641C45.3271 96.5059 45.5078 96.4166 45.6714 96.289C45.931 96.0902 46.1195 95.824 46.2209 95.5374C46.2498 95.4549 46.2743 95.3702 46.288 95.2845C46.3226 95.3077 46.3604 95.3301 46.3992 95.3559C46.8002 95.6099 47.299 95.6744 47.7585 95.5313C47.9478 95.4756 48.1284 95.3863 48.2885 95.2595C48.6675 94.9693 48.8879 94.5486 48.9293 94.0988C48.9436 93.9738 48.9443 93.838 48.9217 93.7081L48.9208 93.7047C48.8935 93.5012 48.82 93.2987 48.7148 93.1115L48.6816 93.0522C49.0937 93.7103 49.8782 93.9692 50.5697 93.7558C50.759 93.7001 50.9387 93.6075 51.0999 93.4841C51.4037 93.249 51.6196 92.922 51.7171 92.565C51.7771 92.3818 51.8002 92.1939 51.7939 92.0027C51.7886 91.8434 51.7632 91.6894 51.706 91.5362C52.1423 92.0382 52.8339 92.2281 53.456 92.036C53.6419 91.9811 53.8183 91.8894 53.9828 91.765C54.6414 91.2567 54.8189 90.3364 54.4081 89.6138L51.8128 85.1187C51.5524 84.5645 51.0831 84.1425 50.5038 83.945L48.0881 83.12L48.8444 82.4366L49.3198 82.0074C49.7759 81.4476 49.4842 80.6052 48.7793 80.4472L44.2716 79.4315C43.9759 79.3647 43.6634 79.4415 43.429 79.6408L39.3322 83.1245L38.6781 83.6781L38.1048 83.7541L36.1711 84.0118L34.4729 84.241C34.0892 84.5681 33.7405 84.9897 33.4604 85.5115C33.3361 85.7363 33.2253 85.986 33.1289 86.2498C33.0977 86.3365 33.0697 86.4222 33.0401 86.5155C32.5817 87.997 32.1948 92.2695 33.1192 95.0163Z" fill="#FFCAAC"/>
<path d="M45.6423 82.496L47.7772 83.0383C47.9709 83.0876 48.1764 83.0367 48.3249 82.903L48.8424 82.4365L45.6423 82.496Z" fill="#FEABA5"/>
<path d="M46.6362 86.1108L49.0161 88.4211C49.0484 88.4525 49.077 88.4873 49.1014 88.525L51.7192 92.5645C51.7689 92.4016 51.7955 92.2335 51.7947 92.0641C51.7945 92.0245 51.7897 91.9847 51.7825 91.9457L51.7294 91.6572C51.7146 91.577 51.6836 91.5005 51.6381 91.4327L49.4376 88.1489C49.3972 88.0887 49.3463 88.0364 49.2872 87.9944L46.6362 86.1108Z" fill="#FEABA5"/>
<path d="M44.3176 87.6545L46.1408 89.3151C46.1865 89.3567 46.2255 89.4051 46.2563 89.4587L48.9293 94.0992C48.9441 93.9719 48.9414 93.8383 48.9248 93.709L48.9237 93.7055L48.715 93.113L48.6816 93.0541L46.6235 89.2222C46.5753 89.1325 46.5051 89.0566 46.4194 89.0018L44.3176 87.6545Z" fill="#FEABA5"/>
<path d="M41.8889 89.5776L43.7122 91.2382C43.7579 91.2798 43.7969 91.3282 43.8276 91.3817L46.2211 95.5359C46.2497 95.4542 46.2738 95.3699 46.2899 95.2844C46.3242 95.3085 46.3585 95.3325 46.3997 95.3544L46.2866 95.0359L46.2531 94.977L44.195 91.1452C44.1468 91.0555 44.0766 90.9796 43.9909 90.9248L41.8889 89.5776Z" fill="#FEABA5"/>
<path d="M21.1477 82.602C18.5884 83.9802 16.621 86.5199 13.8757 87.584C14.4612 86.9285 15.0469 86.2699 15.6356 85.6143C16.3128 84.8552 17.0235 83.6721 17.9997 83.2515C17.9569 83.3369 17.9357 83.3856 17.9325 83.3887C17.9295 83.3917 17.9295 83.3948 17.9295 83.3948C17.9295 83.3948 19.2108 83.035 21.1477 82.602Z" fill="#FB9543"/>
<path d="M220.985 26.9854L215.137 101.154C214.948 103.533 213.049 105.264 210.622 105.264H162.406C159.29 105.264 156.649 102.459 156.892 99.4018L162.739 25.2331C162.925 22.8548 164.828 21.1236 167.251 21.1236H215.467C218.586 21.1236 221.224 23.9282 220.985 26.9854Z" fill="#594BC7"/>
<path d="M218.965 26.9854L213.117 101.154C212.928 103.533 211.028 105.264 208.602 105.264H160.386C157.27 105.264 154.629 102.459 154.871 99.4018L160.719 25.2331C160.904 22.8548 162.807 21.1236 165.23 21.1236H213.446C216.566 21.1236 219.203 23.9282 218.965 26.9854Z" fill="#7DFFA7"/>
<path d="M188.938 28.4196H197.663C197.928 28.4196 198.143 28.2048 198.143 27.94C198.143 27.6751 197.928 27.4603 197.663 27.4603H188.938C188.673 27.4603 188.458 27.6751 188.458 27.94C188.458 28.2048 188.673 28.4196 188.938 28.4196Z" fill="white"/>
<path d="M172.083 28.4196H185.036C185.301 28.4196 185.516 28.2048 185.516 27.94C185.516 27.6751 185.301 27.4603 185.036 27.4603H172.083C171.818 27.4603 171.603 27.6751 171.603 27.94C171.603 28.2048 171.818 28.4196 172.083 28.4196Z" fill="#463D5B"/>
<path d="M178.412 34.5006H196.879C197.144 34.5006 197.359 34.2858 197.359 34.0209C197.359 33.7561 197.144 33.5413 196.879 33.5413H178.412C178.147 33.5413 177.932 33.7561 177.932 34.0209C177.932 34.2858 178.147 34.5006 178.412 34.5006Z" fill="#FF5C63"/>
<path d="M171.299 34.5006H174.648C174.913 34.5006 175.127 34.2858 175.127 34.0209C175.127 33.7561 174.913 33.5413 174.648 33.5413H171.299C171.033 33.5413 170.819 33.7561 170.819 34.0209C170.819 34.2858 171.033 34.5006 171.299 34.5006Z" fill="white"/>
<path d="M183.489 40.5815H187.789C188.054 40.5815 188.268 40.3667 188.268 40.1018C188.268 39.837 188.054 39.6222 187.789 39.6222H183.489C183.224 39.6222 183.009 39.837 183.009 40.1018C183.009 40.3667 183.224 40.5815 183.489 40.5815Z" fill="#463D5B"/>
<path d="M170.515 40.5815H180.102C180.367 40.5815 180.581 40.3667 180.581 40.1018C180.581 39.837 180.367 39.6222 180.102 39.6222H170.515C170.25 39.6222 170.035 39.837 170.035 40.1018C170.035 40.3667 170.25 40.5815 170.515 40.5815Z" fill="#463D5B"/>
<path d="M176.982 46.6626H187.706C187.971 46.6626 188.186 46.4478 188.186 46.183C188.186 45.9181 187.971 45.7033 187.706 45.7033H176.982C176.717 45.7033 176.502 45.9181 176.502 46.183C176.502 46.4478 176.717 46.6626 176.982 46.6626Z" fill="#463D5B"/>
<path d="M169.73 46.6626H172.955C173.22 46.6626 173.435 46.4478 173.435 46.183C173.435 45.9181 173.22 45.7033 172.955 45.7033H169.73C169.465 45.7033 169.251 45.9181 169.251 46.183C169.251 46.4478 169.465 46.6626 169.73 46.6626Z" fill="#463D5B"/>
<path d="M182.526 52.7435H187.131C187.396 52.7435 187.611 52.5287 187.611 52.2639C187.611 51.999 187.396 51.7842 187.131 51.7842H182.526C182.261 51.7842 182.046 51.999 182.046 52.2639C182.046 52.5287 182.261 52.7435 182.526 52.7435Z" fill="#FF5C63"/>
<path d="M168.946 52.7435H179.258C179.523 52.7435 179.738 52.5287 179.738 52.2639C179.738 51.999 179.523 51.7842 179.258 51.7842H168.946C168.681 51.7842 168.466 51.999 168.466 52.2639C168.466 52.5287 168.681 52.7435 168.946 52.7435Z" fill="#463D5B"/>
<path d="M168.162 58.8244H193.742C194.008 58.8244 194.222 58.6096 194.222 58.3448C194.222 58.0799 194.008 57.8651 193.742 57.8651H168.162C167.897 57.8651 167.682 58.0799 167.682 58.3448C167.682 58.6095 167.897 58.8244 168.162 58.8244Z" fill="#463D5B"/>
<path d="M176.295 64.9055H185.211C185.476 64.9055 185.691 64.6907 185.691 64.4259C185.691 64.161 185.476 63.9462 185.211 63.9462H176.295C176.03 63.9462 175.815 64.161 175.815 64.4259C175.815 64.6907 176.03 64.9055 176.295 64.9055Z" fill="#463D5B"/>
<path d="M167.378 64.9055H171.836C172.101 64.9055 172.316 64.6907 172.316 64.4259C172.316 64.161 172.101 63.9462 171.836 63.9462H167.378C167.113 63.9462 166.898 64.161 166.898 64.4259C166.898 64.6907 167.113 64.9055 167.378 64.9055Z" fill="#463D5B"/>
<path d="M176.295 70.9864H179.384C179.649 70.9864 179.864 70.7716 179.864 70.5067C179.864 70.2419 179.649 70.0271 179.384 70.0271H176.295C176.03 70.0271 175.815 70.2419 175.815 70.5067C175.815 70.7716 176.03 70.9864 176.295 70.9864Z" fill="white"/>
<path d="M166.594 70.9864H174.102C174.367 70.9864 174.582 70.7716 174.582 70.5067C174.582 70.2419 174.367 70.0271 174.102 70.0271H166.594C166.329 70.0271 166.114 70.2419 166.114 70.5067C166.114 70.7716 166.329 70.9864 166.594 70.9864Z" fill="#FF5C63"/>
<path d="M168.946 77.0673H177.514C177.779 77.0673 177.993 76.8525 177.993 76.5877C177.993 76.3228 177.779 76.108 177.514 76.108H168.946C168.681 76.108 168.466 76.3228 168.466 76.5877C168.466 76.8524 168.681 77.0673 168.946 77.0673Z" fill="#463D5B"/>
<path d="M160.489 77.0673H163.457C163.722 77.0673 163.937 76.8525 163.937 76.5877C163.937 76.3228 163.722 76.108 163.457 76.108H160.489C160.224 76.108 160.009 76.3228 160.009 76.5877C160.009 76.8524 160.224 77.0673 160.489 77.0673Z" fill="#463D5B"/>
<path d="M177.173 83.1485H183.536C183.801 83.1485 184.016 82.9337 184.016 82.6689C184.016 82.404 183.801 82.1892 183.536 82.1892H177.173C176.908 82.1892 176.693 82.404 176.693 82.6689C176.693 82.9337 176.908 83.1485 177.173 83.1485Z" fill="#463D5B"/>
<path d="M162.526 83.1485H172.677C172.942 83.1485 173.157 82.9337 173.157 82.6689C173.157 82.404 172.942 82.1892 172.677 82.1892H162.526C162.261 82.1892 162.046 82.404 162.046 82.6689C162.046 82.9337 162.261 83.1485 162.526 83.1485Z" fill="#463D5B"/>
<path d="M183.748 89.2294H189.822C190.087 89.2294 190.302 89.0146 190.302 88.7497C190.302 88.4849 190.087 88.2701 189.822 88.2701H183.748C183.483 88.2701 183.268 88.4849 183.268 88.7497C183.268 89.0146 183.483 89.2294 183.748 89.2294Z" fill="#FF5C63"/>
<path d="M177.504 89.2294H180.952C181.217 89.2294 181.432 89.0146 181.432 88.7497C181.432 88.4849 181.217 88.2701 180.952 88.2701H177.504C177.239 88.2701 177.024 88.4849 177.024 88.7497C177.024 89.0146 177.239 89.2294 177.504 89.2294Z" fill="#463D5B"/>
<path d="M174.793 95.3103H189.038C189.303 95.3103 189.518 95.0955 189.518 94.8307C189.518 94.5658 189.303 94.351 189.038 94.351H174.793C174.528 94.351 174.313 94.5658 174.313 94.8307C174.313 95.0954 174.528 95.3103 174.793 95.3103Z" fill="#463D5B"/>
<path d="M163.457 95.3103H169.125C169.39 95.3103 169.605 95.0955 169.605 94.8307C169.605 94.5658 169.39 94.351 169.125 94.351H163.457C163.192 94.351 162.978 94.5658 162.978 94.8307C162.978 95.0954 163.192 95.3103 163.457 95.3103Z" fill="white"/>
<path d="M204.065 28.8024C203.614 28.3083 203.671 27.5221 204.192 27.0464C204.714 26.5707 205.502 26.5857 205.953 27.0798C206.404 27.5739 206.347 28.3601 205.826 28.8358C205.304 29.3115 204.516 29.2965 204.065 28.8024Z" fill="#13213E"/>
<path d="M205.303 34.0209C205.266 34.7068 204.678 35.2628 203.989 35.2628C203.301 35.2628 202.772 34.7068 202.809 34.0209C202.846 33.3349 203.434 32.7789 204.122 32.7789C204.811 32.7789 205.339 33.3349 205.303 34.0209Z" fill="#13213E"/>
<path d="M195.348 40.9622C194.897 40.4681 194.954 39.6819 195.475 39.2063C195.997 38.7306 196.785 38.7455 197.236 39.2396C197.687 39.7338 197.63 40.52 197.109 40.9956C196.587 41.4713 195.799 41.4564 195.348 40.9622Z" fill="#13213E"/>
<path d="M194.657 47.0449C194.206 46.5508 194.263 45.7646 194.785 45.2889C195.307 44.8132 196.095 44.8282 196.546 45.3223C196.997 45.8164 196.94 46.6026 196.418 47.0783C195.897 47.554 195.108 47.539 194.657 47.0449Z" fill="#13213E"/>
<path d="M196.155 52.2639C196.119 52.9498 195.531 53.5058 194.842 53.5058C194.153 53.5058 193.625 52.9498 193.662 52.2639C193.699 51.5779 194.287 51.0219 194.975 51.0219C195.664 51.0219 196.192 51.5779 196.155 52.2639Z" fill="#13213E"/>
<path d="M203.2 58.3448C203.163 59.0307 202.575 59.5867 201.886 59.5867C201.198 59.5867 200.669 59.0307 200.706 58.3448C200.743 57.6588 201.331 57.1028 202.019 57.1028C202.708 57.1028 203.237 57.6589 203.2 58.3448Z" fill="#13213E"/>
<path d="M194.336 64.4258C194.299 65.1117 193.711 65.6677 193.022 65.6677C192.334 65.6677 191.805 65.1117 191.842 64.4258C191.879 63.7398 192.467 63.1838 193.155 63.1838C193.844 63.1838 194.372 63.7398 194.336 64.4258Z" fill="#13213E"/>
<path d="M186.131 70.5068C186.094 71.1927 185.506 71.7487 184.817 71.7487C184.129 71.7487 183.6 71.1927 183.637 70.5068C183.674 69.8208 184.262 69.2648 184.95 69.2648C185.639 69.2648 186.167 69.8208 186.131 70.5068Z" fill="#13213E"/>
<path d="M184.995 76.5877C184.958 77.2737 184.37 77.8297 183.681 77.8297C182.993 77.8297 182.465 77.2737 182.501 76.5877C182.538 75.9018 183.126 75.3458 183.815 75.3458C184.503 75.3458 185.032 75.9019 184.995 76.5877Z" fill="#13213E"/>
<path d="M189.832 83.5278C189.381 83.0337 189.438 82.2475 189.959 81.7719C190.481 81.2962 191.27 81.3111 191.721 81.8053C192.172 82.2994 192.114 83.0856 191.593 83.5612C191.071 84.0369 190.283 84.022 189.832 83.5278Z" fill="#13213E"/>
<path d="M199.453 89.0267C199.416 89.7125 198.828 90.2686 198.139 90.2686C197.451 90.2686 196.922 89.7126 196.959 89.0267C196.996 88.3407 197.584 87.7847 198.272 87.7847C198.961 87.7847 199.489 88.3408 199.453 89.0267Z" fill="#13213E"/>
<path d="M198.603 94.8306C198.566 95.5166 197.978 96.0726 197.289 96.0726C196.601 96.0726 196.072 95.5166 196.109 94.8306C196.146 94.1447 196.734 93.5887 197.423 93.5887C198.111 93.5887 198.64 94.1448 198.603 94.8306Z" fill="#13213E"/>
<path d="M110.189 65.482H146.8C149.642 65.482 152.097 63.1791 152.283 60.3384L154.112 32.4797C154.298 29.6389 152.145 27.336 149.303 27.336H112.693C109.851 27.336 107.396 29.6389 107.209 32.4797L105.381 60.3384C105.194 63.1791 107.347 65.482 110.189 65.482Z" fill="white"/>
<path d="M110.189 65.6419H146.799C149.72 65.6419 152.251 63.2673 152.443 60.3489L154.271 32.4902C154.365 31.0694 153.897 29.734 152.956 28.7295C152.018 27.7278 150.721 27.1763 149.303 27.1763H112.693C109.773 27.1763 107.241 29.5508 107.05 32.469L105.221 60.3277C105.128 61.7486 105.595 63.0842 106.536 64.0887C107.475 65.0905 108.772 65.6419 110.189 65.6419ZM149.303 27.496C150.631 27.496 151.846 28.0115 152.723 28.948C153.603 29.8873 154.039 31.1376 153.952 32.4689L152.123 60.3276C151.943 63.0815 149.554 65.3221 146.799 65.3221H110.189C108.861 65.3221 107.647 64.8065 106.769 63.87C105.889 62.9308 105.453 61.6801 105.54 60.3488L107.369 32.4901C107.549 29.7362 109.938 27.4959 112.693 27.4959L149.303 27.496Z" fill="#13213E"/>
<path d="M107.069 106.727H143.679C146.521 106.727 148.976 104.425 149.163 101.584L150.992 73.725C151.178 70.8843 149.025 68.5814 146.183 68.5814H109.573C106.731 68.5814 104.276 70.8843 104.089 73.725L102.26 101.584C102.074 104.425 104.227 106.727 107.069 106.727Z" fill="white"/>
<path d="M107.069 106.887H143.679C146.599 106.887 149.131 104.513 149.323 101.594L151.151 73.7361C151.244 72.3152 150.777 70.9796 149.836 69.9751C148.898 68.9733 147.6 68.4218 146.183 68.4218H109.573C106.653 68.4218 104.121 70.7963 103.929 73.7148L102.101 101.573C102.008 102.994 102.475 104.33 103.416 105.334C104.354 106.336 105.652 106.887 107.069 106.887ZM146.183 68.7415C147.511 68.7415 148.726 69.2571 149.603 70.1936C150.483 71.1328 150.919 72.3835 150.832 73.7148L149.003 101.573C148.823 104.327 146.434 106.568 143.679 106.568H107.069C105.741 106.568 104.527 106.052 103.649 105.116C102.769 104.176 102.333 102.926 102.42 101.594L104.249 73.7359C104.429 70.9821 106.818 68.7415 109.573 68.7415H146.183Z" fill="#13213E"/>
<path d="M114.501 61.2782H143.04C145.257 61.2782 147.17 59.481 147.314 57.2683L147.557 53.591L148.741 35.5497C148.885 33.337 147.208 31.5398 144.991 31.5398H116.452C114.235 31.5398 112.322 33.337 112.178 35.5497L111.17 50.8729L110.751 57.2682C110.607 59.481 112.284 61.2782 114.501 61.2782Z" fill="#7DFFA7"/>
<path d="M114.501 61.2782H143.04C145.257 61.2782 147.17 59.4811 147.314 57.2684L147.557 53.591L140.598 45.9684C139.644 44.9238 138.019 44.864 136.991 45.8357L131.205 51.3062C130.024 52.423 128.11 52.1519 127.286 50.7508L122.453 42.5338C121.563 41.0204 119.438 40.8522 118.32 42.2066L111.17 50.8729L110.751 57.2683C110.607 59.481 112.284 61.2782 114.501 61.2782Z" fill="#17F27F"/>
<path d="M128.458 43.5382C127.292 42.3725 127.292 40.4824 128.458 39.3166C129.625 38.1509 131.516 38.1509 132.682 39.3166C133.848 40.4824 133.848 42.3725 132.682 43.5382C131.516 44.704 129.625 44.704 128.458 43.5382Z" fill="#17F27F"/>
<path d="M140.709 99.1362C140.757 99.1362 140.804 99.1146 140.836 99.0737C140.89 99.0038 140.877 98.9033 140.807 98.8495L110.884 75.8523C110.814 75.7992 110.713 75.8116 110.659 75.8816C110.605 75.9515 110.618 76.0521 110.689 76.1058L140.612 99.1031C140.641 99.1252 140.675 99.1362 140.709 99.1362Z" fill="#13213E"/>
<path d="M109.059 98.7012C109.09 98.7012 109.121 98.6921 109.149 98.6734L142.22 76.1111C142.293 76.0612 142.312 75.9619 142.262 75.8888C142.213 75.8157 142.112 75.7976 142.04 75.8469L108.969 98.4092C108.896 98.4591 108.877 98.5584 108.927 98.6315C108.958 98.6768 109.008 98.7012 109.059 98.7012Z" fill="#13213E"/>
<path d="M123.143 127.754H177.346C180.438 127.754 183.029 125.415 183.343 122.34L183.716 118.684C184.079 115.133 181.291 112.048 177.72 112.048H123.516C120.424 112.048 117.834 114.386 117.52 117.461L117.146 121.117C116.784 124.668 119.572 127.754 123.143 127.754Z" fill="#00A558"/>
<path d="M121.655 120.256C122.435 121.794 124.115 122.578 125.73 122.291L126.81 124.421C127.087 124.967 127.754 125.185 128.301 124.908C128.846 124.632 129.065 123.965 128.788 123.418L127.708 121.29C128.894 120.157 129.255 118.34 128.474 116.8C127.52 114.919 125.219 114.167 123.337 115.12C121.454 116.075 120.701 118.374 121.655 120.256Z" fill="white"/>
<path d="M133.101 122.433H163.607C164.019 122.433 164.327 122.811 164.244 123.214C164.181 123.516 163.915 123.733 163.607 123.733H133.101C132.689 123.733 132.381 123.354 132.465 122.951C132.527 122.649 132.793 122.433 133.101 122.433Z" fill="white"/>
<path d="M142.938 134.243C142.938 133.705 143.374 133.27 143.912 133.27H178.518C178.787 133.27 179.03 133.378 179.206 133.557C179.398 133.749 179.51 134.021 179.488 134.319C179.45 134.835 178.985 135.217 178.467 135.217H143.912C143.374 135.217 142.938 134.781 142.938 134.243Z" fill="#E5DEFF"/>
<path d="M119.648 133.269H133.93C134.468 133.269 134.904 133.705 134.904 134.243C134.904 134.781 134.468 135.217 133.93 135.217H119.648C119.376 135.217 119.133 135.108 118.957 134.932C118.781 134.756 118.672 134.513 118.672 134.245C118.672 133.707 119.107 133.269 119.648 133.269Z" fill="#E5DEFF"/>
<path d="M152.855 140.587C152.855 140.05 153.291 139.614 153.829 139.614H178.518C178.787 139.614 179.03 139.722 179.206 139.901C179.398 140.093 179.51 140.365 179.488 140.663C179.45 141.179 178.985 141.561 178.467 141.561H153.83C153.292 141.561 152.855 141.125 152.855 140.587Z" fill="#E5DEFF"/>
<path d="M119.648 139.614H146.129C146.667 139.614 147.103 140.05 147.103 140.587C147.103 141.125 146.667 141.561 146.129 141.561H119.648C119.376 141.561 119.133 141.452 118.957 141.276C118.781 141.1 118.672 140.858 118.672 140.589C118.672 140.052 119.107 139.614 119.648 139.614Z" fill="#E5DEFF"/>
<path d="M155.434 146.932C155.434 147.469 154.998 147.905 154.46 147.905H137.564C137.026 147.905 136.59 147.469 136.59 146.932C136.59 146.394 137.026 145.958 137.564 145.958H154.46C154.998 145.958 155.434 146.394 155.434 146.932Z" fill="#E5DEFF"/>
<path d="M162.079 146.932C162.079 146.394 162.515 145.958 163.053 145.958H178.518C178.787 145.958 179.03 146.067 179.206 146.246C179.398 146.438 179.51 146.709 179.488 147.007C179.45 147.523 178.985 147.905 178.467 147.905H163.053C162.515 147.905 162.079 147.469 162.079 146.932Z" fill="#E5DEFF"/>
<path d="M119.648 145.958H131.649C132.187 145.958 132.623 146.394 132.623 146.932C132.623 147.469 132.187 147.905 131.649 147.905H119.648C119.376 147.905 119.133 147.797 118.957 147.621C118.781 147.445 118.672 147.202 118.672 146.933C118.672 146.396 119.107 145.958 119.648 145.958Z" fill="#E5DEFF"/>
<path d="M65.8487 21.4251L68.3034 21.7346C68.689 21.089 69.1415 20.4954 69.6514 19.9623L68.6981 17.681C68.4888 17.18 68.6829 16.6015 69.1522 16.3281L71.5205 14.9482C71.9898 14.6747 72.5891 14.7909 72.9221 15.2198L74.4384 17.173C75.1537 16.9922 75.8934 16.8911 76.6456 16.8738L77.5856 14.5863C77.792 14.0841 78.3385 13.8122 78.8638 13.9506L81.5147 14.6487C82.0399 14.7871 82.3815 15.2928 82.3136 15.8315L82.0038 18.285C82.6499 18.6706 83.2437 19.1228 83.7769 19.6324L86.0592 18.6796C86.5605 18.4703 87.1393 18.6644 87.4127 19.1335L88.7933 21.5008C89.0669 21.9698 88.9507 22.5688 88.5215 22.9017L86.5674 24.4173C86.7483 25.1323 86.8494 25.8717 86.8668 26.6235L89.1554 27.5631C89.6579 27.7694 89.9298 28.3157 89.7914 28.8407L89.0929 31.4904C88.9545 32.0154 88.4485 32.3568 87.9096 32.2889L85.455 31.9794C85.0694 32.6252 84.6168 33.2186 84.107 33.7517L85.0602 36.033C85.2695 36.534 85.0753 37.1125 84.6061 37.386L82.2377 38.766C81.7685 39.0393 81.1692 38.9231 80.8362 38.4942L79.32 36.541C78.6047 36.7219 77.865 36.8229 77.1128 36.8402L76.1728 39.1277C75.9664 39.63 75.4199 39.9018 74.8946 39.7634L72.2437 39.0653C71.7185 38.9269 71.3769 38.4213 71.4449 37.8825L71.7545 35.429C71.1086 35.0436 70.5147 34.5912 69.9814 34.0816L67.6991 35.0344C67.1978 35.2437 66.6191 35.0496 66.3455 34.5806L64.9649 32.2133C64.6913 31.7442 64.8076 31.1452 65.2367 30.8123L67.1909 29.2967C67.01 28.5817 66.9088 27.8424 66.8916 27.0905L64.603 26.1509C64.1005 25.9446 63.8286 25.3983 63.9669 24.8734L64.6653 22.2236C64.8039 21.6986 65.3098 21.3572 65.8487 21.4251Z" fill="#00A558"/>
<path d="M72.0289 31.7076C69.3493 29.0292 69.3493 24.6866 72.0289 22.0082C74.7085 19.3298 79.053 19.3298 81.7326 22.0082C84.4123 24.6866 84.4123 29.0292 81.7326 31.7076C79.053 34.386 74.7085 34.386 72.0289 31.7076Z" fill="#0AE07C"/>
<path d="M71.6579 28.2159C70.9048 25.3372 72.6289 22.3934 75.5089 21.6406C78.3888 20.8879 81.334 22.6112 82.0871 25.4899C82.8402 28.3685 81.116 31.3124 78.2361 32.0651C75.3561 32.8179 72.411 31.0945 71.6579 28.2159Z" fill="white"/>
<path d="M85.9835 7.08424L87.8591 7.32077C88.1537 6.82746 88.4995 6.37389 88.889 5.96655L88.1607 4.22345C88.0007 3.84063 88.149 3.39858 88.5076 3.18971L90.3172 2.13536C90.6758 1.92638 91.1337 2.01514 91.3882 2.34301L92.5467 3.83548C93.0932 3.69735 93.6584 3.62011 94.2331 3.6069L94.9514 1.85899C95.1091 1.47527 95.5267 1.26751 95.9281 1.37318L97.9535 1.90657C98.3548 2.01224 98.6158 2.39876 98.5639 2.81024L98.3273 4.68497C98.8209 4.97948 99.2747 5.32514 99.6821 5.71457L101.426 4.98653C101.809 4.82668 102.251 4.97489 102.46 5.33331L103.515 7.14212C103.724 7.50043 103.635 7.95814 103.307 8.21247L101.814 9.37046C101.952 9.91672 102.03 10.4818 102.043 11.0561L103.792 11.7741C104.176 11.9317 104.383 12.3491 104.278 12.7503L103.744 14.7749C103.638 15.1761 103.252 15.4369 102.84 15.385L100.964 15.1485C100.67 15.6419 100.324 16.0953 99.9343 16.5027L100.663 18.2458C100.823 18.6286 100.674 19.0707 100.316 19.2795L98.5061 20.3339C98.1476 20.5427 97.6896 20.454 97.4352 20.1262L96.2767 18.6338C95.7302 18.7719 95.165 18.8492 94.5902 18.8623L93.872 20.6102C93.7143 20.994 93.2967 21.2017 92.8953 21.0961L90.8699 20.5627C90.4685 20.457 90.2076 20.0706 90.2595 19.659L90.4962 17.7843C90.0025 17.4898 89.5488 17.1441 89.1413 16.7548L87.3975 17.4828C87.0145 17.6427 86.5722 17.4945 86.3632 17.136L85.3084 15.3272C85.0995 14.9688 85.1883 14.5111 85.5162 14.2568L87.0093 13.0988C86.8711 12.5525 86.7937 11.9876 86.7806 11.4131L85.0319 10.6951C84.648 10.5375 84.4402 10.1201 84.546 9.71893L85.0798 7.69431C85.1851 7.29323 85.5717 7.03231 85.9835 7.08424Z" fill="#00A558"/>
<path d="M90.3024 14.4729C88.5075 12.2018 88.8943 8.90625 91.1665 7.11211C93.4386 5.31797 96.7356 5.70464 98.5306 7.97575C100.326 10.2469 99.9387 13.5424 97.6666 15.3365C95.3944 17.1307 92.0974 16.744 90.3024 14.4729Z" fill="#0AE07C"/>
<path d="M90.6088 12.8326C89.7258 10.7374 90.7093 8.32353 92.8054 7.44101C94.9014 6.55849 97.3164 7.54155 98.1994 9.63674C99.0823 11.7319 98.0989 14.1458 96.0028 15.0284C93.9067 15.9109 91.4917 14.9278 90.6088 12.8326Z" fill="white"/>
</svg>
