<svg width="165" height="52" viewBox="0 0 165 52" fill="none" xmlns="http://www.w3.org/2000/svg">
<path d="M70.4987 27.3652C70.4987 34.8465 64.3952 40.3594 56.9048 40.3594C49.4145 40.3594 43.311 34.8465 43.311 27.3652C43.311 19.8312 49.4145 14.3711 56.9048 14.3711C64.3952 14.3711 70.4987 19.8312 70.4987 27.3652ZM64.5479 27.3652C64.5479 22.6902 61.0105 19.4914 56.9048 19.4914C52.7992 19.4914 49.2617 22.6902 49.2617 27.3652C49.2617 31.9934 52.7992 35.2391 56.9048 35.2391C61.0105 35.2391 64.5479 31.9876 64.5479 27.3652Z" fill="black"/>
<path d="M99.8247 27.3652C99.8247 34.8465 93.7213 40.3594 86.2309 40.3594C78.7405 40.3594 72.637 34.8465 72.637 27.3652C72.637 19.8371 78.7405 14.3711 86.2309 14.3711C93.7213 14.3711 99.8247 19.8312 99.8247 27.3652ZM93.874 27.3652C93.874 22.6902 90.3365 19.4914 86.2309 19.4914C82.1252 19.4914 78.5878 22.6902 78.5878 27.3652C78.5878 31.9934 82.1252 35.2391 86.2309 35.2391C90.3365 35.2391 93.874 31.9876 93.874 27.3652Z" fill="black"/>
<path d="M127.929 15.1561V38.4847C127.929 48.0809 122.027 52.0002 115.05 52.0002C108.482 52.0002 104.529 47.7879 103.038 44.3432L108.219 42.2751C109.142 44.39 111.402 46.8857 115.044 46.8857C119.51 46.8857 122.278 44.2436 122.278 39.2697V37.4008H122.07C120.738 38.9768 118.172 40.3535 114.934 40.3535C108.158 40.3535 101.951 34.6942 101.951 27.4121C101.951 20.0773 108.158 14.3711 114.934 14.3711C118.166 14.3711 120.732 15.7478 122.07 17.2769H122.278V15.162H127.929V15.1561ZM122.699 27.4121C122.699 22.8366 119.516 19.4914 115.465 19.4914C111.36 19.4914 107.92 22.8366 107.92 27.4121C107.92 31.9407 111.36 35.2391 115.465 35.2391C119.516 35.2391 122.699 31.9407 122.699 27.4121Z" fill="black"/>
<path d="M137.246 1.48242V39.5626H131.442V1.48242H137.246Z" fill="black"/>
<path d="M159.864 31.6419L164.483 34.5946C162.992 36.7095 159.399 40.3535 153.192 40.3535C145.494 40.3535 139.745 34.6473 139.745 27.3594C139.745 19.632 145.543 14.3652 152.526 14.3652C159.558 14.3652 162.998 19.7316 164.122 22.6316L164.739 24.1079L146.624 31.3021C148.011 33.9092 150.168 35.2391 153.192 35.2391C156.222 35.2391 158.324 33.8096 159.864 31.6419ZM145.647 26.9669L157.756 22.1453C157.09 20.5225 155.086 19.3918 152.728 19.3918C149.704 19.3918 145.494 21.952 145.647 26.9669Z" fill="black"/>
<path d="M21.3408 23.9847V18.4718H40.7144C40.9038 19.4326 41.0015 20.5692 41.0015 21.7995C41.0015 25.9356 39.8224 31.05 36.0222 34.694C32.3259 38.3849 27.6032 40.3533 21.3469 40.3533C9.75092 40.3533 0 31.2961 0 20.1767C0 9.05723 9.75092 0 21.3469 0C27.762 0 32.332 2.4137 35.7656 5.55971L31.7088 9.44975C29.2467 7.23524 25.9108 5.51284 21.3408 5.51284C12.8729 5.51284 6.25012 12.0568 6.25012 20.1767C6.25012 28.2965 12.8729 34.8405 21.3408 34.8405C26.8334 34.8405 29.9615 32.7256 31.9654 30.804C33.5906 29.2456 34.6598 27.0194 35.0813 23.9788L21.3408 23.9847Z" fill="black"/>
</svg>
