<svg width="163" height="34" viewBox="0 0 163 34" fill="none" xmlns="http://www.w3.org/2000/svg">
<path d="M27.3825 30.0859C19.8482 30.0859 13.7421 24.2276 13.7421 17.0016C13.7421 9.7751 19.8482 3.9225 27.3825 3.9225C30.0382 3.9225 32.5175 4.64876 34.6121 5.90762L27.3825 17.0016L40.9928 9.46587C39.5141 7.20668 37.3933 5.26003 34.8288 3.78284C31.5655 1.90941 27.026 0.75 22.0065 0.75C14.8463 0.75 8.56456 3.24499 5.06142 6.98137C2.46779 9.74344 0.923645 13.2197 0.923645 17.0014C0.923645 20.7857 2.46779 24.2645 5.06142 27.0285C8.57368 30.7696 14.7618 33.25 21.8039 33.25C28.8451 33.25 35.0314 30.7676 38.5458 27.0285C38.7383 26.8226 38.9246 26.6148 39.1009 26.3992L38.5702 24.4918C36.1009 27.8715 32.0111 30.0859 27.3825 30.0859Z" fill="black"/>
<path d="M72.5057 32.4633L66.7934 12.0294C65.8757 8.7273 62.7401 6.30029 59.0068 6.30029C58.0385 6.30029 57.1108 6.46617 56.2499 6.76647L43.9522 11.0545H56.6003L58.7617 18.7945C56.6652 17.0642 53.9346 16.0114 50.9448 16.0114C45.0076 16.0114 40.2008 19.8265 40.2008 24.5325C40.2008 29.2389 45.0076 33.0596 50.9448 33.0596C55.2189 33.0596 58.9987 31.0531 61.3302 27.9705L62.5841 32.4633H72.5057ZM55.0811 29.2894C52.3424 29.2894 50.1223 27.1625 50.1223 24.5325C50.1223 21.9064 52.3424 19.7775 55.0811 19.7775C57.8198 19.7775 60.0419 21.9064 60.0419 24.5325C60.0419 27.1625 57.8198 29.2894 55.0811 29.2894Z" fill="black"/>
<path d="M95.7965 6.30371C95.047 6.30371 94.3381 6.4626 93.7061 6.74716L85.8101 10.2757C85.4192 8.02175 83.3773 6.30371 80.9141 6.30371C80.1687 6.30371 79.4577 6.4626 78.8176 6.74716L69.1776 11.0544H75.9554V32.4634H85.877V13.4362C85.877 12.1233 86.985 11.0546 88.3584 11.0546C89.7236 11.0546 90.8398 12.1233 90.8398 13.4362V32.4634H100.757V11.0544C100.757 8.42887 98.5352 6.30391 95.7965 6.30391" fill="black"/>
<path d="M132.997 19.7773C132.997 27.2187 126.708 33.2498 118.95 33.2498C111.185 33.2498 104.892 27.2187 104.892 19.7773C104.892 12.3377 111.185 6.30371 118.95 6.30371C126.708 6.30371 132.997 12.3379 132.997 19.7773ZM119.531 10.3928C119.089 8.80745 117.39 7.86636 115.737 8.29252C114.086 8.71693 113.1 10.3476 113.543 11.9327L118.362 29.1611C118.808 30.7481 120.503 31.6882 122.156 31.2686C123.809 30.8393 124.792 29.2097 124.348 27.6247L119.531 10.3928Z" fill="black"/>
<path d="M158.016 6.30371C157.265 6.30371 156.552 6.4626 155.909 6.74716L148.022 10.2757C147.633 8.02175 145.591 6.30371 143.128 6.30371C142.382 6.30371 141.671 6.4626 141.029 6.74716L131.393 11.0544H138.169V32.4634H148.088V13.4362C148.088 12.1233 149.198 11.0546 150.572 11.0546C151.941 11.0546 153.049 12.1233 153.049 13.4362V32.4634H162.975V11.0544C162.975 8.42887 160.751 6.30391 158.016 6.30391" fill="black"/>
</svg>
