<svg width="162" height="48" viewBox="0 0 162 48" fill="none" xmlns="http://www.w3.org/2000/svg">
<path fill-rule="evenodd" clip-rule="evenodd" d="M100.743 36.6301C91.3246 43.8942 77.6692 47.7578 65.9112 47.7578C49.4312 47.7578 34.592 41.3919 23.3611 30.7942C22.4795 29.9621 23.266 28.8249 24.3257 29.4696C36.4423 36.8383 51.4249 41.276 66.9003 41.276C77.3397 41.276 88.8154 39.0116 99.3743 34.3313C100.967 33.6247 102.302 35.4281 100.743 36.6301Z" fill="black"/>
<path fill-rule="evenodd" clip-rule="evenodd" d="M105.243 33.1673C104.008 31.7571 97.0862 32.4989 93.9773 32.8307C93.0354 32.9316 92.8891 32.1982 93.7383 31.6656C99.2597 28.2044 108.307 29.2042 109.358 30.362C110.418 31.5314 109.081 39.6266 103.906 43.4898C103.11 44.0843 102.353 43.7676 102.706 42.9821C103.87 40.3876 106.477 34.5774 105.243 33.1673Z" fill="black"/>
<path fill-rule="evenodd" clip-rule="evenodd" d="M92.7823 6.08365V2.47777C92.7847 1.92894 93.2247 1.56306 93.7543 1.56417L110.94 1.5625C111.489 1.5625 111.93 1.93898 111.931 2.47331L111.93 5.56606C111.926 6.08477 111.462 6.76188 110.636 7.83612L101.734 19.7893C105.039 19.7168 108.534 20.1814 111.537 21.7688C112.214 22.1263 112.395 22.6573 112.448 23.1766V27.024C112.448 27.5544 111.832 28.1679 111.184 27.8489C105.893 25.2431 98.8741 24.9581 93.0255 27.8801C92.4277 28.1796 91.802 27.575 91.802 27.0446V23.3869C91.802 22.8018 91.8139 21.8006 92.4413 20.9082L102.755 6.99335L93.7751 6.99168C93.2265 6.99168 92.7859 6.62356 92.7823 6.08365Z" fill="black"/>
<path fill-rule="evenodd" clip-rule="evenodd" d="M34.2672 27.9597H29.3634C28.8966 27.9303 28.5234 27.5926 28.4861 27.1622L28.4894 2.94498C28.4894 2.4606 28.9128 2.0731 29.4357 2.0731L34.003 2.07203C34.4808 2.09558 34.8647 2.44348 34.8947 2.88504V6.04714H34.9865C36.177 2.98941 38.42 1.5625 41.4413 1.5625C44.5088 1.5625 46.4314 2.98941 47.8049 6.04714C48.9948 2.98941 51.6957 1.5625 54.5801 1.5625C56.6401 1.5625 58.8831 2.37765 60.2567 4.21239C61.8132 6.25052 61.4933 9.20656 61.4933 11.8056L61.4894 27.0878C61.4894 27.5717 61.0655 27.9597 60.5437 27.9597H55.6449C55.1526 27.9292 54.7643 27.554 54.7643 27.09L54.7632 14.2516C54.7632 13.2325 54.8549 10.6843 54.6257 9.71609C54.2597 8.08527 53.161 7.62658 51.7419 7.62658C50.5519 7.62658 49.3153 8.39088 48.8118 9.6144C48.3083 10.8374 48.3545 12.8755 48.3545 14.2516V27.0878C48.3545 27.5717 47.9306 27.9597 47.4082 27.9597H42.51C42.0176 27.9292 41.6293 27.554 41.6293 27.09L41.6243 14.2516C41.6243 11.5508 42.0822 7.57574 38.603 7.57574C35.0777 7.57574 35.2151 11.4486 35.2151 14.2516L35.2135 27.0878C35.214 27.5717 34.7901 27.9597 34.2672 27.9597Z" fill="black"/>
<path fill-rule="evenodd" clip-rule="evenodd" d="M127.544 5.33477C123.964 5.33477 123.737 10.2163 123.737 13.2607C123.737 16.3057 123.692 22.8153 127.499 22.8153C131.26 22.8153 131.441 17.5655 131.441 14.3634C131.441 12.2639 131.351 9.74432 130.716 7.74905C130.172 6.01677 129.084 5.33477 127.544 5.33477ZM127.499 0.242676C134.704 0.242676 138.601 6.43688 138.601 14.311C138.601 21.9221 134.297 27.9598 127.499 27.9598C120.43 27.9598 116.578 21.765 116.578 14.0486C116.578 6.2792 120.475 0.242676 127.499 0.242676Z" fill="black"/>
<path fill-rule="evenodd" clip-rule="evenodd" d="M147.272 27.9597H142.264C141.76 27.9292 141.362 27.554 141.362 27.09L141.354 2.86363C141.396 2.421 141.813 2.0731 142.319 2.0731L146.982 2.07203C147.421 2.09291 147.783 2.37443 147.875 2.75016V6.45444H147.97C149.377 3.14194 151.348 1.5625 154.82 1.5625C157.072 1.5625 159.278 2.3268 160.686 4.41631C162 6.35275 162 9.6144 162 11.9581V27.1965C161.943 27.6263 161.533 27.9597 161.036 27.9597H155.997C155.532 27.9314 155.156 27.6108 155.102 27.1965V14.0477C155.102 11.3978 155.43 7.52489 151.958 7.52489C150.737 7.52489 149.611 8.28919 149.049 9.46133C148.345 10.9391 148.251 12.4168 148.251 14.0477V27.0878C148.242 27.5717 147.807 27.9597 147.272 27.9597Z" fill="black"/>
<path fill-rule="evenodd" clip-rule="evenodd" d="M86.1418 27.3112C85.8111 27.5955 85.3349 27.6145 84.9623 27.4227C83.3043 26.0998 83.0071 25.4884 82.101 24.2298C79.3604 26.9091 77.4193 27.7123 73.8705 27.7123C69.6678 27.7123 66.3983 25.2232 66.3983 20.245C66.3983 16.3554 68.5931 13.7109 71.7222 12.4141C74.4306 11.2728 78.2137 11.0658 81.109 10.7544V10.1321C81.109 8.99134 81.2024 7.64299 80.5019 6.65767C79.8944 5.77616 78.7273 5.41312 77.6996 5.41312C75.7958 5.41312 74.1033 6.34952 73.6871 8.29026C73.601 8.72178 73.2726 9.14895 72.8201 9.17069L67.9815 8.66852C67.5732 8.57993 67.1191 8.26526 67.2369 7.6669C68.349 2.03272 73.6497 0.330566 78.4006 0.330566C80.8287 0.330566 84.0042 0.952842 85.9187 2.71641C88.3474 4.89465 88.1135 7.79842 88.1135 10.962V18.4266C88.1135 20.6716 89.0858 21.657 89.998 22.8667C90.3168 23.3026 90.3887 23.8211 89.9816 24.1395C88.9618 24.9596 87.1503 26.4705 86.1532 27.3216L86.1418 27.3112ZM81.109 15.6293C81.109 17.4967 81.1554 19.0521 80.1746 20.7119C79.3808 22.0602 78.1203 22.8896 76.7188 22.8896C74.8043 22.8896 73.6837 21.489 73.6837 19.4151C73.6837 15.3347 77.4974 14.5924 81.109 14.5924V15.6293Z" fill="black"/>
<path fill-rule="evenodd" clip-rule="evenodd" d="M20.7004 27.3112C20.3697 27.5955 19.8929 27.6145 19.5209 27.4227C17.8623 26.0998 17.5656 25.4884 16.6591 24.2298C13.9195 26.9091 11.9784 27.7123 8.42912 27.7123C4.22582 27.7123 0.957397 25.2232 0.957397 20.245C0.957397 16.3554 3.1522 13.7109 6.28075 12.4141C8.98971 11.2728 12.7723 11.0658 15.6675 10.7544V10.1321C15.6675 8.99134 15.761 7.64299 15.0605 6.65767C14.4535 5.77616 13.2853 5.41312 12.2587 5.41312C10.3549 5.41312 8.66128 6.34952 8.24622 8.29026C8.15958 8.72178 7.83172 9.14895 7.37872 9.17069L2.54064 8.66852C2.13181 8.57993 1.67711 8.26526 1.79545 7.6669C2.90701 2.03272 8.20828 0.330566 12.9586 0.330566C15.3872 0.330566 18.5628 0.952842 20.4779 2.71641C22.906 4.89465 22.6727 7.79842 22.6727 10.962V18.4266C22.6727 20.6716 23.6438 21.657 24.5566 22.8667C24.8748 23.3026 24.9467 23.8211 24.5402 24.1395C23.5209 24.9596 21.7083 26.4705 20.7123 27.3216L20.7004 27.3112ZM15.6676 15.6293C15.6676 17.4967 15.7146 19.0521 14.7332 20.7119C13.9399 22.0602 12.6789 22.8896 11.278 22.8896C9.36345 22.8896 8.24227 21.489 8.24227 19.4151C8.24227 15.3347 12.0566 14.5924 15.6676 14.5924V15.6293Z" fill="black"/>
</svg>
