<svg width="231" height="28" viewBox="0 0 231 28" fill="none" xmlns="http://www.w3.org/2000/svg">
<path d="M8.17334 12.8864C7.91619 12.5752 7.43862 12.5061 7.108 12.7481C6.99779 12.8172 6.92432 12.9209 6.88758 13.0247L0.275085 25.5058C0.091405 25.8861 0.238349 26.3355 0.642446 26.5084C0.752654 26.543 0.862863 26.5775 1.00981 26.5775H10.2306C10.5245 26.5775 10.8183 26.4392 10.9285 26.1627C12.8756 22.2904 11.6633 16.4129 8.17334 12.8864Z" fill="black"/>
<path d="M13.3052 0.463237C9.8585 5.54901 9.44186 11.9693 12.2447 17.4158L16.8277 26.1446C16.9792 26.3971 17.2443 26.5774 17.5473 26.5774H27.0542C27.5087 26.5774 27.8875 26.2167 27.8875 25.7839C27.8875 25.6757 27.8496 25.5314 27.8117 25.4232C27.8117 25.4232 15.0096 1.04035 14.7066 0.427167C14.5172 0.0664745 14.0627 -0.0778027 13.684 0.102544C13.4946 0.210752 13.381 0.31896 13.3052 0.463237Z" fill="black"/>
<path fill-rule="evenodd" clip-rule="evenodd" d="M144.442 20.7984C144.442 20.8053 144.442 20.8123 144.442 20.8192L127.102 11.1379C127.102 11.1171 127.102 11.0963 127.102 11.0755L144.442 20.7984ZM144.442 20.7984L144.479 20.8192C144.479 25.0821 141.949 27.9748 135.661 27.9748C131.195 27.9748 128.814 26.9471 126.991 26.0337V20.5147C129.67 22.0753 132.684 22.9126 135.735 22.9507C138.265 22.9507 139.01 22.1514 139.01 20.9715C139.01 19.7535 138.265 19.1445 134.656 18.3833C128.665 17.1728 127.121 14.4961 127.102 11.1379L126.991 11.0755C126.991 6.81261 130.005 4.22443 135.847 4.22443C138.414 4.14831 140.944 4.68117 143.289 5.78495V11.1136C140.87 9.97171 138.303 9.17242 135.698 9.17242C133.54 9.17242 132.386 9.74334 132.386 11.0755C132.386 12.1032 133.205 12.8644 136.442 13.5876C142.348 14.8794 144.435 16.7781 144.442 20.7984Z" fill="black"/>
<path d="M210.062 4.21729V26.5773H215.047V9.53933L217.134 14.0483L224.206 26.5773H230.466V4.21729H225.481V18.6681L223.588 14.4548L217.907 4.21729H210.062Z" fill="black"/>
<rect x="172.17" y="4.21729" width="5.8296" height="22.36" fill="black"/>
<path d="M167.798 20.8192C167.798 16.7847 165.55 14.8816 159.168 13.5876C155.675 12.8644 154.792 12.1032 154.792 11.0755C154.792 9.74334 156.037 9.17242 158.365 9.17242C161.175 9.17242 163.944 9.97171 166.553 11.1136V5.78495C164.025 4.68117 161.295 4.14831 158.525 4.22443C152.223 4.22443 148.972 6.81261 148.972 11.0755C148.972 14.463 150.618 17.1653 157.121 18.3833C161.014 19.1445 161.817 19.7535 161.817 20.9715C161.817 22.1514 161.014 22.9507 158.285 22.9507C154.993 22.9126 151.742 22.0753 148.852 20.5147V26.0337C150.818 26.9471 153.387 27.9748 158.204 27.9748C165.108 27.9367 167.798 25.0821 167.798 20.8192Z" fill="black"/>
<path d="M84.7261 4.21729V26.5773H96.0807L97.8427 21.7357H90.2859V4.21729H84.7261Z" fill="black"/>
<path d="M62.8651 4.21729V9.05887H68.7572V26.5773H74.0864V9.05887H80.3538V4.21729H62.8651Z" fill="black"/>
<path fill-rule="evenodd" clip-rule="evenodd" d="M47.6391 4.21729H54.7727L62.8651 26.5773H56.6903L55.5397 22.8075C52.7016 23.6206 49.7101 23.6206 46.872 22.8075L45.7215 26.5773H39.5467L47.6391 4.21729ZM48.2144 18.3725C49.2115 18.6312 50.2087 18.779 51.2059 18.779C52.2031 18.779 53.2002 18.6681 54.1974 18.3725L51.2059 8.61537L48.2144 18.3725Z" fill="black"/>
<path fill-rule="evenodd" clip-rule="evenodd" d="M107.392 4.21729H114.526L122.618 26.5773H116.444L115.293 22.8075C112.455 23.6206 109.463 23.6206 106.625 22.8075L105.475 26.5773H99.3L107.392 4.21729ZM107.968 18.3725C108.965 18.6312 109.962 18.779 110.959 18.779C111.956 18.779 112.954 18.6681 113.951 18.3725L110.959 8.61537L107.968 18.3725Z" fill="black"/>
<path fill-rule="evenodd" clip-rule="evenodd" d="M190.464 4.21729H197.598L205.69 26.5773H199.515L198.365 22.8075C195.527 23.6206 192.535 23.6206 189.697 22.8075L188.547 26.5773H182.372L190.464 4.21729ZM191.04 18.3725C192.037 18.6312 193.034 18.779 194.031 18.779C195.028 18.779 196.025 18.6681 197.023 18.3725L194.031 8.61537L191.04 18.3725Z" fill="black"/>
</svg>
