<svg width="221" height="52" viewBox="0 0 221 52" fill="none" xmlns="http://www.w3.org/2000/svg">
<path fill-rule="evenodd" clip-rule="evenodd" d="M125.009 34.1371C125.009 34.5562 124.968 34.9911 124.854 35.3674C124.372 36.9411 122.715 38.274 120.647 38.274C118.924 38.274 117.549 37.3064 117.549 35.2648C117.549 32.1419 121.038 31.2794 125.009 31.3001V34.1371ZM131.235 28.6965C131.235 23.5443 129.002 19.0127 121.461 19.0127C117.591 19.0127 114.515 20.0842 112.838 21.0384L114.065 25.179C115.598 24.2248 118.042 23.4355 120.353 23.4355C124.18 23.427 124.806 25.5724 124.806 26.9469V27.2719C116.464 27.2585 111.195 30.1052 111.195 35.9062C111.195 39.4494 113.88 42.7702 118.545 42.7702C121.418 42.7702 123.817 41.64 125.255 39.8318H125.4C125.4 39.8318 126.35 43.7574 131.598 42.2583C131.326 40.6223 131.235 38.8764 131.235 36.7798V28.6965Z" fill="black"/>
<path fill-rule="evenodd" clip-rule="evenodd" d="M0.432495 13.4229C0.432495 13.4229 5.84075 34.5563 6.70421 37.9869C7.71157 41.991 9.52703 43.4629 14.7619 42.4718L18.1382 29.3688C18.9955 26.1118 19.5687 23.7931 20.1185 20.4822H20.2156C20.6006 23.8271 21.1529 26.1224 21.8577 29.3794C21.8577 29.3794 23.2316 35.3269 23.9363 38.4513C24.6436 41.5734 26.6066 43.5438 31.7332 42.4718L39.7823 13.4229H33.2843L30.5365 25.9817C29.796 29.6362 29.1294 32.4945 28.6103 35.8394H28.5193C28.0482 32.5273 27.4529 29.784 26.7001 26.2233L23.8404 13.4229H17.0681L14.0103 25.8996C13.1432 29.6914 12.3326 32.7537 11.816 35.9825H11.7238C11.1949 32.9413 10.4901 29.0932 9.73121 25.4234C9.73121 25.4234 7.91082 16.5004 7.27369 13.4229" fill="black"/>
<path fill-rule="evenodd" clip-rule="evenodd" d="M52.1359 34.1371C52.1359 34.5562 52.0999 34.9911 51.981 35.3674C51.4989 36.9411 49.8446 38.274 47.7763 38.274C46.0501 38.274 44.6796 37.3064 44.6796 35.2648C44.6796 32.1419 48.1667 31.2794 52.1359 31.3001V34.1371ZM58.3617 28.6965C58.3617 23.5443 56.1299 19.0127 48.5893 19.0127C44.7155 19.0127 41.6435 20.0842 39.9644 21.0384L41.1937 25.179C42.7266 24.2248 45.1678 23.4355 47.4814 23.4355C51.3093 23.427 51.9351 25.5724 51.9351 26.9469V27.2719C43.5928 27.2585 38.3249 30.1052 38.3249 35.9062C38.3249 39.4494 41.0078 42.7702 45.6722 42.7702C48.5422 42.7702 50.9438 41.64 52.3825 39.8318H52.5225C52.5225 39.8318 53.4767 43.7574 58.7285 42.2583C58.4509 40.6223 58.3617 38.8764 58.3617 36.7798V28.6965Z" fill="black"/>
<path fill-rule="evenodd" clip-rule="evenodd" d="M68.9303 36.5383V13.4229H63.1007V42.7704H68.9303" fill="black"/>
<path fill-rule="evenodd" clip-rule="evenodd" d="M152.002 13.4229V34.7154C152.002 37.6459 152.593 39.7048 153.861 40.962C154.965 42.0584 156.787 42.7704 158.97 42.7704C160.83 42.7704 162.658 42.4418 163.516 42.1423L163.435 37.562C162.796 37.7088 162.057 37.8265 161.049 37.8265C158.911 37.8265 158.194 36.5494 158.194 33.9126V25.7703H163.661V20.2473H158.194V13.4229" fill="black"/>
<path fill-rule="evenodd" clip-rule="evenodd" d="M135.971 20.9038V42.7702H142.213V31.5725C142.213 30.9685 142.253 30.4408 142.349 29.9589C142.814 27.6132 144.649 26.1159 147.289 26.1159C148.012 26.1159 148.531 26.1911 149.087 26.2699V20.5453C148.62 20.4513 148.3 20.4102 147.714 20.4102C145.381 20.4102 142.731 21.8768 141.618 25.0277H141.447V20.9038" fill="black"/>
<path fill-rule="evenodd" clip-rule="evenodd" d="M73.3025 20.9038V42.7702H79.6705V29.946C79.6705 29.3455 79.7435 28.7073 79.9703 28.1573C80.4992 26.8657 81.7865 25.3532 83.8394 25.3532C86.4088 25.3532 87.6116 27.3793 87.6116 30.308V42.7702H93.9721V29.7909C93.9721 29.2174 94.0565 28.5275 94.2391 28.0174C94.7606 26.5484 96.1473 25.3532 98.0592 25.3532C100.665 25.3532 101.915 27.3464 101.915 30.7886V42.7702H108.28V29.8919C108.28 23.0979 104.583 20.4102 100.413 20.4102C98.5643 20.4102 97.1058 20.8415 95.7883 21.5971C94.6787 22.2329 93.6875 23.1332 92.8197 24.3202H92.7265C91.7189 21.9638 89.3523 20.4102 86.2665 20.4102C82.3041 20.4102 80.5244 22.2835 79.4413 23.8747H79.3468V20.9038" fill="black"/>
<path fill-rule="evenodd" clip-rule="evenodd" d="M197.905 17.6152C199.151 17.6152 200.182 17.0083 200.32 16.2251L201.554 3.19007C201.554 1.90268 199.939 0.845215 197.908 0.845215C195.881 0.845215 194.267 1.90268 194.267 3.19007L195.499 16.2251C195.634 17.0083 196.664 17.6152 197.913 17.6152" fill="black"/>
<path fill-rule="evenodd" clip-rule="evenodd" d="M189.471 21.7804C190.071 20.6967 190.024 19.4751 189.39 18.9352L178.349 10.8694C177.202 10.1803 175.48 11.0122 174.501 12.7775C173.524 14.539 173.694 16.5084 174.841 17.2L187.065 23.1272C187.833 23.4241 188.874 22.8553 189.474 21.7753" fill="black"/>
<path fill-rule="evenodd" clip-rule="evenodd" d="M204.887 21.7753C205.491 22.8553 206.527 23.4241 207.293 23.1272L219.521 17.1999C220.673 16.5083 220.838 14.5388 219.858 12.7773C218.881 11.0133 217.16 10.1802 216.011 10.8692L204.969 18.9351C204.337 19.4751 204.295 20.6966 204.891 21.7803" fill="black"/>
<path fill-rule="evenodd" clip-rule="evenodd" d="M197.905 34.3853C199.151 34.3853 200.182 34.9921 200.32 35.7752L201.554 48.8084C201.554 50.0956 199.939 51.1553 197.908 51.1553C195.881 51.1553 194.267 50.0956 194.267 48.8084L195.499 35.7752C195.634 34.9921 196.664 34.3853 197.913 34.3853" fill="black"/>
<path fill-rule="evenodd" clip-rule="evenodd" d="M204.887 28.829C205.491 27.7441 206.527 27.1804 207.293 27.476L219.521 33.4017C220.673 34.0945 220.838 36.0638 219.858 37.8277C218.881 39.5879 217.16 40.4235 216.011 39.7345L204.969 31.6691C204.337 31.1266 204.295 29.9064 204.891 28.824" fill="black"/>
<path fill-rule="evenodd" clip-rule="evenodd" d="M189.471 28.8257C190.071 29.9083 190.024 31.1274 189.39 31.6712L178.349 39.7339C177.202 40.423 175.48 39.5911 174.501 37.8307C173.524 36.0665 173.694 34.0944 174.841 33.4015L187.065 27.4775C187.833 27.1781 188.874 27.7444 189.474 28.8295" fill="black"/>
</svg>
