<svg width="44" height="44" viewBox="0 0 44 44" fill="none" xmlns="http://www.w3.org/2000/svg">
<path d="M22 0C9.84972 0 0 9.84972 0 22C0 34.1502 9.84972 43.9999 22 43.9999C34.1502 43.9999 43.9999 34.1502 43.9999 22C43.987 9.85515 34.1448 0.0129827 22 0ZM31.265 22.7009C31.1127 23.0064 30.8651 23.2541 30.5595 23.4064V23.4142L17.9881 29.7C17.2117 30.0879 16.268 29.7731 15.8799 28.9967C15.7696 28.776 15.7128 28.5324 15.7142 28.2857V15.7143C15.7138 14.8464 16.417 14.1426 17.2849 14.1421C17.529 14.142 17.7698 14.1987 17.9881 14.3078L30.5595 20.5936C31.3363 20.9807 31.6522 21.9242 31.265 22.7009Z" fill="#00A558"/>
</svg>
