<svg width="81" height="81" viewBox="0 0 81 81" fill="none" xmlns="http://www.w3.org/2000/svg">
<path d="M40.5053 78.2405C31.5359 78.2405 24.5078 61.6617 24.5078 40.4998C24.5078 19.3365 31.5359 2.75879 40.5053 2.75879C49.4747 2.75879 56.5016 19.3365 56.5016 40.4998C56.5005 61.6617 49.4747 78.2405 40.5053 78.2405ZM40.5053 5.11759C33.1129 5.11759 26.8666 21.3202 26.8666 40.4998C26.8666 59.6792 33.1141 75.8818 40.5053 75.8818C47.8966 75.8818 54.1427 59.6792 54.1427 40.4998C54.1427 21.3202 47.8977 5.11759 40.5053 5.11759Z" fill="white"/>
<path d="M18.7945 64.5013C13.6642 64.5013 10.0245 62.9739 8.27194 60.0833C3.61918 52.4077 14.1277 37.7926 32.1985 26.8112C42.8249 20.3528 54.0422 16.4984 62.2061 16.4984C67.3365 16.4984 70.9737 18.0257 72.7264 20.9154C77.3815 28.592 66.8706 43.2061 48.8022 54.1887C38.1758 60.6459 26.9585 64.5013 18.7945 64.5013ZM62.2061 18.8561C54.455 18.8561 43.6953 22.583 33.424 28.8255C17.0454 38.7774 6.45212 52.5315 10.2899 58.8592C11.9352 61.5728 15.8225 62.1413 18.7945 62.1413C26.5432 62.1413 37.303 58.4145 47.5767 52.1719C63.9527 42.2201 74.5462 28.4647 70.7084 22.1371C69.0643 19.4256 65.1782 18.8561 62.2061 18.8561Z" fill="white"/>
<path d="M62.1431 64.0233C54.0464 64.0233 42.966 60.412 32.5035 54.3664C14.1968 43.7848 3.36865 29.4056 7.85274 21.6286C9.61005 18.5833 13.416 16.9746 18.8637 16.9746C26.9602 16.9746 38.0408 20.5847 48.501 26.6315C66.8088 37.2131 77.6357 51.5937 73.1504 59.3695C71.3954 62.4134 67.5884 64.0233 62.1431 64.0233ZM18.8637 19.3334C15.6875 19.3334 11.5525 19.936 9.89547 22.8068C6.19804 29.2179 17.0922 42.734 33.6817 52.3237C43.8009 58.1724 54.4415 61.6645 62.1419 61.6645C65.3181 61.6645 69.4506 61.0607 71.1077 58.1899C74.8052 51.7788 63.911 38.2628 47.3216 28.673C37.2021 22.8245 26.5652 19.3334 18.8637 19.3334Z" fill="white"/>
<path d="M40.4995 46.7143C37.0767 46.7143 34.291 43.9272 34.291 40.4999C34.291 37.0726 37.0756 34.2856 40.4995 34.2856C43.9233 34.2856 46.7078 37.0726 46.7078 40.4999C46.7078 43.9272 43.9221 46.7143 40.4995 46.7143ZM40.4995 36.6444C38.3753 36.6444 36.6498 38.3734 36.6498 40.4999C36.6498 42.6251 38.3753 44.3553 40.4995 44.3553C42.6212 44.3553 44.349 42.6251 44.349 40.4999C44.349 38.3734 42.6212 36.6444 40.4995 36.6444Z" fill="white"/>
</svg>
