<svg width="243" height="198" viewBox="0 0 243 198" fill="none" xmlns="http://www.w3.org/2000/svg">
<path d="M61.0988 51.2605C48.434 60.6854 33.4179 61.933 27.555 54.0546C21.692 46.1763 27.1993 32.1508 39.8641 22.7261C52.5285 13.3016 67.5531 12.0476 73.416 19.926C79.279 27.8043 73.7632 41.8361 61.0988 51.2605Z" fill="url(#paint0_linear_9_3581)"/>
<path d="M3.75257 190.202L2.54062 195.265C2.33258 196.334 3.12744 197.335 4.2153 197.371C8.68246 197.521 17.463 197.373 19.0843 197.358C19.2137 197.357 19.3166 197.255 19.3226 197.126C19.395 195.577 18.3661 194.592 16.8505 193.831L11.0067 189.895C10.9959 189.889 10.9833 189.886 10.9708 189.886L3.75257 190.202Z" fill="#373A50"/>
<path d="M3.75168 190.202C3.81732 191.702 11.0364 191.386 10.9708 189.886L11.1136 183.957L4.35391 183.747L3.75168 190.202Z" fill="#FFDAD9"/>
<path d="M25.3492 190.202L24.1372 195.265C23.9292 196.334 24.7241 197.335 25.8119 197.371C30.2791 197.521 39.0596 197.373 40.6809 197.358C40.8103 197.357 40.9132 197.255 40.9192 197.126C40.9916 195.577 39.9627 194.592 38.4471 193.831L32.6033 189.895C32.5925 189.889 32.58 189.886 32.5674 189.886L25.3492 190.202Z" fill="#373A50"/>
<path d="M25.3483 190.202C25.414 191.702 32.633 191.386 32.5674 189.886L32.7102 183.957L25.9506 183.747L25.3483 190.202Z" fill="#FFDAD9"/>
<path d="M35.4052 123.496L33.5539 187.968C33.5539 188.507 24.1366 188.507 24.1366 187.968L21.239 135.811L11.8962 187.968C11.8962 188.507 2.76071 188.507 2.76071 187.968L7.79716 123.496H35.4052Z" fill="#00A558"/>
<path d="M28.1229 93.6116L29.4032 94.581L32.3958 96.8507L38.7123 95.5341L40.4853 95.1624C39.8189 92.2829 34.4556 83.5635 34.4556 83.5635L28.1229 93.6116Z" fill="#F34B6D"/>
<path d="M29.4032 94.5809L32.3959 96.8505L38.7124 95.534C38.6195 95.3725 38.5265 95.2069 38.4377 95.0454C37.739 93.7811 37.0969 92.4766 36.5799 91.1237C36.1034 89.8799 35.9701 88.4541 35.4208 87.2587C34.6575 85.5828 33.9871 87.6868 33.5509 88.438C32.9007 89.5528 32.0324 90.5341 31.0066 91.3136C30.2836 91.8627 29.4234 92.396 29.2174 93.2763C29.1124 93.7166 29.2013 94.1729 29.4032 94.5809Z" fill="#E24067"/>
<path d="M6.80687 124.516C6.80687 125.364 9.2866 125.978 12.8083 126.357C21.4794 127.282 36.479 126.761 36.479 124.677C36.5396 122.516 36.9879 87.6425 34.4557 83.5634C29.4679 75.5223 11.2454 77.8284 6.66555 82.7113C5.53472 83.9148 5.09047 88.2441 5.02584 93.7044C4.88849 104.993 6.37877 121.123 6.80687 124.516Z" fill="#F34B6D"/>
<path d="M6.80692 124.516C6.80692 125.364 9.28665 125.978 12.8084 126.357C11.1081 123.599 10.579 120.206 10.6437 116.943C10.7163 113.349 11.4393 109.799 11.7583 106.216C12.2753 100.477 11.7664 94.7022 11.2535 88.9672L11.2495 90.2111C10.2963 90.518 9.3392 90.8251 8.43449 91.2571C7.16234 91.8629 6.0234 92.7071 5.02584 93.7045C4.88854 104.993 6.37882 121.123 6.80692 124.516Z" fill="#E24067"/>
<path d="M17.2863 69.2849L17.3533 78.9409C17.3533 78.9409 22.7557 84.4189 25.1086 83.5056C27.4297 82.6046 25.1169 78.9243 25.1169 78.9243L24.9704 76.4305L24.7673 73.0064L21.1402 71.2024L17.2863 69.2849Z" fill="#FFDAD9"/>
<path d="M21.0751 73.0054C22.0055 74.6114 25.0139 77.0152 25.0139 77.0152L24.8109 73.5911L21.1837 71.7871C20.905 72.1224 20.8011 72.5331 21.0751 73.0054Z" fill="#FECDCB"/>
<path d="M28.8076 75.9058C25.3099 77.7767 17.4815 71.8657 16.7211 71.2904C16.6814 71.251 16.6617 71.2375 16.6617 71.2375C16.6617 71.2375 13.6096 70.7047 13.7881 68.1458C14.046 64.5755 16.5624 66.9662 16.5624 66.9662L14.5656 60.5529L17.2037 56.7178L29.4952 58.1594C29.4952 58.1594 30.0307 60.9959 30.368 64.4142C30.8309 69.0557 30.9234 74.7749 28.8076 75.9058Z" fill="#FFDAD9"/>
<path d="M31.4964 63.3013C31.027 63.4337 20.1137 62.4694 19.3402 62.5753C18.441 62.7008 18.1161 67.363 17.5409 67.6607C16.9656 67.958 16.5624 66.9662 16.5624 66.9662C16.5624 66.9662 14.0459 64.5755 13.788 68.1458C13.6095 70.7047 16.6511 71.2356 16.6511 71.2356C16.6511 71.2356 17.3382 71.7367 17.378 71.7761L17.4978 75.7587C10.9124 71.0313 8.85298 63.0389 11.8481 58.5429C14.8433 54.0534 19.8948 53.9675 23.7231 54.3311C27.5513 54.6949 29.0094 51.922 31.9186 53.337C34.8278 54.7455 34.8553 62.3625 31.4964 63.3013Z" fill="#111228"/>
<path d="M29.0448 66.1599C28.9389 65.7319 28.6038 65.4417 28.2923 65.5214C27.985 65.5958 27.8217 66.0039 27.9323 66.4315" fill="url(#paint1_linear_9_3581)"/>
<path d="M24.5782 66.618C24.4722 66.1899 24.1325 65.9002 23.8256 65.9794C23.5184 66.0538 23.355 66.4619 23.461 66.89" fill="url(#paint2_linear_9_3581)"/>
<path d="M29.0434 66.1584C28.9398 65.7312 28.6034 65.4439 28.2932 65.5207C27.9867 65.597 27.8226 66.0029 27.9303 66.4334" fill="url(#paint3_linear_9_3581)"/>
<path d="M24.5774 66.6163C24.47 66.1895 24.1337 65.9022 23.8273 65.9785C23.517 66.0552 23.3528 66.4612 23.4606 66.8917" fill="url(#paint4_linear_9_3581)"/>
<path d="M23.4606 66.8917C23.5684 67.3223 23.9006 67.6062 24.2108 67.5296C24.5177 67.4569 24.6814 67.0472 24.5774 66.6163C24.47 66.1895 24.1337 65.9022 23.8273 65.9785C23.517 66.0552 23.3528 66.4612 23.4606 66.8917Z" fill="#111228"/>
<path d="M27.9303 66.4335C28.0344 66.8644 28.3703 67.148 28.6768 67.0717C28.9873 66.9986 29.1512 66.5889 29.0434 66.1584C28.9398 65.7312 28.6034 65.4439 28.2932 65.5207C27.9867 65.597 27.8226 66.003 27.9303 66.4335Z" fill="#111228"/>
<path d="M29.0733 65.1392C28.7315 65.0641 28.4549 64.9493 28.2313 65.0041C28.1249 65.0213 28.0163 65.085 27.905 65.1712C27.8061 65.2777 27.6908 65.3837 27.5447 65.4853C27.569 65.3174 27.6133 65.1461 27.6939 64.9894C27.7888 64.8351 27.9519 64.6989 28.1614 64.654C28.3683 64.6175 28.5653 64.6696 28.7181 64.7661C28.8738 64.8594 28.9824 64.9926 29.0733 65.1392Z" fill="#111228"/>
<path d="M24.2585 65.5022C23.9167 65.4271 23.6401 65.3123 23.4165 65.3671C23.3101 65.3843 23.2015 65.448 23.0901 65.5342C22.9912 65.6404 22.876 65.7466 22.7298 65.8482C22.7542 65.6804 22.7985 65.5091 22.879 65.3524C22.9739 65.198 23.1371 65.0618 23.3466 65.017C23.5534 64.9802 23.7504 65.0326 23.9032 65.1291C24.0589 65.2222 24.1675 65.3555 24.2585 65.5022Z" fill="#111228"/>
<path d="M26.3339 66.1102C26.454 66.53 26.5518 66.9526 26.6268 67.3781C26.7119 67.8028 26.7443 68.2365 26.8879 68.5999C26.9571 68.7866 27.0503 68.9358 27.1931 69.0843C27.3258 69.2377 27.5218 69.413 27.5808 69.6831C27.6378 69.9479 27.5463 70.1959 27.4144 70.3847C27.2728 70.5699 27.1045 70.7115 26.9243 70.8351C27.1872 70.4985 27.4327 70.092 27.312 69.7565C27.2539 69.6017 27.1136 69.4715 26.9502 69.3192C26.7842 69.1658 26.6376 68.9454 26.555 68.7283C26.3908 68.2802 26.3816 67.838 26.3513 67.4112C26.3228 66.9803 26.3171 66.5465 26.3339 66.1102Z" fill="#111228"/>
<path d="M26.1312 72.1712C26.2155 72.9933 26.8651 73.6003 27.5799 73.527C28.2909 73.4541 28.8039 72.7279 28.7196 71.9058C28.7181 71.891 28.7133 71.8803 28.7121 71.8691C28.0039 72.114 27.1447 72.2021 26.131 72.1338C26.1321 72.1449 26.1296 72.1564 26.1312 72.1712Z" fill="white"/>
<path d="M0.773274 95.9562C0.773274 95.9562 -1.27877 108.811 1.30278 111.3C5.10036 114.962 20.3782 107.334 20.3782 107.334L19.9763 102.807L8.98874 103.849L9.97894 96.3324L0.773274 95.9562Z" fill="#FFDAD9"/>
<path d="M19.9762 102.807C19.9762 102.807 27.67 101.096 28.3552 102.283C29.0405 103.471 27.201 103.466 27.201 103.466C27.201 103.466 32.164 105.14 30.8944 106.669C29.6248 108.199 20.3781 107.334 20.3781 107.334L19.9762 102.807Z" fill="#FFDAD9"/>
<path d="M28.1226 108.025H51.4177C52.4192 108.025 53.2835 107.322 53.4814 106.341L56.361 92.0401C56.6235 90.7395 55.626 89.524 54.2973 89.524H33.5748C32.5732 89.524 31.713 90.2266 31.5151 91.2081L28.4942 106.167L28.1226 108.025Z" fill="#373A50"/>
<path d="M18.2951 108.027H28.1223L28.4961 106.169H20.1529C19.1277 106.169 18.2951 107.002 18.2951 108.027Z" fill="#373A50"/>
<path d="M48.9962 107.661C48.9962 109.579 54.7047 109.579 54.7047 107.661C54.7047 105.734 53.4262 104.179 51.8504 104.179C50.2747 104.179 48.9962 105.734 48.9962 107.661Z" fill="#FFDAD9"/>
<path d="M0.617632 97.0385C0.499724 97.9133 10.9159 99.318 11.0338 98.4432C11.0338 98.4432 13.7396 78.1215 7.50047 81.9048C1.95395 85.2681 0.617632 97.0385 0.617632 97.0385Z" fill="#F34B6D"/>
<path d="M43.4049 100.671C44.2126 100.671 45.0083 99.6164 45.1819 98.312C45.3556 97.0117 44.8386 95.9574 44.0309 95.9574C43.2232 95.9574 42.4275 97.0117 42.2538 98.312C42.0802 99.6164 42.5971 100.671 43.4049 100.671Z" fill="#111228"/>
<path d="M194.775 6.75954V106.676C194.775 110.408 191.747 113.436 188.015 113.436H71.9184C68.8529 113.436 66.2628 111.397 65.4377 108.6C65.2573 107.993 65.159 107.343 65.159 106.676V6.75954C65.159 3.02733 68.1863 0 71.9185 0H188.015C191.747 5.66862e-05 194.775 3.02733 194.775 6.75954Z" fill="white"/>
<path d="M194.774 10.4379V6.76166C194.774 3.02796 191.747 0.0010376 188.013 0.0010376H71.9173C68.1836 0.0010376 65.1569 3.02802 65.1569 6.76166V10.4379H194.774Z" fill="url(#paint5_linear_9_3581)"/>
<path d="M73.3377 6.013C73.3377 6.9032 72.6186 7.6272 71.7283 7.6272C70.838 7.6272 70.1189 6.9032 70.1189 6.013C70.1189 5.12756 70.838 4.40356 71.7283 4.40356C72.6186 4.40356 73.3377 5.12756 73.3377 6.013Z" fill="white"/>
<path d="M77.8826 6.013C77.8826 6.9032 77.1634 7.6272 76.2731 7.6272C75.3828 7.6272 74.6638 6.9032 74.6638 6.013C74.6638 5.12756 75.3828 4.40356 76.2731 4.40356C77.1634 4.40356 77.8826 5.12756 77.8826 6.013Z" fill="white"/>
<path d="M82.4273 6.013C82.4273 6.9032 81.7082 7.6272 80.8179 7.6272C79.9276 7.6272 79.2085 6.9032 79.2085 6.013C79.2085 5.12756 79.9276 4.40356 80.8179 4.40356C81.7082 4.40356 82.4273 5.12756 82.4273 6.013Z" fill="white"/>
<path d="M134.362 61.9437V99.2817C134.362 101.623 132.456 103.511 130.115 103.511H65.123C62.7822 103.511 60.8755 101.623 60.8755 99.2817V61.9437C60.8755 59.584 62.7821 57.6962 65.123 57.6962H130.115C132.456 57.6962 134.362 59.584 134.362 61.9437Z" fill="#00A558"/>
<path d="M80.9852 68.5976H74.8051C74.5622 68.5976 74.3644 68.4004 74.3644 68.1575C74.3644 67.9146 74.5622 67.7173 74.8051 67.7173H80.9852C81.2281 67.7173 81.4258 67.9146 81.4258 68.1575C81.4258 68.4004 81.2281 68.5976 80.9852 68.5976Z" fill="white"/>
<path d="M72.0076 68.5976H68.6774C68.4345 68.5976 68.2367 68.4004 68.2367 68.1575C68.2367 67.9146 68.4345 67.7173 68.6774 67.7173H72.0076C72.2505 67.7173 72.4482 67.9146 72.4482 68.1575C72.4482 68.4004 72.2504 68.5976 72.0076 68.5976Z" fill="white"/>
<path d="M108.589 72.1977H102.742C102.499 72.1977 102.301 72.0005 102.301 71.7576C102.301 71.5147 102.499 71.3174 102.742 71.3174H108.589C108.832 71.3174 109.029 71.5147 109.029 71.7576C109.029 72.0005 108.832 72.1977 108.589 72.1977Z" fill="white"/>
<path d="M85.697 72.1977H79.3687C79.1258 72.1977 78.928 72.0005 78.928 71.7576C78.928 71.5147 79.1258 71.3174 79.3687 71.3174H85.697C85.9399 71.3174 86.1377 71.5147 86.1377 71.7576C86.1377 72.0005 85.9399 72.1977 85.697 72.1977Z" fill="white"/>
<path d="M76.8236 72.1977H71.8049C71.562 72.1977 71.3643 72.0005 71.3643 71.7576C71.3643 71.5147 71.562 71.3174 71.8049 71.3174H76.8236C77.0665 71.3174 77.2643 71.5147 77.2643 71.7576C77.2643 72.0005 77.0665 72.1977 76.8236 72.1977Z" fill="white"/>
<path d="M125.175 75.7976H107.832C107.589 75.7976 107.391 75.6004 107.391 75.3575C107.391 75.1146 107.589 74.9174 107.832 74.9174H125.175C125.418 74.9174 125.616 75.1146 125.616 75.3575C125.616 75.6004 125.418 75.7976 125.175 75.7976Z" fill="white"/>
<path d="M105.837 75.7976H83.3583C83.1154 75.7976 82.9177 75.6004 82.9177 75.3575C82.9177 75.1146 83.1154 74.9174 83.3583 74.9174H105.837C106.08 74.9174 106.278 75.1146 106.278 75.3575C106.278 75.6004 106.08 75.7976 105.837 75.7976Z" fill="white"/>
<path d="M80.4694 75.7976H71.8049C71.562 75.7976 71.3643 75.6004 71.3643 75.3575C71.3643 75.1146 71.562 74.9174 71.8049 74.9174H80.4694C80.7123 74.9174 80.91 75.1146 80.91 75.3575C80.91 75.6004 80.7123 75.7976 80.4694 75.7976Z" fill="white"/>
<path d="M105.665 79.3971H71.8049C71.562 79.3971 71.3643 79.1999 71.3643 78.957C71.3643 78.7141 71.562 78.5168 71.8049 78.5168H105.665C105.908 78.5168 106.106 78.7141 106.106 78.957C106.106 79.1999 105.908 79.3971 105.665 79.3971Z" fill="white"/>
<path d="M125.175 82.9971H106.353C106.11 82.9971 105.913 82.7999 105.913 82.557C105.913 82.3141 106.11 82.1169 106.353 82.1169H125.175C125.418 82.1169 125.616 82.3141 125.616 82.557C125.616 82.7999 125.418 82.9971 125.175 82.9971Z" fill="white"/>
<path d="M102.329 82.9971H80.4693C80.2264 82.9971 80.0286 82.7999 80.0286 82.557C80.0286 82.3141 80.2264 82.1169 80.4693 82.1169H102.329C102.572 82.1169 102.77 82.3141 102.77 82.557C102.77 82.7999 102.572 82.9971 102.329 82.9971Z" fill="white"/>
<path d="M78.1994 82.9971H71.8049C71.562 82.9971 71.3643 82.7999 71.3643 82.557C71.3643 82.3141 71.562 82.1169 71.8049 82.1169H78.1994C78.4423 82.1169 78.64 82.3141 78.64 82.557C78.64 82.7999 78.4423 82.9971 78.1994 82.9971Z" fill="white"/>
<path d="M102.948 86.5971H83.6678C83.4249 86.5971 83.2272 86.3999 83.2272 86.157C83.2272 85.9141 83.4249 85.7169 83.6678 85.7169H102.948C103.191 85.7169 103.389 85.9141 103.389 86.157C103.389 86.3999 103.191 86.5971 102.948 86.5971Z" fill="white"/>
<path d="M81.226 86.5971H71.8049C71.562 86.5971 71.3643 86.3999 71.3643 86.157C71.3643 85.9141 71.562 85.7169 71.8049 85.7169H81.226C81.4689 85.7169 81.6667 85.9141 81.6667 86.157C81.6667 86.3999 81.4689 86.5971 81.226 86.5971Z" fill="white"/>
<path d="M83.3583 90.1965H75.4479C75.205 90.1965 75.0072 89.9993 75.0072 89.7564C75.0072 89.5135 75.205 89.3163 75.4479 89.3163H83.3583C83.6012 89.3163 83.799 89.5135 83.799 89.7564C83.799 89.9993 83.6012 90.1965 83.3583 90.1965Z" fill="white"/>
<path d="M73.1779 90.1965H68.6773C68.4344 90.1965 68.2366 89.9993 68.2366 89.7564C68.2366 89.5135 68.4344 89.3163 68.6773 89.3163H73.1779C73.4208 89.3163 73.6186 89.5135 73.6186 89.7564C73.6186 89.9993 73.4208 90.1965 73.1779 90.1965Z" fill="white"/>
<path d="M109.238 93.7966H85.2843C85.0414 93.7966 84.8436 93.5994 84.8436 93.3565C84.8436 93.1136 85.0414 92.9164 85.2843 92.9164H109.238C109.481 92.9164 109.679 93.1136 109.679 93.3565C109.679 93.5994 109.481 93.7966 109.238 93.7966Z" fill="white"/>
<path d="M82.5328 93.7966H71.4953C71.2524 93.7966 71.0546 93.5994 71.0546 93.3565C71.0546 93.1136 71.2524 92.9164 71.4953 92.9164H82.5328C82.7757 92.9164 82.9735 93.1136 82.9735 93.3565C82.9735 93.5994 82.7757 93.7966 82.5328 93.7966Z" fill="white"/>
<path d="M106.762 97.3966H78.5089C78.266 97.3966 78.0682 97.1994 78.0682 96.9565C78.0682 96.7136 78.266 96.5164 78.5089 96.5164H106.762C107.005 96.5164 107.203 96.7136 107.203 96.9565C107.203 97.1994 107.005 97.3966 106.762 97.3966Z" fill="white"/>
<path d="M75.5854 97.3966H71.4953C71.2524 97.3966 71.0546 97.1994 71.0546 96.9565C71.0546 96.7136 71.2524 96.5164 71.4953 96.5164H75.5854C75.8283 96.5164 76.0261 96.7136 76.0261 96.9565C76.0261 97.1994 75.8283 97.3966 75.5854 97.3966Z" fill="white"/>
<path d="M66.9885 61.8236C66.9885 62.491 66.4462 63.0333 65.7741 63.0333C65.1067 63.0333 64.5598 62.491 64.5598 61.8236C64.5598 61.1515 65.1067 60.6093 65.7741 60.6093C66.4462 60.6093 66.9885 61.1515 66.9885 61.8236Z" fill="white"/>
<path d="M70.2215 61.8236C70.2215 62.491 69.6792 63.0333 69.0072 63.0333C68.3398 63.0333 67.7928 62.491 67.7928 61.8236C67.7928 61.1515 68.3397 60.6093 69.0072 60.6093C69.6792 60.6093 70.2215 61.1515 70.2215 61.8236Z" fill="white"/>
<path d="M73.4546 61.8236C73.4546 62.491 72.9123 63.0333 72.2403 63.0333C71.5728 63.0333 71.0259 62.491 71.0259 61.8236C71.0259 61.1515 71.5728 60.6093 72.2403 60.6093C72.9123 60.6093 73.4546 61.1515 73.4546 61.8236Z" fill="white"/>
<path d="M139.327 21.8096V97.9802C139.327 99.1786 140.298 100.149 141.496 100.149H186.646C187.844 100.149 188.819 99.1786 188.819 97.9802V21.8096C188.819 20.6113 187.844 19.6359 186.646 19.6359H141.496C140.298 19.6359 139.327 20.6113 139.327 21.8096Z" fill="url(#paint6_linear_9_3581)"/>
<path d="M157.264 29.4496H166.451C166.812 29.4496 167.106 29.1564 167.106 28.7953C167.106 28.4342 166.812 28.1411 166.451 28.1411H157.264C156.903 28.1411 156.609 28.4342 156.609 28.7953C156.609 29.1564 156.903 29.4496 157.264 29.4496Z" fill="white"/>
<path d="M151.795 35.6453H168.468C168.829 35.6453 169.123 35.3521 169.123 34.991C169.123 34.6299 168.829 34.3367 168.468 34.3367H151.795C151.434 34.3367 151.14 34.6299 151.14 34.991C151.14 35.3521 151.434 35.6453 151.795 35.6453Z" fill="#B2C7FF"/>
<path d="M145.696 41.8408H150.893C151.254 41.8408 151.548 41.5476 151.548 41.1866C151.548 40.8255 151.254 40.5323 150.893 40.5323H145.696C145.335 40.5323 145.041 40.8255 145.041 41.1866C145.041 41.5476 145.335 41.8408 145.696 41.8408Z" fill="#B2C7FF"/>
<path d="M155.187 41.8408H182.393C182.754 41.8408 183.048 41.5476 183.048 41.1866C183.048 40.8255 182.754 40.5323 182.393 40.5323H155.187C154.826 40.5323 154.532 40.8255 154.532 41.1866C154.532 41.5476 154.826 41.8408 155.187 41.8408Z" fill="#B2C7FF"/>
<path d="M171.275 48.0357H182.393C182.754 48.0357 183.048 47.7425 183.048 47.3814C183.048 47.0204 182.754 46.7272 182.393 46.7272H171.275C170.914 46.7272 170.62 47.0204 170.62 47.3814C170.62 47.7425 170.914 48.0357 171.275 48.0357Z" fill="white"/>
<path d="M147.464 48.0357H168.468C168.829 48.0357 169.123 47.7425 169.123 47.3814C169.123 47.0204 168.829 46.7272 168.468 46.7272H147.464C147.102 46.7272 146.808 47.0204 146.808 47.3814C146.808 47.7425 147.102 48.0357 147.464 48.0357Z" fill="#B2C7FF"/>
<path d="M148.622 54.2314H162.351C162.712 54.2314 163.006 53.9382 163.006 53.5771C163.006 53.216 162.712 52.9229 162.351 52.9229H148.622C148.261 52.9229 147.967 53.216 147.967 53.5771C147.967 53.9382 148.261 54.2314 148.622 54.2314Z" fill="#FADF68"/>
<path d="M165.725 54.2314H182.393C182.754 54.2314 183.048 53.9382 183.048 53.5771C183.048 53.216 182.754 52.9229 182.393 52.9229H165.725C165.364 52.9229 165.07 53.216 165.07 53.5771C165.07 53.9382 165.364 54.2314 165.725 54.2314Z" fill="#B2C7FF"/>
<path d="M143.242 60.4271H154.811C155.173 60.4271 155.467 60.134 155.467 59.7729C155.467 59.4118 155.173 59.1186 154.811 59.1186H143.242C142.881 59.1186 142.587 59.4118 142.587 59.7729C142.587 60.134 142.881 60.4271 143.242 60.4271Z" fill="white"/>
<path d="M158.441 60.4271H182.393C182.754 60.4271 183.048 60.134 183.048 59.7729C183.048 59.4118 182.754 59.1186 182.393 59.1186H158.441C158.08 59.1186 157.786 59.4118 157.786 59.7729C157.786 60.134 158.08 60.4271 158.441 60.4271Z" fill="#B2C7FF"/>
<path d="M148.622 85.4483H157.786C158.147 85.4483 158.441 85.1551 158.441 84.794C158.441 84.433 158.147 84.1398 157.786 84.1398H148.622C148.261 84.1398 147.967 84.433 147.967 84.794C147.967 85.1551 148.261 85.4483 148.622 85.4483Z" fill="white"/>
<path d="M143.242 91.6439H154.811C155.173 91.6439 155.467 91.3508 155.467 90.9897C155.467 90.6286 155.173 90.3354 154.811 90.3354H143.242C142.881 90.3354 142.587 90.6286 142.587 90.9897C142.587 91.3508 142.881 91.6439 143.242 91.6439Z" fill="#FADF68"/>
<path d="M158.441 91.6439H182.393C182.754 91.6439 183.048 91.3508 183.048 90.9897C183.048 90.6286 182.754 90.3354 182.393 90.3354H158.441C158.08 90.3354 157.786 90.6286 157.786 90.9897C157.786 91.3508 158.08 91.6439 158.441 91.6439Z" fill="#B2C7FF"/>
<path d="M155.271 66.6219H167.03C167.391 66.6219 167.685 66.3287 167.685 65.9676C167.685 65.6065 167.391 65.3134 167.03 65.3134H155.271C154.91 65.3134 154.616 65.6065 154.616 65.9676C154.616 66.3287 154.91 66.6219 155.271 66.6219Z" fill="#FADF68"/>
<path d="M170.405 66.6219H184.902C185.263 66.6219 185.557 66.3287 185.557 65.9676C185.557 65.6065 185.263 65.3134 184.902 65.3134H170.405C170.044 65.3134 169.75 65.6065 169.75 65.9676C169.75 66.3287 170.044 66.6219 170.405 66.6219Z" fill="white"/>
<path d="M145.041 72.8176H152.409C152.77 72.8176 153.064 72.5244 153.064 72.1633C153.064 71.8022 152.77 71.509 152.409 71.509H145.041C144.68 71.509 144.386 71.8022 144.386 72.1633C144.386 72.5244 144.68 72.8176 145.041 72.8176Z" fill="#B2C7FF"/>
<path d="M156.499 72.8176H171.482C171.843 72.8176 172.137 72.5244 172.137 72.1633C172.137 71.8022 171.843 71.509 171.482 71.509H156.499C156.138 71.509 155.844 71.8022 155.844 72.1633C155.844 72.5244 156.138 72.8176 156.499 72.8176Z" fill="#B2C7FF"/>
<path d="M143.6 79.0133H162.48C162.841 79.0133 163.135 78.7201 163.135 78.359C163.135 77.998 162.841 77.7048 162.48 77.7048H143.6C143.239 77.7048 142.945 77.998 142.945 78.359C142.945 78.7201 143.239 79.0133 143.6 79.0133Z" fill="#B2C7FF"/>
<path d="M166.826 79.0133H182.853C183.214 79.0133 183.508 78.7201 183.508 78.359C183.508 77.998 183.214 77.7048 182.853 77.7048H166.826C166.465 77.7048 166.171 77.998 166.171 78.359C166.171 78.7201 166.465 79.0133 166.826 79.0133Z" fill="#B2C7FF"/>
<path d="M131.963 23.2755V46.7133C131.963 48.8511 130.227 50.5878 128.089 50.5878H91.6799C89.5376 50.5878 87.8055 48.8511 87.8055 46.7133V23.2755C87.8055 21.1377 89.5376 19.401 91.6799 19.401H128.089C130.227 19.4011 131.963 21.1377 131.963 23.2755Z" fill="url(#paint7_linear_9_3581)"/>
<path d="M121.968 37.7964L123.448 35.7862L121.983 34.7077C122.373 33.8855 122.588 33.0086 122.622 32.1323L124.416 31.8597L124.035 29.381L122.249 29.6525C121.957 28.8256 121.498 28.0511 120.877 27.3785L121.949 25.9223L119.935 24.4393L118.863 25.8955C118.04 25.5055 117.16 25.2946 116.284 25.2612L116.013 23.4745L113.537 23.8506L113.81 25.6448C112.983 25.9369 112.205 26.3997 111.54 27.0196L110.075 25.941L108.595 27.9512L110.056 29.0266C109.666 29.8487 109.454 30.7212 109.417 31.6019L107.627 31.8778L108.007 34.3488L109.79 34.0817C110.082 34.9087 110.545 35.6866 111.165 36.3512L110.093 37.8076L112.107 39.2907L113.179 37.8342C114.003 38.2321 114.878 38.4397 115.759 38.4761L116.029 40.2552L118.506 39.8868L118.233 38.0926C119.064 37.7961 119.838 37.3377 120.503 36.7179L121.968 37.7964ZM114.137 34.4239C112.725 33.3847 112.427 31.3956 113.463 29.9884C114.502 28.5769 116.493 28.2667 117.905 29.306C119.321 30.3484 119.616 32.3418 118.577 33.7533C117.541 35.1605 115.553 35.4663 114.137 34.4239Z" fill="#51D1FE"/>
<path d="M108.29 42.8819L108.948 40.9371L107.531 40.4576C107.631 39.716 107.581 38.9751 107.388 38.28L108.726 37.6184L107.809 35.771L106.477 36.4298C106.042 35.8547 105.489 35.3622 104.835 34.9901L105.311 33.5813L103.362 32.922L102.886 34.3308C102.144 34.2304 101.402 34.2848 100.707 34.4775L100.048 33.1451L98.202 34.0578L98.8634 35.3957C98.2884 35.831 97.7944 36.3878 97.4282 37.0396L96.0109 36.5601L95.353 38.5048L96.7661 38.9829C96.6655 39.7246 96.7172 40.4612 96.9084 41.1605L95.5747 41.8235L96.4888 43.6652L97.8197 43.0107C98.255 43.5859 98.8118 44.0799 99.4636 44.446L98.9869 45.855L100.936 46.5143L101.412 45.1053C102.157 45.2117 102.895 45.1557 103.594 44.9644L104.25 46.2911L106.099 45.3842L105.437 44.0461C106.014 43.6065 106.507 43.054 106.873 42.4023L108.29 42.8819ZM101.312 42.1938C99.946 41.7317 99.2156 40.2475 99.6762 38.8861C100.138 37.5206 101.621 36.7804 102.987 37.2425C104.357 37.706 105.085 39.1944 104.623 40.5599C104.163 41.9213 102.681 42.6572 101.312 42.1938Z" fill="#59A8FF"/>
<path d="M208.836 190.231L216.088 190.154L215.638 183.252L208.631 183.469L208.77 190.173C208.774 190.206 208.802 190.231 208.836 190.231Z" fill="#FFDAD9"/>
<path d="M216.26 189.94L217.516 195.187C217.731 196.294 216.908 197.331 215.78 197.369C211.151 197.524 202.052 197.37 200.372 197.355C200.238 197.354 200.132 197.249 200.125 197.115C200.05 195.509 201.116 194.489 202.687 193.7L208.743 189.622C208.754 189.615 208.767 189.612 208.78 189.613L216.26 189.94Z" fill="#373A50"/>
<path d="M234.286 190.231L241.538 190.154L241.088 183.252L234.081 183.469L234.219 190.173C234.224 190.206 234.252 190.231 234.286 190.231Z" fill="#FFDAD9"/>
<path d="M241.71 189.94L242.966 195.187C243.181 196.294 242.358 197.331 241.23 197.369C236.601 197.524 227.502 197.37 225.822 197.355C225.688 197.354 225.582 197.249 225.575 197.115C225.5 195.509 226.566 194.489 228.137 193.7L234.193 189.622C234.204 189.615 234.217 189.612 234.23 189.613L241.71 189.94Z" fill="#373A50"/>
<path d="M213.039 99.5387C213.039 99.5387 211.589 106.789 208.088 106.964C204.627 107.136 199.96 105.401 196.075 103.564C191.948 101.619 188.696 99.5617 188.696 99.5617L188.884 96.3629L204.268 98.6843L205.007 95.5554L205.636 95.8649L213.039 99.5387Z" fill="#FFDAD9"/>
<path d="M213.039 99.5386C213.039 99.5386 211.589 106.789 208.088 106.964C204.627 107.136 199.96 105.401 196.075 103.564C198.146 103.323 200.197 102.917 202.204 102.36C203.525 101.991 204.906 101.5 205.733 100.409C206.46 99.4522 206.565 98.1088 206.126 97.0139C205.993 96.6747 205.615 96.2602 205.636 95.8648L213.039 99.5386Z" fill="#FECDCB"/>
<path d="M209.23 70.6716C209.462 71.8953 209.82 73.1548 210.674 74.0616C211.08 74.493 211.67 74.8437 212.243 74.6945C212.823 74.5438 213.163 73.9469 213.353 73.3788C213.851 71.8889 213.743 70.2064 213.059 68.7923C212.639 67.924 211.977 67.1335 211.086 66.7636C210.476 66.5102 208.732 66.3647 208.511 67.2702C208.41 67.6847 208.8 68.4154 208.89 68.8323C209.022 69.4419 209.114 70.0591 209.23 70.6716Z" fill="#111228"/>
<path d="M238.699 88.8527C238.205 90.2398 237.029 91.3071 235.702 91.9421C234.372 92.5769 232.892 92.8235 231.428 92.9692C226.548 93.4504 221.623 92.8761 216.79 92.031C215.246 91.764 213.697 91.4649 212.262 90.834C210.83 90.2032 209.512 89.2045 208.768 87.8256C208.024 86.4508 207.943 84.6594 208.8 83.3533C209.661 82.0472 211.805 81.283 213.175 82.0392C213.624 82.3788 214.146 82.6053 214.74 82.6943C215.256 82.7698 215.801 82.7014 215.848 82.6781C216.62 82.5808 217.55 82.1092 218.21 81.6753C219.63 80.7719 220.726 79.5584 221.728 78.3435C221.728 78.3435 223.81 77.6641 223.871 75.7878C223.923 74.1218 222.286 74.7808 221.918 74.9508L221.881 74.8132L221.877 74.8053C221.877 74.8093 221.881 74.8174 221.877 74.8255C221.861 74.9064 221.853 74.9589 221.849 74.9751C221.849 74.9791 221.849 74.9791 221.849 74.983C221.724 75.2097 221.283 75.2661 221.069 75.0519C220.806 74.7931 220.79 74.3806 220.753 74.0126C220.478 71.4166 218.02 69.2371 215.412 69.2817C214.502 69.2979 213.612 69.5486 212.723 69.7425C212.104 69.876 211.469 69.9893 210.846 69.9731C210.567 69.969 210.288 69.9447 210.017 69.8801C209.124 69.678 208.279 69.0714 208.032 68.194C207.712 67.0616 208.448 65.9052 209.261 65.056C211.433 62.7835 214.461 61.3603 217.591 61.1297C220.725 60.9032 223.927 61.8736 226.402 63.8066C227.243 64.4618 228.04 65.2946 228.222 66.342C228.4 67.3406 228.177 68.3881 228.303 69.4071C228.46 70.6807 228.76 71.6836 229.657 72.654C230.591 73.6649 231.78 74.4009 232.799 75.3267C233.814 76.2569 234.691 77.4943 234.675 78.8691C234.655 80.074 233.964 81.3154 234.437 82.4193C234.987 83.6971 236.689 83.9236 237.757 84.8132C238.885 85.7553 239.192 87.4699 238.699 88.8527Z" fill="#111228"/>
<path d="M216.73 82.4437C216.619 82.4845 216.507 82.5203 216.396 82.5528C216.508 82.5195 216.621 82.4861 216.73 82.4437Z" fill="#373A50"/>
<path d="M216.135 82.6215C216.222 82.602 216.309 82.5782 216.396 82.5528C216.341 82.5691 216.279 82.5993 216.135 82.6215Z" fill="#373A50"/>
<path d="M219.678 80.5383C219.754 80.4698 219.831 80.4014 219.903 80.3329C219.842 80.3942 219.748 80.4805 219.678 80.5383Z" fill="#373A50"/>
<path d="M221.877 74.8254C221.885 74.8817 221.873 74.9301 221.849 74.9745C221.853 74.9584 221.861 74.9061 221.877 74.8254Z" fill="#373A50"/>
<path d="M216.612 185.993L218.816 137.841L233.48 186.348C233.509 187.057 242.247 186.702 242.219 185.993L230.323 116.182L205.224 118.058L207.823 185.993C207.823 186.991 216.612 186.991 216.612 185.993Z" fill="#373A50"/>
<path d="M210.689 87.6783C207.229 89.4952 206.087 92.0227 203.549 95.2076L209.198 100.5L210.689 87.6783Z" fill="#016637"/>
<path d="M231.028 89.3401C229.751 86.8929 224.984 86.0482 222.407 85.8049C220.74 85.6476 216.842 85.6234 215.192 85.9052C213.039 86.2728 209.294 87.9723 208.266 89.9484C206.391 93.5538 205.761 107.832 205.761 107.832L203.316 125.573C203.953 129.638 234.129 128.206 233.586 123.891C233.586 123.891 230.671 110.916 230.876 107.82C231.198 102.943 233.107 93.3223 231.028 89.3401Z" fill="#00A558"/>
<path d="M233.593 101.242C233.593 101.242 234.808 111.072 231.568 113.833C226.944 117.775 202.076 115.044 202.076 115.044L200.867 110.407L224.538 105.329L225.124 99.9717L233.593 101.242Z" fill="#FFDAD9"/>
<path d="M234.556 102.489C234.556 103.371 223.221 103.371 223.221 102.489C223.221 102.489 224.06 96.3518 224.193 94.3054C224.437 90.5339 227.006 87.6803 229.132 87.6783C229.983 87.6775 232.098 89.2796 233.593 92.0381C234.902 94.4528 234.556 102.489 234.556 102.489Z" fill="#016637"/>
<path d="M222.407 85.8062C222.407 85.8062 220.615 89.8623 217.298 89.3391C215.059 88.9871 214.955 85.9489 214.955 85.9489C214.955 85.9489 216.169 85.0799 216.258 83.8749C216.32 83.0484 216.301 82.0662 216.156 81.0903C216.141 80.9921 216.125 80.8938 216.109 80.7922C215.988 80.0692 218.205 79.3144 219.686 78.8894C220.225 78.7372 221.018 78.5536 221.44 78.5124C221.589 78.4965 221.728 78.344 221.728 78.344C221.728 78.344 221.278 83.9699 222.407 85.8062Z" fill="#FFDAD9"/>
<path d="M220.102 79.416C220.086 79.7551 219.958 80.1301 219.807 80.4244C219.011 82.0608 217.01 83.4086 216.258 83.8748C216.32 83.0484 216.301 82.0661 216.156 81.0903C216.851 80.4339 218.741 79.806 220.102 79.416Z" fill="#F4BEBE"/>
<path d="M221.908 74.9086C221.868 74.9291 221.848 74.9413 221.84 74.9414C221.716 75.1692 221.276 75.2296 221.06 75.0173C220.795 74.7608 220.775 74.3485 220.735 73.9809C220.437 71.3875 217.959 69.23 215.351 69.298C214.442 69.3223 213.554 69.581 212.667 69.7829C212.049 69.9219 211.415 70.0409 210.792 70.0303C210.176 72.9553 210.234 79.882 213.23 82.0751C213.681 82.4107 214.205 82.6324 214.8 82.7161C215.32 82.7876 215.86 82.7142 215.908 82.69C216.573 82.5731 217.326 82.2933 218.26 81.6661C219.647 80.7662 221.335 78.9171 221.664 78.4126C221.72 78.3434 221.748 78.3028 221.748 78.3028C221.748 78.3028 223.825 77.6048 223.869 75.728C223.906 74.0616 222.274 74.7353 221.908 74.9086ZM221.866 74.7635C221.866 74.7674 221.87 74.7755 221.866 74.7836C221.866 74.7795 221.866 74.7755 221.87 74.7713L221.866 74.7635Z" fill="#FFDAD9"/>
<path d="M212.068 73.7659C212.12 73.394 212.379 73.1189 212.65 73.1594C212.917 73.1957 213.091 73.5274 213.034 73.8994" fill="#FFDAD9"/>
<path d="M212.844 78.574C213.467 78.7195 214.202 78.7195 215.056 78.574H212.844Z" fill="#FFDAD9"/>
<path d="M215.893 73.7659C215.945 73.394 216.208 73.1189 216.475 73.1594C216.742 73.1957 216.916 73.5274 216.863 73.8994" fill="#FFDAD9"/>
<path d="M213.271 73.9349L212.8 73.867C212.826 73.6886 212.768 73.4165 212.616 73.3946C212.462 73.3776 212.331 73.6039 212.304 73.7968L211.833 73.7324C211.907 73.185 212.31 72.8711 212.682 72.9232C213.042 72.9747 213.352 73.3765 213.271 73.9349Z" fill="#FFDAD9"/>
<path d="M212.791 78.8073L212.9 78.3438C213.487 78.4816 214.199 78.4804 215.016 78.3409L215.096 78.8102C214.346 78.9385 213.529 78.9805 212.791 78.8073Z" fill="#FFDAD9"/>
<path d="M217.099 73.9349L216.628 73.8671C216.656 73.6693 216.588 73.4157 216.44 73.3947C216.32 73.3782 216.166 73.547 216.129 73.7989L215.657 73.7304C215.731 73.2201 216.103 72.8648 216.507 72.9234C216.869 72.9744 217.18 73.3733 217.099 73.9349Z" fill="#FFDAD9"/>
<path d="M216.864 73.901C216.81 74.2753 216.553 74.5448 216.283 74.5068C216.017 74.4719 215.843 74.1389 215.893 73.7646C215.947 73.3936 216.207 73.1209 216.474 73.1589C216.743 73.1969 216.918 73.5267 216.864 73.901Z" fill="#111228"/>
<path d="M213.036 73.901C212.985 74.2753 212.725 74.5448 212.459 74.5068C212.189 74.4719 212.015 74.1389 212.069 73.7646C212.119 73.3936 212.379 73.1209 212.649 73.1589C212.915 73.1969 213.09 73.5267 213.036 73.901Z" fill="#111228"/>
<path d="M212.208 72.8899C212.276 72.7792 212.367 72.6832 212.462 72.5905C212.686 72.4007 213.046 72.4169 213.246 72.6779C213.318 72.7915 213.375 72.9103 213.41 73.0354C213.294 72.9668 213.206 72.8852 213.12 72.8109C212.944 72.7001 212.806 72.6544 212.549 72.7507C212.447 72.8041 212.339 72.8543 212.208 72.8899Z" fill="#111228"/>
<path d="M215.937 72.7891C216.004 72.6785 216.095 72.5828 216.191 72.49C216.414 72.3005 216.773 72.3158 216.974 72.5774C217.046 72.6908 217.103 72.8096 217.138 72.9347C217.022 72.8663 216.934 72.7847 216.848 72.7104C216.676 72.6013 216.537 72.5529 216.278 72.6502C216.175 72.7036 216.067 72.7538 215.937 72.7891Z" fill="#111228"/>
<path d="M214.361 73.4882C214.414 73.952 214.498 75.2108 214.369 75.7175C214.319 75.906 214.218 76.0982 214.093 76.2421C213.772 76.6157 213.592 76.8681 214.271 77.5438C214.112 77.449 213.96 77.3409 213.83 77.1952C213.488 76.7743 213.638 76.4895 213.916 76.1028C214.026 75.9638 214.096 75.8222 214.139 75.6549C214.243 75.2836 214.225 74.3786 214.361 73.4882Z" fill="#111228"/>
<path d="M215.059 78.6072C215.059 79.3113 214.561 79.8821 213.949 79.8821C213.34 79.8821 212.842 79.3112 212.842 78.6072C212.842 78.5946 212.846 78.585 212.846 78.5755C213.467 78.7215 214.203 78.7215 215.056 78.5755C215.056 78.585 215.059 78.5946 215.059 78.6072Z" fill="white"/>
<path d="M214.143 123.042C211.529 118.991 206.721 117.215 202.279 118.262C202.308 118.253 202.336 118.248 202.36 118.238L186.883 94.2683C190.639 89.9073 191.253 83.4281 187.968 78.3389C185.488 74.4968 181.351 72.3498 177.099 72.2404L181.427 78.9433L178.285 87.9412L168.797 87.1032L164.465 80.3955C162.817 84.3182 163.07 88.9694 165.55 92.8161C168.835 97.9007 174.995 100.005 180.513 98.3814L195.99 122.352C193.253 125.97 192.915 131.045 195.514 135.073C198.242 139.295 203.36 141.047 207.949 139.695C208.944 139.405 209.925 138.962 210.839 138.372C211.762 137.776 212.567 137.067 213.243 136.277C216.361 132.654 216.871 127.27 214.143 123.042ZM211.667 127.546L210.41 129.598C210.301 129.783 210.277 130.007 210.353 130.212L211.172 132.473C211.329 132.902 211.048 133.363 210.591 133.42L208.206 133.72C207.992 133.744 207.801 133.868 207.687 134.054L206.435 136.106C206.197 136.496 205.659 136.563 205.331 136.244L203.612 134.563C203.455 134.411 203.241 134.339 203.026 134.368L200.641 134.668C200.184 134.72 199.799 134.344 199.842 133.892L200.084 131.497C200.103 131.278 200.027 131.069 199.87 130.916L198.152 129.241C197.823 128.922 197.88 128.379 198.261 128.131L200.284 126.827C200.465 126.708 200.584 126.513 200.603 126.298L200.846 123.909C200.889 123.456 201.346 123.161 201.779 123.304L204.055 124.07C204.259 124.137 204.488 124.113 204.669 123.994L206.687 122.69C207.073 122.442 207.587 122.618 207.744 123.047L208.563 125.304C208.639 125.508 208.801 125.665 209.006 125.737L211.286 126.503C211.72 126.646 211.905 127.155 211.667 127.546Z" fill="#909EFF"/>
<path opacity="0.05" d="M212.736 127.304L211.283 129.676C211.155 129.889 211.127 130.151 211.213 130.387L212.165 133C212.343 133.497 212.018 134.033 211.494 134.099L208.732 134.444C208.483 134.475 208.264 134.616 208.133 134.83L206.682 137.205C206.406 137.656 205.783 137.732 205.404 137.365L203.414 135.422C203.235 135.246 202.985 135.164 202.738 135.193L199.978 135.54C199.452 135.604 199.004 135.165 199.055 134.641L199.333 131.873C199.359 131.622 199.269 131.376 199.089 131.201L197.099 129.261C196.721 128.89 196.782 128.265 197.227 127.977L199.564 126.469C199.774 126.333 199.911 126.109 199.937 125.86L200.213 123.094C200.267 122.568 200.795 122.228 201.296 122.395L203.93 123.282C204.168 123.36 204.429 123.328 204.639 123.192L206.975 121.684C207.42 121.397 208.016 121.598 208.198 122.095L209.146 124.708C209.232 124.944 209.42 125.127 209.659 125.207L212.296 126.093C212.795 126.262 213.01 126.851 212.736 127.304Z" fill="black"/>
<path d="M187.383 98.7787L197.206 113.994C197.471 114.404 197.545 114.88 197.448 115.323C197.354 115.766 197.091 116.169 196.681 116.434C195.862 116.963 194.769 116.727 194.241 115.909L184.418 100.693C183.889 99.8753 184.124 98.7817 184.943 98.2531C185.762 97.7245 186.855 97.9599 187.383 98.7787Z" fill="#B2C7FF"/>
<path opacity="0.05" d="M186.966 98.3324C186.694 98.3586 186.423 98.4486 186.181 98.6053C185.394 99.1132 185.107 100.193 185.658 101.046L195.479 116.258C195.595 116.437 195.735 116.586 195.897 116.706C195.26 116.768 194.61 116.48 194.24 115.906L184.419 100.695C183.883 99.8639 184.14 98.7712 184.942 98.2537C185.582 97.8403 186.394 97.8941 186.966 98.3324Z" fill="black"/>
<path d="M200.867 110.407L202.077 115.044C202.077 115.044 196.243 119.591 193.498 114.527C191.203 110.289 196.605 110.671 198.425 110.902C197.829 110.786 197.036 110.525 197.403 109.837C197.981 108.763 200.867 110.407 200.867 110.407Z" fill="#FFDAD9"/>
<path d="M188.886 96.3632L189.866 98.8862L188.696 98.1826C188.696 98.1826 186.056 97.6213 185.855 96.294C185.649 94.9666 188.886 96.3632 188.886 96.3632Z" fill="#FFDAD9"/>
<path d="M156.544 152.413C156.544 152.413 169.613 140.966 169.52 138.602C169.428 136.239 164.469 137.861 164.145 136.285C163.82 134.71 171.559 128.361 170.447 127.017C169.335 125.673 166.415 129.334 165.952 127.573C165.488 125.812 171.15 116.792 164.932 116.219C156.995 115.487 160.433 126.055 159.139 126.322C157.489 126.661 154.993 123.875 152.4 126.187C147.826 130.265 156.544 152.413 156.544 152.413Z" fill="#3DCFA4"/>
<path d="M156.982 150.613C157.173 148.556 157.45 146.511 157.762 144.473C158.07 142.434 158.428 140.403 158.813 138.377C158.931 137.813 159.626 134.274 160.127 132.328C160.458 130.948 161.137 128.439 161.675 127.128L162.001 126.423L161.785 127.165C161.515 128.174 160.9 131.433 160.708 132.455L159.561 138.521C159.162 140.541 158.772 142.563 158.345 144.578C157.923 146.595 157.484 148.609 156.982 150.613Z" fill="#30BB93"/>
<path d="M160.043 135.507C160.365 134.696 160.994 133.813 161.561 133.151C162.129 132.486 162.908 131.729 163.657 131.291C163.337 132.101 162.705 132.989 162.139 133.647C161.574 134.305 160.796 135.064 160.043 135.507Z" fill="#30BB93"/>
<path d="M158.086 145.846C158.578 145.112 159.389 144.371 160.088 143.836C160.79 143.299 161.721 142.712 162.552 142.433C162.064 143.163 161.253 143.907 160.55 144.442C159.852 144.974 158.925 145.562 158.086 145.846Z" fill="#30BB93"/>
<path d="M158.398 142.636C157.565 141.613 156.687 140.094 156.12 138.967C155.555 137.855 154.848 136.234 154.522 134.955C155.343 135.959 156.226 137.478 156.8 138.623C157.373 139.757 158.071 141.358 158.398 142.636Z" fill="#30BB93"/>
<path d="M156.094 152.622C156.094 152.622 156.885 140.654 155.686 139.546C154.487 138.437 152.858 141.65 151.931 141.039C151.003 140.428 151.682 133.55 150.483 133.437C149.284 133.324 149.646 136.537 148.56 135.903C147.474 135.27 145.834 128.103 142.519 130.858C138.288 134.376 145.125 137.857 144.623 138.618C143.983 139.59 141.405 139.448 141.268 141.843C141.026 146.066 156.094 152.622 156.094 152.622Z" fill="#3DCFA4"/>
<path d="M155.429 151.53C154.518 150.432 153.655 149.299 152.812 148.152C151.967 147.006 151.15 145.84 150.349 144.663C150.132 144.33 148.743 142.263 148.038 141.068C147.521 140.225 146.636 138.685 146.255 137.774L146.07 137.271L146.326 137.738C146.703 138.39 147.899 140.133 148.383 140.846L150.785 144.368C151.576 145.549 152.373 146.726 153.148 147.918C153.927 149.109 154.696 150.306 155.429 151.53Z" fill="#30BB93"/>
<path d="M149.549 142.661C149.31 142.108 149.186 141.37 149.139 140.77C149.092 140.168 149.103 139.418 149.255 138.839C149.494 139.39 149.619 140.133 149.664 140.73C149.709 141.326 149.7 142.077 149.549 142.661Z" fill="#30BB93"/>
<path d="M153.64 148.664C153.523 148.065 153.557 147.308 153.637 146.705C153.717 146.1 153.885 145.359 154.155 144.817C154.273 145.412 154.24 146.171 154.158 146.775C154.115 147.096 154.054 147.414 153.973 147.729C153.889 148.044 153.792 148.358 153.64 148.664Z" fill="#30BB93"/>
<path d="M152.225 146.944C151.32 146.852 150.15 146.538 149.322 146.265C148.504 145.998 147.367 145.552 146.584 145.086C147.475 145.176 148.647 145.486 149.487 145.765C150.32 146.039 151.442 146.48 152.225 146.944Z" fill="#30BB93"/>
<path d="M162.884 150.559H148.541V153.374H162.884V150.559Z" fill="url(#paint8_linear_9_3581)"/>
<path d="M159.672 161.953H151.753L149.993 153.374H161.432L159.672 161.953Z" fill="url(#paint9_linear_9_3581)"/>
<path d="M80.6934 24.6553V36.419C80.6934 37.5806 79.7556 38.5183 78.5987 38.5183H50.5247C49.363 38.5183 48.4252 37.5806 48.4252 36.419V24.6553C48.4252 23.4983 49.363 22.5606 50.5247 22.5606H78.5987C79.7556 22.5606 80.6934 23.4983 80.6934 24.6553Z" fill="url(#paint10_linear_9_3581)"/>
<path d="M53.3038 28.4646H51.8333C51.6295 28.4646 51.4804 28.6302 51.4804 28.8238V32.7711C51.4804 32.9682 51.6324 33.1238 51.8333 33.1238C52.0273 33.1238 52.1923 32.9753 52.1923 32.7711V31.4533H53.3038C54.5026 31.4533 55.0883 30.8113 55.0883 29.9588C55.0883 29.126 54.5193 28.4646 53.3038 28.4646ZM54.3764 29.9588C54.3764 30.5831 53.8672 30.7736 53.2457 30.7736H52.1923V29.1443H53.2457C53.8688 29.1443 54.3764 29.336 54.3764 29.9588Z" fill="white"/>
<path d="M58.5798 28.6079L57.2834 30.4936L55.9875 28.6091C55.8401 28.3831 55.5688 28.3879 55.4283 28.5396C55.3177 28.6586 55.2944 28.8409 55.3944 29.0019L56.9242 31.1466V32.7712C56.9242 32.9713 57.0873 33.1238 57.2834 33.1238C57.4844 33.1238 57.636 32.9681 57.636 32.7712V31.1466L59.1748 28.9987C59.2625 28.8559 59.2632 28.6659 59.1406 28.5387C58.995 28.3873 58.7254 28.3846 58.5798 28.6079Z" fill="white"/>
<path d="M63.1783 28.4646H59.9666C59.7726 28.4646 59.6331 28.6179 59.6331 28.8044C59.6331 28.9971 59.7786 29.1377 59.9666 29.1377H61.2198V32.771C61.2198 32.9674 61.3707 33.1237 61.5724 33.1237C61.7685 33.1237 61.9316 32.9725 61.9316 32.771V29.1377H63.1783C63.3633 29.1377 63.5182 28.9998 63.5182 28.8044C63.5182 28.615 63.3697 28.4646 63.1783 28.4646Z" fill="white"/>
<path d="M67.1339 28.7914V30.4447H64.8144V28.7914C64.8144 28.5833 64.6429 28.428 64.4465 28.4329C64.2562 28.4376 64.1025 28.5919 64.1025 28.7914V32.771C64.1025 32.9784 64.2656 33.1231 64.455 33.1234C64.6425 33.1236 64.8144 32.9807 64.8144 32.771V31.1178H67.1339V32.771C67.1339 32.9698 67.2878 33.1237 67.4868 33.1237C67.6807 33.1237 67.8458 32.9752 67.8458 32.771V28.7914C67.8458 28.5771 67.6645 28.4207 67.4639 28.4335C67.2812 28.4452 67.1339 28.5958 67.1339 28.7914Z" fill="white"/>
<path d="M71.0278 28.4C69.6613 28.4 68.7289 29.3404 68.7015 30.7794C68.729 32.2177 69.6647 33.1561 71.0278 33.1561C72.4468 33.1561 73.3272 32.1454 73.3542 30.7769C73.3268 29.3937 72.4296 28.4 71.0278 28.4ZM71.0278 32.4829C70.0148 32.4829 69.4131 31.7558 69.4131 30.7781C69.4131 29.8214 69.9961 29.0732 71.0278 29.0732C72.0144 29.0732 72.6422 29.7758 72.6422 30.7781C72.6422 31.7598 72.033 32.4829 71.0278 32.4829Z" fill="white"/>
<path d="M78.157 28.5376C78.0167 28.3974 77.787 28.3986 77.6521 28.5385C77.5847 28.608 77.5506 28.6933 77.5506 28.7914V32.0744L75.1793 28.6503C75.0685 28.5057 74.9326 28.4325 74.7751 28.4325H74.6912C74.4175 28.4325 74.2094 28.6585 74.2094 28.9205V32.7711C74.2094 32.8697 74.2438 32.9538 74.3117 33.0217C74.4474 33.157 74.6751 33.1575 74.8154 33.0224C74.8857 32.9547 74.9213 32.8701 74.9213 32.7711V29.4818L77.305 32.9245C77.3897 33.038 77.5334 33.1237 77.6969 33.1237H77.7743C78.0388 33.1237 78.2624 32.9141 78.2624 32.6421V28.7914C78.2625 28.6931 78.227 28.6075 78.157 28.5376Z" fill="white"/>
<path d="M205.357 24.6746V35.4893C205.357 36.5573 204.495 37.4193 203.431 37.4193H177.622C176.554 37.4193 175.692 36.5573 175.692 35.4893V24.6746C175.692 23.611 176.554 22.7489 177.622 22.7489H203.431C204.495 22.7489 205.357 23.611 205.357 24.6746Z" fill="#00A558"/>
<path d="M181.302 33.1065V27.365C181.302 27.1346 181.494 26.9334 181.765 26.9334H184.114C185.628 26.9334 186.864 27.5797 186.864 29.0162C186.864 30.1471 186.043 31.0989 184.114 31.0989H182.239V33.1065C182.239 33.3563 182.016 33.5288 181.765 33.5288C181.511 33.5288 181.302 33.3528 181.302 33.1065ZM184.021 30.2921C185.016 30.2921 185.927 30.0097 185.927 29.0162C185.927 28.0208 185.013 27.7403 184.021 27.7403H182.239V30.2921H184.021Z" fill="white"/>
<path d="M188.223 33.1068V27.3183C188.223 27.0854 188.418 26.8868 188.687 26.8868C188.94 26.8868 189.161 27.0709 189.161 27.3183V29.8139H193.064V27.3183C193.064 27.0854 193.259 26.8868 193.528 26.8868C193.78 26.8868 194.002 27.07 194.002 27.3183V33.1068C194.002 33.3536 193.782 33.529 193.528 33.529C193.274 33.529 193.064 33.3531 193.064 33.1068V30.6113H189.161V33.1068C189.161 33.3565 188.937 33.529 188.687 33.529C188.433 33.529 188.223 33.3531 188.223 33.1068Z" fill="white"/>
<path d="M196 33.1068V27.3652C196 27.1348 196.192 26.9337 196.464 26.9337H198.812C200.739 26.9337 201.562 27.8842 201.562 29.0165C201.562 30.1474 200.741 31.0992 198.812 31.0992H196.937V33.1068C196.937 33.3565 196.714 33.529 196.464 33.529C196.21 33.529 196 33.3531 196 33.1068ZM198.719 30.2923C199.714 30.2923 200.625 30.01 200.625 29.0165C200.625 28.021 199.711 27.7405 198.719 27.7405H196.937V30.2923H198.719Z" fill="white"/>
<defs>
<linearGradient id="paint0_linear_9_3581" x1="36.7483" y1="50.5549" x2="83.9581" y2="3.93512" gradientUnits="userSpaceOnUse">
<stop stop-color="#CEDCF9"/>
<stop offset="1" stop-color="#C3D2FF"/>
</linearGradient>
<linearGradient id="paint1_linear_9_3581" x1="29.0448" y1="65.9699" x2="27.8977" y2="65.9699" gradientUnits="userSpaceOnUse">
<stop offset="2.4e-07" stop-color="#15A0FF"/>
<stop offset="0.2298" stop-color="#19A4FF"/>
<stop offset="0.4796" stop-color="#26B0FF"/>
<stop offset="0.7389" stop-color="#3CC4FF"/>
<stop offset="1" stop-color="#5AE0FF"/>
</linearGradient>
<linearGradient id="paint2_linear_9_3581" x1="24.5782" y1="66.4282" x2="23.4287" y2="66.4282" gradientUnits="userSpaceOnUse">
<stop offset="2.4e-07" stop-color="#15A0FF"/>
<stop offset="0.2298" stop-color="#19A4FF"/>
<stop offset="0.4796" stop-color="#26B0FF"/>
<stop offset="0.7389" stop-color="#3CC4FF"/>
<stop offset="1" stop-color="#5AE0FF"/>
</linearGradient>
<linearGradient id="paint3_linear_9_3581" x1="29.0434" y1="65.9709" x2="27.8972" y2="65.9709" gradientUnits="userSpaceOnUse">
<stop offset="2.4e-07" stop-color="#15A0FF"/>
<stop offset="0.2298" stop-color="#19A4FF"/>
<stop offset="0.4796" stop-color="#26B0FF"/>
<stop offset="0.7389" stop-color="#3CC4FF"/>
<stop offset="1" stop-color="#5AE0FF"/>
</linearGradient>
<linearGradient id="paint4_linear_9_3581" x1="24.5774" y1="66.429" x2="23.4275" y2="66.429" gradientUnits="userSpaceOnUse">
<stop offset="2.4e-07" stop-color="#15A0FF"/>
<stop offset="0.2298" stop-color="#19A4FF"/>
<stop offset="0.4796" stop-color="#26B0FF"/>
<stop offset="0.7389" stop-color="#3CC4FF"/>
<stop offset="1" stop-color="#5AE0FF"/>
</linearGradient>
<linearGradient id="paint5_linear_9_3581" x1="129.965" y1="2.37626" x2="129.965" y2="6.11799" gradientUnits="userSpaceOnUse">
<stop stop-color="#D1DEFF"/>
<stop offset="1" stop-color="#B2C7FF"/>
</linearGradient>
<linearGradient id="paint6_linear_9_3581" x1="171.415" y1="45.9507" x2="155.209" y2="76.7273" gradientUnits="userSpaceOnUse">
<stop stop-color="#EBF2FF"/>
<stop offset="1" stop-color="#E1E8FF"/>
</linearGradient>
<linearGradient id="paint7_linear_9_3581" x1="87.8056" y1="34.9944" x2="131.963" y2="34.9944" gradientUnits="userSpaceOnUse">
<stop stop-color="#EBF2FF"/>
<stop offset="0.6273" stop-color="#E7EEFF"/>
<stop offset="1" stop-color="#E1E8FF"/>
</linearGradient>
<linearGradient id="paint8_linear_9_3581" x1="155.713" y1="151.587" x2="155.713" y2="152.475" gradientUnits="userSpaceOnUse">
<stop stop-color="#909EFF"/>
<stop offset="1" stop-color="#6977E3"/>
</linearGradient>
<linearGradient id="paint9_linear_9_3581" x1="155.713" y1="155.096" x2="155.713" y2="157.822" gradientUnits="userSpaceOnUse">
<stop stop-color="#909EFF"/>
<stop offset="1" stop-color="#6977E3"/>
</linearGradient>
<linearGradient id="paint10_linear_9_3581" x1="48.4251" y1="30.5395" x2="80.6934" y2="30.5395" gradientUnits="userSpaceOnUse">
<stop stop-color="#909EFF"/>
<stop offset="1" stop-color="#6977E3"/>
</linearGradient>
</defs>
</svg>
