<svg width="232" height="202" viewBox="0 0 232 202" fill="none" xmlns="http://www.w3.org/2000/svg">
<path d="M68.3289 84.6361C68.2042 84.6361 68.1028 84.5349 68.1023 84.4099L68.0915 82.1375C68.0909 82.0119 68.1918 81.9096 68.317 81.9091C68.317 81.9091 68.3175 81.9091 68.3181 81.9091C68.4427 81.9091 68.5441 82.0103 68.5447 82.1353L68.5555 84.4077C68.556 84.5333 68.4551 84.6356 68.3299 84.6361C68.3294 84.6361 68.3294 84.6361 68.3289 84.6361ZM68.3078 80.0907C68.1832 80.0907 68.0818 79.9895 68.0812 79.8645L68.0704 77.5921C68.0699 77.4666 68.1708 77.3643 68.2959 77.3637C68.2959 77.3637 68.2965 77.3637 68.297 77.3637C68.4217 77.3637 68.5231 77.4649 68.5236 77.5899L68.5344 79.8624C68.535 79.9879 68.4341 80.0902 68.3089 80.0907C68.3089 80.0907 68.3084 80.0907 68.3078 80.0907ZM205.187 76.5622C205.063 76.5622 204.961 76.461 204.961 76.336L204.95 74.0636C204.949 73.9381 205.05 73.8358 205.175 73.8352C205.175 73.8352 205.176 73.8352 205.176 73.8352C205.301 73.8352 205.402 73.9364 205.403 74.0615L205.414 76.3339C205.414 76.4594 205.314 76.5617 205.189 76.5622C205.188 76.5622 205.188 76.5622 205.187 76.5622ZM68.2873 75.5459C68.1627 75.5459 68.0612 75.4447 68.0607 75.3197L68.0499 73.0473C68.0494 72.9217 68.1503 72.8195 68.2754 72.8189C68.2754 72.8189 68.276 72.8189 68.2765 72.8189C68.4012 72.8189 68.5026 72.9201 68.5031 73.0451L68.5139 75.3175C68.5145 75.4431 68.4136 75.5454 68.2884 75.5459C68.2879 75.5459 68.2873 75.5459 68.2873 75.5459ZM205.165 72.0169C205.041 72.0169 204.939 71.9157 204.939 71.7907L204.927 69.5182C204.927 69.3927 205.028 69.2904 205.152 69.2899C205.153 69.2899 205.153 69.2899 205.153 69.2899C205.278 69.2899 205.379 69.3911 205.38 69.5161L205.391 71.7885C205.392 71.9141 205.291 72.0163 205.166 72.0169C205.166 72.0169 205.165 72.0169 205.165 72.0169ZM68.2657 71.0011C68.1411 71.0011 68.0397 70.8999 68.0391 70.7749L68.0289 68.5025C68.0283 68.3769 68.1292 68.2746 68.2544 68.2741C68.2544 68.2741 68.2549 68.2741 68.2555 68.2741C68.3801 68.2741 68.4815 68.3753 68.4821 68.5003L68.4923 70.7727C68.4929 70.8983 68.392 71.0005 68.2668 71.0011C68.2668 71.0011 68.2663 71.0011 68.2657 71.0011ZM205.142 67.4721C205.018 67.4721 204.916 67.3708 204.916 67.2458L204.905 64.9734C204.904 64.8479 205.005 64.7456 205.13 64.7451C205.13 64.7451 205.131 64.7451 205.131 64.7451C205.255 64.7451 205.357 64.8463 205.357 64.9713L205.369 67.2437C205.369 67.3692 205.268 67.4715 205.144 67.4721C205.143 67.4721 205.143 67.4721 205.142 67.4721ZM68.2452 66.4557C68.1206 66.4557 68.0192 66.3545 68.0186 66.2295L68.0084 63.9571C68.0078 63.8315 68.1087 63.7293 68.2339 63.7287C68.2339 63.7287 68.2344 63.7287 68.235 63.7287C68.3596 63.7287 68.461 63.8299 68.4616 63.9549L68.4718 66.2273C68.4724 66.3529 68.3715 66.4552 68.2463 66.4557C68.2458 66.4557 68.2458 66.4557 68.2452 66.4557ZM205.12 62.9272C204.995 62.9272 204.894 62.826 204.893 62.701L204.882 60.4286C204.881 60.3031 204.982 60.2008 205.107 60.2002C205.224 60.1954 205.335 60.3009 205.335 60.4264L205.345 62.6989C205.346 62.8244 205.245 62.9267 205.12 62.9272C205.121 62.9272 205.12 62.9272 205.12 62.9272ZM68.2242 61.9109C68.0996 61.9109 67.9981 61.8097 67.9976 61.6847L67.9873 59.4123C67.9868 59.2867 68.0877 59.1844 68.2129 59.1839C68.2129 59.1839 68.2134 59.1839 68.2139 59.1839C68.3386 59.1839 68.44 59.2851 68.4405 59.4101L68.4508 61.6825C68.4513 61.8081 68.3504 61.9104 68.2253 61.9109C68.2253 61.9109 68.2247 61.9109 68.2242 61.9109ZM205.097 58.3819C204.973 58.3819 204.871 58.2807 204.871 58.1557L204.859 55.8832C204.859 55.7577 204.96 55.6554 205.084 55.6549C205.224 55.6419 205.311 55.7555 205.312 55.8811L205.323 58.1535C205.324 58.279 205.223 58.3813 205.098 58.3819C205.098 58.3819 205.098 58.3819 205.097 58.3819ZM68.2037 57.3661C68.0791 57.3661 67.9776 57.2649 67.9771 57.1399L67.9663 54.8674C67.9658 54.7419 68.0666 54.6396 68.1918 54.6391C68.1918 54.6391 68.1924 54.6391 68.1929 54.6391C68.3175 54.6391 68.419 54.7403 68.4195 54.8653L68.4303 57.1377C68.4308 57.2632 68.3299 57.3655 68.2048 57.3661C68.2042 57.3661 68.2037 57.3661 68.2037 57.3661ZM205.075 53.837C204.95 53.837 204.848 53.7358 204.848 53.6108L204.837 51.3384C204.836 51.2129 204.937 51.1106 205.062 51.11C205.062 51.11 205.063 51.11 205.063 51.11C205.187 51.11 205.289 51.2112 205.289 51.3363L205.301 53.6087C205.301 53.7342 205.2 53.8365 205.076 53.837C205.076 53.837 205.075 53.837 205.075 53.837ZM68.1826 52.8207C68.058 52.8207 67.9566 52.7195 67.956 52.5945L67.9452 50.3221C67.9447 50.1965 68.0456 50.0942 68.1708 50.0937C68.1708 50.0937 68.1713 50.0937 68.1719 50.0937C68.2965 50.0937 68.3979 50.1949 68.3985 50.3199L68.4093 52.5923C68.4098 52.7179 68.3089 52.8202 68.1837 52.8207C68.1837 52.8207 68.1832 52.8207 68.1826 52.8207ZM205.052 49.2922C204.927 49.2922 204.826 49.191 204.825 49.066L204.814 46.7936C204.813 46.668 204.914 46.5658 205.039 46.5652C205.039 46.5652 205.04 46.5652 205.04 46.5652C205.165 46.5652 205.266 46.6664 205.267 46.7914L205.278 49.0638C205.278 49.1894 205.178 49.2917 205.053 49.2922C205.053 49.2922 205.052 49.2922 205.052 49.2922ZM68.1616 48.2759C68.037 48.2759 67.9355 48.1747 67.935 48.0497L67.9242 45.7773C67.9237 45.6517 68.0246 45.5494 68.1497 45.5489C68.1497 45.5489 68.1503 45.5489 68.1508 45.5489C68.2754 45.5489 68.3769 45.6501 68.3774 45.7751L68.3882 48.0475C68.3888 48.1731 68.2879 48.2753 68.1627 48.2759C68.1627 48.2759 68.1621 48.2759 68.1616 48.2759ZM205.03 44.7469C204.905 44.7469 204.804 44.6457 204.803 44.5206L204.792 42.2482C204.791 42.1227 204.892 42.0204 205.017 42.0199C205.017 42.0199 205.018 42.0199 205.018 42.0199C205.142 42.0199 205.244 42.1211 205.244 42.2461L205.256 44.5185C205.256 44.644 205.155 44.7463 205.031 44.7469C205.03 44.7469 205.03 44.7469 205.03 44.7469ZM68.1406 43.7311C68.0159 43.7311 67.9145 43.6299 67.914 43.5048L67.9037 41.2324C67.9032 41.1069 68.0041 41.0046 68.1292 41.0041C68.1292 41.0041 68.1298 41.0041 68.1303 41.0041C68.2549 41.0041 68.3564 41.1053 68.3569 41.2303L68.3672 43.5027C68.3677 43.6282 68.2668 43.7305 68.1416 43.7311C68.1416 43.7311 68.1411 43.7311 68.1406 43.7311ZM205.007 40.202C204.882 40.202 204.781 40.1008 204.78 39.9758L204.769 37.7034C204.769 37.5779 204.869 37.4756 204.994 37.475C205.099 37.4756 205.222 37.5757 205.222 37.7012L205.233 39.9737C205.234 40.0992 205.133 40.2015 205.008 40.202C205.008 40.202 205.008 40.202 205.007 40.202ZM68.1201 39.1857C67.9954 39.1857 67.894 39.0845 67.8935 38.9595L67.8832 36.6871C67.8827 36.5615 67.9836 36.4592 68.1087 36.4587C68.1087 36.4587 68.1093 36.4587 68.1098 36.4587C68.2344 36.4587 68.3359 36.5599 68.3364 36.6849L68.3467 38.9573C68.3472 39.0829 68.2463 39.1852 68.1211 39.1857C68.1206 39.1857 68.1201 39.1857 68.1201 39.1857ZM204.984 35.6572C204.859 35.6572 204.758 35.556 204.757 35.431L204.746 33.1586C204.745 33.033 204.846 32.9307 204.971 32.9302C205.098 32.9221 205.199 33.0309 205.199 33.1564L205.21 35.4288C205.21 35.5544 205.11 35.6567 204.984 35.6572C204.985 35.6572 204.984 35.6572 204.984 35.6572ZM68.099 34.6409C67.9744 34.6409 67.873 34.5397 67.8724 34.4147L67.8622 32.1423C67.8616 32.0167 67.9625 31.9144 68.0877 31.9139C68.0877 31.9139 68.0882 31.9139 68.0888 31.9139C68.2134 31.9139 68.3148 32.0151 68.3154 32.1401L68.3256 34.4125C68.3262 34.5381 68.2253 34.6403 68.1001 34.6409C68.1001 34.6409 68.0996 34.6409 68.099 34.6409ZM204.961 31.1118C204.837 31.1118 204.735 31.0106 204.735 30.8856L204.723 28.6132C204.723 28.4877 204.824 28.3854 204.948 28.3848C204.949 28.3848 204.949 28.3848 204.949 28.3848C205.074 28.3848 205.175 28.486 205.176 28.6111L205.187 30.8835C205.188 31.009 205.087 31.1113 204.962 31.1118C204.962 31.1118 204.962 31.1118 204.961 31.1118ZM68.078 30.0961C67.9533 30.0961 67.8519 29.9949 67.8514 29.8698L67.8406 27.5974C67.84 27.4719 67.9409 27.3696 68.0661 27.3691C68.0661 27.3691 68.0666 27.3691 68.0672 27.3691C68.1918 27.3691 68.2933 27.4703 68.2938 27.5953L68.3046 29.8677C68.3051 29.9932 68.2042 30.0955 68.0791 30.0961C68.0791 30.0961 68.0785 30.0961 68.078 30.0961ZM204.939 26.567C204.814 26.567 204.712 26.4658 204.712 26.3408L204.701 24.0684C204.7 23.9428 204.801 23.8406 204.926 23.84C204.926 23.84 204.927 23.84 204.927 23.84C205.052 23.84 205.153 23.9412 205.154 24.0662L205.165 26.3386C205.165 26.4642 205.064 26.5665 204.939 26.567C204.94 26.567 204.939 26.567 204.939 26.567ZM68.0575 25.5507C67.9328 25.5507 67.8314 25.4495 67.8309 25.3245L67.8201 23.0521C67.8195 22.9265 67.9204 22.8242 68.0456 22.8237C68.0456 22.8237 68.0461 22.8237 68.0467 22.8237C68.1713 22.8237 68.2728 22.9249 68.2733 23.0499L68.2841 25.3223C68.2846 25.4479 68.1837 25.5501 68.0586 25.5507C68.0586 25.5507 68.058 25.5507 68.0575 25.5507ZM204.916 22.0222C204.792 22.0222 204.69 21.921 204.69 21.796L204.678 19.5236C204.678 19.398 204.779 19.2957 204.904 19.2952C204.904 19.2952 204.905 19.2952 204.905 19.2952C205.03 19.2952 205.131 19.3964 205.132 19.5214L205.143 21.7938C205.144 21.9194 205.043 22.0217 204.918 22.0222C204.917 22.0222 204.916 22.0222 204.916 22.0222ZM68.0364 21.0059C67.9118 21.0059 67.8104 20.9047 67.8098 20.7797L67.799 18.5072C67.7985 18.3817 67.8994 18.2794 68.0246 18.2789C68.0246 18.2789 68.0251 18.2789 68.0256 18.2789C68.1503 18.2789 68.2517 18.3801 68.2522 18.5051L68.263 20.7775C68.2636 20.903 68.1627 21.0053 68.0375 21.0059C68.0375 21.0059 68.037 21.0059 68.0364 21.0059ZM204.894 17.4768C204.769 17.4768 204.668 17.3756 204.667 17.2506C204.651 16.1531 204.69 15.7175 204.601 15.008C204.586 14.8835 204.674 14.7699 204.798 14.7542C204.918 14.7385 205.035 14.8267 205.051 14.9512C205.144 15.7007 205.104 16.1461 205.12 17.2479C205.121 17.3735 205.02 17.4758 204.895 17.4763C204.894 17.4768 204.894 17.4768 204.894 17.4768ZM68.0154 16.461C67.8908 16.461 67.7893 16.3598 67.7888 16.2348C67.7985 16.0552 67.7181 15.1876 68.0483 13.9262C68.0801 13.8049 68.2026 13.7324 68.3251 13.7643C68.4465 13.7963 68.5182 13.9207 68.4864 14.042C68.1843 15.1963 68.2495 16.0801 68.2415 16.2332C68.242 16.3588 68.1411 16.461 68.0159 16.461C68.0159 16.461 68.0159 16.461 68.0154 16.461ZM204.012 12.8925C203.713 12.2214 203.317 11.5975 202.835 11.039C202.753 10.9443 202.764 10.8003 202.859 10.7186C202.953 10.6369 203.096 10.6466 203.178 10.7419C203.689 11.3345 204.109 11.9958 204.426 12.7074C204.477 12.8222 204.425 12.9564 204.312 13.0078C204.197 13.0586 204.063 13.0078 204.012 12.8925ZM69.0367 12.0959C68.9299 12.0299 68.897 11.8902 68.9623 11.7831C69.3707 11.1174 69.873 10.5167 70.4552 9.9972C70.548 9.91386 70.6909 9.92198 70.7751 10.0161C70.8577 10.1098 70.8501 10.2537 70.7562 10.3371C70.207 10.8274 69.7333 11.394 69.348 12.0218C69.2817 12.1294 69.1419 12.1614 69.0367 12.0959ZM201.297 9.6384C201.256 9.6384 201.213 9.62703 201.175 9.60268C200.555 9.20708 199.882 8.90618 199.175 8.70919C199.054 8.67564 198.984 8.55009 199.017 8.4294C199.051 8.30872 199.174 8.23728 199.296 8.27138C200.047 8.48081 200.76 8.79957 201.419 9.21898C201.524 9.28609 201.555 9.4268 201.488 9.53287C201.445 9.60106 201.372 9.6384 201.297 9.6384ZM72.2869 9.01983C72.234 8.90618 72.2831 8.77089 72.3964 8.71785C73.1032 8.38881 73.8532 8.16693 74.6252 8.05815C74.7477 8.04084 74.8637 8.12688 74.881 8.25136C74.8982 8.37583 74.8119 8.49056 74.6878 8.50787C73.96 8.61016 73.2532 8.81959 72.5874 9.12969C72.4736 9.18327 72.3392 9.13348 72.2869 9.01983ZM196.996 8.43481H194.731C194.605 8.43481 194.504 8.33307 194.504 8.20752C194.504 8.08197 194.605 7.98022 194.731 7.98022H196.996C197.121 7.98022 197.223 8.08197 197.223 8.20752C197.223 8.33307 197.122 8.43481 196.996 8.43481ZM192.465 8.43481H190.2C190.074 8.43481 189.973 8.33307 189.973 8.20752C189.973 8.08197 190.074 7.98022 190.2 7.98022H192.465C192.59 7.98022 192.692 8.08197 192.692 8.20752C192.692 8.33307 192.59 8.43481 192.465 8.43481ZM187.934 8.43481H185.669C185.543 8.43481 185.442 8.33307 185.442 8.20752C185.442 8.08197 185.543 7.98022 185.669 7.98022H187.934C188.059 7.98022 188.161 8.08197 188.161 8.20752C188.161 8.33307 188.059 8.43481 187.934 8.43481ZM183.402 8.43481H181.137C181.012 8.43481 180.91 8.33307 180.91 8.20752C180.91 8.08197 181.012 7.98022 181.137 7.98022H183.402C183.528 7.98022 183.629 8.08197 183.629 8.20752C183.629 8.33307 183.528 8.43481 183.402 8.43481ZM178.871 8.43481H176.606C176.481 8.43481 176.379 8.33307 176.379 8.20752C176.379 8.08197 176.481 7.98022 176.606 7.98022H178.871C178.997 7.98022 179.098 8.08197 179.098 8.20752C179.098 8.33307 178.997 8.43481 178.871 8.43481ZM174.34 8.43481H172.074C171.949 8.43481 171.848 8.33307 171.848 8.20752C171.848 8.08197 171.949 7.98022 172.074 7.98022H174.34C174.465 7.98022 174.567 8.08197 174.567 8.20752C174.567 8.33307 174.465 8.43481 174.34 8.43481ZM169.809 8.43481H167.543C167.418 8.43481 167.317 8.33307 167.317 8.20752C167.317 8.08197 167.418 7.98022 167.543 7.98022H169.809C169.934 7.98022 170.035 8.08197 170.035 8.20752C170.035 8.33307 169.934 8.43481 169.809 8.43481ZM165.277 8.43481H163.012C162.887 8.43481 162.785 8.33307 162.785 8.20752C162.785 8.08197 162.887 7.98022 163.012 7.98022H165.277C165.403 7.98022 165.504 8.08197 165.504 8.20752C165.504 8.33307 165.403 8.43481 165.277 8.43481ZM160.746 8.43481H158.481C158.356 8.43481 158.254 8.33307 158.254 8.20752C158.254 8.08197 158.356 7.98022 158.481 7.98022H160.746C160.872 7.98022 160.973 8.08197 160.973 8.20752C160.973 8.33307 160.872 8.43481 160.746 8.43481ZM156.215 8.43481H153.949C153.824 8.43481 153.723 8.33307 153.723 8.20752C153.723 8.08197 153.824 7.98022 153.949 7.98022H156.215C156.34 7.98022 156.441 8.08197 156.441 8.20752C156.441 8.33307 156.34 8.43481 156.215 8.43481ZM151.684 8.43481H149.418C149.293 8.43481 149.192 8.33307 149.192 8.20752C149.192 8.08197 149.293 7.98022 149.418 7.98022H151.684C151.809 7.98022 151.91 8.08197 151.91 8.20752C151.91 8.33307 151.809 8.43481 151.684 8.43481ZM147.153 8.43481H144.887C144.762 8.43481 144.661 8.33307 144.661 8.20752C144.661 8.08197 144.762 7.98022 144.887 7.98022H147.153C147.278 7.98022 147.379 8.08197 147.379 8.20752C147.379 8.33307 147.278 8.43481 147.153 8.43481ZM142.621 8.43481H140.356C140.231 8.43481 140.129 8.33307 140.129 8.20752C140.129 8.08197 140.231 7.98022 140.356 7.98022H142.621C142.746 7.98022 142.848 8.08197 142.848 8.20752C142.848 8.33307 142.746 8.43481 142.621 8.43481ZM138.09 8.43481H135.825C135.699 8.43481 135.598 8.33307 135.598 8.20752C135.598 8.08197 135.699 7.98022 135.825 7.98022H138.09C138.215 7.98022 138.317 8.08197 138.317 8.20752C138.317 8.33307 138.215 8.43481 138.09 8.43481ZM133.559 8.43481H131.293C131.168 8.43481 131.067 8.33307 131.067 8.20752C131.067 8.08197 131.168 7.98022 131.293 7.98022H133.559C133.684 7.98022 133.785 8.08197 133.785 8.20752C133.785 8.33307 133.684 8.43481 133.559 8.43481ZM129.028 8.43481H126.762C126.637 8.43481 126.535 8.33307 126.535 8.20752C126.535 8.08197 126.637 7.98022 126.762 7.98022H129.028C129.153 7.98022 129.254 8.08197 129.254 8.20752C129.254 8.33307 129.153 8.43481 129.028 8.43481ZM124.496 8.43481H122.231C122.105 8.43481 122.004 8.33307 122.004 8.20752C122.004 8.08197 122.105 7.98022 122.231 7.98022H124.496C124.621 7.98022 124.723 8.08197 124.723 8.20752C124.723 8.33307 124.622 8.43481 124.496 8.43481ZM119.965 8.43481H117.7C117.574 8.43481 117.473 8.33307 117.473 8.20752C117.473 8.08197 117.574 7.98022 117.7 7.98022H119.965C120.09 7.98022 120.192 8.08197 120.192 8.20752C120.192 8.33307 120.09 8.43481 119.965 8.43481ZM115.434 8.43481H113.169C113.043 8.43481 112.942 8.33307 112.942 8.20752C112.942 8.08197 113.043 7.98022 113.169 7.98022H115.434C115.559 7.98022 115.661 8.08197 115.661 8.20752C115.661 8.33307 115.559 8.43481 115.434 8.43481ZM110.902 8.43481H108.637C108.512 8.43481 108.41 8.33307 108.41 8.20752C108.41 8.08197 108.512 7.98022 108.637 7.98022H110.902C111.028 7.98022 111.129 8.08197 111.129 8.20752C111.129 8.33307 111.028 8.43481 110.902 8.43481ZM106.371 8.43481H104.106C103.981 8.43481 103.879 8.33307 103.879 8.20752C103.879 8.08197 103.981 7.98022 104.106 7.98022H106.371C106.497 7.98022 106.598 8.08197 106.598 8.20752C106.598 8.33307 106.497 8.43481 106.371 8.43481ZM101.84 8.43481H99.5744C99.4492 8.43481 99.3478 8.33307 99.3478 8.20752C99.3478 8.08197 99.4492 7.98022 99.5744 7.98022H101.84C101.965 7.98022 102.067 8.08197 102.067 8.20752C102.067 8.33307 101.965 8.43481 101.84 8.43481ZM97.3089 8.43481H95.0434C94.9182 8.43481 94.8168 8.33307 94.8168 8.20752C94.8168 8.08197 94.9182 7.98022 95.0434 7.98022H97.3089C97.4341 7.98022 97.5355 8.08197 97.5355 8.20752C97.5355 8.33307 97.4341 8.43481 97.3089 8.43481ZM92.7773 8.43481H90.5118C90.3867 8.43481 90.2852 8.33307 90.2852 8.20752C90.2852 8.08197 90.3867 7.98022 90.5118 7.98022H92.7773C92.9025 7.98022 93.004 8.08197 93.004 8.20752C93.004 8.33307 92.9025 8.43481 92.7773 8.43481ZM88.2463 8.43481H85.9808C85.8556 8.43481 85.7542 8.33307 85.7542 8.20752C85.7542 8.08197 85.8556 7.98022 85.9808 7.98022H88.2463C88.3715 7.98022 88.4729 8.08197 88.4729 8.20752C88.4729 8.33307 88.3715 8.43481 88.2463 8.43481ZM83.7148 8.43481H81.4493C81.3241 8.43481 81.2227 8.33307 81.2227 8.20752C81.2227 8.08197 81.3241 7.98022 81.4493 7.98022H83.7148C83.8399 7.98022 83.9414 8.08197 83.9414 8.20752C83.9414 8.33307 83.8405 8.43481 83.7148 8.43481ZM79.1838 8.43481H76.9183C76.7931 8.43481 76.6916 8.33307 76.6916 8.20752C76.6916 8.08197 76.7931 7.98022 76.9183 7.98022H79.1838C79.3089 7.98022 79.4104 8.08197 79.4104 8.20752C79.4104 8.33307 79.3089 8.43481 79.1838 8.43481Z" fill="#373A50"/>
<path d="M24.5122 153.283H20.9296V193.349H24.5122V153.283Z" fill="#373A50"/>
<path d="M44.899 150.437V153.655C44.899 154.399 44.298 155.001 43.5572 155.001H8.68489C7.94357 155.001 7.34307 154.398 7.34307 153.655V150.437C7.34307 149.693 7.94411 149.091 8.68489 149.091H43.5572C44.2985 149.091 44.899 149.693 44.899 150.437Z" fill="#909EFF"/>
<path d="M12.9326 154.209L8.68543 155.001C7.95328 155.117 7.26645 154.614 7.15207 153.88L0.534678 111.679C0.419757 110.944 0.920445 110.255 1.65259 110.141L5.89981 109.349C6.63196 109.234 7.31879 109.736 7.43317 110.47L14.05 152.671C14.1649 153.406 13.6648 154.095 12.9326 154.209Z" fill="#909EFF"/>
<path d="M28.7885 155.002L33.0357 154.21C33.7679 154.095 34.2686 153.406 34.1536 152.672L27.5368 110.471C27.4219 109.736 26.7356 109.234 26.0034 109.35H5.89981C6.63196 109.234 7.31879 109.736 7.43317 110.471L14.05 152.672C14.1649 153.406 13.6643 154.095 12.9321 154.21L8.68489 155.002H28.7885Z" fill="#909EFF"/>
<path d="M36.6522 196.74C36.5217 195.983 35.8996 195.381 35.1113 195.313C29.198 194.802 23.3327 191.085 23.3327 191.085H22.1134C22.1134 191.085 16.2475 194.802 10.3342 195.313C9.54653 195.381 8.92444 195.983 8.79388 196.74H36.6522Z" fill="#373A50"/>
<path d="M57.5414 188.801L56.2152 194.357C55.9875 195.53 56.8573 196.628 58.0475 196.668C62.9346 196.832 72.5415 196.669 74.315 196.654C74.4563 196.653 74.5691 196.541 74.5756 196.399C74.6549 194.699 73.5294 193.618 71.8709 192.783L65.4774 188.464C65.4655 188.457 65.452 188.453 65.438 188.454L57.5414 188.801Z" fill="#373A50"/>
<path d="M57.5403 188.8C57.6121 190.446 65.5103 190.1 65.4386 188.454L65.595 181.947L58.1996 181.717L57.5403 188.8Z" fill="#FFDAD9"/>
<path d="M39.6558 131.626H57.0267C64.0924 131.626 69.627 137.721 68.9687 144.778L67.7359 184.598C67.7089 186.095 55.9805 185.436 56.0075 183.939L53.9643 148.247L26.2052 135.621L28.0601 127.845L39.6558 131.626Z" fill="#111228"/>
<path d="M40.6588 188.801L39.3326 194.357C39.1049 195.53 39.9747 196.628 41.1649 196.668C46.0525 196.832 55.659 196.669 57.4324 196.654C57.5738 196.653 57.6865 196.541 57.693 196.399C57.7723 194.699 56.6468 193.618 54.9883 192.783L48.5948 188.464C48.583 188.457 48.5695 188.453 48.5554 188.454L40.6588 188.801Z" fill="#373A50"/>
<path d="M40.6577 188.8C40.7295 190.446 48.6277 190.1 48.556 188.454L48.7124 181.947L41.317 181.717L40.6577 188.8Z" fill="#FFDAD9"/>
<path d="M29.13 132.06C29.13 132.06 50.5684 132.19 54.7968 137.582C60.4829 144.832 54.7881 174.622 50.2846 184.465C50.2447 185.919 39.0612 185.609 39.1012 184.154L40.7149 149.376L26.4917 149.267C19.0407 149.211 12.9612 143.272 12.6958 135.802C12.603 133.199 12.7627 131.336 12.7627 131.336L29.13 132.06Z" fill="#373A50"/>
<path d="M67.3679 118.91C67.3679 118.91 69.32 115.274 71.2159 115.945C73.1118 116.617 71.2159 118.351 71.2159 118.351C71.2159 118.351 78.239 118.142 77.2911 121.498C76.3431 124.855 75.1162 126.533 73.8893 124.295C72.6624 122.058 66.1972 123.441 66.1972 123.441" fill="#FFDAD9"/>
<path d="M68.2118 116.778L67.8416 123.008L67.7893 123.872C67.7893 123.872 46.8775 126.844 40.0864 125.19C39.4594 125.033 38.9485 124.84 38.5908 124.602C33.1787 120.988 31.8277 109.76 30.6137 103.424C28.9131 94.5559 35.5429 87.264 41.2124 94.374C43.3473 97.0518 45.4019 114.257 45.4019 114.257L68.2118 116.778Z" fill="#008A4A"/>
<path d="M67.8417 123.008L67.7893 123.872C67.7893 123.872 46.8775 126.844 40.0864 125.19C39.0974 124.178 38.4661 122.811 38.1726 121.416C37.8025 119.665 37.9072 117.85 38.1003 116.072C38.4823 112.555 39.2058 109.079 40.2515 105.699C40.5369 104.78 41.0154 103.328 41.9764 102.897C43.3473 102.28 43.1946 104.772 43.3074 105.579C43.7336 108.628 44.1598 111.681 44.5861 114.729C44.8353 116.516 45.1488 118.436 46.4113 119.718C47.7985 121.129 49.9415 121.388 51.9119 121.565C57.2231 122.045 62.5305 122.528 67.8417 123.008Z" fill="#008A4A"/>
<path d="M43.3354 118.189C43.2631 122.041 43.0862 125.545 42.9373 128.029C42.7965 130.328 42.6761 131.752 42.6761 131.752C40.5811 133.454 25.3587 134.865 17.1928 133.957C16.0307 133.829 15.0174 133.655 14.2016 133.429C13.4619 133.219 12.8868 132.974 12.521 132.679C12.3883 132.574 12.2836 132.462 12.2075 132.344C12.2075 132.344 8.82193 104.287 12.3284 96.4267C12.5577 95.9066 12.8188 95.4747 13.1166 95.1441C16.5783 91.2806 35.0012 86.6508 40.3248 93.8858C43.0905 97.6492 43.5081 108.917 43.3354 118.189Z" fill="#00A558"/>
<path d="M43.3354 118.189C43.2631 122.041 43.0862 125.545 42.9373 128.029C38.1203 127.957 33.3033 127.884 28.4907 127.812C25.1617 127.763 21.8323 127.715 18.5071 127.667C17.6627 127.654 16.786 127.651 16.0344 128.03C14.7196 128.696 14.2049 130.321 14.1569 131.793C14.1407 132.337 14.1687 132.886 14.2011 133.43C13.4614 133.22 12.8862 132.975 12.5204 132.68C12.3877 132.575 12.283 132.463 12.207 132.345C12.207 132.345 8.82139 104.288 12.3278 96.4278C13.5661 96.234 14.8129 96.1133 16.063 96.1572C19.2231 96.2703 21.8447 97.4198 23.4088 100.166C25.1698 103.259 26.3196 106.703 26.7539 110.24C26.9347 111.704 27.0275 113.277 27.9118 114.454C29.0496 115.967 31.1123 116.358 32.978 116.64C36.4321 117.157 39.8819 117.673 43.3354 118.189Z" fill="#008A4A"/>
<path d="M32.8507 94.8108C27.2524 96.7401 23.8787 89.6273 23.8787 89.6273L23.7201 78.5878L27.6404 80.8981L31.3281 83.0742L31.272 83.7317L30.9914 87.0237L30.8862 89.4845C30.8867 89.4845 36.1024 93.6905 32.8507 94.8108Z" fill="#FFDAD9"/>
<path d="M31.272 83.7317L30.9914 87.0237C30.0294 86.2017 28.0197 84.4152 27.2648 83.1132C26.9713 82.6028 27.0836 82.1569 27.3857 81.7938L31.272 83.7317Z" fill="#FECDCB"/>
<path d="M34.8566 85.3985C30.0861 86.2271 24.2882 80.9057 23.575 80.247C23.5388 80.2032 23.5199 80.1875 23.5199 80.1875C23.5199 80.1875 20.4824 79.3492 20.9118 76.7689C21.5193 73.169 23.8345 75.8413 23.8345 75.8413L22.436 69.1356L25.479 65.4988L37.7804 68.1598C37.7804 68.1598 38.0469 71.0919 38.0561 74.595C38.0739 79.353 37.2603 84.9813 34.8566 85.3985Z" fill="#FFDAD9"/>
<path d="M39.5598 71.0091C37.9773 72.263 29.1829 75.1053 27.0722 71.6542C26.5894 70.8646 25.3684 76.396 24.7571 76.6423C24.1458 76.888 23.8339 75.8419 23.8339 75.8419C23.8339 75.8419 21.5188 73.1695 20.9113 76.7694C20.4818 79.3498 23.5091 80.1854 23.5091 80.1854C23.5091 80.1854 24.1561 80.7612 24.1922 80.805L23.9267 84.8601C17.7199 79.4191 16.4121 71.1038 19.8802 66.8307C23.3478 62.5646 25.0393 62.6046 28.8791 63.3466C32.7185 64.0891 34.4639 61.4157 37.2711 63.1355C40.0793 64.8489 41.0958 69.792 39.5598 71.0091Z" fill="#111228"/>
<path d="M36.547 76.2391C36.4812 75.7943 36.1704 75.4669 35.8472 75.5177C35.5289 75.5632 35.3239 75.962 35.3946 76.4069" fill="#FFDAD9"/>
<path d="M31.9815 76.2694C31.9156 75.8245 31.6 75.4971 31.2817 75.548C30.9634 75.5935 30.7583 75.9923 30.8242 76.4372" fill="#FFDAD9"/>
<path d="M35.1685 76.442C35.0746 75.8142 35.4118 75.3526 35.8149 75.292C36.3102 75.2195 36.6965 75.6919 36.7704 76.205L36.3215 76.2694C36.2848 76.0128 36.0987 75.7087 35.8818 75.7412C35.6568 75.7747 35.5802 76.1314 35.6163 76.3738L35.1685 76.442Z" fill="#FFDAD9"/>
<path d="M30.5997 76.4723C30.5021 75.8213 30.8592 75.3802 31.2504 75.3223C31.6961 75.2557 32.118 75.6551 32.2048 76.2337L31.757 76.3018C31.7047 75.9582 31.4759 75.7466 31.3173 75.772C31.0896 75.8056 31.0108 76.1579 31.0481 76.4047L30.5997 76.4723Z" fill="#FFDAD9"/>
<path d="M30.8236 76.4383C30.8911 76.8858 31.1997 77.2067 31.5207 77.1591C31.8385 77.1153 32.0441 76.7153 31.9804 76.2678C31.9129 75.824 31.6006 75.4993 31.2833 75.5469C30.9623 75.5946 30.7567 75.9907 30.8236 76.4383Z" fill="#111228"/>
<path d="M35.3924 76.4085C35.4561 76.856 35.7685 77.1769 36.0863 77.1293C36.4078 77.0855 36.6134 76.6856 36.5459 76.238C36.4823 75.7942 36.1699 75.4695 35.8483 75.5171C35.5305 75.5648 35.325 75.9609 35.3924 76.4085Z" fill="#111228"/>
<path d="M36.6749 75.206C36.1461 75.022 35.9244 74.8299 35.483 75.1183C35.373 75.2184 35.2483 75.3169 35.094 75.4084C35.1388 75.2428 35.2025 75.0756 35.2996 74.9262C35.5602 74.5869 36.0075 74.5409 36.3474 74.8006C36.4958 74.9078 36.5945 75.0512 36.6749 75.206Z" fill="#111228"/>
<path d="M31.7662 75.1048C31.2369 74.9203 31.0152 74.7287 30.5744 75.0171C30.4643 75.1172 30.3397 75.2157 30.1853 75.3072C30.2301 75.1416 30.2938 74.9744 30.3909 74.8245C30.6531 74.483 31.1009 74.4413 31.4387 74.6989C31.5865 74.8071 31.6858 74.9506 31.7662 75.1048Z" fill="#111228"/>
<path d="M33.8078 75.9247C33.9513 77.0217 33.933 78.0715 34.0608 78.5245C34.2092 79.0814 34.6133 79.2475 34.6689 79.6826C34.6996 79.9359 34.5993 80.1702 34.459 80.3499C34.3101 80.5263 34.131 80.6595 33.9464 80.7791C34.2545 80.483 34.582 80.1091 34.4973 79.7124C34.4088 79.3428 34.0069 79.1885 33.8429 78.5857C33.6869 77.992 33.77 76.3901 33.8078 75.9247Z" fill="#111228"/>
<path d="M33.0141 82.0584C33.0195 82.901 33.6184 83.5807 34.3489 83.5758C35.0757 83.571 35.6654 82.8837 35.66 82.0411C35.66 82.0259 35.6562 82.0145 35.6562 82.0032C34.9155 82.1828 34.0371 82.1883 33.0179 82.0205C33.0174 82.0319 33.0141 82.0432 33.0141 82.0584Z" fill="white"/>
<path d="M149.867 131.569V136.712C149.867 137.147 149.517 137.505 149.076 137.505H25.3026C24.8618 137.505 24.5121 137.147 24.5121 136.712V131.569C24.5121 131.127 24.8618 130.776 25.3026 130.776H149.076C149.516 130.776 149.867 131.127 149.867 131.569Z" fill="#EBF2FF"/>
<path d="M143.066 137.503H138.788V196.739H143.066V137.503Z" fill="url(#paint0_linear_9_2735)"/>
<path d="M35.5926 137.505H31.313V196.741H35.5926V137.505Z" fill="url(#paint1_linear_9_2735)"/>
<path d="M48.1119 130.776H66.0207L75.3212 106.434H73.4987L64.482 127.764L50.5879 128.351C49.2299 128.319 48.1119 129.414 48.1119 130.776Z" fill="#111228"/>
<path d="M66.0207 130.776H88.9536L97.6941 106.083L75.3212 106.434L66.0207 130.776Z" fill="#373A50"/>
<path d="M47.4931 120.753C47.4931 120.753 49.4451 117.117 51.3411 117.789C53.237 118.46 51.3411 120.194 51.3411 120.194C51.3411 120.194 58.3642 119.985 57.4162 123.342C56.4683 126.698 55.2414 128.376 54.0145 126.139C52.7876 123.901 46.3223 125.285 46.3223 125.285" fill="#FFDAD9"/>
<path d="M21.5852 96.5182C23.7201 99.1959 25.5265 116.099 25.5265 116.099L48.3353 118.622L47.915 125.716C47.915 125.716 22.9464 129.265 18.7165 126.443C13.3033 122.832 11.9529 111.605 10.7367 105.266C9.03666 96.4002 15.9141 89.406 21.5852 96.5182Z" fill="#00A558"/>
<path d="M196.741 104.214C196.741 106.833 194.629 108.952 192.018 108.952H188.778V16.4794H192.034C194.479 16.4794 196.487 18.3465 196.718 20.7401C196.754 21.1016 196.736 48.2889 196.741 104.214Z" fill="url(#paint2_linear_9_2735)"/>
<path d="M194.738 21.2246V104.215C194.738 106.835 192.627 108.952 190.016 108.952H107.718C105.107 108.952 102.991 106.835 102.991 104.215V21.2246C102.991 18.6052 105.107 16.4838 107.718 16.4838H190.016C192.627 16.4833 194.738 18.6052 194.738 21.2246Z" fill="white"/>
<path d="M194.742 21.2057V26.0671H102.995V21.2057C102.995 18.595 105.099 16.4801 107.702 16.4801H190.035C192.633 16.4801 194.742 18.595 194.742 21.2057Z" fill="url(#paint3_linear_9_2735)"/>
<path d="M188.709 21.8284C188.709 22.6321 189.355 23.2837 190.156 23.2837C190.958 23.2837 191.604 22.6321 191.604 21.8284C191.604 21.028 190.958 20.3765 190.156 20.3765C189.355 20.3765 188.709 21.028 188.709 21.8284Z" fill="white"/>
<path d="M184.819 21.8284C184.819 22.6321 185.466 23.2837 186.267 23.2837C187.068 23.2837 187.714 22.6321 187.714 21.8284C187.714 21.028 187.068 20.3765 186.267 20.3765C185.465 20.3765 184.819 21.028 184.819 21.8284Z" fill="white"/>
<path d="M180.93 21.8284C180.93 22.6321 181.576 23.2837 182.377 23.2837C183.179 23.2837 183.825 22.6321 183.825 21.8284C183.825 21.028 183.179 20.3765 182.377 20.3765C181.576 20.3765 180.93 21.028 180.93 21.8284Z" fill="white"/>
<path d="M123.043 34.6349H116.524C116.268 34.6349 116.059 34.426 116.059 34.1695C116.059 33.913 116.268 33.7041 116.524 33.7041H123.043C123.299 33.7041 123.507 33.913 123.507 34.1695C123.507 34.426 123.299 34.6349 123.043 34.6349Z" fill="url(#paint4_linear_9_2735)"/>
<path d="M113.573 34.6349H110.06C109.804 34.6349 109.595 34.426 109.595 34.1695C109.595 33.913 109.804 33.7041 110.06 33.7041H113.573C113.829 33.7041 114.038 33.913 114.038 34.1695C114.038 34.426 113.829 34.6349 113.573 34.6349Z" fill="url(#paint5_linear_9_2735)"/>
<path d="M170.174 38.4438H164.007C163.75 38.4438 163.542 38.2349 163.542 37.9784C163.542 37.7218 163.751 37.5129 164.007 37.5129H170.174C170.43 37.5129 170.639 37.7218 170.639 37.9784C170.639 38.2349 170.43 38.4438 170.174 38.4438Z" fill="url(#paint6_linear_9_2735)"/>
<path d="M128.013 38.4438H121.338C121.081 38.4438 120.873 38.2349 120.873 37.9784C120.873 37.7218 121.082 37.5129 121.338 37.5129H128.013C128.269 37.5129 128.477 37.7218 128.477 37.9784C128.477 38.2349 128.269 38.4438 128.013 38.4438Z" fill="url(#paint7_linear_9_2735)"/>
<path d="M118.653 38.4438H113.359C113.103 38.4438 112.894 38.2349 112.894 37.9784C112.894 37.7218 113.103 37.5129 113.359 37.5129H118.653C118.909 37.5129 119.117 37.7218 119.117 37.9784C119.117 38.2349 118.909 38.4438 118.653 38.4438Z" fill="url(#paint8_linear_9_2735)"/>
<path d="M187.669 42.2525H169.376C169.12 42.2525 168.912 42.0437 168.912 41.7871C168.912 41.5301 169.12 41.3217 169.376 41.3217H187.67C187.926 41.3217 188.134 41.5306 188.134 41.7871C188.134 42.0442 187.925 42.2525 187.669 42.2525Z" fill="url(#paint9_linear_9_2735)"/>
<path d="M167.272 42.2525H125.546C125.29 42.2525 125.081 42.0437 125.081 41.7871C125.081 41.5301 125.29 41.3217 125.546 41.3217H167.272C167.528 41.3217 167.737 41.5306 167.737 41.7871C167.737 42.0442 167.528 42.2525 167.272 42.2525Z" fill="url(#paint10_linear_9_2735)"/>
<path d="M122.499 42.2525H113.36C113.103 42.2525 112.895 42.0437 112.895 41.7871C112.895 41.5301 113.104 41.3217 113.36 41.3217H122.499C122.755 41.3217 122.963 41.5306 122.963 41.7871C122.963 42.0442 122.754 42.2525 122.499 42.2525Z" fill="url(#paint11_linear_9_2735)"/>
<path d="M167.091 46.0608H113.36C113.103 46.0608 112.895 45.8519 112.895 45.5954C112.895 45.3384 113.104 45.13 113.36 45.13H167.091C167.347 45.13 167.555 45.3389 167.555 45.5954C167.555 45.8519 167.346 46.0608 167.091 46.0608Z" fill="url(#paint12_linear_9_2735)"/>
<path d="M187.669 49.8697H167.816C167.56 49.8697 167.351 49.6608 167.351 49.4043C167.351 49.1472 167.56 48.9388 167.816 48.9388H187.669C187.925 48.9388 188.134 49.1477 188.134 49.4043C188.134 49.6608 187.925 49.8697 187.669 49.8697Z" fill="url(#paint13_linear_9_2735)"/>
<path d="M163.571 49.8697H122.498C122.242 49.8697 122.034 49.6608 122.034 49.4043C122.034 49.1472 122.242 48.9388 122.498 48.9388H163.571C163.828 48.9388 164.036 49.1477 164.036 49.4043C164.036 49.6608 163.828 49.8697 163.571 49.8697Z" fill="url(#paint14_linear_9_2735)"/>
<path d="M120.104 49.8697H113.36C113.103 49.8697 112.895 49.6608 112.895 49.4043C112.895 49.1472 113.104 48.9388 113.36 48.9388H120.104C120.361 48.9388 120.569 49.1477 120.569 49.4043C120.569 49.6608 120.361 49.8697 120.104 49.8697Z" fill="url(#paint15_linear_9_2735)"/>
<path d="M164.225 53.6785H125.872C125.616 53.6785 125.408 53.4696 125.408 53.2131C125.408 52.956 125.617 52.7477 125.872 52.7477H164.225C164.481 52.7477 164.689 52.9566 164.689 53.2131C164.689 53.4696 164.481 53.6785 164.225 53.6785Z" fill="url(#paint16_linear_9_2735)"/>
<path d="M123.297 53.6785H113.36C113.103 53.6785 112.895 53.4696 112.895 53.2131C112.895 52.956 113.104 52.7477 113.36 52.7477H123.297C123.553 52.7477 123.761 52.9566 123.761 53.2131C123.761 53.4696 123.553 53.6785 123.297 53.6785Z" fill="url(#paint17_linear_9_2735)"/>
<path d="M125.546 57.4867H117.202C116.946 57.4867 116.738 57.2778 116.738 57.0213C116.738 56.7643 116.946 56.5559 117.202 56.5559H125.546C125.802 56.5559 126.011 56.7648 126.011 57.0213C126.011 57.2778 125.802 57.4867 125.546 57.4867Z" fill="url(#paint18_linear_9_2735)"/>
<path d="M114.808 57.4867H110.06C109.804 57.4867 109.595 57.2778 109.595 57.0213C109.595 56.7643 109.804 56.5559 110.06 56.5559H114.808C115.064 56.5559 115.272 56.7648 115.272 57.0213C115.272 57.2778 115.064 57.4867 114.808 57.4867Z" fill="url(#paint19_linear_9_2735)"/>
<path d="M180.503 61.2956H127.577C127.321 61.2956 127.113 61.0867 127.113 60.8302C127.113 60.5736 127.322 60.3647 127.577 60.3647H180.503C180.759 60.3647 180.968 60.5736 180.968 60.8302C180.968 61.0867 180.759 61.2956 180.503 61.2956Z" fill="url(#paint20_linear_9_2735)"/>
<path d="M124.675 61.2956H113.033C112.777 61.2956 112.569 61.0867 112.569 60.8302C112.569 60.5736 112.777 60.3647 113.033 60.3647H124.675C124.931 60.3647 125.14 60.5736 125.14 60.8302C125.14 61.0867 124.931 61.2956 124.675 61.2956Z" fill="url(#paint21_linear_9_2735)"/>
<path d="M168.247 65.1044H120.431C120.174 65.1044 119.966 64.8955 119.966 64.639C119.966 64.3825 120.175 64.1736 120.431 64.1736H168.247C168.504 64.1736 168.712 64.3825 168.712 64.639C168.712 64.8955 168.503 65.1044 168.247 65.1044Z" fill="url(#paint22_linear_9_2735)"/>
<path d="M117.347 65.1044H113.033C112.777 65.1044 112.569 64.8955 112.569 64.639C112.569 64.3825 112.777 64.1736 113.033 64.1736H117.347C117.604 64.1736 117.812 64.3825 117.812 64.639C117.812 64.8955 117.604 65.1044 117.347 65.1044Z" fill="url(#paint23_linear_9_2735)"/>
<path d="M164.225 69.3115H125.872C125.616 69.3115 125.408 69.1026 125.408 68.8461C125.408 68.589 125.617 68.3807 125.872 68.3807H164.225C164.481 68.3807 164.689 68.5896 164.689 68.8461C164.689 69.1026 164.481 69.3115 164.225 69.3115Z" fill="url(#paint24_linear_9_2735)"/>
<path d="M123.297 69.3115H113.36C113.103 69.3115 112.895 69.1026 112.895 68.8461C112.895 68.589 113.104 68.3807 113.36 68.3807H123.297C123.553 68.3807 123.761 68.5896 123.761 68.8461C123.761 69.1026 123.553 69.3115 123.297 69.3115Z" fill="url(#paint25_linear_9_2735)"/>
<path d="M177.492 69.3115H167.555C167.299 69.3115 167.091 69.1026 167.091 68.8461C167.091 68.589 167.3 68.3807 167.555 68.3807H177.492C177.749 68.3807 177.957 68.5896 177.957 68.8461C177.957 69.1026 177.749 69.3115 177.492 69.3115Z" fill="url(#paint26_linear_9_2735)"/>
<path d="M125.546 73.1198H117.202C116.946 73.1198 116.738 72.9109 116.738 72.6544C116.738 72.3979 116.946 72.189 117.202 72.189H125.546C125.802 72.189 126.011 72.3979 126.011 72.6544C126.011 72.9109 125.802 73.1198 125.546 73.1198Z" fill="url(#paint27_linear_9_2735)"/>
<path d="M114.808 73.1198H110.06C109.804 73.1198 109.595 72.9109 109.595 72.6544C109.595 72.3979 109.804 72.189 110.06 72.189H114.808C115.064 72.189 115.272 72.3979 115.272 72.6544C115.272 72.9109 115.064 73.1198 114.808 73.1198Z" fill="url(#paint28_linear_9_2735)"/>
<path d="M185.888 73.1198H160.622C160.365 73.1198 160.157 72.9109 160.157 72.6544C160.157 72.3979 160.366 72.189 160.622 72.189H185.888C186.144 72.189 186.353 72.3979 186.353 72.6544C186.353 72.9109 186.144 73.1198 185.888 73.1198Z" fill="url(#paint29_linear_9_2735)"/>
<path d="M157.72 73.1198H128.062C127.806 73.1198 127.597 72.9109 127.597 72.6544C127.597 72.3979 127.806 72.189 128.062 72.189H157.72C157.976 72.189 158.184 72.3979 158.184 72.6544C158.184 72.9109 157.976 73.1198 157.72 73.1198Z" fill="url(#paint30_linear_9_2735)"/>
<path d="M186.336 57.4867H156.535C156.278 57.4867 156.07 57.2778 156.07 57.0213C156.07 56.7643 156.279 56.5559 156.535 56.5559H186.336C186.592 56.5559 186.8 56.7648 186.8 57.0213C186.801 57.2778 186.592 57.4867 186.336 57.4867Z" fill="url(#paint31_linear_9_2735)"/>
<path d="M153.451 57.4867H131.122C130.865 57.4867 130.657 57.2778 130.657 57.0213C130.657 56.7643 130.866 56.5559 131.122 56.5559H153.451C153.708 56.5559 153.916 56.7648 153.916 57.0213C153.916 57.2778 153.708 57.4867 153.451 57.4867Z" fill="url(#paint32_linear_9_2735)"/>
<path d="M146.637 81.908V98.7955C146.637 99.7972 145.823 100.608 144.825 100.608H143V80.0945H144.825C145.823 80.095 146.637 80.9063 146.637 81.908Z" fill="url(#paint33_linear_9_2735)"/>
<path d="M145.54 81.9082V98.7957C145.54 99.7974 144.726 100.609 143.728 100.609H111.402C110.403 100.609 109.595 99.7969 109.595 98.7957V81.9082C109.595 80.9065 110.404 80.0953 111.402 80.0953H143.728C144.726 80.0953 145.54 80.9065 145.54 81.9082Z" fill="url(#paint34_linear_9_2735)"/>
<path d="M125.204 84.7394V95.964C125.204 96.3856 124.863 96.7276 124.443 96.7276H113.252C112.832 96.7276 112.491 96.3856 112.491 95.964V84.7394C112.491 84.3179 112.832 83.9758 113.252 83.9758H124.443C124.863 83.9758 125.204 84.3179 125.204 84.7394Z" fill="#00A558"/>
<path d="M117.014 89.6695L114.951 90.5901L117.017 91.5079C117.232 91.6048 117.301 91.871 117.132 92.041C117.039 92.1341 116.908 92.1546 116.781 92.1092L116.778 92.1065L114.323 91.0025C114.16 90.9267 114.057 90.793 114.057 90.6144V90.5641C114.057 90.3871 114.16 90.2518 114.323 90.1761L116.778 89.0721C116.923 89.019 117.043 89.0515 117.132 89.1403C117.308 89.3151 117.221 89.5905 117.014 89.6695Z" fill="white"/>
<path d="M119.972 88.0709L118.342 92.8549C118.261 93.1001 117.953 93.1445 117.796 92.9794C117.713 92.8923 117.681 92.777 117.728 92.633L119.358 87.849C119.398 87.7267 119.512 87.6271 119.667 87.6271C119.882 87.6266 120.055 87.822 119.972 88.0709Z" fill="white"/>
<path d="M123.637 90.5636V90.6139C123.637 90.792 123.534 90.9246 123.374 91.002L120.916 92.106C120.714 92.1996 120.467 92.0513 120.467 91.8126C120.467 91.6763 120.563 91.5577 120.68 91.508L122.743 90.5901L120.68 89.6696C120.468 89.5884 120.39 89.3124 120.562 89.1398C120.658 89.038 120.823 89.0288 120.916 89.0716L123.371 90.1756C123.534 90.2513 123.637 90.3866 123.637 90.5636Z" fill="white"/>
<path d="M138.902 84.6945H128.046V88.1305H138.902V84.6945Z" fill="url(#paint35_linear_9_2735)"/>
<path d="M143.126 90.0159H128.191V90.6951H143.126V90.0159Z" fill="url(#paint36_linear_9_2735)"/>
<path d="M143.126 91.8435H128.191V92.5227H143.126V91.8435Z" fill="url(#paint37_linear_9_2735)"/>
<path d="M143.126 93.6711H128.191V94.3503H143.126V93.6711Z" fill="url(#paint38_linear_9_2735)"/>
<path d="M132.475 95.4986H128.191V96.1778H132.475V95.4986Z" fill="url(#paint39_linear_9_2735)"/>
<path d="M135.668 95.4986H133.273V96.1778H135.668V95.4986Z" fill="url(#paint40_linear_9_2735)"/>
<path d="M138.267 95.4986H136.413V96.1778H138.267V95.4986Z" fill="url(#paint41_linear_9_2735)"/>
<path d="M186.801 81.908V98.7955C186.801 99.7972 185.987 100.608 184.989 100.608H183.165V80.0945H184.989C185.987 80.095 186.801 80.9063 186.801 81.908Z" fill="url(#paint42_linear_9_2735)"/>
<path d="M185.704 81.9082V98.7957C185.704 99.7974 184.89 100.609 183.892 100.609H151.566C150.568 100.609 149.759 99.7969 149.759 98.7957V81.9082C149.759 80.9065 150.568 80.0953 151.566 80.0953H183.892C184.89 80.0953 185.704 80.9065 185.704 81.9082Z" fill="url(#paint43_linear_9_2735)"/>
<path d="M165.367 84.741V95.9635C165.367 96.3856 165.028 96.726 164.607 96.726H153.415C152.994 96.726 152.654 96.3856 152.654 95.9635V84.741C152.654 84.3189 152.994 83.9736 153.415 83.9736H164.607C165.028 83.9736 165.367 84.3184 165.367 84.741Z" fill="url(#paint44_linear_9_2735)"/>
<path d="M179.066 84.6945H168.21V88.1305H179.066V84.6945Z" fill="url(#paint45_linear_9_2735)"/>
<path d="M183.29 90.0159H168.355V90.6951H183.29V90.0159Z" fill="url(#paint46_linear_9_2735)"/>
<path d="M183.29 91.8435H168.355V92.5227H183.29V91.8435Z" fill="url(#paint47_linear_9_2735)"/>
<path d="M183.29 93.6711H168.355V94.3503H183.29V93.6711Z" fill="url(#paint48_linear_9_2735)"/>
<path d="M172.639 95.4986H168.355V96.1778H172.639V95.4986Z" fill="url(#paint49_linear_9_2735)"/>
<path d="M175.832 95.4986H173.437V96.1778H175.832V95.4986Z" fill="url(#paint50_linear_9_2735)"/>
<path d="M178.431 95.4986H176.577V96.1778H178.431V95.4986Z" fill="url(#paint51_linear_9_2735)"/>
<path d="M162.93 90.9614L162.934 89.773L162.08 89.7692C162.004 89.3606 161.847 88.9644 161.606 88.6035L162.213 88.0001L161.381 87.158L160.774 87.7614C160.418 87.5184 160.023 87.355 159.616 87.2754L159.62 86.4187L158.437 86.4133L158.433 87.2738C158.025 87.3501 157.628 87.5098 157.273 87.7511L156.667 87.1385L155.83 87.9714L156.433 88.5824C156.19 88.9385 156.028 89.3319 155.946 89.7416L155.09 89.7394L155.087 90.9246L155.939 90.9306C156.015 91.3391 156.174 91.7374 156.414 92.0941L155.807 92.6975L156.639 93.5396L157.246 92.9362C157.601 93.1829 157.995 93.3442 158.404 93.4259L158.4 94.2788L159.583 94.288L159.587 93.4276C159.996 93.3496 160.391 93.1916 160.747 92.9502L161.352 93.5628L162.19 92.73L161.585 92.1174C161.827 91.7607 161.992 91.3662 162.071 90.9582L162.93 90.9614ZM160.066 91.4198C159.48 92.0026 158.529 92.0005 157.944 91.4079C157.361 90.8174 157.367 89.8644 157.954 89.281C158.542 88.696 159.495 88.6971 160.077 89.287C160.662 89.8796 160.655 90.8348 160.066 91.4198Z" fill="white"/>
<path d="M90.685 17.5921H89.1803V67.9645H90.685C92.2103 67.9645 93.4464 66.7247 93.4464 65.1948V20.3619C93.4464 18.8325 92.2103 17.5921 90.685 17.5921Z" fill="url(#paint52_linear_9_2735)"/>
<path d="M58.0545 17.5921H89.1479C90.6748 17.5921 91.9125 18.8336 91.9125 20.3651V65.191C91.9125 66.7225 90.6748 67.964 89.1479 67.964H58.0545C56.5276 67.964 55.2899 66.7225 55.2899 65.191V20.3651C55.2899 18.8336 56.5276 17.5921 58.0545 17.5921Z" fill="url(#paint53_linear_9_2735)"/>
<path d="M83.6322 23.2983H58.3593V24.7064H83.6322V23.2983Z" fill="white"/>
<path d="M65.9894 26.5757H58.3593V27.9838H65.9894V26.5757Z" fill="white"/>
<path d="M68.146 39.6841H61.8469V41.0922H68.146V39.6841Z" fill="white"/>
<path d="M80.2127 39.6841H70.4719V41.0922H80.2127V39.6841Z" fill="white"/>
<path d="M80.9135 26.5757H69.2844V27.9838H80.9135V26.5757Z" fill="white"/>
<path d="M70.8355 29.853H58.3593V31.2612H70.8355V29.853Z" fill="white"/>
<path d="M81.9829 29.853H74.3312V31.2612H81.9829V29.853Z" fill="white"/>
<path d="M72.3527 33.1293H64.305V34.5375H72.3527V33.1293Z" fill="white"/>
<path d="M79.0807 33.1293H75.4529V34.5375H79.0807V33.1293Z" fill="white"/>
<path d="M88.8431 33.1293H81.4552V34.5375H88.8431V33.1293Z" fill="white"/>
<path d="M62.7814 46.0776H58.9555V47.4857H62.7814V46.0776Z" fill="white"/>
<path d="M70.9737 46.0776H65.1559V47.4857H70.9737V46.0776Z" fill="white"/>
<path d="M69.9777 36.4067H64.9643V37.8149H69.9777V36.4067Z" fill="white"/>
<path d="M81.8512 36.4067H73.012V37.8149H81.8512V36.4067Z" fill="white"/>
<path d="M68.146 62.1317H61.8469V63.5398H68.146V62.1317Z" fill="white"/>
<path d="M80.2127 62.1317H70.4719V63.5398H80.2127V62.1317Z" fill="white"/>
<path d="M72.3527 55.5775H64.305V56.9856H72.3527V55.5775Z" fill="white"/>
<path d="M79.0807 55.5775H75.4529V56.9856H79.0807V55.5775Z" fill="white"/>
<path d="M88.8431 55.5775H81.4552V56.9856H88.8431V55.5775Z" fill="white"/>
<path d="M69.9777 58.8543H64.9643V60.2625H69.9777V58.8543Z" fill="white"/>
<path d="M81.8512 58.8543H73.012V60.2625H81.8512V58.8543Z" fill="white"/>
<path d="M78.2579 46.2058C78.1015 46.0494 77.8889 45.9893 77.6315 46.0873L73.9454 47.746C73.6816 47.871 73.5019 48.1037 73.5019 48.403V48.4771C73.5019 48.7775 73.6816 49.0097 73.9487 49.1358L77.6315 50.7929L77.6423 50.7972C77.8511 50.8762 78.0912 50.8416 78.2585 50.6738C78.5471 50.3837 78.4344 49.9015 78.0567 49.7435L75.1324 48.4398L78.0524 47.1377C78.4365 46.9781 78.5471 46.497 78.2579 46.2058Z" fill="white"/>
<path d="M81.459 44.3041L79.0127 51.4802C78.934 51.7194 78.9895 51.931 79.1352 52.0831C79.4104 52.3704 79.9461 52.2968 80.0907 51.8633L82.537 44.6873C82.6158 44.4486 82.5607 44.2381 82.4145 44.0839C82.1415 43.8003 81.6025 43.8707 81.459 44.3041Z" fill="white"/>
<path d="M87.5913 47.7444L83.9058 46.0862C83.7099 46.0024 83.4439 46.0429 83.2821 46.2058C82.9918 46.497 83.1083 46.9803 83.4833 47.1361L86.4076 48.4398L83.4871 49.7419C83.0916 49.9086 83.0015 50.3935 83.2821 50.6744C83.4585 50.8513 83.7207 50.8741 83.9085 50.7929L87.594 49.1342C87.8584 49.0097 88.0375 48.7759 88.0375 48.4772V48.403C88.0375 48.1038 87.86 47.8721 87.5913 47.7444Z" fill="white"/>
<path d="M228.809 69.0685H227.304V119.441H228.809C230.334 119.441 231.57 118.201 231.57 116.671V71.8382C231.57 70.3089 230.333 69.0685 228.809 69.0685Z" fill="url(#paint54_linear_9_2735)"/>
<path d="M196.178 69.0685H227.272C228.798 69.0685 230.036 70.3099 230.036 71.8415V116.667C230.036 118.199 228.798 119.44 227.272 119.44H196.178C194.651 119.44 193.414 118.199 193.414 116.667V71.8415C193.414 70.3099 194.651 69.0685 196.178 69.0685Z" fill="url(#paint55_linear_9_2735)"/>
<path d="M219.985 76.8539H208.992C208.717 76.8539 208.493 76.6293 208.493 76.3533C208.493 76.0773 208.717 75.8522 208.992 75.8522H219.985C220.26 75.8522 220.484 76.0768 220.484 76.3533C220.484 76.6293 220.26 76.8539 219.985 76.8539ZM208.992 76.3068C208.966 76.3068 208.946 76.3273 208.946 76.3533C208.946 76.3793 208.966 76.3998 208.992 76.3998H219.985C220.01 76.3998 220.03 76.3793 220.03 76.3533C220.03 76.3273 220.01 76.3068 219.985 76.3068H208.992Z" fill="white"/>
<path d="M208.992 76.8539H201.714C201.438 76.8539 201.214 76.6293 201.214 76.3533C201.214 76.0773 201.438 75.8522 201.714 75.8522H208.992C209.267 75.8522 209.491 76.0768 209.491 76.3533C209.491 76.6293 209.267 76.8539 208.992 76.8539ZM201.714 76.3068C201.688 76.3068 201.667 76.3273 201.667 76.3533C201.667 76.3787 201.688 76.3998 201.714 76.3998H208.992C209.017 76.3998 209.038 76.3793 209.038 76.3533C209.038 76.3279 209.017 76.3068 208.992 76.3068H201.714Z" fill="white"/>
<path d="M219.985 79.1994H208.992C208.717 79.1994 208.493 78.9748 208.493 78.6982C208.493 78.4222 208.717 78.1976 208.992 78.1976H219.985C220.26 78.1976 220.484 78.4222 220.484 78.6982C220.484 78.9748 220.26 79.1994 219.985 79.1994ZM208.992 78.6522C208.966 78.6522 208.946 78.6728 208.946 78.6988C208.946 78.7247 208.966 78.7453 208.992 78.7453H219.985C220.01 78.7453 220.03 78.7247 220.03 78.6988C220.03 78.6728 220.01 78.6522 219.985 78.6522H208.992Z" fill="white"/>
<path d="M208.992 79.1994H204.451C204.176 79.1994 203.952 78.9748 203.952 78.6982C203.952 78.4222 204.176 78.1976 204.451 78.1976H208.992C209.267 78.1976 209.491 78.4222 209.491 78.6982C209.491 78.9748 209.267 79.1994 208.992 79.1994ZM204.451 78.6522C204.425 78.6522 204.405 78.6728 204.405 78.6988C204.405 78.7242 204.426 78.7453 204.451 78.7453H208.992C209.017 78.7453 209.038 78.7247 209.038 78.6988C209.038 78.6733 209.017 78.6522 208.992 78.6522H204.451Z" fill="white"/>
<path d="M219.707 81.5454H209.115C208.84 81.5454 208.616 81.3208 208.616 81.0442C208.616 80.7682 208.84 80.5436 209.115 80.5436H219.707C219.982 80.5436 220.206 80.7682 220.206 81.0442C220.206 81.3208 219.982 81.5454 219.707 81.5454ZM209.115 80.9982C209.09 80.9982 209.069 81.0188 209.069 81.0448C209.069 81.0702 209.09 81.0913 209.115 81.0913H219.707C219.732 81.0913 219.753 81.0707 219.753 81.0448C219.753 81.0193 219.732 80.9982 219.707 80.9982H209.115Z" fill="white"/>
<path d="M209.115 81.5454H201.714C201.438 81.5454 201.214 81.3208 201.214 81.0442C201.214 80.7682 201.438 80.5436 201.714 80.5436H209.115C209.391 80.5436 209.615 80.7682 209.615 81.0442C209.615 81.3208 209.391 81.5454 209.115 81.5454ZM201.714 80.9982C201.688 80.9982 201.667 81.0188 201.667 81.0448C201.667 81.0702 201.688 81.0913 201.714 81.0913H209.115C209.141 81.0913 209.161 81.0707 209.161 81.0448C209.161 81.0193 209.14 80.9982 209.115 80.9982H201.714Z" fill="white"/>
<path d="M219.707 83.8908H204.821C204.546 83.8908 204.322 83.6662 204.322 83.3902C204.322 83.1142 204.546 82.8891 204.821 82.8891H219.707C219.982 82.8891 220.206 83.1137 220.206 83.3902C220.206 83.6662 219.982 83.8908 219.707 83.8908ZM204.822 83.3437C204.796 83.3437 204.776 83.3643 204.776 83.3902C204.776 83.4162 204.797 83.4368 204.822 83.4368H219.707C219.733 83.4368 219.753 83.4162 219.753 83.3902C219.753 83.3648 219.732 83.3437 219.707 83.3437H204.822Z" fill="white"/>
<path d="M219.707 86.2363H208.837C208.562 86.2363 208.338 86.0118 208.338 85.7352C208.338 85.4592 208.562 85.2346 208.837 85.2346H219.707C219.982 85.2346 220.206 85.4592 220.206 85.7352C220.206 86.0118 219.982 86.2363 219.707 86.2363ZM208.837 85.6892C208.811 85.6892 208.791 85.7098 208.791 85.7358C208.791 85.7617 208.812 85.7823 208.837 85.7823H219.707C219.732 85.7823 219.753 85.7617 219.753 85.7358C219.753 85.7103 219.732 85.6892 219.707 85.6892H208.837Z" fill="white"/>
<path d="M208.837 86.2363H204.081C203.806 86.2363 203.582 86.0118 203.582 85.7352C203.582 85.4592 203.806 85.2346 204.081 85.2346H208.837C209.113 85.2346 209.337 85.4592 209.337 85.7352C209.337 86.0118 209.113 86.2363 208.837 86.2363ZM204.081 85.6892C204.055 85.6892 204.035 85.7098 204.035 85.7358C204.035 85.7617 204.055 85.7823 204.081 85.7823H208.837C208.863 85.7823 208.884 85.7617 208.884 85.7358C208.884 85.7103 208.863 85.6892 208.837 85.6892H204.081Z" fill="white"/>
<path d="M222.886 88.5818H208.837C208.562 88.5818 208.338 88.3572 208.338 88.0812C208.338 87.8052 208.562 87.5801 208.837 87.5801H222.886C223.161 87.5801 223.385 87.8047 223.385 88.0812C223.385 88.3572 223.161 88.5818 222.886 88.5818ZM208.837 88.0347C208.811 88.0347 208.791 88.0552 208.791 88.0812C208.791 88.1072 208.812 88.1278 208.837 88.1278H222.886C222.912 88.1278 222.932 88.1072 222.932 88.0812C222.932 88.0552 222.911 88.0347 222.886 88.0347H208.837Z" fill="white"/>
<path d="M205.687 88.5818H201.714C201.438 88.5818 201.214 88.3572 201.214 88.0812C201.214 87.8052 201.438 87.5801 201.714 87.5801H205.687C205.962 87.5801 206.186 87.8047 206.186 88.0812C206.186 88.3572 205.963 88.5818 205.687 88.5818ZM201.714 88.0347C201.688 88.0347 201.667 88.0552 201.667 88.0812C201.667 88.1066 201.688 88.1278 201.714 88.1278H205.687C205.712 88.1278 205.733 88.1072 205.733 88.0812C205.733 88.0558 205.712 88.0347 205.687 88.0347H201.714Z" fill="white"/>
<path d="M219.707 90.9278H208.682C208.407 90.9278 208.183 90.7032 208.183 90.4267C208.183 90.1507 208.407 89.9261 208.682 89.9261H219.707C219.982 89.9261 220.206 90.1507 220.206 90.4267C220.206 90.7032 219.982 90.9278 219.707 90.9278ZM208.683 90.3807C208.657 90.3807 208.637 90.4012 208.637 90.4272C208.637 90.4532 208.658 90.4738 208.683 90.4738H219.707C219.733 90.4738 219.753 90.4532 219.753 90.4272C219.753 90.4018 219.732 90.3807 219.707 90.3807H208.683Z" fill="white"/>
<path d="M208.683 90.9278H201.714C201.438 90.9278 201.214 90.7032 201.214 90.4267C201.214 90.1507 201.438 89.9261 201.714 89.9261H208.683C208.959 89.9261 209.183 90.1507 209.183 90.4267C209.183 90.7032 208.959 90.9278 208.683 90.9278ZM201.714 90.3807C201.688 90.3807 201.667 90.4012 201.667 90.4272C201.667 90.4527 201.688 90.4738 201.714 90.4738H208.683C208.709 90.4738 208.729 90.4532 208.729 90.4272C208.729 90.4018 208.708 90.3807 208.683 90.3807H201.714Z" fill="white"/>
<path d="M222.886 93.2733H211.739C211.464 93.2733 211.24 93.0487 211.24 92.7727C211.24 92.4967 211.464 92.2715 211.739 92.2715H222.886C223.161 92.2715 223.385 92.4961 223.385 92.7727C223.385 93.0487 223.161 93.2733 222.886 93.2733ZM211.739 92.7261C211.714 92.7261 211.694 92.7467 211.694 92.7727C211.694 92.7981 211.715 92.8192 211.739 92.8192H222.886C222.912 92.8192 222.932 92.7987 222.932 92.7727C222.932 92.7467 222.911 92.7261 222.886 92.7261H211.739Z" fill="white"/>
<path d="M206.645 93.2733H201.714C201.438 93.2733 201.214 93.0487 201.214 92.7727C201.214 92.4967 201.438 92.2715 201.714 92.2715H206.645C206.92 92.2715 207.144 92.4961 207.144 92.7727C207.144 93.0487 206.92 93.2733 206.645 93.2733ZM201.714 92.7261C201.688 92.7261 201.667 92.7467 201.667 92.7727C201.667 92.7981 201.688 92.8192 201.714 92.8192H206.645C206.67 92.8192 206.69 92.7987 206.69 92.7727C206.69 92.7472 206.669 92.7261 206.645 92.7261H201.714Z" fill="white"/>
<path d="M222.886 95.6187H211.865C211.589 95.6187 211.365 95.3941 211.365 95.1181C211.365 94.8421 211.589 94.617 211.865 94.617H222.886C223.161 94.617 223.385 94.8416 223.385 95.1181C223.385 95.3941 223.161 95.6187 222.886 95.6187ZM211.865 95.0716C211.839 95.0716 211.818 95.0922 211.818 95.1181C211.818 95.1436 211.839 95.1647 211.865 95.1647H222.886C222.912 95.1647 222.932 95.1441 222.932 95.1181C222.932 95.0922 222.911 95.0716 222.886 95.0716H211.865Z" fill="white"/>
<path d="M206.645 95.6187H201.714C201.438 95.6187 201.214 95.3941 201.214 95.1181C201.214 94.8421 201.438 94.617 201.714 94.617H206.645C206.92 94.617 207.144 94.8416 207.144 95.1181C207.144 95.3941 206.92 95.6187 206.645 95.6187ZM201.714 95.0716C201.688 95.0716 201.667 95.0922 201.667 95.1181C201.667 95.1436 201.688 95.1647 201.714 95.1647H206.645C206.67 95.1647 206.69 95.1441 206.69 95.1181C206.69 95.0927 206.669 95.0716 206.645 95.0716H201.714Z" fill="white"/>
<path d="M222.886 97.9642H208.683C208.408 97.9642 208.184 97.7396 208.184 97.4631C208.184 97.1871 208.408 96.962 208.683 96.962H222.886C223.161 96.962 223.385 97.1866 223.385 97.4631C223.385 97.7396 223.161 97.9642 222.886 97.9642ZM208.683 97.4171C208.657 97.4171 208.637 97.4377 208.637 97.4636C208.637 97.4896 208.658 97.5102 208.683 97.5102H222.886C222.912 97.5102 222.932 97.4896 222.932 97.4636C222.932 97.4377 222.911 97.4171 222.886 97.4171H208.683Z" fill="white"/>
<path d="M206.181 97.9642H201.714C201.438 97.9642 201.214 97.7396 201.214 97.4631C201.214 97.1871 201.438 96.962 201.714 96.962H206.181C206.457 96.962 206.681 97.1866 206.681 97.4631C206.681 97.7396 206.457 97.9642 206.181 97.9642ZM201.714 97.4171C201.688 97.4171 201.667 97.4382 201.667 97.4636C201.667 97.4891 201.688 97.5102 201.714 97.5102H206.181C206.207 97.5102 206.228 97.4891 206.228 97.4636C206.228 97.4382 206.206 97.4171 206.181 97.4171H201.714Z" fill="white"/>
<path d="M222.886 105.035H211.739C211.464 105.035 211.24 104.811 211.24 104.534C211.24 104.258 211.464 104.034 211.739 104.034H222.886C223.161 104.034 223.385 104.258 223.385 104.534C223.385 104.811 223.161 105.035 222.886 105.035ZM211.739 104.488C211.714 104.488 211.694 104.509 211.694 104.535C211.694 104.56 211.715 104.581 211.739 104.581H222.886C222.912 104.581 222.932 104.561 222.932 104.535C222.932 104.509 222.911 104.488 222.886 104.488H211.739Z" fill="white"/>
<path d="M206.645 105.035H201.714C201.438 105.035 201.214 104.811 201.214 104.534C201.214 104.258 201.438 104.034 201.714 104.034H206.645C206.92 104.034 207.144 104.258 207.144 104.534C207.144 104.811 206.92 105.035 206.645 105.035ZM201.714 104.488C201.688 104.488 201.667 104.509 201.667 104.535C201.667 104.56 201.688 104.581 201.714 104.581H206.645C206.67 104.581 206.69 104.56 206.69 104.535C206.69 104.509 206.669 104.488 206.645 104.488H201.714Z" fill="white"/>
<path d="M222.886 107.381H211.865C211.589 107.381 211.365 107.156 211.365 106.88C211.365 106.604 211.589 106.379 211.865 106.379H222.886C223.161 106.379 223.385 106.604 223.385 106.88C223.385 107.156 223.161 107.381 222.886 107.381ZM211.865 106.834C211.839 106.834 211.818 106.855 211.818 106.88C211.818 106.906 211.839 106.926 211.865 106.926H222.886C222.912 106.926 222.932 106.906 222.932 106.88C222.932 106.854 222.911 106.834 222.886 106.834H211.865Z" fill="white"/>
<path d="M206.645 107.381H201.714C201.438 107.381 201.214 107.156 201.214 106.88C201.214 106.604 201.438 106.379 201.714 106.379H206.645C206.92 106.379 207.144 106.604 207.144 106.88C207.144 107.156 206.92 107.381 206.645 107.381ZM201.714 106.834C201.688 106.834 201.667 106.855 201.667 106.88C201.667 106.906 201.688 106.926 201.714 106.926H206.645C206.67 106.926 206.69 106.906 206.69 106.88C206.69 106.855 206.669 106.834 206.645 106.834H201.714Z" fill="white"/>
<path d="M222.886 109.726H208.683C208.408 109.726 208.184 109.502 208.184 109.225C208.184 108.949 208.408 108.724 208.683 108.724H222.886C223.161 108.724 223.385 108.949 223.385 109.225C223.385 109.502 223.161 109.726 222.886 109.726ZM208.683 109.179C208.657 109.179 208.637 109.2 208.637 109.225C208.637 109.251 208.658 109.272 208.683 109.272H222.886C222.912 109.272 222.932 109.251 222.932 109.225C222.932 109.199 222.911 109.179 222.886 109.179H208.683Z" fill="white"/>
<path d="M206.181 109.726H201.714C201.438 109.726 201.214 109.502 201.214 109.225C201.214 108.949 201.438 108.724 201.714 108.724H206.181C206.457 108.724 206.681 108.949 206.681 109.225C206.681 109.502 206.457 109.726 206.181 109.726ZM201.714 109.179C201.688 109.179 201.667 109.2 201.667 109.225C201.667 109.251 201.688 109.272 201.714 109.272H206.181C206.207 109.272 206.228 109.251 206.228 109.225C206.228 109.2 206.206 109.179 206.181 109.179H201.714Z" fill="white"/>
<path d="M220.201 100.31H208.837C208.562 100.31 208.338 100.086 208.338 99.8091C208.338 99.5331 208.562 99.3085 208.837 99.3085H220.201C220.477 99.3085 220.701 99.5331 220.701 99.8091C220.701 100.086 220.477 100.31 220.201 100.31ZM208.837 99.7631C208.811 99.7631 208.791 99.7837 208.791 99.8097C208.791 99.8356 208.812 99.8562 208.837 99.8562H220.201C220.227 99.8562 220.247 99.8351 220.247 99.8097C220.247 99.7842 220.226 99.7631 220.201 99.7631H208.837Z" fill="white"/>
<path d="M208.837 100.31H201.714C201.438 100.31 201.214 100.086 201.214 99.8091C201.214 99.5331 201.438 99.3085 201.714 99.3085H208.837C209.113 99.3085 209.337 99.5331 209.337 99.8091C209.337 100.086 209.113 100.31 208.837 100.31ZM201.714 99.7631C201.688 99.7631 201.667 99.7837 201.667 99.8097C201.667 99.8356 201.688 99.8562 201.714 99.8562H208.837C208.863 99.8562 208.884 99.8351 208.884 99.8097C208.884 99.7842 208.863 99.7631 208.837 99.7631H201.714Z" fill="white"/>
<path d="M219.707 102.656H206.026C205.751 102.656 205.527 102.431 205.527 102.155C205.527 101.879 205.751 101.653 206.026 101.653H219.707C219.982 101.653 220.206 101.878 220.206 102.155C220.206 102.431 219.982 102.656 219.707 102.656ZM206.026 102.109C206.001 102.109 205.98 102.13 205.98 102.155C205.98 102.181 206.001 102.202 206.026 102.202H219.707C219.732 102.202 219.753 102.181 219.753 102.155C219.753 102.13 219.732 102.109 219.707 102.109H206.026Z" fill="white"/>
<path d="M223.883 114.038H223.688C223.259 114.038 222.894 113.675 222.894 113.242C222.894 112.81 223.257 112.445 223.688 112.445H223.931C224.37 112.445 224.661 112.42 224.661 111.989V91.1735C224.661 90.3141 225.043 89.6706 225.798 89.2539C225.043 88.8372 224.661 88.1932 224.661 87.3344V76.5205C224.661 76.087 224.362 76.0643 223.931 76.0643H223.688C223.261 76.0643 222.894 75.7033 222.894 75.2677C222.894 74.8353 223.258 74.4711 223.688 74.4711H223.883C225.467 74.4711 226.38 75.0545 226.38 76.6504V87.2857C226.38 87.8046 226.437 88.1716 227.683 88.3794C228.173 88.466 228.423 88.8074 228.423 89.2545C228.423 89.7004 228.173 90.043 227.685 90.129C226.866 90.2659 226.38 90.4499 226.38 91.2227V111.859C226.38 113.21 225.747 114.038 223.883 114.038ZM223.688 112.899C223.509 112.899 223.347 113.061 223.347 113.241C223.347 113.422 223.51 113.584 223.688 113.584H223.883C225.476 113.584 225.926 112.977 225.926 111.858V91.2222C225.926 90.2015 226.535 89.86 227.608 89.6804C227.842 89.6392 227.97 89.5131 227.97 89.2539C227.97 88.9942 227.842 88.8686 227.606 88.8269C226.177 88.5883 225.927 88.0671 225.927 87.2851V76.6499C225.927 75.5329 225.477 74.9251 223.883 74.9251H223.688C223.509 74.9251 223.347 75.0869 223.347 75.2671C223.347 75.4468 223.509 75.6092 223.688 75.6092H223.932C224.604 75.6092 225.115 75.7813 225.115 76.52V87.3338C225.115 88.1575 225.544 88.7155 226.426 89.0402L227.006 89.2534L226.426 89.4666C225.544 89.7913 225.115 90.3493 225.115 91.1729V111.988C225.115 112.731 224.596 112.899 223.932 112.899H223.688V112.899Z" fill="white"/>
<path d="M199.762 114.038H199.567C197.961 114.038 197.07 113.438 197.07 111.859V91.2227C197.07 90.6989 197.009 90.3368 195.767 90.129C195.275 90.0424 195.026 89.6993 195.026 89.2539C195.026 88.8096 195.275 88.466 195.765 88.3794C196.613 88.2376 197.07 88.0417 197.07 87.2857V76.6504C197.07 75.2991 197.701 74.4711 199.567 74.4711H199.762C200.186 74.4711 200.556 74.8304 200.556 75.2677C200.556 75.7071 200.184 76.0643 199.762 76.0643H199.519C199.082 76.0643 198.788 76.0892 198.788 76.5205V87.3344C198.788 88.1938 198.406 88.8372 197.652 89.2539C198.406 89.6706 198.788 90.3146 198.788 91.1735V111.989C198.788 112.421 199.085 112.445 199.519 112.445H199.762C200.184 112.445 200.556 112.803 200.556 113.242C200.556 113.679 200.186 114.038 199.762 114.038ZM199.567 113.584H199.762C199.943 113.584 200.103 113.42 200.103 113.241C200.103 113.064 199.943 112.899 199.762 112.899H199.519C198.845 112.899 198.335 112.727 198.335 111.989V91.1735C198.335 90.3498 197.906 89.7919 197.024 89.4671L196.444 89.2539L197.024 89.0407C197.906 88.716 198.335 88.158 198.335 87.3344V76.5205C198.335 75.7764 198.855 75.6097 199.519 75.6097H199.762C199.942 75.6097 200.103 75.4463 200.103 75.2677C200.103 75.0886 199.942 74.9257 199.762 74.9257H199.567C197.974 74.9257 197.523 75.5323 197.523 76.6504V87.2857C197.523 88.3042 196.918 88.6478 195.841 88.8275C195.604 88.8697 195.479 88.9979 195.479 89.2539C195.479 89.5104 195.604 89.6387 195.844 89.6809C197.28 89.9212 197.523 90.4467 197.523 91.2227V111.859C197.523 113.194 198.231 113.584 199.567 113.584Z" fill="white"/>
<path d="M209.891 30.595H207.771V46.2924H209.891C210.618 46.2924 211.208 45.7014 211.208 44.9719V31.9182C211.208 31.1886 210.619 30.595 209.891 30.595Z" fill="url(#paint56_linear_9_2735)"/>
<path d="M210.205 31.9182V44.9725C210.205 45.7014 209.616 46.293 208.889 46.293H183.593C182.864 46.293 182.274 45.702 182.274 44.9725V31.9182C182.274 31.1892 182.864 30.595 183.593 30.595H208.889C209.615 30.595 210.205 31.1886 210.205 31.9182Z" fill="#00A558"/>
<path d="M186.724 40.2264V35.6994C186.724 35.5176 186.863 35.3617 187.054 35.3617C187.242 35.3617 187.39 35.5138 187.39 35.6994V37.6509H190.162V35.6994C190.162 35.5148 190.303 35.3617 190.491 35.3617C190.677 35.3617 190.828 35.5111 190.828 35.6994V40.2264C190.828 40.419 190.672 40.5565 190.491 40.5565C190.305 40.5565 190.162 40.4136 190.162 40.2264V38.2743H187.39V40.2264C187.39 40.4141 187.239 40.5565 187.054 40.5565C186.864 40.5565 186.724 40.4104 186.724 40.2264Z" fill="white"/>
<path d="M193.432 40.2264V36.0219H191.94C191.766 36.0219 191.633 35.8931 191.633 35.714C191.633 35.5403 191.76 35.3985 191.94 35.3985H195.583C195.758 35.3985 195.897 35.5354 195.897 35.714C195.897 35.8953 195.755 36.0219 195.583 36.0219H194.098V40.2264C194.098 40.4141 193.947 40.5565 193.762 40.5565C193.572 40.5565 193.432 40.4104 193.432 40.2264Z" fill="white"/>
<path d="M196.702 40.2264V35.8461C196.702 35.5841 196.909 35.3617 197.178 35.3617H197.419C197.622 35.3617 197.791 35.5008 197.866 35.6696L199.526 39.8226L201.187 35.6696C201.262 35.5002 201.43 35.3617 201.633 35.3617H201.875C202.143 35.3617 202.35 35.5836 202.35 35.8461V40.2264C202.35 40.4104 202.21 40.5565 202.021 40.5565C201.84 40.5565 201.685 40.419 201.685 40.2264V36.0587L199.995 40.248C199.918 40.4309 199.736 40.5559 199.526 40.5559C199.325 40.5559 199.137 40.4369 199.058 40.248L197.369 36.0587V40.2264C197.369 40.4141 197.218 40.5565 197.032 40.5565C196.842 40.5565 196.702 40.4104 196.702 40.2264Z" fill="white"/>
<path d="M203.768 40.0575V35.6994C203.768 35.5176 203.906 35.3617 204.097 35.3617C204.286 35.3617 204.434 35.5138 204.434 35.6994V39.8519H206.826C207.013 39.8519 207.163 40.0028 207.163 40.1896C207.163 40.3779 207.011 40.5197 206.826 40.5197H204.229C203.975 40.5202 203.768 40.3146 203.768 40.0575Z" fill="white"/>
<path d="M90.6726 78.1555H88.6979V92.7689H90.6726C91.3492 92.7689 91.8979 92.2185 91.8979 91.5399V79.3872C91.8984 78.708 91.3497 78.1555 90.6726 78.1555Z" fill="url(#paint57_linear_9_2735)"/>
<path d="M90.9656 79.385V91.5393C90.9656 92.2196 90.4136 92.7694 89.7392 92.7694H66.1907C65.5125 92.7694 64.9643 92.2202 64.9643 91.5393V79.385C64.9643 78.7085 65.5119 78.1549 66.1907 78.1549H89.7392C90.4136 78.1549 90.9656 78.7085 90.9656 79.385Z" fill="url(#paint58_linear_9_2735)"/>
<path d="M73.3746 88.8253C73.223 88.736 73.1474 88.6078 73.1474 88.4427C73.1474 88.1272 73.449 87.9216 73.7253 88.0601C74.042 88.2116 74.3614 88.2874 74.6846 88.2874C75.6784 88.2874 75.9325 87.638 75.9325 86.7559V82.2754C75.9325 82.0184 76.1273 81.7997 76.3965 81.7997C76.6577 81.7997 76.8713 82.0097 76.8713 82.2754V86.6936C76.8713 88.1911 76.239 89.1771 74.7461 89.1771C74.2443 89.1771 73.7868 89.0597 73.3746 88.8253Z" fill="white"/>
<path d="M78.6356 88.6803C78.3502 88.5618 78.2434 88.1933 78.4656 87.9508C78.5984 87.8052 78.8061 87.7917 78.9658 87.8631C79.5981 88.1462 80.2758 88.2874 80.9977 88.2874C82.2014 88.2874 82.803 87.8907 82.803 87.0974C82.803 86.3743 81.7757 86.1665 81.0284 85.9695C79.692 85.6216 78.4187 85.273 78.4187 83.8692C78.4187 82.7625 79.283 81.7484 81.0899 81.7484C81.8464 81.7484 82.531 81.862 83.1429 82.0898C83.335 82.1591 83.4315 82.2971 83.4315 82.5038C83.4315 82.7755 83.1893 83.032 82.8537 82.8973C82.3174 82.7111 81.7638 82.618 81.193 82.618C80.3249 82.618 79.357 82.9233 79.357 83.7973C79.357 84.6399 80.3643 84.8455 81.2033 85.0393C82.5753 85.3699 83.7304 85.7222 83.7304 87.1601C83.7304 88.2117 82.8208 89.1777 81.0894 89.1777C80.217 89.1771 79.3985 89.0115 78.6356 88.6803Z" fill="white"/>
<path d="M139.265 0.392334H137.525V13.2697H139.265C139.861 13.2697 140.344 12.7848 140.344 12.1868V1.4774C140.344 0.879395 139.861 0.392334 139.265 0.392334Z" fill="url(#paint59_linear_9_2735)"/>
<path d="M139.523 1.47577V12.1862C139.523 12.7859 139.037 13.2702 138.442 13.2702H117.691C117.093 13.2702 116.61 12.7859 116.61 12.1862V1.47577C116.61 0.879928 117.093 0.391785 117.691 0.391785H138.442C139.036 0.391785 139.523 0.879928 139.523 1.47577Z" fill="url(#paint60_linear_9_2735)"/>
<path d="M120.441 6.83071C120.441 4.99557 121.665 3.82825 123.36 3.82825C124.005 3.82825 124.568 3.95326 125.261 4.3467C125.476 4.46413 125.498 4.73472 125.353 4.88625C125.249 4.99557 125.073 5.00531 124.961 4.94903C124.386 4.64705 123.958 4.55559 123.435 4.55559C122.024 4.55559 121.201 5.47506 121.201 6.83017C121.201 8.15768 122.001 9.10529 123.435 9.10529C123.96 9.10529 124.387 9.01328 124.961 8.71239C125.072 8.65719 125.247 8.66477 125.353 8.77084C125.493 8.91046 125.484 9.19241 125.261 9.31472C124.573 9.70599 124.009 9.83317 123.36 9.83317C121.644 9.83317 120.441 8.64582 120.441 6.83071Z" fill="white"/>
<path d="M126.436 9.43216C126.204 9.33474 126.121 9.03656 126.299 8.84227C126.406 8.72484 126.573 8.71347 126.703 8.77138C127.214 8.99976 127.762 9.11394 128.346 9.11394C129.318 9.11394 129.805 8.79357 129.805 8.15227C129.805 7.56671 128.981 7.40111 128.371 7.24038C127.297 6.96113 126.261 6.67431 126.261 5.5427C126.261 4.63352 126.983 3.82825 128.421 3.82825C129.033 3.82825 129.585 3.92025 130.081 4.10425C130.353 4.2022 130.372 4.50472 130.223 4.68169C130.139 4.78126 130.01 4.82239 129.848 4.75691C129.414 4.60646 128.967 4.5307 128.505 4.5307C127.802 4.5307 127.022 4.77856 127.022 5.48426C127.022 6.15748 127.834 6.33174 128.514 6.48814C129.617 6.7544 130.557 7.03095 130.557 8.2026C130.557 9.27359 129.531 9.83317 128.422 9.83317C127.714 9.83317 127.053 9.6995 126.436 9.43216Z" fill="white"/>
<path d="M131.573 9.43216C131.341 9.33474 131.257 9.03656 131.435 8.84227C131.542 8.72484 131.71 8.71347 131.839 8.77138C132.351 8.99976 132.898 9.11394 133.482 9.11394C134.455 9.11394 134.941 8.79357 134.941 8.15227C134.941 7.56671 134.117 7.40111 133.507 7.24038C132.434 6.96113 131.398 6.67431 131.398 5.5427C131.398 4.63352 132.12 3.82825 133.558 3.82825C134.169 3.82825 134.722 3.92025 135.217 4.10425C135.489 4.2022 135.508 4.50472 135.359 4.68169C135.275 4.78126 135.146 4.82239 134.984 4.75691C134.551 4.60646 134.103 4.5307 133.642 4.5307C132.938 4.5307 132.158 4.77856 132.158 5.48426C132.158 6.15748 132.971 6.33174 133.65 6.48814C134.753 6.7544 135.693 7.03095 135.693 8.2026C135.693 9.27359 134.667 9.83317 133.559 9.83317C132.851 9.83317 132.19 9.6995 131.573 9.43216Z" fill="white"/>
<defs>
<linearGradient id="paint0_linear_9_2735" x1="138.788" y1="167.121" x2="143.066" y2="167.121" gradientUnits="userSpaceOnUse">
<stop stop-color="#D1DEFF"/>
<stop offset="1" stop-color="#B2C7FF"/>
</linearGradient>
<linearGradient id="paint1_linear_9_2735" x1="31.3129" y1="167.123" x2="35.5925" y2="167.123" gradientUnits="userSpaceOnUse">
<stop stop-color="#D1DEFF"/>
<stop offset="1" stop-color="#B2C7FF"/>
</linearGradient>
<linearGradient id="paint2_linear_9_2735" x1="188.779" y1="62.7155" x2="196.742" y2="62.7155" gradientUnits="userSpaceOnUse">
<stop stop-color="#D1DEFF"/>
<stop offset="1" stop-color="#B2C7FF"/>
</linearGradient>
<linearGradient id="paint3_linear_9_2735" x1="102.995" y1="21.2736" x2="194.742" y2="21.2736" gradientUnits="userSpaceOnUse">
<stop stop-color="#D1DEFF"/>
<stop offset="1" stop-color="#B2C7FF"/>
</linearGradient>
<linearGradient id="paint4_linear_9_2735" x1="119.85" y1="39.2113" x2="120.183" y2="64.2481" gradientUnits="userSpaceOnUse">
<stop stop-color="#D1DEFF"/>
<stop offset="1" stop-color="#B2C7FF"/>
</linearGradient>
<linearGradient id="paint5_linear_9_2735" x1="111.885" y1="39.3174" x2="112.218" y2="64.3542" gradientUnits="userSpaceOnUse">
<stop stop-color="#D1DEFF"/>
<stop offset="1" stop-color="#B2C7FF"/>
</linearGradient>
<linearGradient id="paint6_linear_9_2735" x1="167.098" y1="38.5823" x2="167.432" y2="63.619" gradientUnits="userSpaceOnUse">
<stop stop-color="#D1DEFF"/>
<stop offset="1" stop-color="#B2C7FF"/>
</linearGradient>
<linearGradient id="paint7_linear_9_2735" x1="124.691" y1="39.1469" x2="125.024" y2="64.1837" gradientUnits="userSpaceOnUse">
<stop stop-color="#D1DEFF"/>
<stop offset="1" stop-color="#B2C7FF"/>
</linearGradient>
<linearGradient id="paint8_linear_9_2735" x1="116.023" y1="39.2623" x2="116.357" y2="64.299" gradientUnits="userSpaceOnUse">
<stop stop-color="#D1DEFF"/>
<stop offset="1" stop-color="#B2C7FF"/>
</linearGradient>
<linearGradient id="paint9_linear_9_2735" x1="178.478" y1="38.4307" x2="178.812" y2="63.4675" gradientUnits="userSpaceOnUse">
<stop stop-color="#D1DEFF"/>
<stop offset="1" stop-color="#B2C7FF"/>
</linearGradient>
<linearGradient id="paint10_linear_9_2735" x1="146.37" y1="38.8582" x2="146.703" y2="63.8949" gradientUnits="userSpaceOnUse">
<stop stop-color="#D1DEFF"/>
<stop offset="1" stop-color="#B2C7FF"/>
</linearGradient>
<linearGradient id="paint11_linear_9_2735" x1="117.895" y1="39.2374" x2="118.229" y2="64.2742" gradientUnits="userSpaceOnUse">
<stop stop-color="#D1DEFF"/>
<stop offset="1" stop-color="#B2C7FF"/>
</linearGradient>
<linearGradient id="paint12_linear_9_2735" x1="140.137" y1="38.9413" x2="140.47" y2="63.9778" gradientUnits="userSpaceOnUse">
<stop stop-color="#D1DEFF"/>
<stop offset="1" stop-color="#B2C7FF"/>
</linearGradient>
<linearGradient id="paint13_linear_9_2735" x1="177.598" y1="38.4425" x2="177.931" y2="63.4792" gradientUnits="userSpaceOnUse">
<stop stop-color="#D1DEFF"/>
<stop offset="1" stop-color="#B2C7FF"/>
</linearGradient>
<linearGradient id="paint14_linear_9_2735" x1="142.896" y1="38.9046" x2="143.229" y2="63.9412" gradientUnits="userSpaceOnUse">
<stop stop-color="#D1DEFF"/>
<stop offset="1" stop-color="#B2C7FF"/>
</linearGradient>
<linearGradient id="paint15_linear_9_2735" x1="116.597" y1="39.2547" x2="116.931" y2="64.2915" gradientUnits="userSpaceOnUse">
<stop stop-color="#D1DEFF"/>
<stop offset="1" stop-color="#B2C7FF"/>
</linearGradient>
<linearGradient id="paint16_linear_9_2735" x1="144.859" y1="38.8785" x2="145.192" y2="63.9151" gradientUnits="userSpaceOnUse">
<stop stop-color="#D1DEFF"/>
<stop offset="1" stop-color="#B2C7FF"/>
</linearGradient>
<linearGradient id="paint17_linear_9_2735" x1="118.143" y1="39.2342" x2="118.476" y2="64.2709" gradientUnits="userSpaceOnUse">
<stop stop-color="#D1DEFF"/>
<stop offset="1" stop-color="#B2C7FF"/>
</linearGradient>
<linearGradient id="paint18_linear_9_2735" x1="121.138" y1="39.1943" x2="121.471" y2="64.231" gradientUnits="userSpaceOnUse">
<stop stop-color="#D1DEFF"/>
<stop offset="1" stop-color="#B2C7FF"/>
</linearGradient>
<linearGradient id="paint19_linear_9_2735" x1="112.2" y1="39.3133" x2="112.533" y2="64.35" gradientUnits="userSpaceOnUse">
<stop stop-color="#D1DEFF"/>
<stop offset="1" stop-color="#B2C7FF"/>
</linearGradient>
<linearGradient id="paint20_linear_9_2735" x1="153.724" y1="36.9502" x2="154.086" y2="64.119" gradientUnits="userSpaceOnUse">
<stop stop-color="#D1DEFF"/>
<stop offset="1" stop-color="#B2C7FF"/>
</linearGradient>
<linearGradient id="paint21_linear_9_2735" x1="118.568" y1="39.2285" x2="118.901" y2="64.2653" gradientUnits="userSpaceOnUse">
<stop stop-color="#D1DEFF"/>
<stop offset="1" stop-color="#B2C7FF"/>
</linearGradient>
<linearGradient id="paint22_linear_9_2735" x1="143.998" y1="38.8902" x2="144.332" y2="63.9267" gradientUnits="userSpaceOnUse">
<stop stop-color="#D1DEFF"/>
<stop offset="1" stop-color="#B2C7FF"/>
</linearGradient>
<linearGradient id="paint23_linear_9_2735" x1="114.854" y1="39.278" x2="115.188" y2="64.3147" gradientUnits="userSpaceOnUse">
<stop stop-color="#D1DEFF"/>
<stop offset="1" stop-color="#B2C7FF"/>
</linearGradient>
<linearGradient id="paint24_linear_9_2735" x1="144.652" y1="38.8814" x2="144.985" y2="63.9179" gradientUnits="userSpaceOnUse">
<stop stop-color="#D1DEFF"/>
<stop offset="1" stop-color="#B2C7FF"/>
</linearGradient>
<linearGradient id="paint25_linear_9_2735" x1="117.936" y1="39.237" x2="118.269" y2="64.2736" gradientUnits="userSpaceOnUse">
<stop stop-color="#D1DEFF"/>
<stop offset="1" stop-color="#B2C7FF"/>
</linearGradient>
<linearGradient id="paint26_linear_9_2735" x1="172.132" y1="39.237" x2="172.465" y2="64.2736" gradientUnits="userSpaceOnUse">
<stop stop-color="#D1DEFF"/>
<stop offset="1" stop-color="#B2C7FF"/>
</linearGradient>
<linearGradient id="paint27_linear_9_2735" x1="120.931" y1="39.1971" x2="121.264" y2="64.2338" gradientUnits="userSpaceOnUse">
<stop stop-color="#D1DEFF"/>
<stop offset="1" stop-color="#B2C7FF"/>
</linearGradient>
<linearGradient id="paint28_linear_9_2735" x1="111.993" y1="39.3161" x2="112.326" y2="64.3528" gradientUnits="userSpaceOnUse">
<stop stop-color="#D1DEFF"/>
<stop offset="1" stop-color="#B2C7FF"/>
</linearGradient>
<linearGradient id="paint29_linear_9_2735" x1="172.803" y1="38.5067" x2="173.137" y2="63.5432" gradientUnits="userSpaceOnUse">
<stop stop-color="#D1DEFF"/>
<stop offset="1" stop-color="#B2C7FF"/>
</linearGradient>
<linearGradient id="paint30_linear_9_2735" x1="142.444" y1="38.9108" x2="142.778" y2="63.9474" gradientUnits="userSpaceOnUse">
<stop stop-color="#D1DEFF"/>
<stop offset="1" stop-color="#B2C7FF"/>
</linearGradient>
<linearGradient id="paint31_linear_9_2735" x1="171.191" y1="38.5279" x2="171.524" y2="63.5645" gradientUnits="userSpaceOnUse">
<stop stop-color="#D1DEFF"/>
<stop offset="1" stop-color="#B2C7FF"/>
</linearGradient>
<linearGradient id="paint32_linear_9_2735" x1="142.047" y1="38.916" x2="142.38" y2="63.9525" gradientUnits="userSpaceOnUse">
<stop stop-color="#D1DEFF"/>
<stop offset="1" stop-color="#B2C7FF"/>
</linearGradient>
<linearGradient id="paint33_linear_9_2735" x1="144.671" y1="80.0726" x2="144.944" y2="100.607" gradientUnits="userSpaceOnUse">
<stop stop-color="#D1DEFF"/>
<stop offset="1" stop-color="#B2C7FF"/>
</linearGradient>
<linearGradient id="paint34_linear_9_2735" x1="127.428" y1="79.8816" x2="127.707" y2="100.823" gradientUnits="userSpaceOnUse">
<stop stop-color="#EBF2FF"/>
<stop offset="1" stop-color="#E1E8FF"/>
</linearGradient>
<linearGradient id="paint35_linear_9_2735" x1="128.046" y1="86.4124" x2="138.902" y2="86.4124" gradientUnits="userSpaceOnUse">
<stop stop-color="#D1DEFF"/>
<stop offset="1" stop-color="#B2C7FF"/>
</linearGradient>
<linearGradient id="paint36_linear_9_2735" x1="128.191" y1="90.3555" x2="143.126" y2="90.3555" gradientUnits="userSpaceOnUse">
<stop stop-color="#D1DEFF"/>
<stop offset="1" stop-color="#B2C7FF"/>
</linearGradient>
<linearGradient id="paint37_linear_9_2735" x1="128.191" y1="92.1831" x2="143.126" y2="92.1831" gradientUnits="userSpaceOnUse">
<stop stop-color="#D1DEFF"/>
<stop offset="1" stop-color="#B2C7FF"/>
</linearGradient>
<linearGradient id="paint38_linear_9_2735" x1="128.191" y1="94.0107" x2="143.126" y2="94.0107" gradientUnits="userSpaceOnUse">
<stop stop-color="#D1DEFF"/>
<stop offset="1" stop-color="#B2C7FF"/>
</linearGradient>
<linearGradient id="paint39_linear_9_2735" x1="128.191" y1="95.8382" x2="143.126" y2="95.8382" gradientUnits="userSpaceOnUse">
<stop stop-color="#D1DEFF"/>
<stop offset="1" stop-color="#B2C7FF"/>
</linearGradient>
<linearGradient id="paint40_linear_9_2735" x1="128.191" y1="95.8382" x2="143.126" y2="95.8382" gradientUnits="userSpaceOnUse">
<stop stop-color="#D1DEFF"/>
<stop offset="1" stop-color="#B2C7FF"/>
</linearGradient>
<linearGradient id="paint41_linear_9_2735" x1="128.191" y1="95.8382" x2="143.126" y2="95.8382" gradientUnits="userSpaceOnUse">
<stop stop-color="#D1DEFF"/>
<stop offset="1" stop-color="#B2C7FF"/>
</linearGradient>
<linearGradient id="paint42_linear_9_2735" x1="184.835" y1="80.0726" x2="185.108" y2="100.607" gradientUnits="userSpaceOnUse">
<stop stop-color="#D1DEFF"/>
<stop offset="1" stop-color="#B2C7FF"/>
</linearGradient>
<linearGradient id="paint43_linear_9_2735" x1="167.592" y1="79.8816" x2="167.871" y2="100.823" gradientUnits="userSpaceOnUse">
<stop stop-color="#EBF2FF"/>
<stop offset="1" stop-color="#E1E8FF"/>
</linearGradient>
<linearGradient id="paint44_linear_9_2735" x1="158.012" y1="83.3098" x2="160.021" y2="97.3879" gradientUnits="userSpaceOnUse">
<stop stop-color="#909EFF"/>
<stop offset="1" stop-color="#6977E3"/>
</linearGradient>
<linearGradient id="paint45_linear_9_2735" x1="168.21" y1="86.4124" x2="179.066" y2="86.4124" gradientUnits="userSpaceOnUse">
<stop stop-color="#D1DEFF"/>
<stop offset="1" stop-color="#B2C7FF"/>
</linearGradient>
<linearGradient id="paint46_linear_9_2735" x1="168.355" y1="90.3555" x2="183.29" y2="90.3555" gradientUnits="userSpaceOnUse">
<stop stop-color="#D1DEFF"/>
<stop offset="1" stop-color="#B2C7FF"/>
</linearGradient>
<linearGradient id="paint47_linear_9_2735" x1="168.355" y1="92.1831" x2="183.29" y2="92.1831" gradientUnits="userSpaceOnUse">
<stop stop-color="#D1DEFF"/>
<stop offset="1" stop-color="#B2C7FF"/>
</linearGradient>
<linearGradient id="paint48_linear_9_2735" x1="168.355" y1="94.0107" x2="183.29" y2="94.0107" gradientUnits="userSpaceOnUse">
<stop stop-color="#D1DEFF"/>
<stop offset="1" stop-color="#B2C7FF"/>
</linearGradient>
<linearGradient id="paint49_linear_9_2735" x1="168.355" y1="95.8382" x2="183.29" y2="95.8382" gradientUnits="userSpaceOnUse">
<stop stop-color="#D1DEFF"/>
<stop offset="1" stop-color="#B2C7FF"/>
</linearGradient>
<linearGradient id="paint50_linear_9_2735" x1="168.355" y1="95.8382" x2="183.29" y2="95.8382" gradientUnits="userSpaceOnUse">
<stop stop-color="#D1DEFF"/>
<stop offset="1" stop-color="#B2C7FF"/>
</linearGradient>
<linearGradient id="paint51_linear_9_2735" x1="168.355" y1="95.8382" x2="183.29" y2="95.8382" gradientUnits="userSpaceOnUse">
<stop stop-color="#D1DEFF"/>
<stop offset="1" stop-color="#B2C7FF"/>
</linearGradient>
<linearGradient id="paint52_linear_9_2735" x1="56.824" y1="42.7782" x2="93.4465" y2="42.7782" gradientUnits="userSpaceOnUse">
<stop stop-color="#909EFF"/>
<stop offset="0.8529" stop-color="#6F7DE7"/>
<stop offset="1" stop-color="#6977E3"/>
</linearGradient>
<linearGradient id="paint53_linear_9_2735" x1="83.4178" y1="39.0099" x2="60.3595" y2="47.8078" gradientUnits="userSpaceOnUse">
<stop stop-color="#909EFF"/>
<stop offset="1" stop-color="#6977E3"/>
</linearGradient>
<linearGradient id="paint54_linear_9_2735" x1="194.947" y1="94.2546" x2="231.57" y2="94.2546" gradientUnits="userSpaceOnUse">
<stop stop-color="#909EFF"/>
<stop offset="0.8529" stop-color="#6F7DE7"/>
<stop offset="1" stop-color="#6977E3"/>
</linearGradient>
<linearGradient id="paint55_linear_9_2735" x1="221.541" y1="90.4863" x2="198.483" y2="99.2842" gradientUnits="userSpaceOnUse">
<stop stop-color="#909EFF"/>
<stop offset="1" stop-color="#6977E3"/>
</linearGradient>
<linearGradient id="paint56_linear_9_2735" x1="209.109" y1="38.4438" x2="210.731" y2="38.4438" gradientUnits="userSpaceOnUse">
<stop stop-color="#F34B6D"/>
<stop offset="1" stop-color="#E24067"/>
</linearGradient>
<linearGradient id="paint57_linear_9_2735" x1="90.3127" y1="85.4621" x2="91.0904" y2="85.4621" gradientUnits="userSpaceOnUse">
<stop stop-color="#FADF68"/>
<stop offset="1" stop-color="#EAC250"/>
</linearGradient>
<linearGradient id="paint58_linear_9_2735" x1="91.6662" y1="82.2836" x2="64.2548" y2="88.6044" gradientUnits="userSpaceOnUse">
<stop stop-color="#FADF68"/>
<stop offset="1" stop-color="#EAC250"/>
</linearGradient>
<linearGradient id="paint59_linear_9_2735" x1="138.947" y1="6.83078" x2="139.632" y2="6.83078" gradientUnits="userSpaceOnUse">
<stop stop-color="#3DCFA4"/>
<stop offset="1" stop-color="#30BB93"/>
</linearGradient>
<linearGradient id="paint60_linear_9_2735" x1="140.14" y1="4.02991" x2="115.985" y2="9.59971" gradientUnits="userSpaceOnUse">
<stop stop-color="#3DCFA4"/>
<stop offset="1" stop-color="#30BB93"/>
</linearGradient>
</defs>
</svg>
